<svg width="57" height="56" viewBox="0 0 57 56" fill="none" xmlns="http://www.w3.org/2000/svg">
<rect x="0.666626" width="56" height="56" rx="28" fill="#4DDD96"/>
<path d="M35.6666 21L21.6666 35M25.6666 23C25.6666 24.1046 24.7712 25 23.6666 25C22.5621 25 21.6666 24.1046 21.6666 23C21.6666 21.8954 22.5621 21 23.6666 21C24.7712 21 25.6666 21.8954 25.6666 23ZM35.6666 33C35.6666 34.1046 34.7712 35 33.6666 35C32.562 35 31.6666 34.1046 31.6666 33C31.6666 31.8954 32.562 31 33.6666 31C34.7712 31 35.6666 31.8954 35.6666 33Z" stroke="white" stroke-width="2" stroke-linecap="round" stroke-linejoin="round"/>
</svg>
