<svg width="56" height="56" viewBox="0 0 56 56" fill="none" xmlns="http://www.w3.org/2000/svg">
<rect width="56" height="56" rx="28" fill="#4DDD96"/>
<path d="M25.213 30.5003C25.5252 31.0948 26.1486 31.5003 26.8667 31.5003H29C30.1046 31.5003 31 30.6049 31 29.5003C31 28.3957 30.1046 27.5003 29 27.5003H27C25.8954 27.5003 25 26.6049 25 25.5004C25 24.3958 25.8954 23.5004 27 23.5004H29.1333C29.8514 23.5004 30.4748 23.9059 30.787 24.5004M28 22.0004V23.5004M28 31.5003V33.0003M36 28.0003C36 32.9088 30.646 36.4787 28.698 37.6152C28.4766 37.7444 28.3659 37.8089 28.2097 37.8424C28.0884 37.8684 27.9116 37.8684 27.7903 37.8424C27.6341 37.8089 27.5234 37.7444 27.302 37.6152C25.354 36.4787 20 32.9088 20 28.0003V23.218C20 22.4184 20 22.0187 20.1308 21.6751C20.2463 21.3715 20.434 21.1006 20.6777 20.8859C20.9535 20.6428 21.3278 20.5024 22.0764 20.2217L27.4382 18.211C27.6461 18.1331 27.75 18.0941 27.857 18.0786C27.9518 18.0649 28.0482 18.0649 28.143 18.0786C28.25 18.0941 28.3539 18.1331 28.5618 18.211L33.9236 20.2217C34.6722 20.5024 35.0465 20.6428 35.3223 20.8859C35.566 21.1006 35.7537 21.3715 35.8692 21.6751C36 22.0187 36 22.4184 36 23.218V28.0003Z" stroke="white" stroke-width="2" stroke-linecap="round" stroke-linejoin="round"/>
</svg>
