<svg width="64" height="64" viewBox="0 0 64 64" fill="none" xmlns="http://www.w3.org/2000/svg">
<rect x="6" y="6" width="52" height="52" rx="26" fill="#4DDD96"/>
<path d="M38.8889 36L38.0122 35.5189L38.8889 36ZM25.1109 36L24.2342 36.4811L25.1109 36ZM23.0251 28.2087L22.0264 28.2591L23.0251 28.2087ZM37.2549 38.2795L38.011 38.9339H38.011L37.2549 38.2795ZM26.7449 38.2795L27.501 37.625L26.7449 38.2795ZM40.9828 27.6369L41.9821 27.6752L40.9828 27.6369ZM28.9998 31C28.4476 31 27.9998 31.4477 27.9998 32C27.9998 32.5523 28.4476 33 28.9998 33V31ZM34.9998 33C35.5521 33 35.9998 32.5523 35.9998 32C35.9998 31.4477 35.5521 31 34.9998 31V33ZM30.9998 35C30.9998 35.5523 31.4476 36 31.9998 36C32.5521 36 32.9998 35.5523 32.9998 35H30.9998ZM32.9998 29C32.9998 28.4477 32.5521 28 31.9998 28C31.4476 28 30.9998 28.4477 30.9998 29H32.9998ZM39.9835 27.5986C39.9051 29.6473 39.5053 32.7979 38.0122 35.5189L39.7656 36.4811C41.4761 33.3638 41.8987 29.8523 41.9821 27.6752L39.9835 27.5986ZM38.0122 35.5189C37.6345 36.2073 37.1077 36.9215 36.4988 37.625L38.011 38.9339C38.6769 38.1646 39.2981 37.3331 39.7656 36.4811L38.0122 35.5189ZM27.501 37.625C26.8921 36.9215 26.3653 36.2073 25.9876 35.5189L24.2342 36.4811C24.7017 37.3331 25.3229 38.1646 25.9888 38.9339L27.501 37.625ZM25.9876 35.5189C24.5342 32.8703 24.1183 30.0289 24.0238 28.1582L22.0264 28.2591C22.1289 30.2901 22.58 33.4663 24.2342 36.4811L25.9876 35.5189ZM25.1705 27.0833H25.4794V25.0833H25.1705V27.0833ZM38.2287 26.5H38.8181V24.5H38.2287V26.5ZM35.4787 23.75C35.4787 25.2688 36.71 26.5 38.2287 26.5V24.5C37.8145 24.5 37.4787 24.1642 37.4787 23.75H35.4787ZM25.4794 27.0833C27.1593 27.0833 28.5211 25.7215 28.5211 24.0417H26.5211C26.5211 24.617 26.0547 25.0833 25.4794 25.0833V27.0833ZM29.5627 21C27.8829 21 26.5211 22.3618 26.5211 24.0417H28.5211C28.5211 23.4664 28.9874 23 29.5627 23V21ZM24.0238 28.1582C23.9957 27.6013 24.453 27.0833 25.1705 27.0833V25.0833C23.4718 25.0833 21.9327 26.4029 22.0264 28.2591L24.0238 28.1582ZM36.4988 37.625C35.4819 38.7998 34.82 39.556 34.1508 40.0462C33.5477 40.4881 32.9375 40.7107 31.9999 40.7107V42.7107C33.3474 42.7107 34.3748 42.3615 35.3328 41.6596C36.2249 41.006 37.0479 40.0466 38.011 38.9339L36.4988 37.625ZM25.9888 38.9339C26.9519 40.0466 27.7749 41.006 28.667 41.6596C29.625 42.3615 30.6524 42.7107 31.9999 42.7107V40.7107C31.0623 40.7107 30.4521 40.4881 29.8489 40.0462C29.1798 39.556 28.5179 38.7998 27.501 37.625L25.9888 38.9339ZM34.7287 23C35.1429 23 35.4787 23.3358 35.4787 23.75H37.4787C37.4787 22.2312 36.2475 21 34.7287 21V23ZM41.9821 27.6752C42.0527 25.8311 40.5274 24.5 38.8181 24.5V26.5C39.5312 26.5 40.0056 27.022 39.9835 27.5986L41.9821 27.6752ZM28.9998 33H34.9998V31H28.9998V33ZM29.5627 23H34.7287V21H29.5627V23ZM32.9998 35V32H30.9998V35H32.9998ZM32.9998 32V29H30.9998V32H32.9998Z" fill="#FAFAFA"/>
<rect x="6" y="6" width="52" height="52" rx="26" stroke="#EAF7F4" stroke-width="12"/>
</svg>
