<svg width="32" height="32" viewBox="0 0 32 32" fill="none" xmlns="http://www.w3.org/2000/svg">
<g id="Frame 12">
<path id="Vector" d="M18.2837 26.9898L23.7769 21.4965C24.5865 20.6869 24.9914 20.2821 25.132 19.8042C25.2556 19.3839 25.2401 18.9261 25.0876 18.4964C24.9142 18.0079 24.481 17.5747 23.6145 16.7082L13.0943 6.18802C12.2279 5.32157 11.7946 4.88831 11.3061 4.71496C10.8765 4.56243 10.4186 4.54691 9.99833 4.67061C9.52048 4.81119 9.11564 5.21603 8.30604 6.02563L2.81277 11.5189C2.00317 12.3285 1.59836 12.7333 1.45776 13.2112C1.33405 13.6315 1.3496 14.0893 1.50209 14.519C1.67545 15.0075 2.10871 15.4407 2.97516 16.3072L13.4954 26.8274C14.3618 27.6938 14.795 28.1271 15.2835 28.3004C15.7132 28.453 16.1711 28.4685 16.5914 28.3448C17.0692 28.2042 17.474 27.7994 18.2837 26.9898Z" stroke="#4DDD96" stroke-linecap="round" stroke-linejoin="round"/>
<path id="Vector_2" d="M8.25631 21.4633L13.7496 26.9566C14.5592 27.7662 14.964 28.1711 15.4415 28.312C15.8615 28.436 16.3188 28.421 16.7479 28.2691C17.2357 28.0964 17.668 27.6641 18.5325 26.7995L29.0301 16.302C29.8947 15.4374 30.327 15.0051 30.4997 14.5173C30.6516 14.0883 30.6666 13.6309 30.5426 13.2109C30.4016 12.7335 29.9968 12.3286 29.1872 11.519L23.6939 6.02575C22.8843 5.21615 22.4795 4.81134 22.002 4.67038C21.582 4.54635 21.1247 4.56139 20.6956 4.71326C20.2078 4.8859 19.7755 5.31823 18.9109 6.18282L8.41337 16.6804C7.54879 17.545 7.11649 17.9773 6.94383 18.465C6.79195 18.8941 6.77692 19.3514 6.90093 19.7714C7.0419 20.2489 7.4467 20.6537 8.25631 21.4633Z" fill="#4DDD96" stroke="#4DDD96" stroke-linecap="round" stroke-linejoin="round"/>
</g>
</svg>
