<svg width="57" height="56" viewBox="0 0 57 56" fill="none" xmlns="http://www.w3.org/2000/svg">
<path d="M23.498 29L24.2825 30.5689C24.548 31.0999 24.6807 31.3654 24.8581 31.5954C25.0154 31.7996 25.1985 31.9826 25.4026 32.14C25.6327 32.3173 25.8981 32.4501 26.4291 32.7155L27.998 33.5L26.4291 34.2845C25.8981 34.5499 25.6327 34.6827 25.4026 34.86C25.1985 35.0174 25.0154 35.2004 24.8581 35.4046C24.6807 35.6346 24.548 35.9001 24.2825 36.4311L23.498 38L22.7136 36.4311C22.4481 35.9001 22.3154 35.6346 22.138 35.4046C21.9807 35.2004 21.7976 35.0174 21.5935 34.86C21.3634 34.6827 21.0979 34.5499 20.567 34.2845L18.998 33.5L20.567 32.7155C21.0979 32.4501 21.3634 32.3173 21.5935 32.14C21.7976 31.9826 21.9807 31.7996 22.138 31.5954C22.3154 31.3654 22.4481 31.0999 22.7136 30.5689L23.498 29ZM31.998 18L33.1766 21.0644C33.4586 21.7977 33.5996 22.1643 33.8189 22.4726C34.0133 22.746 34.252 22.9848 34.5254 23.1791C34.8337 23.3984 35.2004 23.5394 35.9336 23.8214L38.998 25L35.9336 26.1786C35.2004 26.4606 34.8337 26.6016 34.5254 26.8209C34.252 27.0153 34.0133 27.254 33.8189 27.5274C33.5996 27.8357 33.4586 28.2024 33.1766 28.9356L31.998 32L30.8194 28.9356C30.5374 28.2024 30.3964 27.8357 30.1771 27.5274C29.9827 27.254 29.744 27.0153 29.4706 26.8209C29.1623 26.6016 28.7956 26.4606 28.0624 26.1786L24.998 25L28.0624 23.8214C28.7956 23.5394 29.1623 23.3984 29.4706 23.1791C29.744 22.9848 29.9827 22.746 30.1771 22.4726C30.3964 22.1643 30.5374 21.7977 30.8194 21.0644L31.998 18Z" stroke="#3CB779" stroke-width="2" stroke-linecap="round" stroke-linejoin="round"/>
<rect x="1.49805" y="0.5" width="55" height="55" rx="7.5" stroke="#85E5B5"/>
</svg>
