<svg width="375" height="258" viewBox="0 0 375 258" fill="none" xmlns="http://www.w3.org/2000/svg">
<g clip-path="url(#clip0_219_9788)">
<rect width="375" height="258" fill="white"/>
<rect x="-6.48926" y="-17" width="48.5103" height="48.5103" stroke="#D5F2E4" stroke-opacity="0.2" stroke-width="0.673755"/>
<rect x="42.0205" y="-17" width="48.5103" height="48.5103" stroke="#D5F2E4" stroke-opacity="0.2" stroke-width="0.673755"/>
<rect x="90.5312" y="-17" width="48.5103" height="48.5103" stroke="#D5F2E4" stroke-opacity="0.2" stroke-width="0.673755"/>
<rect x="139.041" y="-17" width="48.5103" height="48.5103" stroke="#D5F2E4" stroke-opacity="0.2" stroke-width="0.673755"/>
<rect x="187.552" y="-17" width="48.5103" height="48.5103" stroke="#D5F2E4" stroke-opacity="0.2" stroke-width="0.673755"/>
<rect x="236.062" y="-17" width="48.5103" height="48.5103" stroke="#D5F2E4" stroke-opacity="0.2" stroke-width="0.673755"/>
<rect x="284.572" y="-17" width="48.5103" height="48.5103" stroke="#D5F2E4" stroke-opacity="0.2" stroke-width="0.673755"/>
<rect x="333.083" y="-17" width="48.5103" height="48.5103" stroke="#D5F2E4" stroke-opacity="0.2" stroke-width="0.673755"/>
<rect x="-6.48926" y="31.5098" width="48.5103" height="48.5103" stroke="#D5F2E4" stroke-opacity="0.2" stroke-width="0.673755"/>
<rect x="42.0205" y="31.5098" width="48.5103" height="48.5103" stroke="#D5F2E4" stroke-opacity="0.2" stroke-width="0.673755"/>
<rect x="90.5312" y="31.5098" width="48.5103" height="48.5103" stroke="#D5F2E4" stroke-opacity="0.2" stroke-width="0.673755"/>
<rect x="139.041" y="31.5098" width="48.5103" height="48.5103" stroke="#D5F2E4" stroke-opacity="0.2" stroke-width="0.673755"/>
<rect x="187.552" y="31.5098" width="48.5103" height="48.5103" stroke="#D5F2E4" stroke-opacity="0.2" stroke-width="0.673755"/>
<rect x="236.062" y="31.5098" width="48.5103" height="48.5103" stroke="#D5F2E4" stroke-opacity="0.2" stroke-width="0.673755"/>
<rect x="284.572" y="31.5098" width="48.5103" height="48.5103" stroke="#D5F2E4" stroke-opacity="0.2" stroke-width="0.673755"/>
<rect x="333.083" y="31.5098" width="48.5103" height="48.5103" stroke="#D5F2E4" stroke-opacity="0.2" stroke-width="0.673755"/>
<rect x="-6.48926" y="80.0215" width="48.5103" height="48.5103" stroke="#D5F2E4" stroke-opacity="0.2" stroke-width="0.673755"/>
<rect x="42.0205" y="80.0215" width="48.5103" height="48.5103" stroke="#D5F2E4" stroke-opacity="0.2" stroke-width="0.673755"/>
<rect x="90.5312" y="80.0215" width="48.5103" height="48.5103" stroke="#D5F2E4" stroke-opacity="0.2" stroke-width="0.673755"/>
<rect x="139.041" y="80.0215" width="48.5103" height="48.5103" stroke="#D5F2E4" stroke-opacity="0.2" stroke-width="0.673755"/>
<rect x="187.552" y="80.0215" width="48.5103" height="48.5103" stroke="#D5F2E4" stroke-opacity="0.2" stroke-width="0.673755"/>
<rect x="236.062" y="80.0215" width="48.5103" height="48.5103" stroke="#D5F2E4" stroke-opacity="0.2" stroke-width="0.673755"/>
<rect x="284.572" y="80.0215" width="48.5103" height="48.5103" stroke="#D5F2E4" stroke-opacity="0.2" stroke-width="0.673755"/>
<rect x="333.083" y="80.0215" width="48.5103" height="48.5103" stroke="#D5F2E4" stroke-opacity="0.2" stroke-width="0.673755"/>
<rect x="-6.48926" y="128.531" width="48.5103" height="48.5103" stroke="#D5F2E4" stroke-opacity="0.2" stroke-width="0.673755"/>
<rect x="42.0205" y="128.531" width="48.5103" height="48.5103" stroke="#D5F2E4" stroke-opacity="0.2" stroke-width="0.673755"/>
<rect x="90.5312" y="128.531" width="48.5103" height="48.5103" stroke="#D5F2E4" stroke-opacity="0.2" stroke-width="0.673755"/>
<rect x="139.041" y="128.531" width="48.5103" height="48.5103" stroke="#D5F2E4" stroke-opacity="0.2" stroke-width="0.673755"/>
<rect x="187.552" y="128.531" width="48.5103" height="48.5103" stroke="#D5F2E4" stroke-opacity="0.2" stroke-width="0.673755"/>
<rect x="236.062" y="128.531" width="48.5103" height="48.5103" stroke="#D5F2E4" stroke-opacity="0.2" stroke-width="0.673755"/>
<rect x="284.572" y="128.531" width="48.5103" height="48.5103" stroke="#D5F2E4" stroke-opacity="0.2" stroke-width="0.673755"/>
<rect x="333.083" y="128.531" width="48.5103" height="48.5103" stroke="#D5F2E4" stroke-opacity="0.2" stroke-width="0.673755"/>
<rect x="-6.48926" y="177.041" width="48.5103" height="48.5103" stroke="#D5F2E4" stroke-opacity="0.2" stroke-width="0.673755"/>
<rect x="42.0205" y="177.041" width="48.5103" height="48.5103" stroke="#D5F2E4" stroke-opacity="0.2" stroke-width="0.673755"/>
<rect x="90.5312" y="177.041" width="48.5103" height="48.5103" stroke="#D5F2E4" stroke-opacity="0.2" stroke-width="0.673755"/>
<rect x="139.041" y="177.041" width="48.5103" height="48.5103" stroke="#D5F2E4" stroke-opacity="0.2" stroke-width="0.673755"/>
<rect x="187.552" y="177.041" width="48.5103" height="48.5103" stroke="#D5F2E4" stroke-opacity="0.2" stroke-width="0.673755"/>
<rect x="236.062" y="177.041" width="48.5103" height="48.5103" stroke="#D5F2E4" stroke-opacity="0.2" stroke-width="0.673755"/>
<rect x="284.572" y="177.041" width="48.5103" height="48.5103" stroke="#D5F2E4" stroke-opacity="0.2" stroke-width="0.673755"/>
<rect x="333.083" y="177.041" width="48.5103" height="48.5103" stroke="#D5F2E4" stroke-opacity="0.2" stroke-width="0.673755"/>
<rect x="-6.48926" y="225.551" width="48.5103" height="48.5103" stroke="#D5F2E4" stroke-opacity="0.2" stroke-width="0.673755"/>
<rect x="42.0205" y="225.551" width="48.5103" height="48.5103" stroke="#D5F2E4" stroke-opacity="0.2" stroke-width="0.673755"/>
<rect x="90.5312" y="225.551" width="48.5103" height="48.5103" stroke="#D5F2E4" stroke-opacity="0.2" stroke-width="0.673755"/>
<rect x="139.041" y="225.551" width="48.5103" height="48.5103" stroke="#D5F2E4" stroke-opacity="0.2" stroke-width="0.673755"/>
<rect x="187.552" y="225.551" width="48.5103" height="48.5103" stroke="#D5F2E4" stroke-opacity="0.2" stroke-width="0.673755"/>
<rect x="236.062" y="225.551" width="48.5103" height="48.5103" stroke="#D5F2E4" stroke-opacity="0.2" stroke-width="0.673755"/>
<rect x="284.572" y="225.551" width="48.5103" height="48.5103" stroke="#D5F2E4" stroke-opacity="0.2" stroke-width="0.673755"/>
<rect x="333.083" y="225.551" width="48.5103" height="48.5103" stroke="#D5F2E4" stroke-opacity="0.2" stroke-width="0.673755"/>
<rect width="64.6457" height="20.3228" rx="10.1614" transform="matrix(0.999272 -0.0381531 0.0778022 0.996969 10.127 54.2812)" fill="#0B3420"/>
<path d="M24.1752 61.2927L24.6119 66.8896L23.834 66.9193L20.6622 62.9234L20.6102 62.9254L20.9305 67.0302L20.0841 67.0625L19.6473 61.4656L20.4307 61.4357L23.6057 65.4369L23.6577 65.4349L23.337 61.3247L24.1752 61.2927ZM27.5597 66.862C27.1653 66.8771 26.814 66.8 26.5059 66.6309C26.1979 66.4617 25.9499 66.2181 25.7621 65.9C25.5742 65.5819 25.4634 65.2061 25.4296 64.7725C25.3956 64.337 25.4471 63.9532 25.5842 63.6208C25.7213 63.2885 25.9298 63.0266 26.2097 62.835C26.4896 62.6434 26.8268 62.54 27.2213 62.525C27.6157 62.5099 27.967 62.587 28.275 62.7561C28.5831 62.9253 28.8311 63.1698 29.0191 63.4897C29.2071 63.8096 29.3181 64.1873 29.3521 64.6227C29.3859 65.0563 29.3342 65.4384 29.197 65.7689C29.0598 66.0994 28.8512 66.3604 28.5713 66.552C28.2913 66.7436 27.9542 66.847 27.5597 66.862ZM27.5089 66.176C27.7646 66.1662 27.9712 66.0907 28.1286 65.9495C28.2861 65.8082 28.3963 65.624 28.4591 65.3969C28.5238 65.1696 28.5457 64.9212 28.5246 64.6516C28.5037 64.3838 28.4434 64.1394 28.3438 63.9184C28.2458 63.6956 28.1075 63.519 27.9288 63.3888C27.7501 63.2586 27.533 63.1983 27.2773 63.2081C27.0198 63.2179 26.8115 63.2944 26.6524 63.4375C26.495 63.5806 26.3841 63.7666 26.3195 63.9957C26.2567 64.2229 26.2357 64.4703 26.2566 64.7382C26.2776 65.0078 26.3371 65.2531 26.4349 65.4742C26.5346 65.6951 26.6737 65.8698 26.8522 65.9982C27.0325 66.1265 27.2514 66.1858 27.5089 66.176ZM37.1902 63.6026C37.2369 64.2002 37.1674 64.7181 36.9818 65.1564C36.7961 65.593 36.5214 65.9342 36.1578 66.1801C35.7959 66.4242 35.373 66.5555 34.8891 66.5739C34.4033 66.5925 33.9607 66.4943 33.5611 66.2793C33.1632 66.0624 32.8379 65.7432 32.5852 65.3216C32.3325 64.9 32.183 64.3913 32.1365 63.7955C32.0898 63.1979 32.1594 62.6809 32.3451 62.2444C32.5307 61.8061 32.8044 61.4649 33.1663 61.2208C33.5299 60.9748 33.9546 60.8426 34.4404 60.824C34.9243 60.8056 35.3652 60.9048 35.7631 61.1216C36.1626 61.3366 36.4888 61.6549 36.7414 62.0765C36.994 62.4963 37.1436 63.005 37.1902 63.6026ZM36.352 63.6346C36.3165 63.1791 36.2126 62.7984 36.0404 62.4925C35.8698 62.1847 35.6505 61.9556 35.3823 61.805C35.1158 61.6525 34.8219 61.5824 34.5005 61.5947C34.1773 61.607 33.8951 61.6991 33.6539 61.871C33.4126 62.041 33.2302 62.2855 33.1067 62.6045C32.985 62.9216 32.9418 63.3079 32.9774 63.7634C33.0129 64.2189 33.116 64.6005 33.2865 64.9083C33.4587 65.2142 33.6781 65.4434 33.9446 65.5958C34.2109 65.7465 34.5057 65.8156 34.8289 65.8033C35.1503 65.791 35.4317 65.6999 35.673 65.5299C35.916 65.3579 36.0984 65.1134 36.2202 64.7963C36.3436 64.4773 36.3876 64.09 36.352 63.6346ZM41.6698 62.0281L40.4717 66.2841L39.5951 66.3175L37.7391 62.1782L38.6184 62.1447L39.936 65.3342L39.9798 65.3325L40.7905 62.0617L41.6698 62.0281ZM44.4439 66.2174C44.0294 66.2332 43.6655 66.1585 43.3522 65.9932C43.0406 65.826 42.791 65.5843 42.6033 65.268C42.4173 64.9498 42.3073 64.573 42.2733 64.1376C42.2397 63.7076 42.2905 63.3256 42.4256 62.9915C42.5626 62.6574 42.769 62.3928 43.045 62.1977C43.3228 62.0025 43.6571 61.8975 44.0479 61.8825C44.2853 61.8735 44.5185 61.9039 44.7474 61.9737C44.9763 62.0435 45.1858 62.1589 45.376 62.3197C45.5662 62.4806 45.7229 62.693 45.8461 62.9569C45.9691 63.219 46.0455 63.5404 46.0752 63.9212L46.0978 64.2109L42.7533 64.3385L42.7055 63.7264L45.2474 63.6293C45.2307 63.4144 45.172 63.2256 45.0714 63.0632C44.9707 62.8989 44.8371 62.7715 44.6707 62.681C44.5061 62.5905 44.3179 62.5492 44.1061 62.5573C43.876 62.5661 43.6795 62.6303 43.5167 62.7498C43.3555 62.8674 43.2354 63.0182 43.1564 63.2021C43.079 63.3841 43.0485 63.5799 43.0648 63.7894L43.1022 64.2677C43.124 64.5482 43.192 64.785 43.3059 64.978C43.4217 65.171 43.5732 65.3159 43.7602 65.4129C43.9471 65.5081 44.1602 65.5512 44.3994 65.542C44.5547 65.5361 44.6945 65.5088 44.8189 65.4602C44.9432 65.4098 45.0484 65.3382 45.1345 65.2453C45.2207 65.1525 45.2833 65.0396 45.3224 64.9065L46.1084 65.0163C46.0641 65.2464 45.9683 65.4502 45.821 65.6275C45.6753 65.8031 45.4857 65.9428 45.252 66.0467C45.0201 66.1488 44.7507 66.2056 44.4439 66.2174ZM47.1511 66.029L46.8235 61.8314L47.6151 61.8012L47.6672 62.468L47.711 62.4663C47.7701 62.2374 47.8913 62.0547 48.0748 61.9179C48.26 61.7793 48.4758 61.7052 48.7223 61.6958C48.7735 61.6939 48.8339 61.6934 48.9035 61.6944C48.975 61.6953 49.0311 61.6977 49.0717 61.7017L49.1327 62.4833C49.0991 62.4754 49.0399 62.4676 48.955 62.4599C48.87 62.4504 48.7855 62.4472 48.7015 62.4504C48.508 62.4578 48.3386 62.5054 48.1934 62.5931C48.05 62.679 47.94 62.7956 47.8636 62.9429C47.787 63.0883 47.7558 63.2522 47.7701 63.4343L47.9701 65.9978L47.1511 66.029ZM51.5422 65.9436C51.2026 65.9566 50.8927 65.8816 50.6125 65.7187C50.3341 65.5539 50.1065 65.3132 49.9298 64.9965C49.7548 64.6779 49.6495 64.2918 49.6141 63.8381C49.5787 63.3845 49.6242 62.9935 49.7506 62.6653C49.8788 62.3369 50.0696 62.082 50.3228 61.9006C50.5761 61.7192 50.8716 61.622 51.2094 61.6091C51.4706 61.5991 51.684 61.6348 51.8497 61.7162C52.0171 61.7957 52.1491 61.8912 52.2457 62.0026C52.3441 62.114 52.4214 62.2124 52.4775 62.298L52.5268 62.2961L52.3645 60.2164L53.1835 60.1852L53.6203 65.782L52.8205 65.8126L52.7695 65.1594L52.701 65.162C52.6587 65.2532 52.5954 65.3579 52.5113 65.4763C52.4289 65.5945 52.3107 65.6995 52.1567 65.7913C52.0027 65.8831 51.7979 65.9338 51.5422 65.9436ZM51.6686 65.2398C51.9042 65.2308 52.0984 65.1613 52.2512 65.0312C52.4058 64.8992 52.5164 64.7205 52.583 64.495C52.6515 64.2694 52.6742 64.0091 52.6512 63.7139C52.6285 63.4224 52.5666 63.169 52.4655 62.9536C52.3644 62.7381 52.2279 62.5725 52.0558 62.4566C51.8838 62.3408 51.6781 62.2874 51.4389 62.2965C51.1924 62.306 50.9919 62.3776 50.8375 62.5114C50.6831 62.6452 50.5725 62.8239 50.5057 63.0476C50.4408 63.2712 50.4191 63.5214 50.4407 63.7983C50.4626 64.0789 50.5243 64.3296 50.6258 64.5505C50.7273 64.7714 50.8653 64.9443 51.0399 65.0692C51.2162 65.1922 51.4257 65.2491 51.6686 65.2398ZM54.7892 65.7374L54.4617 61.5397L55.2533 61.5095L55.3053 62.1763L55.3491 62.1747C55.4082 61.9458 55.5295 61.763 55.713 61.6263C55.8981 61.4876 56.114 61.4136 56.3605 61.4042C56.4116 61.4023 56.472 61.4018 56.5417 61.4028C56.6132 61.4037 56.6692 61.4061 56.7098 61.4101L56.7708 62.1916C56.7373 62.1838 56.678 62.176 56.5932 62.1683C56.5082 62.1587 56.4237 62.1556 56.3397 62.1588C56.1461 62.1662 55.9768 62.2137 55.8316 62.3015C55.6881 62.3874 55.5781 62.504 55.5017 62.6512C55.4252 62.7967 55.394 62.9605 55.4082 63.1427L55.6083 65.7061L54.7892 65.7374ZM58.9436 65.672C58.677 65.6822 58.4321 65.6422 58.2089 65.552C57.9856 65.46 57.8036 65.3217 57.6628 65.137C57.5238 64.9523 57.4436 64.7224 57.4222 64.4473C57.4037 64.2104 57.4341 64.0137 57.5135 63.8572C57.5928 63.7007 57.7066 63.5748 57.8549 63.4796C58.0031 63.3844 58.1714 63.3104 58.3596 63.2575C58.5477 63.2047 58.7404 63.1626 58.9376 63.1313C59.1874 63.0925 59.39 63.061 59.5457 63.0368C59.7011 63.0108 59.8128 62.9745 59.8806 62.9281C59.9484 62.8817 59.9785 62.8092 59.9708 62.7109L59.9693 62.6917C59.9507 62.4531 59.8687 62.2707 59.7233 62.1447C59.5797 62.0186 59.3756 61.9606 59.1108 61.9707C58.8351 61.9813 58.6225 62.0506 58.4732 62.1787C58.3255 62.305 58.2273 62.443 58.1786 62.5929L57.3952 62.4474C57.4666 62.1888 57.5838 61.9779 57.7469 61.8145C57.9117 61.6492 58.1063 61.5267 58.3309 61.4468C58.5553 61.3652 58.7944 61.3195 59.0482 61.3098C59.2162 61.3034 59.3958 61.3166 59.5871 61.3495C59.78 61.3805 59.9626 61.4448 60.1351 61.5424C60.3094 61.6399 60.457 61.7832 60.578 61.9723C60.6988 62.1595 60.7712 62.4062 60.7951 62.7123L61.0126 65.4998L60.2128 65.5303L60.168 64.9564L60.1351 64.9577C60.0904 65.0654 60.0191 65.1722 59.9211 65.2783C59.8232 65.3844 59.6937 65.4743 59.5328 65.5481C59.3719 65.6218 59.1755 65.6631 58.9436 65.672ZM59.0704 65.0093C59.2969 65.0006 59.487 64.9486 59.6407 64.8532C59.7963 64.7577 59.9104 64.6364 59.9832 64.4893C60.0576 64.3403 60.0884 64.1828 60.0755 64.0171L60.0332 63.476C60.0063 63.5062 59.9518 63.5357 59.8698 63.5644C59.7895 63.5912 59.6971 63.6158 59.5926 63.638C59.4879 63.6585 59.386 63.6779 59.2867 63.6963C59.1872 63.7129 59.1041 63.7271 59.0372 63.7387C58.8799 63.7648 58.7374 63.8041 58.6096 63.8565C58.4836 63.9088 58.3849 63.9811 58.3133 64.0734C58.2435 64.1637 58.2142 64.2818 58.2256 64.4276C58.2414 64.6298 58.3282 64.78 58.486 64.8781C58.6437 64.9744 58.8385 65.0181 59.0704 65.0093ZM63.7782 61.184L63.8294 61.8399L61.4518 61.9307L61.4006 61.2748L63.7782 61.184ZM62.3801 65.4476L62.0146 60.7635C61.9941 60.5011 62.0347 60.2812 62.1362 60.1037C62.2376 59.9244 62.3799 59.7883 62.5631 59.6955C62.7462 59.6008 62.9492 59.5492 63.172 59.5407C63.3363 59.5344 63.478 59.5427 63.597 59.5655C63.7158 59.5866 63.8044 59.607 63.8627 59.6267L63.7226 60.2953C63.6834 60.2859 63.6331 60.275 63.5717 60.2627C63.5102 60.2486 63.4365 60.2432 63.3507 60.2465C63.1516 60.2541 63.013 60.3087 62.9349 60.4104C62.8585 60.512 62.8276 60.6557 62.8421 60.8415L63.1991 65.4163L62.3801 65.4476ZM66.5872 61.0768L66.6384 61.7327L64.3403 61.8204L64.2891 61.1645L66.5872 61.0768ZM64.8269 60.1353L65.6459 60.104L65.9558 64.0749C65.9682 64.2334 66.0012 64.3518 66.055 64.4301C66.1085 64.5067 66.1739 64.5581 66.2511 64.5844C66.3299 64.6088 66.414 64.6193 66.5035 64.6158C66.5693 64.6133 66.6264 64.6066 66.675 64.5956C66.7236 64.5846 66.7614 64.5759 66.7884 64.5693L66.989 65.2387C66.9429 65.2587 66.8768 65.2795 66.7905 65.3011C66.7044 65.3245 66.5957 65.3396 66.4644 65.3464C66.2492 65.3583 66.0453 65.3277 65.8528 65.2547C65.6603 65.1816 65.5 65.0635 65.3718 64.9003C65.2437 64.737 65.1698 64.5288 65.15 64.2756L64.8269 60.1353Z" fill="#D5F2E4"/>
<rect x="0.186756" y="0.166251" width="64.2989" height="19.976" rx="9.98802" transform="matrix(0.999272 -0.0381531 0.0778022 0.996969 10.1142 54.2889)" stroke="#D5F2E4" stroke-opacity="0.2" stroke-width="0.346785"/>
<rect x="0.154771" y="0.181531" width="55.3045" height="17.9788" rx="8.98939" transform="matrix(0.998634 0.0522493 -0.106333 0.994331 259.283 205.098)" fill="#0B3420"/>
<path d="M271.033 212.342L270.55 216.858L269.921 216.825L267.97 213.392L267.928 213.39L267.574 216.702L266.89 216.666L267.373 212.151L268.006 212.184L269.959 215.62L270.001 215.623L270.355 212.307L271.033 212.342ZM272.92 217.05C272.602 217.034 272.331 216.946 272.109 216.788C271.887 216.63 271.724 216.417 271.621 216.149C271.517 215.88 271.484 215.571 271.522 215.221C271.559 214.87 271.658 214.566 271.817 214.31C271.977 214.054 272.183 213.859 272.436 213.726C272.69 213.593 272.976 213.535 273.295 213.551C273.613 213.568 273.884 213.655 274.106 213.813C274.328 213.971 274.491 214.185 274.594 214.455C274.697 214.725 274.73 215.036 274.693 215.387C274.655 215.737 274.557 216.039 274.398 216.294C274.238 216.549 274.032 216.743 273.779 216.876C273.525 217.009 273.239 217.067 272.92 217.05ZM272.982 216.497C273.189 216.508 273.366 216.462 273.513 216.361C273.66 216.259 273.776 216.12 273.861 215.942C273.946 215.765 274.001 215.567 274.024 215.35C274.047 215.134 274.035 214.934 273.988 214.749C273.943 214.564 273.858 214.412 273.734 214.295C273.61 214.177 273.445 214.113 273.238 214.103C273.03 214.092 272.851 214.138 272.702 214.241C272.554 214.344 272.438 214.485 272.352 214.664C272.267 214.841 272.214 215.038 272.191 215.254C272.167 215.471 272.179 215.672 272.224 215.857C272.271 216.041 272.357 216.191 272.481 216.307C272.607 216.423 272.774 216.486 272.982 216.497ZM281.137 215.141C281.085 215.623 280.952 216.033 280.738 216.371C280.524 216.707 280.252 216.96 279.924 217.131C279.597 217.3 279.238 217.374 278.847 217.354C278.454 217.333 278.113 217.222 277.825 217.021C277.538 216.818 277.324 216.539 277.184 216.183C277.044 215.826 277 215.408 277.051 214.927C277.103 214.445 277.235 214.036 277.449 213.7C277.664 213.362 277.934 213.109 278.261 212.94C278.59 212.769 278.95 212.694 279.343 212.715C279.734 212.735 280.073 212.847 280.36 213.05C280.649 213.251 280.864 213.53 281.004 213.886C281.144 214.241 281.188 214.659 281.137 215.141ZM280.459 215.106C280.498 214.738 280.472 214.426 280.379 214.168C280.288 213.909 280.146 213.709 279.953 213.569C279.762 213.428 279.536 213.35 279.276 213.337C279.015 213.323 278.775 213.376 278.556 213.496C278.337 213.615 278.154 213.797 278.007 214.044C277.862 214.289 277.77 214.595 277.731 214.963C277.692 215.33 277.717 215.644 277.808 215.903C277.901 216.16 278.043 216.36 278.234 216.501C278.426 216.641 278.652 216.718 278.913 216.732C279.173 216.746 279.413 216.693 279.632 216.574C279.852 216.454 280.035 216.272 280.18 216.027C280.327 215.78 280.42 215.473 280.459 215.106ZM284.967 214.206L283.371 217.528L282.663 217.491L281.789 214.04L282.5 214.077L283.083 216.728L283.118 216.73L284.256 214.169L284.967 214.206ZM286.57 217.764C286.235 217.747 285.954 217.661 285.727 217.505C285.502 217.349 285.337 217.137 285.234 216.87C285.132 216.601 285.1 216.291 285.137 215.94C285.174 215.593 285.272 215.291 285.43 215.033C285.59 214.775 285.795 214.578 286.046 214.442C286.298 214.306 286.582 214.246 286.898 214.263C287.09 214.273 287.272 214.314 287.446 214.387C287.619 214.46 287.77 214.567 287.899 214.71C288.027 214.853 288.122 215.034 288.181 215.255C288.241 215.474 288.254 215.737 288.221 216.044L288.196 216.278L285.493 216.136L285.545 215.642L287.6 215.75C287.619 215.576 287.6 215.421 287.543 215.283C287.487 215.144 287.399 215.033 287.279 214.948C287.16 214.864 287.015 214.817 286.844 214.808C286.658 214.798 286.491 214.835 286.342 214.919C286.195 215.001 286.076 215.114 285.985 215.255C285.896 215.395 285.843 215.55 285.825 215.719L285.783 216.105C285.759 216.331 285.778 216.526 285.841 216.689C285.905 216.852 286.005 216.979 286.141 217.07C286.277 217.16 286.441 217.21 286.635 217.22C286.76 217.227 286.877 217.215 286.984 217.185C287.091 217.154 287.186 217.104 287.269 217.036C287.352 216.968 287.419 216.882 287.47 216.778L288.085 216.924C288.015 217.105 287.908 217.261 287.763 217.392C287.62 217.522 287.447 217.62 287.244 217.687C287.043 217.752 286.818 217.777 286.57 217.764ZM288.771 217.811L289.133 214.424L289.773 214.458L289.716 214.996L289.751 214.998C289.833 214.819 289.957 214.681 290.125 214.585C290.294 214.487 290.478 214.444 290.678 214.454C290.719 214.456 290.768 214.46 290.823 214.466C290.881 214.472 290.925 214.478 290.957 214.484L290.89 215.115C290.864 215.106 290.818 215.096 290.751 215.083C290.684 215.069 290.617 215.061 290.549 215.057C290.392 215.049 290.249 215.075 290.12 215.134C289.992 215.193 289.886 215.278 289.803 215.391C289.72 215.501 289.67 215.63 289.654 215.777L289.433 217.846L288.771 217.811ZM292.309 218.063C292.034 218.048 291.797 217.966 291.596 217.815C291.397 217.662 291.25 217.453 291.155 217.186C291.062 216.918 291.035 216.601 291.075 216.235C291.114 215.869 291.208 215.559 291.359 215.306C291.511 215.052 291.702 214.862 291.932 214.735C292.162 214.608 292.414 214.552 292.687 214.566C292.898 214.577 293.064 214.621 293.185 214.698C293.308 214.774 293.399 214.86 293.46 214.957C293.523 215.053 293.57 215.138 293.603 215.21L293.642 215.212L293.822 213.534L294.484 213.569L294.001 218.085L293.354 218.051L293.411 217.524L293.355 217.521C293.308 217.591 293.241 217.67 293.156 217.759C293.073 217.848 292.962 217.923 292.825 217.985C292.687 218.048 292.515 218.073 292.309 218.063ZM292.515 217.508C292.705 217.518 292.872 217.476 293.014 217.383C293.158 217.289 293.273 217.154 293.36 216.978C293.449 216.802 293.506 216.595 293.531 216.357C293.556 216.122 293.544 215.914 293.495 215.734C293.446 215.555 293.361 215.412 293.24 215.307C293.12 215.201 292.962 215.143 292.769 215.133C292.57 215.123 292.398 215.166 292.254 215.262C292.11 215.358 291.995 215.493 291.908 215.667C291.823 215.841 291.768 216.04 291.744 216.264C291.72 216.49 291.732 216.695 291.781 216.88C291.829 217.064 291.914 217.213 292.036 217.325C292.159 217.437 292.319 217.498 292.515 217.508ZM294.946 218.134L295.308 214.747L295.948 214.781L295.891 215.319L295.926 215.321C296.008 215.142 296.132 215.004 296.3 214.908C296.469 214.81 296.653 214.767 296.853 214.777C296.894 214.779 296.942 214.783 296.998 214.789C297.056 214.795 297.1 214.801 297.132 214.807L297.065 215.438C297.039 215.429 296.993 215.419 296.926 215.406C296.859 215.392 296.791 215.384 296.724 215.38C296.567 215.372 296.424 215.398 296.294 215.457C296.166 215.516 296.061 215.601 295.978 215.714C295.894 215.825 295.845 215.954 295.829 216.1L295.608 218.169L294.946 218.134ZM298.291 218.384C298.075 218.373 297.884 218.323 297.719 218.235C297.553 218.145 297.428 218.021 297.342 217.862C297.258 217.704 297.228 217.514 297.252 217.292C297.272 217.101 297.326 216.946 297.413 216.826C297.5 216.707 297.61 216.614 297.743 216.549C297.876 216.483 298.022 216.436 298.181 216.408C298.34 216.379 298.501 216.359 298.664 216.349C298.87 216.336 299.038 216.325 299.166 216.317C299.295 216.308 299.39 216.287 299.451 216.255C299.513 216.222 299.548 216.166 299.556 216.087L299.558 216.072C299.578 215.879 299.54 215.727 299.442 215.615C299.345 215.504 299.19 215.443 298.976 215.431C298.753 215.42 298.572 215.46 298.433 215.552C298.296 215.642 298.196 215.745 298.135 215.862L297.528 215.688C297.624 215.486 297.749 215.326 297.904 215.207C298.061 215.087 298.236 215.003 298.428 214.955C298.62 214.906 298.819 214.887 299.024 214.897C299.16 214.905 299.302 214.928 299.451 214.969C299.601 215.007 299.738 215.072 299.862 215.163C299.987 215.254 300.085 215.379 300.154 215.54C300.223 215.698 300.244 215.901 300.218 216.148L299.977 218.397L299.33 218.363L299.38 217.9L299.353 217.899C299.302 217.982 299.228 218.062 299.134 218.14C299.039 218.218 298.922 218.281 298.782 218.328C298.642 218.375 298.478 218.394 298.291 218.384ZM298.491 217.863C298.674 217.872 298.834 217.844 298.972 217.779C299.111 217.714 299.221 217.625 299.301 217.513C299.383 217.399 299.431 217.275 299.446 217.141L299.492 216.705C299.466 216.727 299.418 216.746 299.348 216.764C299.279 216.779 299.202 216.792 299.114 216.802C299.027 216.811 298.943 216.819 298.86 216.827C298.778 216.833 298.709 216.838 298.654 216.842C298.523 216.852 298.403 216.873 298.293 216.906C298.184 216.938 298.094 216.989 298.023 217.058C297.953 217.125 297.912 217.218 297.9 217.335C297.882 217.498 297.929 217.625 298.041 217.715C298.154 217.804 298.304 217.853 298.491 217.863ZM302.84 215.141L302.783 215.671L300.861 215.57L300.918 215.041L302.84 215.141ZM301.083 218.455L301.487 214.676C301.509 214.464 301.575 214.291 301.683 214.156C301.791 214.02 301.925 213.921 302.086 213.86C302.247 213.798 302.418 213.771 302.598 213.781C302.731 213.788 302.843 213.805 302.935 213.832C303.028 213.857 303.096 213.88 303.14 213.9L302.928 214.425C302.898 214.415 302.859 214.403 302.811 214.388C302.764 214.373 302.706 214.363 302.636 214.359C302.475 214.351 302.356 214.384 302.278 214.46C302.202 214.536 302.155 214.649 302.139 214.799L301.745 218.49L301.083 218.455ZM305.111 215.26L305.054 215.789L303.196 215.692L303.253 215.163L305.111 215.26ZM303.838 214.378L304.5 214.412L304.157 217.616C304.144 217.744 304.153 217.841 304.184 217.908C304.216 217.973 304.26 218.019 304.319 218.046C304.378 218.071 304.444 218.086 304.516 218.089C304.57 218.092 304.617 218.091 304.657 218.086C304.698 218.08 304.729 218.076 304.752 218.073L304.813 218.624C304.773 218.636 304.717 218.648 304.645 218.659C304.572 218.672 304.483 218.676 304.376 218.672C304.202 218.666 304.043 218.626 303.899 218.554C303.755 218.481 303.644 218.375 303.566 218.235C303.487 218.095 303.459 217.922 303.481 217.718L303.838 214.378Z" fill="#D5F2E4"/>
<rect x="0.154771" y="0.181531" width="55.3045" height="17.9788" rx="8.98939" transform="matrix(0.998634 0.0522493 -0.106333 0.994331 259.283 205.098)" stroke="#F2F4F7" stroke-width="0.346903"/>
<rect x="0.177771" y="0.199634" width="90.1304" height="19.8723" rx="9.93616" transform="matrix(0.999276 0.0380496 -0.0775921 0.996985 276.779 62.5563)" fill="#137746"/>
<path d="M290.055 70.6467L289.663 75.6814L288.963 75.6547L286.685 71.8647L286.639 71.8629L286.351 75.5553L285.59 75.5263L285.982 70.4917L286.686 70.5185L288.966 74.3136L289.013 74.3153L289.301 70.618L290.055 70.6467ZM292.303 75.8583C291.948 75.8448 291.644 75.7519 291.393 75.5796C291.141 75.4073 290.953 75.1725 290.83 74.8752C290.706 74.5779 290.66 74.2342 290.69 73.8442C290.72 73.4525 290.82 73.1127 290.989 72.8249C291.158 72.5371 291.381 72.3172 291.658 72.165C291.935 72.0128 292.251 71.9435 292.606 71.957C292.961 71.9705 293.264 72.0634 293.516 72.2357C293.768 72.408 293.956 72.6437 294.079 72.9426C294.202 73.2415 294.249 73.5868 294.218 73.9785C294.188 74.3686 294.088 74.7067 293.919 74.9928C293.751 75.279 293.528 75.4981 293.25 75.6503C292.973 75.8025 292.657 75.8718 292.303 75.8583ZM292.353 75.2414C292.583 75.2501 292.778 75.1968 292.939 75.0812C293.099 74.9657 293.224 74.8085 293.312 74.6097C293.401 74.4109 293.456 74.1903 293.474 73.9477C293.493 73.7068 293.473 73.4841 293.415 73.2797C293.359 73.0738 293.26 72.9065 293.118 72.7778C292.977 72.6491 292.791 72.5804 292.561 72.5716C292.329 72.5628 292.132 72.617 291.97 72.7341C291.809 72.8512 291.684 73.01 291.594 73.2104C291.506 73.4092 291.453 73.6291 291.434 73.87C291.415 74.1126 291.434 74.336 291.491 74.5404C291.549 74.7448 291.649 74.9105 291.791 75.0375C291.934 75.1646 292.121 75.2326 292.353 75.2414ZM297.182 70.9181L298.106 70.9533L299.408 74.9281L299.467 74.9304L301.378 71.0779L302.302 71.1131L301.911 76.1477L301.186 76.1202L301.47 72.4769L301.423 72.4751L299.652 76.0543L299.051 76.0314L297.845 72.3365L297.799 72.3347L297.515 75.9804L296.79 75.9528L297.182 70.9181ZM304.053 76.3132C303.813 76.304 303.6 76.2515 303.413 76.1556C303.226 76.0581 303.083 75.922 302.983 75.7472C302.884 75.5725 302.845 75.3614 302.864 75.114C302.881 74.9009 302.935 74.7271 303.028 74.5926C303.121 74.458 303.24 74.3533 303.386 74.2783C303.532 74.2033 303.693 74.1486 303.869 74.1142C304.044 74.0798 304.222 74.0553 304.403 74.0409C304.632 74.0233 304.817 74.009 304.96 73.998C305.103 73.9853 305.208 73.9605 305.275 73.9236C305.342 73.8868 305.379 73.8241 305.386 73.7356L305.387 73.7183C305.404 73.5037 305.356 73.335 305.244 73.2124C305.133 73.0898 304.958 73.024 304.72 73.0149C304.472 73.0055 304.272 73.0529 304.121 73.1573C303.971 73.2601 303.864 73.3768 303.8 73.5075L303.12 73.3238C303.22 73.0975 303.354 72.9169 303.522 72.7819C303.693 72.6454 303.884 72.5491 304.096 72.4931C304.308 72.4354 304.528 72.4109 304.757 72.4196C304.908 72.4254 305.067 72.4495 305.233 72.492C305.401 72.5329 305.555 72.6029 305.696 72.702C305.838 72.8011 305.95 72.9393 306.032 73.1166C306.114 73.2923 306.144 73.5179 306.123 73.7932L305.927 76.3007L305.208 76.2733L305.248 75.757L305.219 75.7559C305.164 75.8492 305.085 75.9399 304.982 76.028C304.88 76.1162 304.752 76.1877 304.598 76.2426C304.443 76.2976 304.262 76.3211 304.053 76.3132ZM304.259 75.7293C304.463 75.737 304.64 75.7035 304.791 75.6287C304.944 75.5539 305.063 75.4533 305.148 75.3267C305.236 75.1985 305.285 75.0599 305.297 74.9107L305.335 74.424C305.306 74.4492 305.253 74.4718 305.176 74.4919C305.101 74.5104 305.014 74.526 304.918 74.5388C304.822 74.5499 304.728 74.5603 304.636 74.57C304.545 74.578 304.469 74.585 304.407 74.5908C304.263 74.6034 304.13 74.6288 304.008 74.6669C303.888 74.7051 303.79 74.7629 303.713 74.8406C303.638 74.9166 303.595 75.0202 303.585 75.1513C303.571 75.3332 303.628 75.4734 303.755 75.572C303.883 75.6689 304.051 75.7213 304.259 75.7293ZM306.909 76.3381L307.203 72.5621L307.939 72.5901L307.645 76.3661L306.909 76.3381ZM307.62 71.9936C307.492 71.9887 307.385 71.9419 307.3 71.8532C307.216 71.7629 307.179 71.6579 307.188 71.5383C307.198 71.417 307.251 71.3155 307.348 71.2337C307.447 71.1504 307.56 71.1111 307.688 71.116C307.816 71.1209 307.922 71.1685 308.006 71.2588C308.091 71.3475 308.129 71.4525 308.12 71.5738C308.11 71.6934 308.056 71.7949 307.958 71.8783C307.861 71.96 307.748 71.9985 307.62 71.9936ZM309.548 74.1899L309.373 76.4319L308.637 76.4038L308.93 72.6279L309.638 72.6548L309.59 73.2694L309.637 73.2712C309.739 73.0745 309.888 72.9191 310.083 72.8049C310.28 72.6907 310.52 72.6391 310.804 72.6499C311.062 72.6597 311.284 72.7224 311.469 72.838C311.655 72.9519 311.793 73.1166 311.883 73.332C311.974 73.5475 312.007 73.811 311.982 74.1223L311.795 76.5241L311.059 76.4961L311.239 74.1828C311.26 73.9091 311.205 73.6925 311.074 73.533C310.944 73.3719 310.753 73.2865 310.504 73.277C310.333 73.2705 310.178 73.3016 310.039 73.3703C309.902 73.4391 309.789 73.5432 309.701 73.6829C309.614 73.821 309.563 73.99 309.548 74.1899ZM314.844 72.853L314.798 73.443L312.731 73.3643L312.777 72.7743L314.844 72.853ZM313.402 71.8908L314.138 71.9188L313.86 75.4908C313.849 75.6333 313.862 75.7415 313.899 75.8152C313.937 75.8873 313.988 75.9378 314.053 75.9666C314.12 75.9938 314.194 76.0089 314.274 76.012C314.334 76.0142 314.386 76.0121 314.431 76.0056C314.476 75.9991 314.511 75.9938 314.536 75.9899L314.621 76.6021C314.577 76.6169 314.515 76.631 314.435 76.6444C314.355 76.6594 314.256 76.6655 314.137 76.6626C313.943 76.6585 313.765 76.6172 313.603 76.5387C313.441 76.4602 313.314 76.3436 313.223 76.1889C313.131 76.0342 313.094 75.8429 313.112 75.6151L313.402 71.8908ZM316.95 76.7968C316.577 76.7826 316.262 76.6909 316.005 76.5217C315.75 76.3509 315.56 76.1176 315.437 75.822C315.315 75.5248 315.269 75.1803 315.299 74.7886C315.33 74.4018 315.428 74.0637 315.596 73.7742C315.765 73.4848 315.987 73.2623 316.261 73.1067C316.536 72.9512 316.85 72.8801 317.202 72.8935C317.415 72.9016 317.619 72.9447 317.814 73.0228C318.009 73.1009 318.18 73.2184 318.328 73.3753C318.476 73.5321 318.586 73.7327 318.659 73.9772C318.733 74.2199 318.756 74.5126 318.729 74.8551L318.709 75.1157L315.701 75.0011L315.743 74.4505L318.03 74.5375C318.045 74.3442 318.019 74.1714 317.952 74.0192C317.885 73.8655 317.783 73.7424 317.647 73.6501C317.512 73.5579 317.35 73.5081 317.159 73.5009C316.952 73.493 316.768 73.5369 316.605 73.6327C316.445 73.7268 316.316 73.8534 316.22 74.0125C316.125 74.17 316.071 74.3429 316.056 74.5314L316.022 74.9616C316.003 75.214 316.03 75.4304 316.105 75.6108C316.182 75.7912 316.297 75.9312 316.451 76.0307C316.605 76.1286 316.789 76.1817 317.004 76.1899C317.144 76.1952 317.273 76.1804 317.391 76.1454C317.509 76.1088 317.613 76.052 317.703 75.9749C317.793 75.8978 317.865 75.801 317.918 75.6847L318.606 75.8367C318.534 76.0394 318.42 76.215 318.263 76.3636C318.109 76.5106 317.92 76.6225 317.696 76.6995C317.474 76.7749 317.226 76.8073 316.95 76.7968ZM320.308 74.5996L320.133 76.8416L319.397 76.8136L319.691 73.0376L320.398 73.0645L320.35 73.6791L320.397 73.6809C320.499 73.4842 320.648 73.3288 320.843 73.2146C321.04 73.1005 321.28 73.0488 321.565 73.0596C321.823 73.0694 322.044 73.1321 322.23 73.2477C322.415 73.3616 322.553 73.5263 322.643 73.7418C322.734 73.9572 322.767 74.2207 322.742 74.5321L322.556 76.9338L321.819 76.9058L321.999 74.5925C322.02 74.3188 321.965 74.1022 321.834 73.9427C321.704 73.7816 321.513 73.6963 321.264 73.6868C321.093 73.6803 320.938 73.7113 320.799 73.78C320.662 73.8488 320.549 73.953 320.461 74.0926C320.375 74.2307 320.324 74.3997 320.308 74.5996ZM324.639 77.097C324.399 77.0878 324.185 77.0353 323.998 76.9395C323.812 76.8419 323.668 76.7058 323.568 76.531C323.47 76.3563 323.43 76.1453 323.449 75.8978C323.466 75.6847 323.521 75.5109 323.613 75.3764C323.706 75.2419 323.826 75.1371 323.971 75.0621C324.117 74.9871 324.278 74.9324 324.454 74.898C324.629 74.8636 324.808 74.8392 324.988 74.8247C325.217 74.8071 325.403 74.7928 325.545 74.7818C325.688 74.7691 325.793 74.7444 325.86 74.7075C325.927 74.6706 325.964 74.6079 325.971 74.5194L325.972 74.5022C325.989 74.2875 325.941 74.1188 325.829 73.9962C325.718 73.8736 325.544 73.8078 325.305 73.7987C325.057 73.7893 324.858 73.8368 324.706 73.9411C324.557 74.0439 324.449 74.1606 324.385 74.2913L323.705 74.1076C323.805 73.8813 323.939 73.7007 324.108 73.5657C324.278 73.4292 324.469 73.333 324.681 73.2769C324.893 73.2192 325.114 73.1948 325.342 73.2035C325.493 73.2092 325.652 73.2333 325.818 73.2758C325.986 73.3168 326.141 73.3867 326.281 73.4858C326.423 73.5849 326.535 73.7231 326.617 73.9005C326.699 74.0762 326.729 74.3017 326.708 74.577L326.513 77.0845L325.793 77.0571L325.833 76.5409L325.804 76.5397C325.749 76.633 325.67 76.7237 325.568 76.8118C325.465 76.9 325.337 76.9715 325.183 77.0265C325.029 77.0814 324.847 77.1049 324.639 77.097ZM324.845 76.5131C325.048 76.5208 325.226 76.4873 325.376 76.4125C325.529 76.3378 325.648 76.2371 325.733 76.1105C325.821 75.9823 325.87 75.8437 325.882 75.6946L325.92 75.2078C325.892 75.233 325.839 75.2557 325.761 75.2757C325.686 75.2942 325.6 75.3099 325.503 75.3226C325.407 75.3337 325.313 75.3441 325.221 75.3538C325.13 75.3618 325.054 75.3688 324.992 75.3747C324.848 75.3873 324.715 75.4126 324.594 75.4507C324.474 75.4889 324.375 75.5468 324.298 75.6244C324.223 75.7004 324.181 75.804 324.17 75.9351C324.156 76.117 324.213 76.2573 324.34 76.3558C324.468 76.4527 324.636 76.5051 324.845 76.5131ZM328.405 74.9079L328.231 77.1499L327.494 77.1219L327.788 73.3459L328.495 73.3728L328.447 73.9874L328.494 73.9892C328.597 73.7926 328.745 73.6371 328.941 73.5229C329.137 73.4088 329.378 73.3571 329.662 73.3679C329.92 73.3778 330.141 73.4404 330.327 73.556C330.512 73.6699 330.65 73.8346 330.741 74.0501C330.831 74.2656 330.864 74.529 330.84 74.8404L330.653 77.2422L329.916 77.2141L330.096 74.9008C330.117 74.6271 330.063 74.4105 329.932 74.251C329.801 74.0899 329.611 74.0046 329.361 73.9951C329.19 73.9886 329.035 74.0197 328.897 74.0883C328.759 74.1571 328.647 74.2613 328.558 74.4009C328.472 74.539 328.421 74.708 328.405 74.9079ZM333.229 77.4167C332.863 77.4027 332.554 77.308 332.302 77.1324C332.052 76.9552 331.868 76.7172 331.75 76.4185C331.631 76.1198 331.587 75.7811 331.616 75.4025C331.646 75.019 331.745 74.6833 331.912 74.3955C332.08 74.106 332.301 73.8835 332.577 73.728C332.853 73.5725 333.169 73.5015 333.525 73.5151C333.813 73.526 334.065 73.589 334.282 73.7041C334.499 73.8176 334.669 73.972 334.792 74.1673C334.917 74.3628 334.982 74.588 334.989 74.843L334.272 74.8157C334.246 74.6372 334.168 74.4814 334.036 74.3482C333.907 74.215 333.724 74.144 333.489 74.135C333.284 74.1272 333.1 74.1744 332.937 74.2767C332.776 74.3774 332.645 74.5253 332.544 74.7204C332.444 74.9138 332.383 75.1449 332.362 75.4136C332.34 75.689 332.364 75.9282 332.432 76.1313C332.5 76.3345 332.606 76.4939 332.751 76.6095C332.897 76.7252 333.074 76.787 333.282 76.7949C333.422 76.8002 333.551 76.7797 333.668 76.7332C333.787 76.6851 333.889 76.6142 333.974 76.5204C334.06 76.4267 334.124 76.3125 334.166 76.1776L334.883 76.2049C334.837 76.4481 334.741 76.6631 334.593 76.8497C334.445 77.0364 334.255 77.1804 334.023 77.2817C333.793 77.3831 333.528 77.4281 333.229 77.4167ZM337.203 77.568C336.83 77.5538 336.515 77.4621 336.258 77.2929C336.003 77.1221 335.813 76.8888 335.69 76.5932C335.568 76.296 335.522 75.9515 335.553 75.5598C335.583 75.173 335.682 74.8349 335.849 74.5454C336.018 74.256 336.24 74.0335 336.514 73.8779C336.79 73.7224 337.103 73.6513 337.455 73.6647C337.668 73.6728 337.873 73.7159 338.067 73.794C338.262 73.8721 338.434 73.9896 338.581 74.1464C338.729 74.3033 338.839 74.5039 338.912 74.7483C338.986 74.9911 339.009 75.2838 338.983 75.6263L338.962 75.8869L335.954 75.7723L335.997 75.2217L338.283 75.3087C338.298 75.1153 338.272 74.9426 338.205 74.7904C338.138 74.6367 338.036 74.5136 337.9 74.4213C337.765 74.3291 337.603 74.2793 337.412 74.2721C337.205 74.2642 337.021 74.3081 336.858 74.4038C336.698 74.498 336.569 74.6246 336.473 74.7837C336.378 74.9411 336.324 75.1141 336.309 75.3026L336.276 75.7328C336.256 75.9852 336.284 76.2016 336.359 76.3819C336.435 76.5624 336.55 76.7024 336.704 76.8019C336.858 76.8998 337.042 76.9529 337.258 76.9611C337.397 76.9664 337.526 76.9516 337.644 76.9166C337.762 76.88 337.866 76.8232 337.956 76.7461C338.046 76.6689 338.118 76.5722 338.172 76.4559L338.859 76.6078C338.787 76.8106 338.673 76.9862 338.517 77.1348C338.362 77.2817 338.173 77.3937 337.949 77.4707C337.728 77.5461 337.479 77.5785 337.203 77.568ZM341.545 77.6569L341.937 72.6223L345.066 72.7414L345.016 73.3953L342.648 73.3052L342.528 74.8392L344.672 74.9208L344.621 75.5722L342.478 75.4906L342.307 77.6859L341.545 77.6569ZM346.899 77.9372C346.526 77.923 346.211 77.8313 345.954 77.6621C345.699 77.4913 345.51 77.258 345.386 76.9624C345.264 76.6652 345.218 76.3207 345.249 75.929C345.279 75.5422 345.378 75.2041 345.545 74.9146C345.715 74.6252 345.936 74.4027 346.21 74.2471C346.486 74.0916 346.8 74.0205 347.151 74.0339C347.365 74.042 347.569 74.0851 347.764 74.1632C347.959 74.2413 348.13 74.3588 348.278 74.5157C348.425 74.6725 348.536 74.8731 348.609 75.1175C348.682 75.3603 348.706 75.653 348.679 75.9955L348.659 76.2561L345.65 76.1415L345.693 75.5909L347.98 75.6779C347.995 75.4845 347.968 75.3118 347.901 75.1596C347.834 75.0059 347.732 74.8828 347.596 74.7905C347.462 74.6983 347.299 74.6485 347.109 74.6413C346.902 74.6334 346.717 74.6773 346.555 74.7731C346.394 74.8672 346.266 74.9938 346.169 75.1529C346.075 75.3104 346.02 75.4833 346.005 75.6718L345.972 76.102C345.952 76.3544 345.98 76.5708 346.055 76.7512C346.131 76.9316 346.247 77.0716 346.4 77.1711C346.554 77.269 346.739 77.3221 346.954 77.3303C347.093 77.3356 347.222 77.3208 347.34 77.2858C347.459 77.2492 347.563 77.1924 347.653 77.1153C347.743 77.0381 347.814 76.9414 347.868 76.8251L348.556 76.977C348.484 77.1798 348.37 77.3554 348.213 77.504C348.058 77.6509 347.869 77.7629 347.646 77.8399C347.424 77.9153 347.175 77.9477 346.899 77.9372ZM350.972 78.0923C350.599 78.0781 350.284 77.9864 350.027 77.8171C349.771 77.6463 349.582 77.4131 349.458 77.1174C349.337 76.8202 349.291 76.4758 349.321 76.0841C349.351 75.6973 349.45 75.3592 349.618 75.0697C349.787 74.7802 350.008 74.5577 350.283 74.4021C350.558 74.2466 350.872 74.1756 351.223 74.1889C351.437 74.1971 351.641 74.2402 351.836 74.3183C352.031 74.3964 352.202 74.5139 352.35 74.6707C352.497 74.8276 352.608 75.0282 352.681 75.2726C352.754 75.5154 352.778 75.808 352.751 76.1506L352.731 76.4111L349.722 76.2966L349.765 75.7459L352.052 75.833C352.067 75.6396 352.041 75.4668 351.974 75.3147C351.906 75.1609 351.805 75.0379 351.669 74.9456C351.534 74.8533 351.372 74.8036 351.181 74.7963C350.974 74.7885 350.789 74.8324 350.627 74.9281C350.467 75.0223 350.338 75.1489 350.242 75.3079C350.147 75.4654 350.092 75.6384 350.078 75.8269L350.044 76.2571C350.025 76.5095 350.052 76.7258 350.127 76.9062C350.204 77.0867 350.319 77.2266 350.473 77.3262C350.626 77.4241 350.811 77.4772 351.026 77.4853C351.166 77.4907 351.295 77.4758 351.413 77.4409C351.531 77.4043 351.635 77.3474 351.725 77.2703C351.815 77.1932 351.887 77.0965 351.94 76.9802L352.628 77.1321C352.556 77.3348 352.442 77.5105 352.285 77.659C352.131 77.806 351.941 77.918 351.718 77.9949C351.496 78.0703 351.247 78.1028 350.972 78.0923ZM356.477 75.3629L355.8 75.4555C355.779 75.3692 355.741 75.2864 355.686 75.207C355.633 75.1277 355.557 75.0616 355.459 75.0085C355.361 74.9555 355.236 74.9261 355.083 74.9202C354.874 74.9123 354.696 74.9524 354.55 75.0405C354.403 75.1269 354.324 75.2431 354.312 75.389C354.303 75.5152 354.341 75.6186 354.429 75.6991C354.517 75.7797 354.663 75.8486 354.868 75.9057L355.458 76.0663C355.8 76.1598 356.05 76.2934 356.208 76.4671C356.366 76.6408 356.434 76.8612 356.414 77.1283C356.396 77.3545 356.315 77.5536 356.169 77.7256C356.026 77.896 355.834 78.0267 355.593 78.1178C355.353 78.209 355.081 78.2487 354.775 78.2371C354.351 78.221 354.013 78.1177 353.759 77.9272C353.505 77.7351 353.361 77.4707 353.326 77.1341L354.047 77.053C354.077 77.2399 354.157 77.3835 354.288 77.4838C354.418 77.5825 354.595 77.636 354.816 77.6445C355.058 77.6537 355.255 77.611 355.407 77.5166C355.56 77.4204 355.642 77.2995 355.653 77.1536C355.662 77.0356 355.625 76.9348 355.543 76.8511C355.462 76.7675 355.333 76.7017 355.155 76.6539L354.526 76.4894C354.179 76.3956 353.928 76.2578 353.772 76.076C353.618 75.8943 353.552 75.669 353.573 75.4002C353.59 75.1774 353.668 74.9847 353.805 74.8223C353.943 74.6599 354.126 74.5362 354.353 74.4511C354.581 74.3645 354.837 74.3265 355.121 74.3373C355.53 74.3529 355.845 74.4537 356.066 74.6396C356.287 74.8239 356.424 75.065 356.477 75.3629Z" fill="#D5F2E4"/>
<rect x="0.177771" y="0.199634" width="90.1304" height="19.8723" rx="9.93616" transform="matrix(0.999276 0.0380496 -0.0775921 0.996985 276.779 62.5563)" stroke="#F2F4F7" stroke-width="0.385753"/>
<rect x="0.123245" y="0.159299" width="43.0038" height="15.8529" rx="7.92647" transform="matrix(0.996491 0.0837048 -0.169213 0.98558 321.522 166.117)" fill="#85E5B5"/>
<path d="M331.224 172.617L330.564 176.461L330.025 176.416L328.533 173.43L328.497 173.427L328.013 176.247L327.426 176.197L328.086 172.353L328.629 172.399L330.122 175.388L330.158 175.391L330.643 172.568L331.224 172.617ZM332.591 176.69C332.318 176.667 332.09 176.585 331.908 176.444C331.725 176.303 331.597 176.117 331.523 175.885C331.448 175.652 331.437 175.387 331.488 175.089C331.539 174.79 331.64 174.534 331.791 174.319C331.942 174.105 332.13 173.944 332.355 173.837C332.58 173.73 332.83 173.688 333.103 173.711C333.376 173.734 333.604 173.816 333.786 173.957C333.969 174.098 334.097 174.286 334.171 174.519C334.245 174.752 334.257 175.019 334.205 175.318C334.154 175.616 334.053 175.871 333.902 176.084C333.752 176.298 333.564 176.458 333.339 176.565C333.114 176.671 332.865 176.713 332.591 176.69ZM332.674 176.219C332.851 176.234 333.006 176.2 333.138 176.117C333.271 176.035 333.378 175.919 333.46 175.769C333.543 175.62 333.601 175.453 333.633 175.268C333.664 175.084 333.665 174.912 333.634 174.754C333.605 174.594 333.541 174.462 333.44 174.359C333.34 174.255 333.201 174.196 333.024 174.181C332.846 174.166 332.69 174.2 332.556 174.284C332.423 174.368 332.315 174.486 332.232 174.636C332.15 174.785 332.093 174.952 332.061 175.136C332.029 175.321 332.028 175.493 332.057 175.651C332.088 175.81 332.153 175.941 332.254 176.043C332.356 176.146 332.496 176.204 332.674 176.219ZM337.3 173.127L336.64 176.971L336.054 176.922L336.714 173.078L337.3 173.127ZM338.31 175.375L338.016 177.087L337.448 177.039L337.943 174.156L338.488 174.202L338.408 174.671L338.444 174.674C338.537 174.527 338.663 174.413 338.822 174.333C338.982 174.252 339.171 174.221 339.39 174.24C339.589 174.256 339.756 174.312 339.891 174.407C340.026 174.501 340.121 174.632 340.176 174.801C340.23 174.969 340.237 175.172 340.196 175.41L339.881 177.244L339.314 177.196L339.617 175.43C339.653 175.221 339.626 175.053 339.536 174.926C339.447 174.798 339.306 174.726 339.113 174.709C338.982 174.698 338.86 174.717 338.748 174.764C338.637 174.812 338.542 174.888 338.464 174.992C338.387 175.095 338.336 175.222 338.31 175.375ZM342.498 174.539L342.421 174.989L340.829 174.855L340.906 174.405L342.498 174.539ZM341.452 173.75L342.019 173.798L341.551 176.525C341.532 176.634 341.534 176.717 341.558 176.775C341.582 176.832 341.618 176.872 341.666 176.897C341.716 176.92 341.772 176.934 341.834 176.939C341.879 176.943 341.92 176.943 341.955 176.94C341.99 176.936 342.018 176.934 342.037 176.932L342.06 177.404C342.025 177.414 341.976 177.422 341.913 177.43C341.85 177.438 341.773 177.439 341.682 177.433C341.532 177.423 341.397 177.385 341.278 177.319C341.158 177.253 341.068 177.159 341.008 177.037C340.949 176.916 340.934 176.768 340.963 176.594L341.452 173.75ZM343.846 177.636C343.559 177.612 343.322 177.53 343.135 177.391C342.95 177.251 342.82 177.066 342.746 176.835C342.673 176.603 342.662 176.337 342.713 176.038C342.764 175.743 342.864 175.487 343.014 175.271C343.165 175.056 343.352 174.893 343.575 174.783C343.799 174.674 344.047 174.631 344.318 174.653C344.482 174.667 344.637 174.708 344.782 174.774C344.927 174.841 345.051 174.937 345.154 175.063C345.257 175.188 345.328 175.346 345.368 175.536C345.407 175.724 345.404 175.949 345.359 176.211L345.325 176.41L343.008 176.215L343.08 175.795L344.841 175.943C344.867 175.795 344.859 175.662 344.818 175.543C344.777 175.423 344.707 175.325 344.608 175.249C344.511 175.174 344.389 175.13 344.242 175.117C344.082 175.104 343.937 175.131 343.804 175.199C343.674 175.265 343.565 175.358 343.479 175.476C343.395 175.593 343.341 175.724 343.316 175.868L343.26 176.196C343.226 176.389 343.232 176.556 343.278 176.697C343.324 176.838 343.403 176.949 343.515 177.031C343.627 177.111 343.766 177.159 343.931 177.173C344.039 177.182 344.14 177.175 344.233 177.152C344.327 177.128 344.412 177.088 344.487 177.033C344.562 176.977 344.624 176.905 344.674 176.818L345.194 176.959C345.125 177.112 345.024 177.242 344.892 177.35C344.762 177.457 344.608 177.537 344.43 177.588C344.253 177.638 344.059 177.654 343.846 177.636ZM345.736 177.735L346.231 174.852L346.78 174.898L346.701 175.356L346.732 175.359C346.811 175.208 346.926 175.094 347.075 175.016C347.226 174.938 347.387 174.906 347.558 174.92C347.593 174.923 347.635 174.928 347.682 174.934C347.731 174.941 347.769 174.947 347.797 174.953L347.704 175.49C347.683 175.482 347.643 175.472 347.586 175.459C347.53 175.446 347.472 175.436 347.414 175.431C347.28 175.42 347.156 175.438 347.041 175.486C346.928 175.532 346.832 175.602 346.755 175.696C346.677 175.788 346.628 175.897 346.606 176.022L346.304 177.783L345.736 177.735ZM348.929 178.063C348.642 178.039 348.405 177.957 348.219 177.818C348.033 177.678 347.904 177.493 347.829 177.262C347.756 177.03 347.745 176.764 347.796 176.465C347.847 176.17 347.947 175.914 348.097 175.698C348.249 175.483 348.436 175.32 348.659 175.21C348.883 175.101 349.13 175.058 349.401 175.08C349.566 175.094 349.72 175.135 349.865 175.201C350.011 175.268 350.135 175.364 350.238 175.49C350.341 175.615 350.412 175.773 350.451 175.963C350.49 176.151 350.488 176.376 350.443 176.638L350.409 176.837L348.091 176.642L348.164 176.222L349.925 176.37C349.95 176.222 349.942 176.089 349.901 175.97C349.86 175.85 349.79 175.752 349.692 175.676C349.594 175.601 349.472 175.557 349.325 175.544C349.166 175.531 349.02 175.558 348.888 175.626C348.757 175.692 348.649 175.785 348.563 175.903C348.479 176.02 348.424 176.151 348.399 176.295L348.343 176.623C348.31 176.816 348.316 176.983 348.361 177.124C348.407 177.265 348.486 177.376 348.598 177.458C348.71 177.538 348.849 177.586 349.015 177.6C349.122 177.609 349.223 177.602 349.317 177.579C349.411 177.555 349.495 177.515 349.57 177.46C349.645 177.404 349.708 177.332 349.757 177.245L350.278 177.386C350.208 177.539 350.107 177.669 349.976 177.777C349.846 177.884 349.692 177.964 349.513 178.015C349.337 178.065 349.142 178.081 348.929 178.063ZM353.378 176.167L352.849 176.214C352.838 176.147 352.815 176.082 352.778 176.019C352.743 175.956 352.689 175.903 352.617 175.859C352.545 175.815 352.45 175.788 352.332 175.778C352.172 175.764 352.031 175.789 351.912 175.851C351.792 175.912 351.723 175.998 351.704 176.11C351.687 176.206 351.71 176.287 351.772 176.352C351.834 176.416 351.942 176.474 352.096 176.525L352.541 176.669C352.799 176.753 352.983 176.865 353.092 177.003C353.202 177.142 353.239 177.313 353.204 177.517C353.175 177.69 353.098 177.84 352.973 177.966C352.85 178.092 352.692 178.185 352.5 178.246C352.308 178.308 352.095 178.329 351.859 178.309C351.533 178.281 351.278 178.19 351.096 178.035C350.913 177.879 350.821 177.671 350.818 177.412L351.38 177.376C351.39 177.52 351.442 177.633 351.536 177.714C351.63 177.794 351.762 177.842 351.933 177.856C352.119 177.872 352.274 177.846 352.399 177.779C352.523 177.711 352.595 177.621 352.614 177.51C352.63 177.42 352.609 177.341 352.551 177.274C352.494 177.207 352.399 177.152 352.265 177.109L351.79 176.961C351.529 176.876 351.344 176.762 351.237 176.617C351.131 176.472 351.096 176.297 351.131 176.092C351.16 175.922 351.234 175.777 351.352 175.657C351.47 175.538 351.62 175.45 351.802 175.393C351.984 175.334 352.184 175.314 352.403 175.333C352.718 175.359 352.954 175.447 353.112 175.598C353.27 175.747 353.359 175.937 353.378 176.167ZM355.541 175.634L355.463 176.085L353.871 175.951L353.948 175.5L355.541 175.634ZM354.494 174.846L355.062 174.893L354.593 177.621C354.575 177.73 354.577 177.813 354.6 177.871C354.624 177.927 354.66 177.968 354.709 177.992C354.758 178.015 354.814 178.03 354.876 178.035C354.922 178.039 354.962 178.039 354.998 178.035C355.033 178.032 355.06 178.029 355.08 178.027L355.103 178.499C355.068 178.509 355.019 178.518 354.956 178.525C354.893 178.534 354.816 178.535 354.724 178.528C354.575 178.518 354.44 178.48 354.32 178.415C354.201 178.349 354.111 178.255 354.051 178.133C353.991 178.011 353.976 177.863 354.006 177.689L354.494 174.846Z" fill="#137746"/>
<rect x="0.123245" y="0.159299" width="43.0038" height="15.8529" rx="7.92647" transform="matrix(0.996491 0.0837048 -0.169213 0.98558 321.522 166.117)" stroke="#F2F4F7" stroke-width="0.297953"/>
<rect x="0.223201" y="0.203068" width="76.7405" height="21.6602" rx="10.8301" transform="matrix(0.999519 -0.0310273 0.0633205 0.997993 47.5302 203.921)" fill="#137746"/>
<path d="M59.5754 217.58L58.6952 217.607L60.3248 212.058L61.2827 212.029L63.6086 217.454L62.7284 217.482L60.8898 213.039L60.8469 213.041L59.5754 217.58ZM59.5866 215.426L62.4418 215.338L62.486 216.034L59.6308 216.123L59.5866 215.426ZM64.792 211.92L65.1402 217.407L64.3378 217.432L63.9896 211.945L64.792 211.92ZM66.6738 211.861L67.0219 217.348L66.2196 217.373L65.8714 211.886L66.6738 211.861ZM70.3607 214.574L70.4047 215.268L67.9681 215.343L67.9241 214.649L70.3607 214.574ZM71.5992 217.206L71.338 213.091L72.1404 213.066L72.4015 217.181L71.5992 217.206ZM71.703 212.443C71.5634 212.448 71.4406 212.405 71.3345 212.315C71.2301 212.224 71.1738 212.113 71.1655 211.982C71.1571 211.85 71.1992 211.736 71.2917 211.64C71.3859 211.542 71.5027 211.491 71.6423 211.487C71.7818 211.483 71.9038 211.526 72.0082 211.618C72.1142 211.708 72.1715 211.819 72.1799 211.951C72.1881 212.081 72.1452 212.195 72.051 212.293C71.9585 212.389 71.8425 212.439 71.703 212.443ZM74.1282 214.68L74.2833 217.123L73.4809 217.148L73.2198 213.033L73.9899 213.009L74.0324 213.678L74.0834 213.677C74.1644 213.456 74.3018 213.276 74.4956 213.138C74.6911 212.999 74.9436 212.925 75.2531 212.916C75.534 212.907 75.7837 212.958 76.0023 213.07C76.2208 213.179 76.3954 213.347 76.5263 213.574C76.6572 213.801 76.7335 214.084 76.755 214.423L76.9211 217.041L76.1187 217.066L75.9588 214.545C75.9398 214.247 75.8472 214.016 75.6809 213.853C75.5145 213.688 75.2954 213.61 75.0234 213.618C74.8374 213.624 74.6745 213.669 74.5347 213.754C74.3966 213.839 74.2905 213.96 74.2163 214.118C74.1438 214.275 74.1144 214.462 74.1282 214.68ZM80.2565 214.266L80.3005 214.96L77.864 215.036L77.8199 214.342L80.2565 214.266ZM86.1591 214.005C86.1963 214.591 86.1209 215.098 85.933 215.527C85.745 215.953 85.4712 216.285 85.1117 216.524C84.7539 216.76 84.3379 216.886 83.8638 216.901C83.388 216.916 82.956 216.816 82.5678 216.603C82.1813 216.388 81.8673 216.072 81.6259 215.658C81.3845 215.243 81.2453 214.743 81.2082 214.159C81.171 213.573 81.2465 213.067 81.4345 212.641C81.6224 212.212 81.8953 211.88 82.2531 211.643C82.6126 211.405 83.0303 211.278 83.5062 211.264C83.9802 211.249 84.4105 211.349 84.797 211.564C85.1852 211.778 85.5 212.092 85.7414 212.507C85.9827 212.92 86.122 213.42 86.1591 214.005ZM85.338 214.031C85.3097 213.584 85.2134 213.211 85.0491 212.91C84.8865 212.607 84.6749 212.381 84.4145 212.231C84.1558 212.08 83.869 212.009 83.5541 212.019C83.2375 212.029 82.9599 212.117 82.7213 212.284C82.4826 212.449 82.3005 212.687 82.1751 212.999C82.0514 213.309 82.0037 213.687 82.032 214.133C82.0603 214.58 82.1558 214.955 82.3184 215.258C82.4827 215.558 82.6942 215.785 82.953 215.936C83.2116 216.085 83.4993 216.155 83.8159 216.145C84.1308 216.136 84.4075 216.048 84.6462 215.883C84.8866 215.717 85.0686 215.478 85.1924 215.168C85.3178 214.857 85.3663 214.477 85.338 214.031ZM87.9499 214.25L88.1049 216.694L87.3026 216.719L87.0415 212.603L87.8116 212.58L87.8541 213.249L87.9051 213.248C87.9861 213.027 88.1235 212.847 88.3172 212.709C88.5128 212.57 88.7653 212.496 89.0748 212.487C89.3557 212.478 89.6054 212.529 89.824 212.641C90.0424 212.75 90.2171 212.918 90.348 213.145C90.4789 213.372 90.5551 213.655 90.5767 213.994L90.7428 216.612L89.9404 216.637L89.7804 214.116C89.7615 213.817 89.6689 213.587 89.5026 213.424C89.3362 213.259 89.117 213.181 88.8451 213.189C88.6591 213.195 88.4961 213.24 88.3563 213.325C88.2183 213.41 88.1122 213.531 88.038 213.689C87.9654 213.846 87.9361 214.033 87.9499 214.25ZM93.6005 216.607C93.1944 216.619 92.8392 216.543 92.5348 216.379C92.2321 216.213 91.9911 215.975 91.8118 215.664C91.6342 215.35 91.5319 214.98 91.5048 214.554C91.478 214.132 91.5332 213.758 91.6702 213.432C91.809 213.105 92.0149 212.847 92.2879 212.658C92.5627 212.469 92.8915 212.368 93.2744 212.356C93.5069 212.349 93.7348 212.38 93.9579 212.451C94.181 212.521 94.3846 212.635 94.5685 212.794C94.7525 212.953 94.9029 213.162 95.0197 213.422C95.1364 213.679 95.2067 213.995 95.2303 214.368L95.2484 214.652L91.9719 214.754L91.9338 214.154L94.424 214.076C94.4107 213.866 94.3559 213.68 94.2597 213.52C94.1634 213.359 94.0344 213.233 93.8728 213.143C93.7129 213.053 93.5292 213.011 93.3217 213.018C93.0963 213.025 92.903 213.086 92.7419 213.202C92.5824 213.316 92.4627 213.463 92.3827 213.643C92.3044 213.821 92.2717 214.013 92.2847 214.218L92.3145 214.687C92.3319 214.962 92.3951 215.194 92.5039 215.384C92.6146 215.574 92.7608 215.717 92.9425 215.814C93.1242 215.908 93.3322 215.952 93.5666 215.945C93.7186 215.94 93.8559 215.914 93.9784 215.867C94.1008 215.819 94.2048 215.749 94.2905 215.659C94.3762 215.569 94.4391 215.458 94.4793 215.328L95.2474 215.441C95.2007 215.667 95.104 215.866 94.9572 216.038C94.8121 216.209 94.6244 216.345 94.3942 216.445C94.1656 216.543 93.901 216.597 93.6005 216.607ZM102.648 212.532L101.81 212.558C101.767 212.381 101.697 212.225 101.601 212.092C101.504 211.959 101.39 211.848 101.257 211.757C101.124 211.666 100.977 211.599 100.816 211.556C100.658 211.512 100.491 211.493 100.315 211.499C99.9988 211.509 99.7203 211.597 99.48 211.764C99.2414 211.93 99.0594 212.17 98.934 212.481C98.8103 212.793 98.7626 213.17 98.7907 213.613C98.819 214.06 98.9145 214.434 99.0771 214.737C99.2415 215.04 99.4539 215.266 99.7143 215.416C99.9748 215.565 100.262 215.635 100.575 215.625C100.748 215.62 100.911 215.591 101.064 215.54C101.218 215.487 101.356 215.412 101.477 215.315C101.598 215.218 101.698 215.102 101.778 214.965C101.858 214.826 101.91 214.669 101.933 214.493L102.771 214.47C102.743 214.741 102.672 214.992 102.558 215.223C102.445 215.452 102.293 215.651 102.104 215.822C101.915 215.991 101.696 216.124 101.446 216.221C101.196 216.318 100.919 216.371 100.617 216.381C100.141 216.396 99.7102 216.296 99.3238 216.083C98.9373 215.867 98.6233 215.552 98.3819 215.137C98.1423 214.722 98.0039 214.223 97.9669 213.639C97.9297 213.053 98.0051 212.547 98.1932 212.12C98.3811 211.692 98.654 211.36 99.0118 211.123C99.3695 210.885 99.7854 210.758 100.259 210.743C100.551 210.734 100.826 210.768 101.083 210.844C101.342 210.918 101.578 211.033 101.791 211.187C102.003 211.34 102.182 211.529 102.329 211.756C102.476 211.98 102.582 212.239 102.648 212.532ZM105.016 216.26C104.754 216.268 104.515 216.228 104.298 216.138C104.081 216.046 103.904 215.909 103.769 215.727C103.636 215.545 103.561 215.319 103.543 215.05C103.529 214.817 103.561 214.625 103.641 214.472C103.721 214.319 103.834 214.197 103.981 214.105C104.127 214.012 104.293 213.941 104.478 213.89C104.663 213.84 104.852 213.8 105.046 213.771C105.291 213.735 105.49 213.705 105.643 213.682C105.795 213.658 105.905 213.623 105.972 213.578C106.039 213.533 106.07 213.462 106.063 213.366L106.062 213.347C106.047 213.113 105.97 212.934 105.829 212.81C105.69 212.685 105.491 212.627 105.232 212.635C104.962 212.643 104.753 212.71 104.605 212.834C104.458 212.957 104.36 213.091 104.31 213.238L103.545 213.09C103.619 212.837 103.737 212.631 103.899 212.472C104.062 212.311 104.255 212.193 104.476 212.116C104.697 212.038 104.931 211.994 105.18 211.987C105.345 211.982 105.52 211.996 105.707 212.029C105.896 212.061 106.073 212.125 106.241 212.222C106.41 212.319 106.553 212.46 106.668 212.647C106.784 212.831 106.851 213.073 106.871 213.373L107.044 216.106L106.26 216.13L106.225 215.568L106.192 215.569C106.147 215.674 106.076 215.778 105.978 215.881C105.881 215.985 105.753 216.072 105.594 216.143C105.436 216.214 105.243 216.253 105.016 216.26ZM105.149 215.612C105.371 215.605 105.558 215.555 105.71 215.463C105.863 215.37 105.977 215.252 106.05 215.109C106.125 214.963 106.158 214.809 106.147 214.647L106.114 214.116C106.087 214.146 106.033 214.174 105.952 214.202C105.873 214.227 105.783 214.251 105.68 214.272C105.577 214.291 105.477 214.31 105.38 214.327C105.282 214.342 105.2 214.356 105.135 214.367C104.98 214.391 104.84 214.429 104.714 214.479C104.59 214.529 104.493 214.6 104.421 214.69C104.352 214.778 104.321 214.893 104.33 215.036C104.343 215.234 104.426 215.382 104.579 215.479C104.732 215.575 104.922 215.619 105.149 215.612ZM108.113 216.073L107.851 211.957L108.627 211.933L108.668 212.587L108.711 212.586C108.772 212.362 108.894 212.184 109.075 212.051C109.259 211.916 109.471 211.845 109.713 211.838C109.763 211.836 109.822 211.836 109.89 211.838C109.96 211.839 110.015 211.842 110.055 211.846L110.103 212.612C110.07 212.605 110.013 212.596 109.93 212.588C109.846 212.578 109.764 212.575 109.681 212.577C109.492 212.583 109.325 212.629 109.182 212.714C109.04 212.797 108.931 212.91 108.854 213.054C108.777 213.196 108.744 213.356 108.755 213.535L108.915 216.048L108.113 216.073ZM112.413 216.02C112.08 216.03 111.778 215.955 111.506 215.793C111.236 215.63 111.016 215.392 110.848 215.081C110.681 214.767 110.583 214.388 110.555 213.943C110.527 213.499 110.577 213.116 110.706 212.795C110.836 212.474 111.026 212.226 111.277 212.05C111.527 211.874 111.818 211.781 112.149 211.77C112.405 211.762 112.613 211.799 112.774 211.88C112.937 211.959 113.065 212.053 113.158 212.163C113.253 212.273 113.327 212.37 113.381 212.454L113.429 212.453L113.3 210.414L114.102 210.389L114.45 215.876L113.667 215.901L113.626 215.26L113.559 215.262C113.516 215.351 113.453 215.453 113.369 215.569C113.286 215.684 113.169 215.786 113.017 215.875C112.865 215.964 112.664 216.012 112.413 216.02ZM112.547 215.331C112.778 215.324 112.969 215.257 113.12 215.131C113.274 215.003 113.384 214.828 113.453 214.608C113.523 214.387 113.549 214.132 113.531 213.843C113.513 213.557 113.456 213.308 113.36 213.097C113.264 212.885 113.132 212.722 112.966 212.607C112.799 212.492 112.598 212.438 112.364 212.446C112.122 212.453 111.925 212.522 111.772 212.652C111.619 212.782 111.508 212.956 111.44 213.175C111.373 213.394 111.348 213.639 111.365 213.91C111.383 214.185 111.439 214.431 111.536 214.649C111.632 214.866 111.765 215.036 111.934 215.16C112.105 215.281 112.309 215.339 112.547 215.331Z" fill="#D5F2E4"/>
<rect x="0.223201" y="0.203068" width="76.7405" height="21.6602" rx="10.8301" transform="matrix(0.999519 -0.0310273 0.0633205 0.997993 47.5302 203.921)" stroke="#F2F4F7" stroke-width="0.42001"/>
<rect x="0.176592" y="0.198114" width="69" height="19.8085" rx="9.90427" transform="matrix(0.999294 0.0375672 -0.0770935 0.997024 -3.0305 144.908)" fill="#D5F2E4"/>
<path d="M8.73631 154.256C8.72809 154.024 8.63429 153.841 8.45492 153.707C8.27568 153.571 8.04255 153.498 7.75551 153.487C7.55002 153.479 7.36974 153.505 7.21467 153.565C7.05973 153.623 6.93632 153.706 6.84447 153.815C6.75437 153.923 6.70385 154.047 6.6929 154.189C6.68372 154.308 6.70352 154.411 6.7523 154.5C6.80271 154.588 6.87131 154.663 6.95811 154.725C7.04667 154.786 7.14244 154.837 7.24543 154.88C7.34854 154.922 7.44808 154.956 7.54404 154.985L8.02349 155.13C8.18029 155.175 8.3401 155.234 8.50292 155.307C8.66574 155.38 8.8147 155.474 8.94978 155.588C9.08487 155.703 9.19022 155.842 9.26583 156.006C9.34307 156.171 9.37301 156.365 9.35565 156.59C9.33375 156.873 9.24093 157.122 9.07716 157.336C8.91503 157.55 8.69044 157.715 8.40338 157.832C8.11795 157.948 7.77953 157.999 7.38812 157.985C7.01302 157.971 6.69307 157.899 6.42827 157.77C6.16347 157.641 5.96203 157.464 5.82396 157.24C5.68602 157.015 5.62053 156.751 5.62749 156.45L6.38585 156.478C6.38656 156.659 6.43363 156.812 6.52706 156.936C6.62225 157.059 6.74831 157.153 6.90524 157.217C7.06392 157.281 7.2403 157.316 7.43437 157.323C7.64802 157.331 7.84059 157.305 8.0121 157.244C8.18536 157.182 8.32476 157.093 8.43029 156.976C8.53595 156.858 8.59507 156.717 8.60765 156.554C8.6191 156.406 8.58607 156.284 8.50856 156.186C8.43268 156.089 8.32538 156.006 8.18664 155.939C8.04954 155.872 7.89311 155.811 7.71737 155.757L7.13782 155.574C6.74506 155.45 6.43943 155.278 6.22094 155.057C6.00409 154.837 5.90912 154.553 5.93605 154.204C5.95832 153.916 6.05604 153.668 6.22921 153.459C6.40238 153.25 6.62729 153.091 6.90393 152.983C7.1807 152.872 7.48707 152.823 7.82303 152.836C8.16225 152.849 8.45692 152.919 8.70704 153.048C8.95879 153.177 9.15164 153.348 9.28557 153.562C9.41963 153.774 9.47955 154.015 9.46531 154.283L8.73631 154.256ZM11.6703 158.138C11.3066 158.125 10.9999 158.031 10.75 157.856C10.5019 157.681 10.319 157.445 10.2012 157.148C10.0835 156.851 10.0392 156.515 10.0682 156.139C10.0977 155.759 10.1954 155.425 10.3615 155.139C10.5276 154.852 10.7475 154.631 11.0212 154.476C11.2948 154.322 11.6086 154.251 11.9625 154.265C12.2479 154.275 12.4982 154.338 12.7135 154.452C12.9288 154.564 13.0977 154.718 13.2201 154.912C13.3441 155.106 13.4095 155.329 13.4161 155.582L12.7042 155.556C12.6786 155.378 12.6006 155.224 12.4702 155.091C12.3414 154.959 12.1604 154.889 11.9272 154.88C11.7233 154.872 11.5406 154.919 11.379 155.021C11.2191 155.121 11.0892 155.268 10.9891 155.462C10.8892 155.654 10.829 155.883 10.8083 156.15C10.7872 156.423 10.8105 156.661 10.8784 156.863C10.9462 157.064 11.0517 157.222 11.195 157.337C11.3398 157.452 11.5158 157.513 11.723 157.521C11.8616 157.526 11.9891 157.506 12.1055 157.459C12.2237 157.412 12.3249 157.341 12.4089 157.248C12.4946 157.155 12.5582 157.042 12.5996 156.908L13.3115 156.934C13.2667 157.176 13.1708 157.389 13.024 157.575C12.8772 157.76 12.6887 157.903 12.4584 158.004C12.2298 158.105 11.9671 158.149 11.6703 158.138ZM15.0891 158.274C14.8509 158.265 14.6391 158.213 14.4534 158.118C14.2679 158.021 14.1254 157.886 14.026 157.713C13.9282 157.539 13.8888 157.33 13.9078 157.084C13.9241 156.873 13.9783 156.7 14.0705 156.566C14.1626 156.433 14.281 156.329 14.4258 156.254C14.5706 156.18 14.7302 156.125 14.9046 156.091C15.079 156.057 15.2558 156.033 15.4352 156.018C15.6623 156 15.8466 155.986 15.9881 155.975C16.1298 155.963 16.2339 155.938 16.3005 155.901C16.3671 155.865 16.4038 155.802 16.4106 155.714L16.412 155.697C16.4284 155.484 16.3809 155.317 16.2692 155.195C16.1593 155.073 15.986 155.008 15.7495 154.999C15.5033 154.99 15.305 155.037 15.1547 155.141C15.0061 155.243 14.8998 155.359 14.8358 155.489L14.1605 155.307C14.2597 155.082 14.3929 154.903 14.5603 154.769C14.7295 154.633 14.9192 154.537 15.1296 154.482C15.3401 154.424 15.5587 154.4 15.7854 154.408C15.9355 154.414 16.0931 154.438 16.2583 154.48C16.4253 154.52 16.5786 154.59 16.7182 154.688C16.8594 154.786 16.9706 154.924 17.0519 155.1C17.1333 155.274 17.1634 155.498 17.1423 155.771L16.9498 158.261L16.2354 158.234L16.2751 157.721L16.2457 157.72C16.1911 157.813 16.113 157.903 16.0114 157.991C15.9097 158.078 15.7824 158.149 15.6293 158.204C15.4763 158.259 15.2962 158.282 15.0891 158.274ZM15.2934 157.694C15.4956 157.702 15.6715 157.669 15.8212 157.594C15.9725 157.52 16.0907 157.42 16.1756 157.294C16.2623 157.167 16.3114 157.029 16.3229 156.881L16.3602 156.398C16.3321 156.423 16.2797 156.446 16.2029 156.465C16.1279 156.484 16.0425 156.499 15.9466 156.512C15.8509 156.523 15.7577 156.534 15.667 156.543C15.5764 156.551 15.5006 156.558 15.4396 156.564C15.2964 156.577 15.1644 156.602 15.0437 156.64C14.9246 156.678 14.827 156.735 14.7507 156.812C14.6761 156.888 14.6338 156.991 14.6238 157.121C14.6098 157.301 14.6661 157.441 14.7927 157.538C14.9193 157.635 15.0862 157.687 15.2934 157.694ZM19.042 153.326L18.6554 158.325L17.924 158.298L18.3105 153.299L19.042 153.326ZM20.7265 158.486C20.4884 158.477 20.2766 158.425 20.0909 158.33C19.9054 158.233 19.7629 158.098 19.6635 157.925C19.5656 157.751 19.5262 157.542 19.5452 157.296C19.5616 157.085 19.6158 156.912 19.7079 156.778C19.8001 156.645 19.9185 156.541 20.0633 156.466C20.2081 156.392 20.3677 156.337 20.5421 156.303C20.7164 156.269 20.8933 156.244 21.0727 156.23C21.2998 156.212 21.4841 156.198 21.6256 156.187C21.7672 156.174 21.8714 156.15 21.938 156.113C22.0046 156.077 22.0413 156.014 22.0481 155.926L22.0494 155.909C22.0659 155.696 22.0184 155.529 21.9067 155.407C21.7967 155.285 21.6235 155.22 21.387 155.211C21.1408 155.202 20.9425 155.249 20.7922 155.353C20.6436 155.455 20.5373 155.571 20.4733 155.701L19.798 155.519C19.8971 155.294 20.0304 155.115 20.1978 154.981C20.3669 154.845 20.5567 154.749 20.7671 154.693C20.9776 154.636 21.1962 154.612 21.4229 154.62C21.573 154.626 21.7306 154.65 21.8958 154.692C22.0628 154.732 22.216 154.802 22.3557 154.9C22.4969 154.998 22.6081 155.136 22.6894 155.312C22.7708 155.486 22.8009 155.71 22.7798 155.983L22.5873 158.473L21.8729 158.446L21.9126 157.933L21.8832 157.932C21.8286 158.025 21.7505 158.115 21.6489 158.203C21.5472 158.29 21.4199 158.361 21.2668 158.416C21.1138 158.47 20.9337 158.494 20.7265 158.486ZM20.9308 157.906C21.1331 157.914 21.309 157.881 21.4587 157.806C21.61 157.732 21.7282 157.632 21.8131 157.506C21.8998 157.379 21.9489 157.241 21.9604 157.093L21.9977 156.61C21.9696 156.635 21.9172 156.657 21.8404 156.677C21.7654 156.696 21.6799 156.711 21.5841 156.724C21.4884 156.735 21.3952 156.746 21.3044 156.755C21.2139 156.763 21.1381 156.77 21.0771 156.776C20.9339 156.789 20.8019 156.814 20.6812 156.852C20.5621 156.89 20.4644 156.947 20.3882 157.024C20.3136 157.1 20.2713 157.203 20.2612 157.333C20.2473 157.513 20.3036 157.653 20.4301 157.75C20.5568 157.847 20.7237 157.899 20.9308 157.906ZM23.6202 158.512L24.0067 153.513L24.7382 153.541L24.5945 155.398L24.6386 155.4C24.687 155.323 24.7551 155.235 24.843 155.136C24.9308 155.036 25.0486 154.951 25.1964 154.88C25.3444 154.807 25.5349 154.775 25.7681 154.784C26.0715 154.795 26.3363 154.882 26.5626 155.044C26.7889 155.205 26.9585 155.433 27.0716 155.726C27.1864 156.019 27.2281 156.368 27.1967 156.774C27.1654 157.179 27.0709 157.524 26.9131 157.808C26.7555 158.091 26.5524 158.306 26.3038 158.453C26.0554 158.599 25.7795 158.666 25.4762 158.655C25.2478 158.646 25.0641 158.601 24.9248 158.519C24.7872 158.437 24.6816 158.343 24.608 158.238C24.5344 158.132 24.4786 158.039 24.4408 157.957L24.3796 157.955L24.3345 158.539L23.6202 158.512ZM24.4819 156.664C24.4615 156.928 24.482 157.16 24.5433 157.362C24.6046 157.563 24.7035 157.723 24.8399 157.84C24.9765 157.956 25.15 158.018 25.3604 158.026C25.5789 158.035 25.766 157.984 25.9218 157.874C26.0776 157.762 26.2008 157.608 26.2913 157.41C26.3834 157.213 26.4391 156.989 26.4585 156.738C26.4776 156.491 26.4573 156.268 26.3975 156.068C26.3393 155.868 26.2405 155.709 26.1009 155.589C25.9629 155.47 25.7838 155.406 25.5636 155.398C25.3516 155.39 25.168 155.437 25.0128 155.541C24.8592 155.645 24.7374 155.793 24.6473 155.985C24.5572 156.177 24.502 156.404 24.4819 156.664ZM28.9916 153.7L28.6051 158.699L27.8737 158.672L28.2602 153.673L28.9916 153.7ZM31.2028 158.873C30.8325 158.859 30.5198 158.768 30.2646 158.6C30.0111 158.43 29.8229 158.199 29.7 157.906C29.5789 157.61 29.5333 157.269 29.5634 156.88C29.5931 156.496 29.691 156.16 29.8572 155.872C30.025 155.585 30.2449 155.364 30.5169 155.209C30.7906 155.055 31.1019 154.984 31.4509 154.997C31.6629 155.005 31.8657 155.048 32.0592 155.125C32.2528 155.203 32.4229 155.319 32.5695 155.475C32.7161 155.631 32.8258 155.83 32.8987 156.072C32.9716 156.313 32.995 156.604 32.9687 156.944L32.9487 157.203L29.9617 157.09L30.004 156.544L32.2742 156.629C32.289 156.437 32.263 156.266 32.1962 156.115C32.1295 155.962 32.0285 155.84 31.8933 155.748C31.7597 155.657 31.5983 155.607 31.4092 155.6C31.2037 155.593 31.0204 155.636 30.8593 155.731C30.6999 155.825 30.5724 155.951 30.4768 156.109C30.3829 156.265 30.3288 156.437 30.3143 156.624L30.2813 157.051C30.2619 157.302 30.2895 157.516 30.3639 157.695C30.44 157.875 30.5544 158.014 30.7071 158.112C30.8599 158.209 31.0431 158.262 31.2567 158.27C31.3953 158.275 31.5232 158.26 31.6404 158.226C31.7577 158.189 31.861 158.133 31.9504 158.056C32.0397 157.98 32.1109 157.884 32.164 157.768L32.8467 157.919C32.7755 158.12 32.6623 158.294 32.5069 158.442C32.3533 158.588 32.1656 158.699 31.9438 158.776C31.7238 158.851 31.4767 158.883 31.2028 158.873ZM39.9361 155.742L39.1728 155.713C39.156 155.55 39.1125 155.404 39.0421 155.278C38.9718 155.151 38.882 155.042 38.7729 154.952C38.6638 154.861 38.5392 154.791 38.399 154.742C38.2606 154.693 38.1114 154.665 37.9516 154.659C37.6629 154.648 37.3988 154.711 37.1593 154.847C36.9214 154.983 36.7256 155.189 36.5719 155.464C36.4198 155.739 36.3281 156.078 36.2969 156.482C36.2654 156.888 36.3041 157.234 36.413 157.519C36.5234 157.804 36.6873 158.022 36.9045 158.174C37.1218 158.326 37.3731 158.407 37.6585 158.418C37.8167 158.424 37.9684 158.408 38.1135 158.371C38.2604 158.333 38.3951 158.273 38.5174 158.193C38.6397 158.113 38.7456 158.013 38.8349 157.894C38.926 157.773 38.9932 157.634 39.0365 157.476L39.7996 157.507C39.7398 157.751 39.6432 157.974 39.5098 158.176C39.3782 158.377 39.2153 158.549 39.021 158.692C38.8286 158.833 38.6126 158.94 38.3731 159.012C38.1336 159.085 37.876 159.116 37.6004 159.106C37.1666 159.089 36.788 158.972 36.4646 158.755C36.1414 158.535 35.8967 158.23 35.7307 157.838C35.5664 157.447 35.5047 156.985 35.5459 156.453C35.5872 155.92 35.7204 155.465 35.9457 155.09C36.1711 154.714 36.4613 154.429 36.8164 154.237C37.1716 154.043 37.5653 153.954 37.9975 153.97C38.2633 153.98 38.5082 154.028 38.7323 154.113C38.9581 154.197 39.1574 154.315 39.3304 154.469C39.5035 154.62 39.6423 154.803 39.7467 155.018C39.8513 155.231 39.9144 155.472 39.9361 155.742ZM40.521 159.147L40.8109 155.398L41.5179 155.425L41.4719 156.02L41.511 156.022C41.5951 155.822 41.728 155.668 41.9098 155.559C42.0934 155.449 42.2953 155.398 42.5154 155.406C42.5611 155.408 42.6148 155.411 42.6765 155.417C42.7399 155.422 42.7893 155.428 42.8248 155.435L42.7708 156.133C42.7421 156.123 42.6906 156.112 42.6163 156.1C42.5422 156.086 42.4676 156.077 42.3926 156.074C42.2197 156.068 42.0628 156.099 41.9218 156.167C41.7825 156.233 41.6687 156.329 41.5805 156.455C41.4924 156.579 41.4421 156.722 41.4295 156.885L41.2525 159.175L40.521 159.147ZM44.6439 159.378C44.2737 159.364 43.961 159.273 43.7057 159.105C43.4522 158.936 43.264 158.704 43.1412 158.411C43.02 158.116 42.9745 157.774 43.0046 157.385C43.0343 157.001 43.1322 156.665 43.2984 156.378C43.4662 156.09 43.6861 155.869 43.9581 155.715C44.2317 155.56 44.5431 155.489 44.8921 155.503C45.1041 155.51 45.3069 155.553 45.5004 155.631C45.694 155.708 45.864 155.825 46.0107 155.98C46.1573 156.136 46.267 156.335 46.3398 156.578C46.4128 156.819 46.4361 157.109 46.4098 157.449L46.3898 157.708L43.4029 157.596L43.4452 157.049L45.7153 157.134C45.7302 156.942 45.7042 156.771 45.6374 156.62C45.5707 156.467 45.4697 156.345 45.3345 156.254C45.2009 156.162 45.0395 156.113 44.8503 156.106C44.6448 156.098 44.4615 156.142 44.3004 156.237C44.1411 156.33 44.0136 156.456 43.918 156.614C43.8241 156.77 43.7699 156.942 43.7555 157.129L43.7224 157.556C43.7031 157.807 43.7306 158.022 43.8051 158.201C43.8812 158.38 43.9956 158.519 44.1482 158.618C44.301 158.715 44.4842 158.767 44.6979 158.775C44.8365 158.781 44.9644 158.766 45.0816 158.731C45.1989 158.695 45.3022 158.638 45.3915 158.562C45.4809 158.485 45.5521 158.389 45.6052 158.273L46.2879 158.424C46.2167 158.625 46.1034 158.8 45.9481 158.947C45.7945 159.093 45.6068 159.204 45.385 159.281C45.1649 159.356 44.9179 159.388 44.6439 159.378ZM48.4744 159.519C48.1711 159.508 47.9063 159.421 47.6802 159.257C47.4558 159.092 47.287 158.863 47.1739 158.57C47.0626 158.275 47.0226 157.925 47.0539 157.52C47.0852 157.115 47.1797 156.771 47.3374 156.488C47.4966 156.205 47.7012 155.992 47.9511 155.848C48.2011 155.704 48.4769 155.637 48.7786 155.649C49.0118 155.657 49.1964 155.704 49.3322 155.787C49.4698 155.869 49.5738 155.962 49.6441 156.068C49.7161 156.173 49.7711 156.266 49.8091 156.346L49.8531 156.347L49.9968 154.49L50.7282 154.518L50.3417 159.516L49.6274 159.489L49.6725 158.906L49.6113 158.904C49.5611 158.982 49.4905 159.071 49.3994 159.17C49.3099 159.269 49.1905 159.355 49.041 159.426C48.8916 159.497 48.7027 159.528 48.4744 159.519ZM48.684 158.903C48.8944 158.911 49.0764 158.862 49.2301 158.757C49.3856 158.65 49.5085 158.499 49.5988 158.304C49.6908 158.108 49.747 157.878 49.7674 157.615C49.7875 157.354 49.7677 157.125 49.7077 156.927C49.6478 156.729 49.5495 156.573 49.4128 156.458C49.2761 156.344 49.1009 156.282 48.8872 156.274C48.6671 156.266 48.4792 156.316 48.3236 156.425C48.168 156.533 48.0451 156.684 47.9549 156.878C47.8663 157.072 47.8124 157.293 47.7933 157.54C47.7739 157.791 47.794 158.018 47.8535 158.221C47.9131 158.424 48.0117 158.587 48.1494 158.709C48.2889 158.83 48.4671 158.895 48.684 158.903ZM51.3856 159.555L51.6755 155.806L52.407 155.834L52.1171 159.583L51.3856 159.555ZM52.0896 155.242C51.9624 155.237 51.8564 155.191 51.7717 155.103C51.6886 155.013 51.6517 154.909 51.6609 154.79C51.6702 154.67 51.723 154.569 51.8192 154.488C51.9172 154.405 52.0298 154.366 52.157 154.371C52.2842 154.375 52.3893 154.423 52.4724 154.512C52.5572 154.6 52.5949 154.704 52.5856 154.825C52.5764 154.944 52.5228 155.044 52.4248 155.127C52.3286 155.208 52.2169 155.247 52.0896 155.242ZM55.145 155.937L55.0997 156.523L53.0472 156.446L53.0925 155.86L55.145 155.937ZM53.7124 154.982L54.4439 155.01L54.1696 158.556C54.1587 158.698 54.1716 158.805 54.2085 158.878C54.2455 158.95 54.2964 159 54.3613 159.028C54.4279 159.055 54.5011 159.07 54.5811 159.073C54.6398 159.076 54.6915 159.073 54.7361 159.067C54.7808 159.061 54.8155 159.055 54.8404 159.051L54.9259 159.659C54.8822 159.674 54.8206 159.688 54.7411 159.701C54.6614 159.716 54.5628 159.722 54.4452 159.719C54.2525 159.715 54.0758 159.675 53.915 159.597C53.7542 159.519 53.6282 159.403 53.537 159.25C53.4458 159.096 53.409 158.906 53.4265 158.68L53.7124 154.982Z" fill="#3CB779"/>
<rect x="0.176592" y="0.198114" width="69" height="19.8085" rx="9.90427" transform="matrix(0.999294 0.0375672 -0.0770935 0.997024 -3.0305 144.908)" stroke="#F2F4F7" stroke-width="0.38298"/>
<rect x="0.133269" y="0.122704" width="45.8743" height="13.8108" rx="6.90542" transform="matrix(0.999632 -0.027115 0.0553562 0.998467 195.993 38.2538)" fill="#D5F2E4"/>
<path d="M204.538 43.6121C204.512 43.4599 204.434 43.3436 204.305 43.2631C204.175 43.1816 204.016 43.1434 203.827 43.1485C203.691 43.1522 203.575 43.1769 203.478 43.2225C203.381 43.2672 203.308 43.3273 203.257 43.403C203.207 43.4775 203.185 43.5615 203.19 43.6551C203.194 43.7335 203.217 43.8008 203.256 43.8567C203.297 43.9127 203.349 43.9592 203.411 43.9963C203.475 44.0322 203.542 44.0622 203.613 44.0861C203.685 44.1089 203.753 44.1275 203.819 44.1419L204.146 44.217C204.253 44.2399 204.363 44.2719 204.476 44.313C204.59 44.354 204.696 44.4093 204.794 44.4787C204.893 44.5482 204.974 44.6353 205.038 44.7402C205.103 44.845 205.14 44.9716 205.148 45.1199C205.159 45.307 205.12 45.4744 205.031 45.6221C204.943 45.7698 204.81 45.8881 204.632 45.9769C204.454 46.0657 204.237 46.1136 203.978 46.1206C203.731 46.1273 203.514 46.0939 203.329 46.0203C203.144 45.9467 202.996 45.8393 202.886 45.698C202.776 45.5557 202.71 45.3852 202.688 45.1867L203.189 45.1731C203.205 45.2921 203.249 45.3905 203.321 45.4682C203.395 45.5448 203.486 45.6011 203.594 45.6369C203.704 45.6716 203.823 45.6872 203.951 45.6837C204.092 45.6799 204.216 45.6544 204.323 45.6074C204.432 45.5592 204.515 45.4945 204.575 45.4133C204.634 45.3309 204.66 45.236 204.654 45.1285C204.649 45.0307 204.616 44.9513 204.557 44.8905C204.499 44.8297 204.421 44.7801 204.324 44.7418C204.228 44.7035 204.12 44.6704 204 44.6424L203.603 44.5466C203.335 44.4817 203.119 44.3815 202.956 44.246C202.794 44.1104 202.707 43.9276 202.695 43.6976C202.684 43.5073 202.726 43.3398 202.822 43.1951C202.917 43.0504 203.051 42.9365 203.223 42.8532C203.395 42.7689 203.592 42.7237 203.814 42.7177C204.038 42.7116 204.237 42.7455 204.413 42.8193C204.589 42.8931 204.731 42.9975 204.838 43.1324C204.944 43.2662 205.005 43.4218 205.019 43.599L204.538 43.6121ZM206.804 46.0391C206.564 46.0456 206.354 45.9969 206.175 45.8931C205.996 45.7881 205.856 45.6407 205.752 45.4507C205.649 45.2608 205.591 45.0417 205.577 44.7934C205.563 44.5419 205.598 44.3186 205.682 44.1236C205.766 43.9276 205.891 43.7729 206.057 43.6597C206.223 43.5464 206.423 43.4866 206.657 43.4803C206.845 43.4752 207.015 43.5056 207.166 43.5714C207.318 43.6362 207.442 43.7298 207.539 43.852C207.638 43.9742 207.7 44.1184 207.726 44.2846L207.257 44.2973C207.224 44.1819 207.16 44.0835 207.062 44.0022C206.966 43.9208 206.841 43.8822 206.687 43.8864C206.553 43.8901 206.437 43.9287 206.34 44.0024C206.244 44.075 206.171 44.1771 206.122 44.3087C206.074 44.4392 206.054 44.5926 206.064 44.7689C206.074 44.9495 206.11 45.1046 206.172 45.2343C206.234 45.3639 206.317 45.4634 206.421 45.5327C206.527 45.602 206.647 45.6348 206.784 45.6311C206.876 45.6286 206.958 45.6097 207.03 45.5743C207.103 45.5379 207.164 45.4873 207.211 45.4225C207.259 45.3577 207.291 45.2804 207.306 45.1906L207.776 45.1778C207.768 45.3385 207.723 45.4829 207.643 45.611C207.563 45.7391 207.452 45.8412 207.309 45.9172C207.168 45.9932 206.999 46.0338 206.804 46.0391ZM209.06 45.9827C208.903 45.987 208.759 45.9618 208.629 45.9072C208.499 45.8516 208.394 45.7688 208.313 45.659C208.234 45.5492 208.19 45.4132 208.181 45.2508C208.173 45.1111 208.193 44.9953 208.242 44.9036C208.291 44.8118 208.36 44.7384 208.448 44.6832C208.537 44.6281 208.637 44.5855 208.748 44.5556C208.86 44.5256 208.974 44.5021 209.09 44.4849C209.238 44.4637 209.358 44.4465 209.45 44.4332C209.542 44.4189 209.608 44.3982 209.648 44.3713C209.689 44.3444 209.708 44.3019 209.704 44.2438L209.704 44.2325C209.696 44.0917 209.65 43.9837 209.566 43.9084C209.483 43.8332 209.364 43.7977 209.208 43.8019C209.045 43.8063 208.919 43.8458 208.83 43.9204C208.741 43.9938 208.681 44.0746 208.651 44.1626L208.191 44.0717C208.237 43.9197 208.308 43.7961 208.407 43.7009C208.506 43.6045 208.622 43.5336 208.755 43.488C208.889 43.4413 209.03 43.4159 209.18 43.4119C209.279 43.4092 209.384 43.4182 209.496 43.4388C209.61 43.4583 209.716 43.4974 209.817 43.5561C209.918 43.6147 210.003 43.7001 210.072 43.8124C210.14 43.9236 210.18 44.0694 210.19 44.25L210.281 45.8947L209.809 45.9075L209.791 45.5689L209.771 45.5694C209.744 45.6326 209.7 45.6952 209.641 45.7571C209.582 45.8189 209.505 45.8711 209.409 45.9135C209.313 45.956 209.197 45.979 209.06 45.9827ZM209.144 45.5929C209.277 45.5893 209.39 45.5599 209.482 45.5046C209.574 45.4493 209.643 45.3786 209.688 45.2923C209.734 45.2049 209.754 45.1123 209.749 45.0145L209.731 44.6953C209.715 44.7129 209.682 44.73 209.634 44.7464C209.586 44.7616 209.531 44.7755 209.469 44.7879C209.407 44.7993 209.347 44.8101 209.288 44.8203C209.23 44.8294 209.181 44.8372 209.141 44.8437C209.048 44.858 208.964 44.8803 208.888 44.9103C208.813 44.9403 208.754 44.9823 208.71 45.0362C208.668 45.0891 208.649 45.1585 208.654 45.2445C208.661 45.3638 208.71 45.4529 208.801 45.5118C208.893 45.5696 209.007 45.5966 209.144 45.5929ZM211.223 42.5619L211.406 45.8642L210.924 45.8773L210.741 42.575L211.223 42.5619ZM212.78 45.8818C212.623 45.8861 212.48 45.8609 212.349 45.8063C212.219 45.7506 212.114 45.6679 212.033 45.5581C211.954 45.4483 211.91 45.3123 211.901 45.1499C211.893 45.0102 211.914 44.8944 211.962 44.8027C212.011 44.7109 212.08 44.6375 212.168 44.5823C212.257 44.5272 212.357 44.4846 212.469 44.4547C212.58 44.4247 212.694 44.4012 212.811 44.384C212.958 44.3628 213.078 44.3456 213.17 44.3323C213.262 44.318 213.328 44.2973 213.369 44.2704C213.409 44.2435 213.428 44.201 213.425 44.1429L213.424 44.1316C213.416 43.9908 213.37 43.8828 213.286 43.8075C213.203 43.7323 213.084 43.6968 212.928 43.701C212.765 43.7054 212.639 43.7449 212.55 43.8194C212.461 43.8929 212.401 43.9736 212.371 44.0617L211.911 43.9708C211.957 43.8188 212.029 43.6952 212.127 43.6C212.226 43.5036 212.342 43.4327 212.476 43.3871C212.609 43.3404 212.75 43.315 212.9 43.311C212.999 43.3083 213.104 43.3172 213.217 43.3379C213.33 43.3574 213.437 43.3965 213.537 43.4552C213.638 43.5138 213.723 43.5992 213.792 43.7115C213.861 43.8226 213.9 43.9685 213.91 44.1491L214.001 45.7938L213.53 45.8066L213.511 45.468L213.492 45.4685C213.464 45.5317 213.42 45.5943 213.361 45.6561C213.302 45.718 213.225 45.7702 213.129 45.8126C213.033 45.8551 212.917 45.8781 212.78 45.8818ZM212.864 45.492C212.997 45.4884 213.11 45.4589 213.202 45.4037C213.295 45.3484 213.364 45.2777 213.408 45.1914C213.454 45.104 213.474 45.0114 213.469 44.9136L213.451 44.5944C213.435 44.612 213.402 44.629 213.354 44.6454C213.306 44.6607 213.251 44.6746 213.19 44.687C213.128 44.6984 213.067 44.7092 213.009 44.7194C212.95 44.7285 212.901 44.7363 212.861 44.7428C212.768 44.7571 212.684 44.7793 212.608 44.8094C212.533 44.8394 212.474 44.8814 212.431 44.9353C212.388 44.9881 212.369 45.0576 212.374 45.1436C212.381 45.2629 212.43 45.352 212.522 45.4109C212.613 45.4687 212.727 45.4957 212.864 45.492ZM214.683 45.7753L214.5 42.473L214.982 42.4599L215.05 43.687L215.079 43.6862C215.105 43.6339 215.142 43.5731 215.191 43.504C215.24 43.4348 215.309 43.3737 215.4 43.3206C215.491 43.2665 215.613 43.2373 215.767 43.2332C215.967 43.2277 216.149 43.2734 216.312 43.3702C216.474 43.467 216.606 43.6093 216.706 43.7971C216.807 43.985 216.864 44.2127 216.879 44.4804C216.894 44.748 216.862 44.9788 216.783 45.1725C216.705 45.3652 216.59 45.5153 216.44 45.6227C216.289 45.7291 216.114 45.7849 215.914 45.7904C215.763 45.7945 215.639 45.7725 215.54 45.7246C215.443 45.6767 215.365 45.6196 215.307 45.5533C215.25 45.487 215.205 45.428 215.173 45.3761L215.133 45.3772L215.154 45.7625L214.683 45.7753ZM215.087 44.5241C215.097 44.6983 215.13 44.8502 215.188 44.98C215.246 45.1098 215.325 45.2105 215.425 45.282C215.525 45.3525 215.644 45.3859 215.783 45.3821C215.927 45.3782 216.046 45.3368 216.138 45.2578C216.231 45.1778 216.298 45.071 216.34 44.9375C216.384 44.8039 216.401 44.6543 216.391 44.4888C216.382 44.3254 216.35 44.1793 216.293 44.0506C216.237 43.9218 216.158 43.8211 216.056 43.7486C215.955 43.6759 215.832 43.6416 215.687 43.6455C215.547 43.6493 215.43 43.6886 215.338 43.7632C215.246 43.8378 215.179 43.9403 215.136 44.0706C215.094 44.201 215.078 44.3521 215.087 44.5241ZM217.789 42.3838L217.972 45.6861L217.49 45.6992L217.307 42.3969L217.789 42.3838ZM219.693 45.6895C219.449 45.6961 219.236 45.6497 219.053 45.5502C218.872 45.4496 218.728 45.3055 218.622 45.1178C218.517 44.929 218.457 44.7062 218.443 44.4493C218.428 44.1956 218.463 43.9707 218.547 43.7746C218.632 43.5785 218.758 43.4239 218.923 43.3107C219.089 43.1974 219.287 43.1377 219.517 43.1315C219.657 43.1277 219.794 43.1471 219.928 43.1898C220.062 43.2324 220.184 43.3018 220.294 43.3978C220.404 43.4939 220.493 43.6201 220.562 43.7765C220.631 43.9318 220.672 44.1218 220.684 44.3465L220.694 44.5174L218.723 44.5709L218.703 44.2097L220.201 44.169C220.194 44.0422 220.162 43.9306 220.104 43.8341C220.047 43.7366 219.97 43.6607 219.874 43.6063C219.778 43.5518 219.668 43.5263 219.543 43.5296C219.407 43.5333 219.291 43.5699 219.193 43.6392C219.097 43.7075 219.024 43.7956 218.975 43.9035C218.927 44.0103 218.906 44.1256 218.913 44.2492L218.929 44.5314C218.938 44.6969 218.975 44.8369 219.039 44.9515C219.105 45.0659 219.192 45.1524 219.301 45.2108C219.41 45.2681 219.535 45.2949 219.676 45.2911C219.767 45.2886 219.85 45.2734 219.924 45.2456C219.998 45.2167 220.061 45.1751 220.113 45.121C220.165 45.0668 220.203 45.0006 220.228 44.9225L220.689 44.9923C220.66 45.1277 220.601 45.2471 220.512 45.3508C220.424 45.4533 220.31 45.5344 220.171 45.5942C220.033 45.6528 219.874 45.6846 219.693 45.6895ZM225.154 43.2595L224.65 43.2732C224.625 43.1662 224.584 43.0726 224.526 42.9923C224.469 42.9121 224.401 42.8445 224.321 42.7896C224.242 42.7347 224.154 42.694 224.057 42.6676C223.962 42.6411 223.862 42.6293 223.756 42.6321C223.566 42.6373 223.398 42.6898 223.253 42.7895C223.108 42.8892 222.998 43.0327 222.921 43.22C222.845 43.4072 222.814 43.6341 222.829 43.9007C222.844 44.1695 222.9 44.3951 222.996 44.5777C223.093 44.7602 223.22 44.8967 223.376 44.9872C223.532 45.0777 223.704 45.1204 223.892 45.1153C223.997 45.1125 224.095 45.0958 224.187 45.0654C224.28 45.0338 224.363 44.989 224.437 44.931C224.51 44.873 224.571 44.803 224.619 44.721C224.668 44.6378 224.7 44.5433 224.715 44.4374L225.219 44.4253C225.201 44.5884 225.157 44.7392 225.087 44.8779C225.018 45.0154 224.926 45.1352 224.811 45.2374C224.697 45.3384 224.564 45.4179 224.414 45.4759C224.263 45.5338 224.096 45.5652 223.914 45.5701C223.628 45.5779 223.369 45.5171 223.138 45.3877C222.906 45.2573 222.719 45.067 222.576 44.8168C222.434 44.5666 222.353 44.2657 222.334 43.9142C222.314 43.5616 222.362 43.2572 222.477 43.0011C222.592 42.7439 222.758 42.5446 222.974 42.403C223.19 42.2605 223.441 42.1853 223.726 42.1776C223.902 42.1728 224.067 42.1936 224.221 42.24C224.377 42.2853 224.518 42.3547 224.645 42.4482C224.772 42.5405 224.879 42.655 224.966 42.7915C225.054 42.9269 225.116 43.0829 225.154 43.2595ZM225.836 45.4728L225.698 42.9961L226.165 42.9834L226.187 43.3769L226.213 43.3762C226.25 43.2416 226.324 43.1347 226.434 43.0553C226.545 42.9747 226.673 42.9325 226.818 42.9286C226.848 42.9278 226.884 42.9279 226.925 42.9289C226.967 42.9299 227 42.9317 227.024 42.9343L227.05 43.3955C227.03 43.3906 226.995 43.3856 226.945 43.3805C226.895 43.3743 226.846 43.3719 226.796 43.3733C226.682 43.3764 226.582 43.4033 226.495 43.4541C226.409 43.5038 226.343 43.5718 226.296 43.6581C226.249 43.7434 226.229 43.8397 226.235 43.9472L226.318 45.4597L225.836 45.4728ZM228.563 45.4489C228.319 45.4555 228.105 45.4091 227.923 45.3096C227.742 45.209 227.598 45.0649 227.492 44.8772C227.387 44.6884 227.327 44.4656 227.312 44.2087C227.298 43.955 227.333 43.7301 227.417 43.534C227.502 43.338 227.627 43.1833 227.793 43.0701C227.959 42.9568 228.157 42.8971 228.387 42.8909C228.527 42.8871 228.664 42.9065 228.798 42.9492C228.932 42.9918 229.054 43.0612 229.164 43.1572C229.273 43.2533 229.363 43.3795 229.432 43.5359C229.501 43.6912 229.542 43.8812 229.554 44.1059L229.564 44.2768L227.592 44.3303L227.572 43.9691L229.071 43.9284C229.063 43.8016 229.031 43.69 228.974 43.5935C228.917 43.4961 228.84 43.4201 228.743 43.3657C228.648 43.3112 228.537 43.2857 228.413 43.289C228.277 43.2927 228.16 43.3293 228.063 43.3986C227.967 43.4669 227.894 43.555 227.845 43.6629C227.797 43.7697 227.776 43.885 227.783 44.0086L227.799 44.2908C227.808 44.4563 227.845 44.5963 227.909 44.7109C227.975 44.8253 228.062 44.9118 228.171 44.9702C228.28 45.0275 228.405 45.0543 228.546 45.0505C228.637 45.048 228.72 45.0328 228.794 45.005C228.868 44.9761 228.931 44.9345 228.983 44.8804C229.035 44.8262 229.073 44.76 229.098 44.6819L229.559 44.7517C229.53 44.8871 229.471 45.0065 229.382 45.1102C229.294 45.2127 229.18 45.2938 229.041 45.3536C228.903 45.4122 228.744 45.444 228.563 45.4489ZM231.091 45.3787C230.89 45.3841 230.709 45.3379 230.546 45.2401C230.384 45.1411 230.254 44.9977 230.154 44.8099C230.055 44.6209 229.998 44.3926 229.983 44.1249C229.968 43.8573 230 43.6271 230.079 43.4344C230.159 43.2417 230.275 43.0927 230.426 42.9873C230.578 42.882 230.753 42.8267 230.952 42.8213C231.106 42.8171 231.231 42.8396 231.328 42.8886C231.425 42.9366 231.502 42.9937 231.557 43.06C231.614 43.1263 231.658 43.1849 231.69 43.2357L231.719 43.2349L231.651 42.0078L232.133 41.9947L232.316 45.297L231.845 45.3098L231.824 44.9244L231.783 44.9255C231.757 44.979 231.719 45.0403 231.667 45.1095C231.617 45.1787 231.546 45.2399 231.455 45.2929C231.363 45.346 231.241 45.3746 231.091 45.3787ZM231.174 44.9646C231.313 44.9609 231.429 44.9212 231.52 44.8455C231.613 44.7687 231.68 44.664 231.723 44.5315C231.766 44.399 231.783 44.2457 231.773 44.0715C231.764 43.8995 231.731 43.7497 231.674 43.6221C231.617 43.4944 231.539 43.3959 231.439 43.3264C231.339 43.257 231.219 43.2242 231.078 43.228C230.933 43.232 230.814 43.2729 230.721 43.3508C230.628 43.4286 230.561 43.5333 230.519 43.6647C230.477 43.7961 230.461 43.9435 230.47 44.1069C230.48 44.2724 230.513 44.4206 230.569 44.5515C230.626 44.6824 230.705 44.7852 230.806 44.86C230.909 44.9336 231.031 44.9685 231.174 44.9646ZM233.005 45.2783L232.868 42.8016L233.351 42.7885L233.488 45.2652L233.005 45.2783ZM233.091 42.4128C233.007 42.4151 232.933 42.3891 232.87 42.3349C232.807 42.2795 232.774 42.2126 232.77 42.1341C232.765 42.0546 232.791 41.986 232.847 41.9285C232.904 41.8699 232.975 41.8395 233.059 41.8372C233.143 41.8349 233.216 41.8615 233.278 41.9168C233.342 41.9711 233.375 42.038 233.38 42.1176C233.384 42.196 233.358 42.2646 233.301 42.3232C233.245 42.3807 233.175 42.4106 233.091 42.4128ZM235.158 42.7395L235.179 43.1265L233.825 43.1632L233.803 42.7762L235.158 42.7395ZM234.133 42.173L234.616 42.1599L234.746 44.5028C234.751 44.5963 234.769 44.6664 234.8 44.7129C234.83 44.7584 234.868 44.7891 234.913 44.8051C234.959 44.82 235.009 44.8267 235.061 44.8253C235.1 44.8242 235.134 44.8206 235.163 44.8145C235.191 44.8083 235.214 44.8034 235.23 44.7997L235.339 45.1957C235.312 45.2072 235.272 45.219 235.221 45.2311C235.17 45.2444 235.106 45.2526 235.029 45.2557C234.902 45.2613 234.782 45.242 234.67 45.1977C234.557 45.1533 234.465 45.0826 234.391 44.9856C234.318 44.8885 234.277 44.7653 234.269 44.6159L234.133 42.173Z" fill="#3CB779"/>
<rect x="0.133269" y="0.122704" width="45.8743" height="13.8108" rx="6.90542" transform="matrix(0.999632 -0.027115 0.0553562 0.998467 195.993 38.2538)" stroke="#F2F4F7" stroke-width="0.252646"/>
</g>
<defs>
<clipPath id="clip0_219_9788">
<rect width="375" height="258" fill="white"/>
</clipPath>
</defs>
</svg>
