<svg width="1440" height="760" viewBox="0 0 1440 760" fill="none" xmlns="http://www.w3.org/2000/svg">
<rect width="144" height="144" stroke="#D5F2E4" stroke-opacity="0.2" stroke-width="2"/>
<rect x="144" width="144" height="144" stroke="#D5F2E4" stroke-opacity="0.2" stroke-width="2"/>
<rect x="288" width="144" height="144" stroke="#D5F2E4" stroke-opacity="0.2" stroke-width="2"/>
<rect x="432" width="144" height="144" stroke="#D5F2E4" stroke-opacity="0.2" stroke-width="2"/>
<rect x="576" width="144" height="144" stroke="#D5F2E4" stroke-opacity="0.2" stroke-width="2"/>
<rect x="720" width="144" height="144" stroke="#D5F2E4" stroke-opacity="0.2" stroke-width="2"/>
<rect x="864" width="144" height="144" stroke="#D5F2E4" stroke-opacity="0.2" stroke-width="2"/>
<rect x="1008" width="144" height="144" stroke="#D5F2E4" stroke-opacity="0.2" stroke-width="2"/>
<rect x="1152" width="144" height="144" stroke="#D5F2E4" stroke-opacity="0.2" stroke-width="2"/>
<rect x="1296" width="144" height="144" stroke="#D5F2E4" stroke-opacity="0.2" stroke-width="2"/>
<rect y="144" width="144" height="144" stroke="#D5F2E4" stroke-opacity="0.2" stroke-width="2"/>
<rect x="144" y="144" width="144" height="144" stroke="#D5F2E4" stroke-opacity="0.2" stroke-width="2"/>
<rect x="288" y="144" width="144" height="144" stroke="#D5F2E4" stroke-opacity="0.2" stroke-width="2"/>
<rect x="432" y="144" width="144" height="144" stroke="#D5F2E4" stroke-opacity="0.2" stroke-width="2"/>
<rect x="576" y="144" width="144" height="144" stroke="#D5F2E4" stroke-opacity="0.2" stroke-width="2"/>
<rect x="720" y="144" width="144" height="144" stroke="#D5F2E4" stroke-opacity="0.2" stroke-width="2"/>
<rect x="864" y="144" width="144" height="144" stroke="#D5F2E4" stroke-opacity="0.2" stroke-width="2"/>
<rect x="1008" y="144" width="144" height="144" stroke="#D5F2E4" stroke-opacity="0.2" stroke-width="2"/>
<rect x="1152" y="144" width="144" height="144" stroke="#D5F2E4" stroke-opacity="0.2" stroke-width="2"/>
<rect x="1296" y="144" width="144" height="144" stroke="#D5F2E4" stroke-opacity="0.2" stroke-width="2"/>
<rect y="288" width="144" height="144" stroke="#D5F2E4" stroke-opacity="0.2" stroke-width="2"/>
<rect x="144" y="288" width="144" height="144" stroke="#D5F2E4" stroke-opacity="0.2" stroke-width="2"/>
<rect x="288" y="288" width="144" height="144" stroke="#D5F2E4" stroke-opacity="0.2" stroke-width="2"/>
<rect x="432" y="288" width="144" height="144" stroke="#D5F2E4" stroke-opacity="0.2" stroke-width="2"/>
<rect x="576" y="288" width="144" height="144" stroke="#D5F2E4" stroke-opacity="0.2" stroke-width="2"/>
<rect x="720" y="288" width="144" height="144" stroke="#D5F2E4" stroke-opacity="0.2" stroke-width="2"/>
<rect x="864" y="288" width="144" height="144" stroke="#D5F2E4" stroke-opacity="0.2" stroke-width="2"/>
<rect x="1008" y="288" width="144" height="144" stroke="#D5F2E4" stroke-opacity="0.2" stroke-width="2"/>
<rect x="1152" y="288" width="144" height="144" stroke="#D5F2E4" stroke-opacity="0.2" stroke-width="2"/>
<rect x="1296" y="288" width="144" height="144" stroke="#D5F2E4" stroke-opacity="0.2" stroke-width="2"/>
<rect y="432" width="144" height="144" stroke="#D5F2E4" stroke-opacity="0.2" stroke-width="2"/>
<rect x="144" y="432" width="144" height="144" stroke="#D5F2E4" stroke-opacity="0.2" stroke-width="2"/>
<rect x="288" y="432" width="144" height="144" stroke="#D5F2E4" stroke-opacity="0.2" stroke-width="2"/>
<rect x="432" y="432" width="144" height="144" stroke="#D5F2E4" stroke-opacity="0.2" stroke-width="2"/>
<rect x="576" y="432" width="144" height="144" stroke="#D5F2E4" stroke-opacity="0.2" stroke-width="2"/>
<rect x="720" y="432" width="144" height="144" stroke="#D5F2E4" stroke-opacity="0.2" stroke-width="2"/>
<rect x="864" y="432" width="144" height="144" stroke="#D5F2E4" stroke-opacity="0.2" stroke-width="2"/>
<rect x="1008" y="432" width="144" height="144" stroke="#D5F2E4" stroke-opacity="0.2" stroke-width="2"/>
<rect x="1152" y="432" width="144" height="144" stroke="#D5F2E4" stroke-opacity="0.2" stroke-width="2"/>
<rect x="1296" y="432" width="144" height="144" stroke="#D5F2E4" stroke-opacity="0.2" stroke-width="2"/>
<rect y="576" width="144" height="144" stroke="#D5F2E4" stroke-opacity="0.2" stroke-width="2"/>
<rect x="144" y="576" width="144" height="144" stroke="#D5F2E4" stroke-opacity="0.2" stroke-width="2"/>
<rect x="288" y="576" width="144" height="144" stroke="#D5F2E4" stroke-opacity="0.2" stroke-width="2"/>
<rect x="432" y="576" width="144" height="144" stroke="#D5F2E4" stroke-opacity="0.2" stroke-width="2"/>
<rect x="576" y="576" width="144" height="144" stroke="#D5F2E4" stroke-opacity="0.2" stroke-width="2"/>
<rect x="720" y="576" width="144" height="144" stroke="#D5F2E4" stroke-opacity="0.2" stroke-width="2"/>
<rect x="864" y="576" width="144" height="144" stroke="#D5F2E4" stroke-opacity="0.2" stroke-width="2"/>
<rect x="1008" y="576" width="144" height="144" stroke="#D5F2E4" stroke-opacity="0.2" stroke-width="2"/>
<rect x="1152" y="576" width="144" height="144" stroke="#D5F2E4" stroke-opacity="0.2" stroke-width="2"/>
<rect x="1296" y="576" width="144" height="144" stroke="#D5F2E4" stroke-opacity="0.2" stroke-width="2"/>
<rect y="720" width="144" height="144" stroke="#D5F2E4" stroke-opacity="0.2" stroke-width="2"/>
<rect x="144" y="720" width="144" height="144" stroke="#D5F2E4" stroke-opacity="0.2" stroke-width="2"/>
<rect x="288" y="720" width="144" height="144" stroke="#D5F2E4" stroke-opacity="0.2" stroke-width="2"/>
<rect x="432" y="720" width="144" height="144" stroke="#D5F2E4" stroke-opacity="0.2" stroke-width="2"/>
<rect x="576" y="720" width="144" height="144" stroke="#D5F2E4" stroke-opacity="0.2" stroke-width="2"/>
<rect x="720" y="720" width="144" height="144" stroke="#D5F2E4" stroke-opacity="0.2" stroke-width="2"/>
<rect x="864" y="720" width="144" height="144" stroke="#D5F2E4" stroke-opacity="0.2" stroke-width="2"/>
<rect x="1008" y="720" width="144" height="144" stroke="#D5F2E4" stroke-opacity="0.2" stroke-width="2"/>
<rect x="1152" y="720" width="144" height="144" stroke="#D5F2E4" stroke-opacity="0.2" stroke-width="2"/>
<rect x="1296" y="720" width="144" height="144" stroke="#D5F2E4" stroke-opacity="0.2" stroke-width="2"/>
<rect x="1440" y="753.188" width="1440" height="502.187" transform="rotate(-180 1440 753.188)" fill="url(#paint0_linear_455_966)"/>
<rect x="1096" y="594.49" width="146.017" height="47.0506" rx="23.5253" transform="rotate(4.2778 1096 594.49)" fill="#0B3420"/>
<path d="M1127.1 614.41L1126.2 626.358L1124.55 626.234L1119.13 617.018L1119.02 617.009L1118.36 625.772L1116.56 625.637L1117.45 613.689L1119.12 613.814L1124.54 623.043L1124.66 623.051L1125.31 614.277L1127.1 614.41ZM1132.45 627.008C1131.61 626.945 1130.89 626.698 1130.3 626.266C1129.7 625.834 1129.25 625.259 1128.96 624.541C1128.67 623.822 1128.55 623.001 1128.62 622.075C1128.69 621.145 1128.93 620.345 1129.32 619.675C1129.72 619.005 1130.25 618.501 1130.9 618.162C1131.56 617.824 1132.31 617.686 1133.15 617.749C1133.99 617.812 1134.71 618.059 1135.3 618.491C1135.9 618.923 1136.35 619.5 1136.64 620.222C1136.93 620.944 1137.05 621.77 1136.98 622.7C1136.91 623.625 1136.67 624.421 1136.28 625.088C1135.88 625.754 1135.35 626.257 1134.7 626.595C1134.04 626.933 1133.29 627.071 1132.45 627.008ZM1132.57 625.544C1133.11 625.585 1133.58 625.474 1133.95 625.213C1134.33 624.952 1134.63 624.589 1134.83 624.124C1135.05 623.658 1135.17 623.138 1135.22 622.562C1135.26 621.99 1135.21 621.459 1135.07 620.967C1134.94 620.472 1134.7 620.065 1134.36 619.747C1134.03 619.429 1133.59 619.249 1133.04 619.208C1132.49 619.167 1132.03 619.279 1131.65 619.544C1131.27 619.809 1130.97 620.176 1130.76 620.645C1130.55 621.11 1130.43 621.629 1130.38 622.201C1130.34 622.776 1130.39 623.31 1130.52 623.801C1130.66 624.292 1130.9 624.696 1131.24 625.01C1131.58 625.325 1132.02 625.503 1132.57 625.544ZM1153.9 622.423C1153.81 623.699 1153.49 624.778 1152.96 625.661C1152.42 626.54 1151.73 627.196 1150.88 627.629C1150.04 628.059 1149.1 628.235 1148.07 628.158C1147.03 628.081 1146.13 627.767 1145.35 627.216C1144.58 626.661 1143.99 625.908 1143.6 624.955C1143.2 624.002 1143.05 622.89 1143.14 621.618C1143.24 620.342 1143.55 619.265 1144.09 618.386C1144.62 617.503 1145.31 616.847 1146.16 616.417C1147.01 615.984 1147.95 615.806 1148.98 615.883C1150.02 615.96 1150.92 616.276 1151.69 616.831C1152.47 617.382 1153.05 618.133 1153.45 619.086C1153.85 620.035 1154 621.147 1153.9 622.423ZM1152.12 622.29C1152.19 621.317 1152.1 620.487 1151.83 619.798C1151.57 619.106 1151.18 618.568 1150.66 618.185C1150.15 617.799 1149.55 617.58 1148.86 617.529C1148.17 617.477 1147.55 617.604 1146.98 617.91C1146.41 618.212 1145.95 618.685 1145.58 619.331C1145.22 619.973 1145 620.78 1144.93 621.752C1144.86 622.724 1144.95 623.557 1145.21 624.249C1145.48 624.937 1145.87 625.475 1146.38 625.862C1146.9 626.244 1147.5 626.461 1148.19 626.513C1148.87 626.564 1149.5 626.439 1150.07 626.137C1150.64 625.832 1151.1 625.358 1151.46 624.716C1151.83 624.071 1152.05 623.262 1152.12 622.29ZM1163.9 620.167L1159.98 628.885L1158.11 628.745L1155.53 619.541L1157.4 619.681L1159.16 626.747L1159.25 626.754L1162.03 620.027L1163.9 620.167ZM1168.41 629.698C1167.53 629.632 1166.79 629.386 1166.18 628.961C1165.57 628.533 1165.12 627.961 1164.83 627.247C1164.54 626.529 1164.42 625.705 1164.49 624.776C1164.56 623.858 1164.79 623.062 1165.19 622.387C1165.59 621.713 1166.11 621.203 1166.76 620.856C1167.41 620.51 1168.15 620.368 1168.98 620.43C1169.49 620.468 1169.97 620.588 1170.44 620.791C1170.9 620.994 1171.3 621.288 1171.65 621.674C1172.01 622.06 1172.27 622.547 1172.44 623.135C1172.62 623.719 1172.68 624.418 1172.61 625.231L1172.57 625.849L1165.45 625.316L1165.54 624.009L1170.96 624.414C1170.99 623.955 1170.93 623.542 1170.77 623.174C1170.61 622.802 1170.37 622.501 1170.04 622.269C1169.72 622.038 1169.34 621.906 1168.89 621.872C1168.4 621.835 1167.96 621.924 1167.58 622.138C1167.2 622.348 1166.9 622.638 1166.67 623.008C1166.44 623.375 1166.32 623.782 1166.28 624.229L1166.21 625.25C1166.16 625.849 1166.23 626.366 1166.41 626.802C1166.59 627.238 1166.86 627.581 1167.23 627.831C1167.59 628.078 1168.03 628.22 1168.54 628.258C1168.87 628.283 1169.18 628.259 1169.45 628.186C1169.73 628.109 1169.98 627.982 1170.19 627.807C1170.41 627.631 1170.57 627.407 1170.7 627.135L1172.33 627.556C1172.16 628.032 1171.89 628.44 1171.52 628.78C1171.16 629.117 1170.71 629.367 1170.18 629.531C1169.66 629.691 1169.07 629.747 1168.41 629.698ZM1174.21 629.949L1174.88 620.988L1176.56 621.114L1176.46 622.538L1176.55 622.545C1176.75 622.075 1177.07 621.717 1177.5 621.472C1177.94 621.223 1178.42 621.118 1178.94 621.157C1179.05 621.165 1179.18 621.179 1179.33 621.198C1179.48 621.217 1179.6 621.235 1179.68 621.254L1179.56 622.922C1179.49 622.897 1179.36 622.867 1179.19 622.83C1179.01 622.789 1178.83 622.762 1178.65 622.749C1178.24 622.718 1177.87 622.778 1177.53 622.929C1177.2 623.076 1176.93 623.297 1176.72 623.59C1176.51 623.879 1176.39 624.218 1176.36 624.607L1175.95 630.08L1174.21 629.949ZM1183.53 630.823C1182.81 630.769 1182.18 630.536 1181.64 630.124C1181.1 629.708 1180.7 629.144 1180.43 628.431C1180.16 627.715 1180.06 626.873 1180.14 625.905C1180.21 624.936 1180.43 624.12 1180.81 623.456C1181.18 622.792 1181.67 622.298 1182.27 621.975C1182.86 621.652 1183.52 621.517 1184.24 621.571C1184.79 621.613 1185.23 621.739 1185.56 621.951C1185.89 622.16 1186.14 622.393 1186.3 622.652C1186.48 622.912 1186.61 623.139 1186.7 623.333L1186.8 623.341L1187.14 618.901L1188.88 619.032L1187.99 630.98L1186.28 630.852L1186.39 629.458L1186.24 629.447C1186.12 629.63 1185.95 629.836 1185.74 630.067C1185.52 630.297 1185.24 630.491 1184.88 630.648C1184.53 630.805 1184.08 630.864 1183.53 630.823ZM1184.03 629.364C1184.53 629.401 1184.97 629.301 1185.33 629.062C1185.7 628.82 1185.99 628.469 1186.21 628.007C1186.43 627.547 1186.56 627.001 1186.61 626.371C1186.65 625.749 1186.6 625.198 1186.46 624.717C1186.32 624.237 1186.08 623.854 1185.75 623.568C1185.43 623.281 1185.01 623.119 1184.5 623.081C1183.97 623.041 1183.53 623.145 1183.16 623.391C1182.79 623.637 1182.49 623.989 1182.28 624.446C1182.07 624.903 1181.94 625.428 1181.9 626.019C1181.85 626.618 1181.9 627.163 1182.05 627.655C1182.19 628.147 1182.43 628.546 1182.75 628.852C1183.09 629.155 1183.51 629.325 1184.03 629.364ZM1190.48 631.166L1191.15 622.205L1192.83 622.331L1192.73 623.755L1192.82 623.762C1193.02 623.292 1193.33 622.934 1193.77 622.689C1194.2 622.44 1194.69 622.335 1195.21 622.374C1195.32 622.382 1195.45 622.396 1195.6 622.415C1195.75 622.434 1195.86 622.452 1195.95 622.47L1195.82 624.139C1195.76 624.114 1195.63 624.084 1195.46 624.047C1195.28 624.006 1195.1 623.979 1194.92 623.966C1194.51 623.935 1194.14 623.995 1193.8 624.146C1193.47 624.293 1193.2 624.513 1192.99 624.807C1192.78 625.096 1192.66 625.435 1192.63 625.824L1192.22 631.297L1190.48 631.166ZM1199.29 632.025C1198.73 631.983 1198.22 631.839 1197.78 631.595C1197.33 631.347 1196.99 631.01 1196.76 630.586C1196.52 630.161 1196.43 629.656 1196.47 629.068C1196.51 628.563 1196.64 628.154 1196.86 627.842C1197.07 627.53 1197.36 627.291 1197.7 627.125C1198.05 626.959 1198.43 626.843 1198.84 626.776C1199.26 626.709 1199.68 626.666 1200.11 626.648C1200.65 626.625 1201.09 626.608 1201.43 626.594C1201.76 626.576 1202.01 626.526 1202.17 626.444C1202.33 626.362 1202.42 626.216 1202.43 626.006L1202.43 625.965C1202.47 625.456 1202.36 625.05 1202.09 624.749C1201.83 624.447 1201.41 624.276 1200.85 624.233C1200.26 624.189 1199.79 624.285 1199.43 624.52C1199.08 624.752 1198.83 625.021 1198.67 625.326L1197.06 624.83C1197.3 624.3 1197.62 623.882 1198.01 623.575C1198.42 623.265 1198.87 623.053 1199.37 622.937C1199.87 622.819 1200.39 622.779 1200.93 622.82C1201.29 622.847 1201.67 622.918 1202.06 623.033C1202.46 623.145 1202.83 623.325 1203.16 623.573C1203.5 623.821 1203.76 624.16 1203.96 624.589C1204.15 625.014 1204.22 625.553 1204.18 626.207L1203.73 632.158L1202.03 632.03L1202.12 630.805L1202.05 630.8C1201.92 631.017 1201.73 631.226 1201.49 631.427C1201.25 631.628 1200.95 631.787 1200.58 631.904C1200.22 632.022 1199.79 632.062 1199.29 632.025ZM1199.78 630.653C1200.26 630.689 1200.68 630.625 1201.04 630.46C1201.4 630.295 1201.68 630.066 1201.88 629.772C1202.09 629.475 1202.2 629.149 1202.23 628.795L1202.31 627.64C1202.25 627.697 1202.12 627.747 1201.94 627.788C1201.76 627.825 1201.56 627.855 1201.33 627.877C1201.1 627.895 1200.88 627.912 1200.66 627.927C1200.45 627.938 1200.27 627.948 1200.12 627.957C1199.78 627.974 1199.46 628.023 1199.18 628.103C1198.89 628.184 1198.66 628.313 1198.48 628.491C1198.3 628.666 1198.2 628.908 1198.18 629.22C1198.15 629.651 1198.28 629.99 1198.58 630.235C1198.89 630.477 1199.28 630.616 1199.78 630.653ZM1210.99 623.689L1210.88 625.089L1205.82 624.711L1205.93 623.311L1210.99 623.689ZM1206.64 632.375L1207.39 622.376C1207.43 621.816 1207.59 621.36 1207.86 621.009C1208.14 620.654 1208.48 620.4 1208.9 620.248C1209.32 620.091 1209.76 620.031 1210.24 620.066C1210.59 620.093 1210.89 620.144 1211.13 620.221C1211.38 620.294 1211.56 620.358 1211.67 620.414L1211.16 621.795C1211.08 621.766 1210.98 621.731 1210.85 621.69C1210.73 621.646 1210.57 621.616 1210.39 621.603C1209.96 621.571 1209.65 621.653 1209.45 621.85C1209.26 622.046 1209.15 622.343 1209.12 622.74L1208.39 632.506L1206.64 632.375ZM1216.97 624.137L1216.87 625.537L1211.97 625.171L1212.08 623.771L1216.97 624.137ZM1213.55 621.722L1215.29 621.852L1214.66 630.329C1214.64 630.668 1214.67 630.926 1214.76 631.105C1214.84 631.28 1214.97 631.404 1215.12 631.478C1215.28 631.549 1215.45 631.591 1215.64 631.606C1215.78 631.616 1215.91 631.615 1216.01 631.604C1216.12 631.592 1216.2 631.583 1216.26 631.576L1216.47 633.04C1216.37 633.071 1216.22 633.1 1216.03 633.124C1215.84 633.153 1215.6 633.159 1215.32 633.142C1214.87 633.116 1214.44 633.002 1214.06 632.801C1213.68 632.6 1213.37 632.312 1213.16 631.936C1212.94 631.559 1212.85 631.101 1212.89 630.56L1213.55 621.722Z" fill="#D5F2E4"/>
<rect x="1096" y="594.49" width="146.017" height="47.0506" rx="23.5253" transform="rotate(4.2778 1096 594.49)" stroke="#F2F4F7" stroke-width="0.915245"/>
<rect x="1139.38" y="146.536" width="237.85" height="52.4162" rx="26.2081" transform="rotate(3.11595 1139.38 146.536)" fill="#137746"/>
<path d="M1174.43 167.853L1173.7 181.161L1171.86 181.06L1165.62 170.932L1165.5 170.925L1164.97 180.685L1162.96 180.576L1163.68 167.268L1165.54 167.369L1171.78 177.511L1171.9 177.517L1172.44 167.744L1174.43 167.853ZM1180.67 181.742C1179.73 181.691 1178.93 181.432 1178.25 180.965C1177.58 180.498 1177.07 179.869 1176.73 179.077C1176.38 178.285 1176.24 177.373 1176.29 176.342C1176.35 175.307 1176.59 174.412 1177.02 173.657C1177.45 172.903 1178.02 172.33 1178.74 171.939C1179.46 171.548 1180.29 171.378 1181.23 171.429C1182.16 171.48 1182.97 171.739 1183.64 172.206C1184.32 172.673 1184.83 173.305 1185.17 174.101C1185.51 174.897 1185.66 175.813 1185.6 176.849C1185.54 177.88 1185.3 178.77 1184.87 179.52C1184.45 180.271 1183.87 180.841 1183.15 181.232C1182.43 181.623 1181.6 181.793 1180.67 181.742ZM1180.76 180.111C1181.37 180.144 1181.88 180.011 1182.3 179.712C1182.71 179.414 1183.03 179.003 1183.25 178.48C1183.47 177.958 1183.6 177.376 1183.64 176.735C1183.67 176.099 1183.61 175.508 1183.44 174.965C1183.28 174.417 1183.01 173.97 1182.63 173.624C1182.25 173.277 1181.75 173.087 1181.15 173.054C1180.54 173.021 1180.02 173.156 1179.6 173.459C1179.18 173.762 1178.86 174.177 1178.64 174.704C1178.42 175.226 1178.29 175.806 1178.26 176.442C1178.22 177.084 1178.29 177.676 1178.45 178.219C1178.61 178.762 1178.89 179.205 1179.27 179.548C1179.65 179.89 1180.15 180.078 1180.76 180.111ZM1193.22 168.876L1195.66 169.008L1199.33 179.584L1199.49 179.593L1204.29 169.478L1206.73 169.611L1206 182.919L1204.09 182.815L1204.61 173.185L1204.49 173.178L1200.04 182.575L1198.46 182.489L1195.06 172.658L1194.93 172.651L1194.41 182.288L1192.5 182.184L1193.22 168.876ZM1211.66 183.448C1211.02 183.414 1210.46 183.266 1209.96 183.004C1209.46 182.738 1209.08 182.372 1208.8 181.905C1208.53 181.438 1208.41 180.878 1208.45 180.224C1208.48 179.661 1208.61 179.203 1208.85 178.851C1209.09 178.499 1209.4 178.227 1209.77 178.034C1210.15 177.842 1210.57 177.704 1211.04 177.621C1211.5 177.537 1211.96 177.48 1212.44 177.449C1213.04 177.413 1213.53 177.383 1213.9 177.36C1214.28 177.332 1214.55 177.271 1214.73 177.177C1214.9 177.082 1215 176.917 1215.01 176.683L1215.01 176.638C1215.04 176.071 1214.91 175.622 1214.6 175.293C1214.3 174.964 1213.84 174.782 1213.21 174.748C1212.56 174.712 1212.03 174.829 1211.64 175.099C1211.25 175.365 1210.98 175.669 1210.82 176.012L1209.01 175.497C1209.26 174.902 1209.61 174.43 1210.04 174.08C1210.48 173.726 1210.98 173.479 1211.54 173.34C1212.09 173.196 1212.67 173.141 1213.27 173.174C1213.67 173.195 1214.09 173.266 1214.53 173.386C1214.98 173.501 1215.39 173.693 1215.76 173.961C1216.15 174.23 1216.45 174.6 1216.67 175.073C1216.9 175.542 1216.99 176.14 1216.96 176.868L1216.59 183.496L1214.7 183.392L1214.77 182.028L1214.69 182.024C1214.55 182.268 1214.35 182.505 1214.09 182.734C1213.82 182.962 1213.49 183.146 1213.09 183.285C1212.68 183.424 1212.21 183.478 1211.66 183.448ZM1212.16 181.912C1212.7 181.941 1213.17 181.86 1213.56 181.668C1213.96 181.477 1214.26 181.216 1214.48 180.884C1214.7 180.549 1214.83 180.184 1214.85 179.79L1214.92 178.503C1214.84 178.569 1214.71 178.627 1214.5 178.676C1214.31 178.722 1214.08 178.76 1213.83 178.789C1213.57 178.815 1213.33 178.838 1213.09 178.86C1212.85 178.877 1212.65 178.892 1212.48 178.905C1212.1 178.932 1211.76 178.994 1211.44 179.089C1211.12 179.185 1210.87 179.334 1210.67 179.536C1210.48 179.735 1210.37 180.007 1210.35 180.353C1210.33 180.834 1210.48 181.208 1210.83 181.474C1211.17 181.736 1211.61 181.882 1212.16 181.912ZM1219.18 183.637L1219.73 173.655L1221.67 173.761L1221.13 183.742L1219.18 183.637ZM1220.79 172.169C1220.45 172.15 1220.17 172.022 1219.94 171.784C1219.71 171.541 1219.61 171.262 1219.63 170.945C1219.64 170.625 1219.78 170.358 1220.03 170.146C1220.28 169.93 1220.58 169.831 1220.92 169.849C1221.25 169.867 1221.54 169.998 1221.76 170.24C1221.99 170.479 1222.1 170.758 1222.08 171.079C1222.06 171.395 1221.93 171.662 1221.67 171.878C1221.42 172.09 1221.13 172.187 1220.79 172.169ZM1226 178.064L1225.68 183.99L1223.74 183.885L1224.28 173.904L1226.15 174.005L1226.06 175.63L1226.18 175.636C1226.44 175.12 1226.82 174.715 1227.33 174.421C1227.84 174.128 1228.47 174.001 1229.22 174.042C1229.9 174.079 1230.49 174.254 1230.99 174.568C1231.48 174.878 1231.85 175.319 1232.11 175.894C1232.36 176.468 1232.46 177.166 1232.42 177.989L1232.07 184.338L1230.13 184.232L1230.46 178.118C1230.5 177.394 1230.34 176.819 1229.99 176.391C1229.63 175.959 1229.13 175.725 1228.47 175.689C1228.02 175.664 1227.61 175.74 1227.25 175.916C1226.89 176.092 1226.6 176.363 1226.38 176.729C1226.16 177.09 1226.03 177.536 1226 178.064ZM1239.88 174.752L1239.79 176.312L1234.34 176.015L1234.43 174.456L1239.88 174.752ZM1236.02 172.144L1237.96 172.25L1237.45 181.691C1237.43 182.068 1237.47 182.355 1237.57 182.552C1237.67 182.744 1237.81 182.88 1237.98 182.959C1238.16 183.034 1238.36 183.077 1238.57 183.089C1238.73 183.097 1238.86 183.094 1238.98 183.078C1239.1 183.063 1239.19 183.051 1239.26 183.041L1239.52 184.665C1239.41 184.703 1239.24 184.737 1239.03 184.769C1238.82 184.806 1238.56 184.817 1238.25 184.805C1237.74 184.786 1237.27 184.669 1236.83 184.454C1236.4 184.239 1236.06 183.925 1235.81 183.512C1235.56 183.099 1235.45 182.591 1235.48 181.989L1236.02 172.144ZM1245.67 185.28C1244.68 185.227 1243.85 184.971 1243.16 184.512C1242.48 184.049 1241.96 183.423 1241.62 182.636C1241.28 181.844 1241.14 180.93 1241.2 179.895C1241.25 178.872 1241.49 177.982 1241.92 177.223C1242.34 176.464 1242.91 175.884 1243.63 175.484C1244.34 175.085 1245.17 174.91 1246.09 174.96C1246.66 174.991 1247.2 175.114 1247.71 175.329C1248.23 175.544 1248.69 175.862 1249.09 176.284C1249.49 176.705 1249.79 177.241 1250 177.891C1250.21 178.537 1250.29 179.312 1250.24 180.218L1250.2 180.906L1242.27 180.474L1242.35 179.019L1248.38 179.347C1248.4 178.836 1248.32 178.378 1248.14 177.972C1247.95 177.562 1247.68 177.232 1247.31 176.982C1246.95 176.732 1246.52 176.594 1246.02 176.566C1245.47 176.536 1244.99 176.645 1244.57 176.891C1244.15 177.134 1243.82 177.463 1243.57 177.88C1243.33 178.293 1243.2 178.748 1243.17 179.246L1243.11 180.384C1243.08 181.051 1243.16 181.625 1243.37 182.105C1243.58 182.586 1243.89 182.961 1244.31 183.231C1244.72 183.497 1245.21 183.645 1245.77 183.676C1246.14 183.696 1246.48 183.663 1246.79 183.575C1247.1 183.483 1247.37 183.337 1247.6 183.137C1247.83 182.937 1248.02 182.684 1248.15 182.379L1249.97 182.81C1249.8 183.344 1249.51 183.803 1249.1 184.19C1248.7 184.572 1248.21 184.861 1247.63 185.055C1247.05 185.245 1246.4 185.32 1245.67 185.28ZM1254.38 179.609L1254.06 185.535L1252.12 185.429L1252.66 175.448L1254.52 175.55L1254.44 177.174L1254.56 177.181C1254.82 176.665 1255.2 176.26 1255.71 175.966C1256.22 175.672 1256.85 175.546 1257.6 175.587C1258.28 175.624 1258.87 175.799 1259.36 176.113C1259.86 176.422 1260.23 176.864 1260.48 177.438C1260.73 178.012 1260.84 178.711 1260.79 179.534L1260.45 185.883L1258.5 185.777L1258.84 179.662C1258.88 178.939 1258.72 178.363 1258.36 177.936C1258.01 177.504 1257.5 177.27 1256.84 177.234C1256.39 177.209 1255.99 177.285 1255.63 177.461C1255.27 177.637 1254.98 177.908 1254.75 178.274C1254.53 178.635 1254.41 179.08 1254.38 179.609ZM1265.95 186.404C1265.31 186.369 1264.75 186.221 1264.25 185.959C1263.75 185.693 1263.36 185.327 1263.09 184.86C1262.82 184.394 1262.7 183.833 1262.74 183.179C1262.77 182.616 1262.9 182.158 1263.14 181.806C1263.38 181.454 1263.68 181.182 1264.06 180.99C1264.44 180.797 1264.86 180.66 1265.32 180.576C1265.78 180.492 1266.25 180.435 1266.73 180.405C1267.33 180.368 1267.82 180.338 1268.19 180.315C1268.57 180.288 1268.84 180.227 1269.02 180.132C1269.19 180.037 1269.29 179.873 1269.3 179.639L1269.3 179.593C1269.33 179.026 1269.2 178.577 1268.89 178.248C1268.59 177.919 1268.13 177.737 1267.5 177.703C1266.85 177.667 1266.32 177.785 1265.93 178.054C1265.54 178.32 1265.27 178.624 1265.11 178.967L1263.3 178.452C1263.55 177.857 1263.89 177.385 1264.33 177.035C1264.77 176.681 1265.27 176.435 1265.82 176.295C1266.38 176.152 1266.96 176.096 1267.56 176.129C1267.96 176.151 1268.38 176.221 1268.82 176.341C1269.27 176.457 1269.68 176.648 1270.05 176.917C1270.43 177.185 1270.74 177.556 1270.96 178.028C1271.19 178.497 1271.28 179.095 1271.24 179.823L1270.88 186.451L1268.99 186.348L1269.06 184.983L1268.98 184.979C1268.84 185.223 1268.64 185.46 1268.38 185.689C1268.11 185.918 1267.78 186.102 1267.37 186.24C1266.97 186.379 1266.5 186.434 1265.95 186.404ZM1266.45 184.867C1266.99 184.896 1267.45 184.815 1267.85 184.624C1268.24 184.433 1268.55 184.171 1268.77 183.84C1268.99 183.504 1269.11 183.139 1269.14 182.745L1269.21 181.459C1269.13 181.524 1268.99 181.582 1268.79 181.632C1268.59 181.677 1268.37 181.715 1268.11 181.745C1267.86 181.77 1267.61 181.793 1267.37 181.815C1267.13 181.833 1266.93 181.848 1266.77 181.861C1266.39 181.888 1266.04 181.949 1265.73 182.045C1265.41 182.141 1265.16 182.29 1264.96 182.492C1264.77 182.69 1264.66 182.962 1264.64 183.309C1264.61 183.79 1264.77 184.163 1265.11 184.429C1265.46 184.691 1265.9 184.837 1266.45 184.867ZM1275.74 180.771L1275.41 186.698L1273.47 186.592L1274.01 176.611L1275.88 176.712L1275.79 178.337L1275.91 178.344C1276.17 177.828 1276.55 177.423 1277.06 177.129C1277.57 176.835 1278.2 176.708 1278.95 176.749C1279.63 176.786 1280.22 176.962 1280.72 177.275C1281.21 177.585 1281.59 178.027 1281.84 178.601C1282.09 179.175 1282.19 179.874 1282.15 180.697L1281.8 187.045L1279.86 186.94L1280.19 180.825C1280.23 180.101 1280.07 179.526 1279.72 179.098C1279.36 178.666 1278.86 178.432 1278.2 178.396C1277.75 178.372 1277.34 178.447 1276.98 178.623C1276.62 178.799 1276.33 179.07 1276.11 179.436C1275.89 179.798 1275.76 180.243 1275.74 180.771ZM1288.6 187.617C1287.63 187.565 1286.81 187.301 1286.14 186.825C1285.47 186.346 1284.97 185.708 1284.64 184.912C1284.31 184.117 1284.17 183.218 1284.23 182.218C1284.28 181.204 1284.52 180.32 1284.95 179.565C1285.37 178.806 1285.94 178.227 1286.66 177.827C1287.37 177.427 1288.2 177.253 1289.14 177.304C1289.9 177.345 1290.57 177.523 1291.15 177.837C1291.72 178.146 1292.18 178.562 1292.52 179.085C1292.86 179.607 1293.05 180.206 1293.08 180.881L1291.19 180.778C1291.11 180.305 1290.89 179.889 1290.54 179.531C1290.19 179.173 1289.7 178.977 1289.09 178.943C1288.54 178.914 1288.06 179.031 1287.64 179.295C1287.22 179.554 1286.88 179.94 1286.63 180.452C1286.38 180.96 1286.23 181.569 1286.19 182.279C1286.15 183.007 1286.23 183.641 1286.42 184.182C1286.61 184.722 1286.9 185.148 1287.29 185.461C1287.68 185.773 1288.15 185.944 1288.7 185.974C1289.07 185.994 1289.41 185.945 1289.71 185.827C1290.03 185.705 1290.29 185.522 1290.51 185.277C1290.73 185.033 1290.89 184.733 1290.99 184.378L1292.88 184.481C1292.78 185.123 1292.54 185.688 1292.16 186.175C1291.78 186.663 1291.29 187.036 1290.68 187.294C1290.08 187.553 1289.39 187.66 1288.6 187.617ZM1299.08 188.188C1298.1 188.134 1297.26 187.878 1296.57 187.419C1295.89 186.956 1295.38 186.331 1295.03 185.543C1294.69 184.751 1294.55 183.838 1294.61 182.802C1294.66 181.78 1294.9 180.889 1295.33 180.13C1295.76 179.372 1296.33 178.792 1297.04 178.392C1297.76 177.992 1298.58 177.818 1299.5 177.868C1300.07 177.899 1300.61 178.022 1301.13 178.237C1301.65 178.452 1302.1 178.77 1302.5 179.191C1302.9 179.613 1303.2 180.148 1303.41 180.799C1303.62 181.444 1303.7 182.22 1303.65 183.125L1303.61 183.814L1295.68 183.382L1295.76 181.926L1301.79 182.255C1301.82 181.744 1301.74 181.285 1301.55 180.88C1301.36 180.47 1301.09 180.14 1300.72 179.89C1300.36 179.64 1299.93 179.501 1299.43 179.474C1298.88 179.444 1298.4 179.552 1297.98 179.799C1297.56 180.041 1297.23 180.371 1296.99 180.788C1296.75 181.2 1296.61 181.656 1296.59 182.154L1296.52 183.291C1296.49 183.958 1296.57 184.532 1296.78 185.013C1297 185.494 1297.31 185.869 1297.72 186.139C1298.13 186.405 1298.62 186.553 1299.19 186.584C1299.56 186.604 1299.89 186.57 1300.2 186.483C1300.51 186.391 1300.78 186.245 1301.01 186.045C1301.25 185.845 1301.43 185.592 1301.56 185.286L1303.39 185.718C1303.21 186.251 1302.92 186.711 1302.52 187.098C1302.12 187.48 1301.63 187.768 1301.04 187.962C1300.46 188.152 1299.81 188.228 1299.08 188.188ZM1310.53 188.609L1311.25 175.301L1319.5 175.75L1319.41 177.479L1313.17 177.139L1312.95 181.194L1318.6 181.501L1318.5 183.223L1312.85 182.916L1312.54 188.718L1310.53 188.609ZM1324.65 189.58C1323.67 189.526 1322.83 189.27 1322.15 188.811C1321.46 188.348 1320.95 187.723 1320.6 186.935C1320.27 186.143 1320.12 185.23 1320.18 184.194C1320.24 183.172 1320.48 182.281 1320.9 181.522C1321.33 180.764 1321.9 180.184 1322.61 179.784C1323.33 179.384 1324.15 179.21 1325.08 179.26C1325.64 179.291 1326.18 179.414 1326.7 179.629C1327.22 179.844 1327.68 180.162 1328.07 180.583C1328.47 181.005 1328.78 181.541 1328.98 182.191C1329.19 182.836 1329.27 183.612 1329.22 184.517L1329.18 185.206L1321.25 184.774L1321.33 183.319L1327.36 183.647C1327.39 183.136 1327.31 182.677 1327.12 182.272C1326.94 181.862 1326.66 181.532 1326.3 181.282C1325.94 181.032 1325.5 180.893 1325 180.866C1324.46 180.836 1323.97 180.944 1323.55 181.191C1323.13 181.433 1322.8 181.763 1322.56 182.18C1322.32 182.592 1322.19 183.048 1322.16 183.546L1322.1 184.683C1322.06 185.35 1322.15 185.924 1322.35 186.405C1322.57 186.886 1322.88 187.261 1323.29 187.531C1323.7 187.797 1324.19 187.945 1324.76 187.976C1325.13 187.996 1325.47 187.962 1325.77 187.875C1326.08 187.783 1326.35 187.637 1326.59 187.437C1326.82 187.237 1327 186.984 1327.14 186.678L1328.96 187.11C1328.78 187.643 1328.49 188.103 1328.09 188.49C1327.69 188.872 1327.2 189.16 1326.61 189.354C1326.03 189.544 1325.38 189.62 1324.65 189.58ZM1335.39 190.165C1334.41 190.111 1333.57 189.855 1332.88 189.396C1332.2 188.933 1331.69 188.308 1331.34 187.52C1331.01 186.728 1330.86 185.814 1330.92 184.779C1330.98 183.757 1331.22 182.866 1331.64 182.107C1332.07 181.348 1332.64 180.769 1333.35 180.369C1334.07 179.969 1334.89 179.794 1335.82 179.845C1336.38 179.875 1336.92 179.998 1337.44 180.213C1337.96 180.428 1338.42 180.747 1338.81 181.168C1339.21 181.589 1339.52 182.125 1339.72 182.775C1339.93 183.421 1340.01 184.196 1339.96 185.102L1339.92 185.791L1331.99 185.359L1332.07 183.903L1338.1 184.231C1338.13 183.72 1338.05 183.262 1337.86 182.856C1337.68 182.446 1337.4 182.116 1337.04 181.866C1336.68 181.616 1336.24 181.478 1335.74 181.451C1335.2 181.421 1334.71 181.529 1334.29 181.776C1333.87 182.018 1333.54 182.347 1333.3 182.764C1333.06 183.177 1332.92 183.633 1332.9 184.131L1332.84 185.268C1332.8 185.935 1332.89 186.509 1333.09 186.989C1333.31 187.47 1333.62 187.846 1334.03 188.116C1334.44 188.382 1334.93 188.53 1335.5 188.561C1335.87 188.581 1336.2 188.547 1336.51 188.46C1336.82 188.368 1337.09 188.222 1337.33 188.022C1337.56 187.821 1337.74 187.568 1337.88 187.263L1339.7 187.694C1339.52 188.228 1339.23 188.688 1338.83 189.074C1338.43 189.457 1337.94 189.745 1337.35 189.939C1336.77 190.129 1336.12 190.204 1335.39 190.165ZM1349.73 183.177L1347.95 183.393C1347.89 183.163 1347.79 182.943 1347.64 182.73C1347.49 182.518 1347.29 182.34 1347.03 182.195C1346.77 182.051 1346.43 181.967 1346.03 181.945C1345.48 181.915 1345.01 182.014 1344.63 182.241C1344.25 182.463 1344.05 182.767 1344.03 183.153C1344.01 183.487 1344.12 183.762 1344.36 183.979C1344.59 184.196 1344.98 184.384 1345.52 184.544L1347.09 184.995C1348 185.257 1348.66 185.621 1349.09 186.088C1349.52 186.554 1349.71 187.14 1349.67 187.846C1349.64 188.444 1349.44 188.968 1349.06 189.417C1348.7 189.861 1348.2 190.199 1347.57 190.43C1346.94 190.661 1346.23 190.755 1345.42 190.711C1344.31 190.65 1343.41 190.362 1342.73 189.847C1342.05 189.328 1341.65 188.622 1341.54 187.729L1343.43 187.546C1343.52 188.042 1343.74 188.425 1344.09 188.696C1344.44 188.963 1344.91 189.112 1345.49 189.144C1346.13 189.179 1346.65 189.074 1347.04 188.831C1347.44 188.583 1347.65 188.266 1347.67 187.881C1347.69 187.569 1347.58 187.3 1347.36 187.075C1347.14 186.851 1346.8 186.671 1346.33 186.537L1344.66 186.074C1343.74 185.811 1343.07 185.436 1342.65 184.948C1342.23 184.461 1342.04 183.862 1342.08 183.151C1342.11 182.562 1342.31 182.055 1342.66 181.631C1343.01 181.208 1343.49 180.888 1344.08 180.673C1344.67 180.453 1345.35 180.363 1346.09 180.404C1347.17 180.463 1348.01 180.743 1348.6 181.245C1349.2 181.742 1349.57 182.386 1349.73 183.177Z" fill="#D5F2E4"/>
<rect x="1139.38" y="146.536" width="237.85" height="52.4162" rx="26.2081" transform="rotate(3.11595 1139.38 146.536)" stroke="#F2F4F7" stroke-width="1.01809"/>
<rect x="1242.21" y="485.437" width="111.905" height="40.06" rx="20.03" transform="rotate(6.84789 1242.21 485.437)" fill="#85E5B5"/>
<path d="M1268.13 503.405L1266.91 513.611L1265.49 513.441L1261.2 505.333L1261.11 505.322L1260.21 512.807L1258.67 512.622L1259.9 502.416L1261.32 502.587L1265.61 510.706L1265.71 510.717L1266.61 503.222L1268.13 503.405ZM1272.24 514.408C1271.52 514.322 1270.92 514.083 1270.42 513.689C1269.93 513.296 1269.57 512.786 1269.34 512.159C1269.12 511.533 1269.05 510.824 1269.15 510.033C1269.24 509.239 1269.47 508.562 1269.84 508.003C1270.21 507.444 1270.68 507.032 1271.25 506.768C1271.83 506.503 1272.47 506.414 1273.19 506.5C1273.91 506.586 1274.52 506.826 1275.01 507.219C1275.51 507.612 1275.87 508.124 1276.09 508.754C1276.31 509.384 1276.38 510.096 1276.28 510.89C1276.19 511.681 1275.96 512.354 1275.59 512.91C1275.22 513.466 1274.75 513.876 1274.18 514.141C1273.6 514.405 1272.96 514.495 1272.24 514.408ZM1272.4 513.158C1272.86 513.214 1273.26 513.137 1273.6 512.928C1273.93 512.719 1274.2 512.419 1274.39 512.028C1274.59 511.637 1274.72 511.196 1274.78 510.704C1274.84 510.216 1274.82 509.759 1274.72 509.332C1274.62 508.902 1274.43 508.545 1274.16 508.259C1273.88 507.973 1273.51 507.802 1273.05 507.746C1272.58 507.69 1272.17 507.768 1271.84 507.98C1271.5 508.192 1271.23 508.496 1271.03 508.89C1270.84 509.281 1270.71 509.72 1270.65 510.209C1270.59 510.701 1270.61 511.159 1270.71 511.586C1270.81 512.012 1271 512.367 1271.27 512.649C1271.55 512.932 1271.93 513.102 1272.4 513.158ZM1284.09 505.322L1282.86 515.527L1281.32 515.342L1282.55 505.137L1284.09 505.322ZM1287.02 511.416L1286.48 515.961L1284.99 515.782L1285.91 508.128L1287.34 508.3L1287.19 509.546L1287.28 509.557C1287.51 509.173 1287.82 508.88 1288.23 508.68C1288.63 508.479 1289.13 508.413 1289.7 508.483C1290.22 508.545 1290.67 508.71 1291.03 508.976C1291.4 509.239 1291.66 509.598 1291.83 510.052C1291.99 510.507 1292.04 511.05 1291.96 511.681L1291.38 516.55L1289.89 516.371L1290.45 511.681C1290.52 511.126 1290.42 510.676 1290.17 510.329C1289.92 509.978 1289.54 509.773 1289.04 509.712C1288.69 509.671 1288.38 509.709 1288.09 509.826C1287.8 509.943 1287.57 510.137 1287.38 510.407C1287.19 510.675 1287.07 511.011 1287.02 511.416ZM1297.87 509.564L1297.72 510.76L1293.54 510.258L1293.69 509.062L1297.87 509.564ZM1295.03 507.363L1296.52 507.542L1295.65 514.783C1295.61 515.072 1295.63 515.294 1295.7 515.451C1295.77 515.604 1295.87 515.716 1296 515.785C1296.13 515.852 1296.28 515.895 1296.44 515.914C1296.56 515.929 1296.67 515.933 1296.76 515.927C1296.85 515.921 1296.92 515.916 1296.97 515.912L1297.09 517.176C1297 517.198 1296.88 517.217 1296.71 517.231C1296.55 517.248 1296.35 517.244 1296.11 517.219C1295.72 517.179 1295.36 517.065 1295.04 516.878C1294.72 516.691 1294.47 516.432 1294.3 516.102C1294.12 515.771 1294.06 515.374 1294.12 514.913L1295.03 507.363ZM1301.79 517.957C1301.04 517.867 1300.41 517.628 1299.9 517.24C1299.4 516.849 1299.04 516.342 1298.81 515.719C1298.59 515.092 1298.53 514.382 1298.62 513.588C1298.72 512.804 1298.95 512.131 1299.31 511.568C1299.68 511.005 1300.15 510.588 1300.71 510.316C1301.29 510.044 1301.93 509.951 1302.64 510.036C1303.07 510.088 1303.48 510.21 1303.87 510.401C1304.26 510.593 1304.59 510.861 1304.88 511.205C1305.16 511.549 1305.37 511.977 1305.5 512.488C1305.63 512.995 1305.65 513.596 1305.57 514.29L1305.5 514.819L1299.42 514.088L1299.55 512.972L1304.18 513.527C1304.22 513.135 1304.18 512.778 1304.06 512.457C1303.94 512.132 1303.74 511.864 1303.48 511.653C1303.21 511.443 1302.89 511.315 1302.5 511.268C1302.08 511.218 1301.7 511.277 1301.37 511.446C1301.03 511.611 1300.76 511.848 1300.55 512.157C1300.35 512.462 1300.22 512.806 1300.18 513.188L1300.07 514.06C1300.01 514.572 1300.05 515.018 1300.19 515.398C1300.32 515.779 1300.55 516.084 1300.85 516.312C1301.15 516.537 1301.52 516.676 1301.96 516.728C1302.24 516.762 1302.5 516.753 1302.74 516.701C1302.99 516.646 1303.2 516.548 1303.39 516.405C1303.58 516.263 1303.73 516.077 1303.85 515.849L1305.23 516.272C1305.07 516.674 1304.82 517.013 1304.49 517.291C1304.17 517.565 1303.77 517.762 1303.31 517.882C1302.86 517.999 1302.35 518.024 1301.79 517.957ZM1306.75 518.396L1307.67 510.741L1309.11 510.914L1308.96 512.13L1309.04 512.14C1309.23 511.745 1309.52 511.45 1309.9 511.257C1310.28 511.06 1310.7 510.989 1311.15 511.043C1311.24 511.054 1311.35 511.07 1311.47 511.092C1311.6 511.114 1311.7 511.135 1311.77 511.154L1311.6 512.579C1311.55 512.555 1311.44 512.524 1311.29 512.486C1311.14 512.444 1310.99 512.414 1310.84 512.396C1310.48 512.353 1310.16 512.391 1309.87 512.507C1309.58 512.62 1309.34 512.799 1309.15 513.042C1308.96 513.282 1308.84 513.568 1308.8 513.9L1308.24 518.575L1306.75 518.396ZM1315.14 519.56C1314.39 519.47 1313.76 519.231 1313.25 518.843C1312.75 518.452 1312.38 517.945 1312.16 517.322C1311.94 516.695 1311.88 515.985 1311.97 515.191C1312.07 514.407 1312.29 513.733 1312.66 513.171C1313.03 512.608 1313.49 512.191 1314.06 511.919C1314.63 511.647 1315.28 511.554 1315.99 511.639C1316.42 511.691 1316.83 511.813 1317.22 512.004C1317.6 512.196 1317.94 512.464 1318.23 512.808C1318.51 513.152 1318.72 513.58 1318.85 514.091C1318.97 514.598 1319 515.199 1318.91 515.893L1318.85 516.422L1312.77 515.691L1312.9 514.575L1317.52 515.13C1317.57 514.738 1317.53 514.381 1317.41 514.06C1317.29 513.735 1317.09 513.467 1316.82 513.256C1316.56 513.046 1316.23 512.918 1315.85 512.871C1315.43 512.821 1315.05 512.88 1314.72 513.049C1314.38 513.214 1314.11 513.451 1313.9 513.76C1313.7 514.065 1313.57 514.409 1313.53 514.791L1313.42 515.663C1313.36 516.175 1313.4 516.621 1313.53 517.001C1313.67 517.382 1313.89 517.687 1314.2 517.915C1314.5 518.14 1314.87 518.279 1315.3 518.331C1315.59 518.365 1315.85 518.356 1316.09 518.304C1316.33 518.249 1316.55 518.15 1316.74 518.008C1316.93 517.866 1317.08 517.68 1317.2 517.452L1318.58 517.875C1318.42 518.277 1318.17 518.616 1317.84 518.894C1317.51 519.168 1317.12 519.365 1316.66 519.485C1316.21 519.602 1315.7 519.627 1315.14 519.56ZM1326.53 514.902L1325.15 514.979C1325.11 514.799 1325.04 514.624 1324.94 514.453C1324.84 514.283 1324.69 514.135 1324.5 514.011C1324.3 513.886 1324.05 513.806 1323.74 513.769C1323.32 513.718 1322.96 513.77 1322.65 513.926C1322.35 514.078 1322.18 514.302 1322.14 514.598C1322.11 514.853 1322.18 515.071 1322.35 515.25C1322.52 515.428 1322.81 515.593 1323.22 515.743L1324.4 516.168C1325.09 516.416 1325.58 516.73 1325.89 517.11C1326.19 517.49 1326.31 517.951 1326.25 518.493C1326.19 518.951 1326.01 519.344 1325.7 519.671C1325.4 519.995 1325 520.23 1324.5 520.376C1324.01 520.522 1323.45 520.558 1322.83 520.484C1321.98 520.381 1321.3 520.115 1320.8 519.684C1320.31 519.25 1320.04 518.687 1319.99 517.995L1321.46 517.948C1321.51 518.334 1321.66 518.641 1321.91 518.867C1322.17 519.09 1322.52 519.228 1322.97 519.282C1323.46 519.341 1323.86 519.286 1324.18 519.119C1324.49 518.948 1324.67 518.714 1324.71 518.419C1324.73 518.18 1324.67 517.968 1324.51 517.784C1324.35 517.6 1324.1 517.444 1323.74 517.317L1322.48 516.878C1321.78 516.629 1321.29 516.306 1320.99 515.91C1320.69 515.514 1320.58 515.043 1320.64 514.498C1320.7 514.047 1320.87 513.666 1321.16 513.358C1321.46 513.049 1321.84 512.827 1322.3 512.691C1322.77 512.552 1323.29 512.517 1323.87 512.586C1324.7 512.685 1325.33 512.943 1325.76 513.359C1326.19 513.771 1326.45 514.286 1326.53 514.902ZM1332.11 513.677L1331.97 514.873L1327.79 514.371L1327.93 513.175L1332.11 513.677ZM1329.27 511.476L1330.76 511.655L1329.89 518.895C1329.86 519.184 1329.88 519.407 1329.95 519.564C1330.01 519.717 1330.11 519.828 1330.24 519.898C1330.38 519.964 1330.53 520.007 1330.69 520.027C1330.81 520.041 1330.91 520.046 1331.01 520.04C1331.1 520.034 1331.17 520.029 1331.22 520.025L1331.34 521.288C1331.25 521.311 1331.12 521.33 1330.96 521.344C1330.8 521.361 1330.59 521.357 1330.35 521.332C1329.96 521.291 1329.6 521.178 1329.28 520.991C1328.96 520.804 1328.72 520.545 1328.54 520.214C1328.37 519.883 1328.31 519.487 1328.37 519.025L1329.27 511.476Z" fill="#137746"/>
<rect x="1242.21" y="485.437" width="111.905" height="40.06" rx="20.03" transform="rotate(6.84789 1242.21 485.437)" stroke="#F2F4F7" stroke-width="0.785216"/>
<rect x="167.578" y="594.539" width="202.107" height="57.499" rx="28.7495" transform="rotate(-2.54111 167.578 594.539)" fill="#137746"/>
<path d="M198.008 628.973L195.686 629.076L200.26 614.346L202.788 614.234L208.649 628.501L206.327 628.604L201.701 616.921L201.588 616.926L198.008 628.973ZM198.146 623.278L205.678 622.944L205.76 624.785L198.227 625.119L198.146 623.278ZM212.046 613.823L212.69 628.322L210.573 628.416L209.929 613.917L212.046 613.823ZM217.011 613.603L217.654 628.102L215.537 628.195L214.894 613.697L217.011 613.603ZM226.596 620.647L226.678 622.48L220.249 622.766L220.168 620.932L226.596 620.647ZM229.73 627.566L229.248 616.691L231.364 616.597L231.847 627.472L229.73 627.566ZM230.242 614.966C229.874 614.982 229.552 614.874 229.277 614.64C229.006 614.401 228.863 614.11 228.848 613.765C228.833 613.416 228.949 613.113 229.198 612.856C229.451 612.594 229.762 612.455 230.13 612.439C230.498 612.422 230.817 612.533 231.088 612.772C231.363 613.006 231.509 613.297 231.524 613.647C231.539 613.991 231.421 614.294 231.167 614.556C230.919 614.813 230.61 614.95 230.242 614.966ZM236.525 620.795L236.811 627.251L234.695 627.345L234.212 616.471L236.244 616.381L236.322 618.151L236.457 618.145C236.682 617.558 237.053 617.078 237.571 616.705C238.093 616.332 238.763 616.127 239.579 616.091C240.32 616.058 240.976 616.185 241.547 616.472C242.117 616.754 242.57 617.193 242.903 617.788C243.237 618.383 243.424 619.129 243.464 620.026L243.771 626.943L241.654 627.036L241.358 620.375C241.323 619.586 241.091 618.98 240.66 618.554C240.23 618.124 239.656 617.925 238.938 617.957C238.448 617.978 238.016 618.104 237.643 618.333C237.275 618.563 236.989 618.887 236.785 619.308C236.586 619.723 236.499 620.219 236.525 620.795ZM252.704 619.488L252.785 621.322L246.357 621.607L246.276 619.773L252.704 619.488ZM268.281 618.591C268.349 620.139 268.125 621.483 267.608 622.622C267.091 623.756 266.353 624.645 265.393 625.288C264.438 625.926 263.334 626.273 262.084 626.328C260.828 626.384 259.694 626.137 258.681 625.586C257.673 625.03 256.861 624.207 256.245 623.119C255.629 622.03 255.287 620.714 255.219 619.171C255.15 617.623 255.374 616.281 255.891 615.147C256.408 614.008 257.144 613.12 258.1 612.481C259.06 611.838 260.167 611.489 261.423 611.433C262.673 611.377 263.803 611.628 264.811 612.183C265.824 612.734 266.638 613.554 267.254 614.643C267.87 615.727 268.212 617.043 268.281 618.591ZM266.114 618.687C266.062 617.507 265.827 616.522 265.409 615.732C264.995 614.937 264.449 614.347 263.769 613.961C263.095 613.57 262.342 613.393 261.511 613.429C260.676 613.466 259.94 613.71 259.302 614.159C258.665 614.603 258.173 615.24 257.826 616.069C257.485 616.892 257.34 617.894 257.392 619.074C257.445 620.254 257.678 621.242 258.091 622.037C258.509 622.827 259.056 623.417 259.73 623.808C260.405 624.194 261.16 624.369 261.995 624.332C262.826 624.295 263.56 624.054 264.198 623.61C264.84 623.161 265.332 622.524 265.673 621.7C266.02 620.871 266.167 619.867 266.114 618.687ZM272.99 619.176L273.277 625.633L271.16 625.727L270.677 614.853L272.709 614.763L272.788 616.532L272.922 616.526C273.147 615.94 273.518 615.46 274.036 615.087C274.558 614.714 275.228 614.509 276.044 614.473C276.785 614.44 277.441 614.567 278.012 614.854C278.583 615.136 279.035 615.574 279.368 616.169C279.702 616.765 279.889 617.511 279.929 618.407L280.236 625.324L278.119 625.418L277.823 618.756C277.788 617.968 277.556 617.361 277.125 616.936C276.695 616.506 276.121 616.307 275.404 616.338C274.913 616.36 274.481 616.486 274.108 616.715C273.74 616.944 273.454 617.269 273.25 617.689C273.051 618.105 272.965 618.601 272.99 619.176ZM287.771 625.21C286.7 625.257 285.767 625.069 284.973 624.646C284.183 624.217 283.559 623.595 283.102 622.778C282.65 621.956 282.398 620.982 282.348 619.854C282.299 618.74 282.463 617.749 282.84 616.881C283.223 616.013 283.779 615.324 284.508 614.814C285.242 614.303 286.114 614.026 287.124 613.981C287.737 613.954 288.337 614.029 288.921 614.206C289.506 614.384 290.037 614.679 290.514 615.093C290.991 615.507 291.377 616.055 291.673 616.737C291.967 617.414 292.137 618.246 292.181 619.233L292.214 619.983L283.57 620.367L283.499 618.781L290.069 618.489C290.044 617.933 289.909 617.444 289.664 617.025C289.418 616.601 289.084 616.273 288.662 616.041C288.245 615.809 287.763 615.705 287.216 615.729C286.621 615.755 286.108 615.925 285.678 616.237C285.251 616.544 284.928 616.937 284.708 617.415C284.493 617.888 284.397 618.396 284.421 618.939L284.476 620.178C284.509 620.904 284.664 621.517 284.941 622.016C285.223 622.514 285.602 622.887 286.076 623.136C286.55 623.379 287.097 623.488 287.715 623.46C288.116 623.442 288.479 623.369 288.805 623.241C289.13 623.109 289.408 622.922 289.638 622.68C289.868 622.438 290.04 622.144 290.152 621.798L292.172 622.071C292.037 622.668 291.772 623.197 291.377 623.659C290.986 624.116 290.484 624.482 289.872 624.755C289.264 625.023 288.564 625.174 287.771 625.21ZM311.83 614.119L309.621 614.217C309.515 613.749 309.338 613.34 309.091 612.992C308.844 612.643 308.547 612.352 308.201 612.116C307.855 611.881 307.471 611.709 307.05 611.6C306.634 611.491 306.195 611.446 305.732 611.467C304.897 611.504 304.158 611.747 303.516 612.197C302.878 612.646 302.387 613.285 302.04 614.113C301.699 614.942 301.554 615.942 301.606 617.112C301.658 618.292 301.891 619.279 302.305 620.074C302.723 620.869 303.272 621.46 303.951 621.846C304.63 622.232 305.383 622.406 306.209 622.37C306.667 622.349 307.098 622.269 307.503 622.128C307.913 621.982 308.28 621.779 308.604 621.519C308.928 621.258 309.198 620.946 309.414 620.582C309.634 620.213 309.779 619.795 309.848 619.328L312.057 619.237C311.97 619.955 311.771 620.621 311.457 621.236C311.149 621.846 310.74 622.379 310.23 622.837C309.726 623.29 309.141 623.649 308.476 623.915C307.812 624.181 307.081 624.331 306.283 624.367C305.028 624.423 303.896 624.175 302.888 623.624C301.88 623.068 301.068 622.246 300.452 621.157C299.841 620.068 299.501 618.752 299.433 617.208C299.364 615.66 299.588 614.319 300.105 613.185C300.622 612.046 301.358 611.157 302.314 610.519C303.269 609.876 304.372 609.527 305.622 609.471C306.392 609.437 307.114 609.516 307.789 609.709C308.469 609.896 309.085 610.19 309.637 610.591C310.189 610.988 310.653 611.483 311.03 612.076C311.406 612.665 311.672 613.346 311.83 614.119ZM317.887 623.894C317.198 623.925 316.569 623.825 316.001 623.595C315.432 623.36 314.975 623.005 314.627 622.528C314.284 622.052 314.097 621.457 314.066 620.744C314.038 620.131 314.134 619.62 314.352 619.214C314.571 618.807 314.875 618.479 315.266 618.23C315.657 617.98 316.098 617.786 316.588 617.646C317.078 617.506 317.579 617.394 318.091 617.31C318.739 617.205 319.265 617.12 319.669 617.055C320.072 616.985 320.364 616.89 320.543 616.768C320.722 616.647 320.806 616.459 320.794 616.204L320.792 616.154C320.765 615.536 320.569 615.065 320.205 614.74C319.845 614.416 319.323 614.269 318.639 614.299C317.926 614.331 317.371 614.514 316.975 614.848C316.583 615.178 316.317 615.537 316.178 615.926L314.169 615.561C314.376 614.89 314.696 614.342 315.132 613.916C315.571 613.485 316.084 613.164 316.671 612.953C317.257 612.738 317.878 612.616 318.534 612.587C318.968 612.568 319.431 612.599 319.922 612.681C320.417 612.759 320.883 612.923 321.32 613.173C321.761 613.423 322.13 613.792 322.426 614.28C322.721 614.763 322.887 615.401 322.922 616.194L323.243 623.416L321.175 623.507L321.109 622.021L321.024 622.024C320.9 622.304 320.706 622.582 320.444 622.859C320.182 623.135 319.84 623.37 319.419 623.564C318.997 623.758 318.486 623.868 317.887 623.894ZM318.272 622.175C318.857 622.149 319.352 622.011 319.757 621.761C320.167 621.511 320.472 621.195 320.673 620.813C320.878 620.425 320.971 620.017 320.952 619.587L320.889 618.186C320.817 618.265 320.674 618.342 320.46 618.418C320.25 618.488 320.01 618.553 319.738 618.613C319.466 618.667 319.201 618.719 318.943 618.769C318.685 618.813 318.469 618.851 318.296 618.882C317.887 618.953 317.516 619.057 317.182 619.194C316.852 619.332 316.591 619.521 316.398 619.761C316.21 619.996 316.124 620.303 316.141 620.681C316.164 621.204 316.375 621.592 316.774 621.844C317.173 622.091 317.672 622.202 318.272 622.175ZM326.062 623.29L325.579 612.416L327.625 612.325L327.702 614.053L327.815 614.048C327.988 613.454 328.316 612.978 328.802 612.621C329.292 612.259 329.855 612.063 330.492 612.035C330.625 612.029 330.781 612.027 330.96 612.028C331.145 612.03 331.289 612.035 331.394 612.045L331.484 614.069C331.398 614.05 331.245 614.03 331.027 614.012C330.809 613.988 330.591 613.981 330.374 613.991C329.873 614.013 329.432 614.139 329.05 614.369C328.672 614.594 328.378 614.898 328.168 615.281C327.958 615.659 327.863 616.084 327.884 616.556L328.179 623.196L326.062 623.29ZM337.404 623C336.526 623.039 335.733 622.849 335.024 622.432C334.319 622.009 333.753 621.389 333.324 620.571C332.9 619.748 332.661 618.749 332.609 617.573C332.557 616.398 332.708 615.384 333.063 614.531C333.422 613.678 333.937 613.015 334.606 612.541C335.275 612.066 336.047 611.81 336.92 611.771C337.595 611.741 338.143 611.83 338.563 612.039C338.988 612.242 339.321 612.487 339.561 612.775C339.805 613.062 339.996 613.316 340.134 613.537L340.261 613.531L340.022 608.143L342.139 608.049L342.782 622.548L340.715 622.64L340.64 620.948L340.463 620.956C340.346 621.193 340.173 621.465 339.946 621.773C339.723 622.081 339.409 622.355 339.003 622.596C338.598 622.836 338.065 622.971 337.404 623ZM337.791 621.174C338.4 621.147 338.907 620.964 339.313 620.624C339.723 620.279 340.024 619.814 340.216 619.229C340.412 618.643 340.493 617.968 340.459 617.204C340.426 616.448 340.288 615.793 340.046 615.236C339.804 614.679 339.465 614.252 339.031 613.954C338.597 613.657 338.071 613.522 337.453 613.549C336.816 613.577 336.292 613.766 335.882 614.115C335.472 614.465 335.171 614.93 334.979 615.51C334.792 616.091 334.714 616.74 334.746 617.457C334.779 618.184 334.916 618.833 335.159 619.404C335.402 619.975 335.743 620.421 336.183 620.742C336.627 621.058 337.163 621.202 337.791 621.174Z" fill="#D5F2E4"/>
<rect x="167.578" y="594.539" width="202.107" height="57.499" rx="28.7495" transform="rotate(-2.54111 167.578 594.539)" stroke="#F2F4F7" stroke-width="1.10865"/>
<rect x="37.2712" y="447.526" width="178" height="51" rx="25.5" transform="rotate(3.08614 37.2712 447.526)" fill="#D5F2E4"/>
<path d="M68.0729 472.069C68.0374 471.461 67.7818 470.978 67.3061 470.619C66.8306 470.256 66.2184 470.055 65.4695 470.014C64.9333 469.985 64.4649 470.046 64.0643 470.195C63.6639 470.34 63.3472 470.553 63.1144 470.835C62.886 471.113 62.7619 471.437 62.7419 471.807C62.7252 472.118 62.783 472.39 62.9156 472.623C63.0523 472.856 63.2357 473.056 63.4658 473.222C63.7003 473.384 63.9531 473.524 64.2242 473.641C64.4955 473.754 64.7571 473.849 65.0089 473.926L66.2676 474.327C66.6791 474.452 67.0993 474.613 67.5282 474.811C67.957 475.009 68.351 475.261 68.7101 475.566C69.0692 475.872 69.3523 476.241 69.5593 476.675C69.7707 477.109 69.8605 477.619 69.8288 478.206C69.7889 478.947 69.562 479.594 69.148 480.148C68.7384 480.702 68.1629 481.125 67.4216 481.418C66.6846 481.711 65.8054 481.83 64.7842 481.775C63.8055 481.722 62.9671 481.521 62.269 481.172C61.5709 480.823 61.035 480.352 60.6615 479.76C60.2883 479.164 60.1016 478.471 60.1015 477.682L62.0801 477.789C62.093 478.263 62.2249 478.665 62.476 478.994C62.7316 479.319 63.0659 479.57 63.4789 479.746C63.8964 479.918 64.3583 480.017 64.8647 480.045C65.4221 480.075 65.9226 480.014 66.366 479.863C66.8139 479.708 67.1719 479.48 67.4399 479.179C67.7082 478.873 67.8538 478.507 67.8767 478.082C67.8976 477.695 67.8041 477.372 67.5961 477.113C67.3924 476.854 67.1077 476.634 66.7419 476.452C66.3804 476.271 65.969 476.106 65.5076 475.957L63.9857 475.452C62.9543 475.111 62.1471 474.647 61.5642 474.061C60.9855 473.475 60.7207 472.726 60.7698 471.816C60.8104 471.063 61.0501 470.416 61.4889 469.877C61.9277 469.337 62.5044 468.931 63.219 468.658C63.9338 468.38 64.7295 468.265 65.6061 468.313C66.4911 468.36 67.2636 468.558 67.9234 468.905C68.5875 469.252 69.1006 469.709 69.4627 470.275C69.825 470.836 69.9958 471.468 69.975 472.171L68.0729 472.069ZM75.9567 482.358C75.0078 482.307 74.2024 482.048 73.5405 481.581C72.883 481.111 72.3919 480.485 72.067 479.703C71.7421 478.922 71.6062 478.04 71.6592 477.057C71.7129 476.061 71.9475 475.192 72.363 474.451C72.7787 473.705 73.3386 473.136 74.0426 472.743C74.7466 472.35 75.5603 472.178 76.4837 472.228C77.2283 472.268 77.8847 472.442 78.4527 472.75C79.021 473.054 79.4706 473.462 79.8014 473.975C80.1365 474.488 80.3203 475.076 80.3528 475.739L78.4954 475.639C78.418 475.174 78.2054 474.766 77.8573 474.414C77.5135 474.063 77.0374 473.871 76.4289 473.838C75.897 473.809 75.4235 473.925 75.0083 474.184C74.5977 474.439 74.2678 474.818 74.0188 475.321C73.77 475.82 73.6268 476.418 73.5892 477.116C73.5506 477.831 73.6259 478.454 73.8149 478.985C74.0039 479.515 74.2886 479.934 74.669 480.24C75.0536 480.547 75.5161 480.715 76.0565 480.744C76.4182 480.764 76.7494 480.715 77.0501 480.599C77.3553 480.479 77.6147 480.299 77.8282 480.059C78.046 479.819 78.2049 479.524 78.3047 479.175L80.1621 479.276C80.0599 479.906 79.823 480.461 79.4515 480.94C79.08 481.419 78.5972 481.786 78.0031 482.04C77.4133 482.294 76.7311 482.4 75.9567 482.358ZM84.8772 482.858C84.2559 482.825 83.7004 482.68 83.2107 482.423C82.7212 482.162 82.3416 481.802 82.0718 481.344C81.8064 480.886 81.6909 480.335 81.7256 479.693C81.7554 479.14 81.8863 478.69 82.1184 478.344C82.3504 477.998 82.6529 477.731 83.0258 477.542C83.3987 477.353 83.8115 477.217 84.264 477.135C84.7165 477.052 85.1762 476.996 85.643 476.966C86.2339 476.929 86.7134 476.9 87.0817 476.877C87.4501 476.85 87.7201 476.79 87.8916 476.696C88.063 476.603 88.1549 476.442 88.1673 476.212L88.1697 476.167C88.1998 475.61 88.0656 475.17 87.7673 474.846C87.4732 474.523 87.0176 474.345 86.4006 474.312C85.7581 474.277 85.244 474.392 84.8585 474.657C84.4774 474.918 84.2073 475.218 84.0483 475.555L82.2768 475.049C82.5217 474.465 82.8582 474.001 83.2864 473.657C83.7192 473.309 84.2081 473.067 84.7532 472.93C85.2985 472.788 85.8669 472.734 86.4584 472.766C86.8498 472.787 87.2622 472.856 87.6954 472.973C88.1331 473.086 88.537 473.275 88.9068 473.538C89.281 473.801 89.5793 474.165 89.8018 474.629C90.0245 475.089 90.1166 475.677 90.078 476.392L89.727 482.902L87.8633 482.802L87.9355 481.461L87.8589 481.457C87.7222 481.697 87.524 481.93 87.2644 482.155C87.0047 482.38 86.6771 482.561 86.2814 482.697C85.8856 482.834 85.4176 482.888 84.8772 482.858ZM85.3747 481.349C85.9023 481.377 86.359 481.297 86.7447 481.109C87.1346 480.921 87.4365 480.664 87.6504 480.339C87.8687 480.009 87.9883 479.651 88.0092 479.263L88.0774 478C88.0056 478.064 87.8703 478.121 87.6713 478.17C87.4768 478.215 87.2551 478.252 87.006 478.281C86.7571 478.306 86.5147 478.329 86.2789 478.351C86.0432 478.368 85.8461 478.383 85.6875 478.396C85.3148 478.422 84.9723 478.483 84.6599 478.577C84.3518 478.671 84.1007 478.818 83.9065 479.017C83.7167 479.211 83.6127 479.479 83.5944 479.819C83.5689 480.291 83.7241 480.658 84.0599 480.92C84.396 481.177 84.8342 481.32 85.3747 481.349ZM94.8822 470.07L94.1774 483.142L92.269 483.039L92.9737 469.967L94.8822 470.07ZM99.5863 483.651C98.965 483.618 98.4095 483.473 97.9198 483.216C97.4303 482.955 97.0507 482.595 96.781 482.137C96.5155 481.679 96.4 481.128 96.4347 480.486C96.4645 479.933 96.5954 479.483 96.8275 479.137C97.0595 478.791 97.362 478.524 97.7349 478.335C98.1078 478.146 98.5206 478.01 98.9731 477.928C99.4256 477.845 99.8853 477.789 100.352 477.759C100.943 477.722 101.423 477.693 101.791 477.67C102.159 477.643 102.429 477.583 102.601 477.489C102.772 477.396 102.864 477.235 102.876 477.005L102.879 476.96C102.909 476.403 102.775 475.963 102.476 475.639C102.182 475.316 101.727 475.138 101.11 475.105C100.467 475.07 99.9531 475.185 99.5676 475.45C99.1865 475.711 98.9164 476.011 98.7574 476.348L96.9859 475.842C97.2308 475.258 97.5673 474.794 97.9955 474.45C98.4283 474.102 98.9172 473.86 99.4623 473.723C100.008 473.581 100.576 473.527 101.167 473.559C101.559 473.58 101.971 473.649 102.405 473.766C102.842 473.879 103.246 474.068 103.616 474.331C103.99 474.594 104.288 474.958 104.511 475.422C104.734 475.883 104.826 476.47 104.787 477.185L104.436 483.695L102.572 483.595L102.645 482.254L102.568 482.25C102.431 482.49 102.233 482.723 101.974 482.948C101.714 483.173 101.386 483.354 100.99 483.49C100.595 483.627 100.127 483.681 99.5863 483.651ZM100.084 482.142C100.611 482.17 101.068 482.09 101.454 481.902C101.844 481.714 102.146 481.457 102.359 481.132C102.578 480.802 102.697 480.444 102.718 480.056L102.786 478.793C102.715 478.857 102.579 478.914 102.38 478.963C102.186 479.008 101.964 479.045 101.715 479.074C101.466 479.099 101.224 479.122 100.988 479.144C100.752 479.161 100.555 479.176 100.397 479.189C100.024 479.215 99.6814 479.276 99.369 479.37C99.0609 479.464 98.8098 479.611 98.6156 479.81C98.4259 480.004 98.3218 480.272 98.3035 480.612C98.278 481.084 98.4332 481.451 98.769 481.713C99.1051 481.97 99.5433 482.113 100.084 482.142ZM107.131 483.841L107.836 470.769L109.744 470.872L109.483 475.729L109.597 475.735C109.719 475.537 109.891 475.309 110.114 475.052C110.337 474.796 110.639 474.577 111.02 474.397C111.402 474.213 111.896 474.137 112.505 474.17C113.296 474.213 113.992 474.451 114.592 474.884C115.191 475.318 115.647 475.92 115.96 476.693C116.277 477.465 116.407 478.381 116.35 479.441C116.292 480.5 116.067 481.399 115.673 482.138C115.279 482.872 114.763 483.426 114.124 483.802C113.485 484.173 112.77 484.337 111.978 484.294C111.382 484.262 110.901 484.136 110.533 483.915C110.169 483.695 109.888 483.445 109.69 483.166C109.491 482.886 109.34 482.639 109.237 482.424L109.077 482.416L108.995 483.941L107.131 483.841ZM109.266 479.039C109.229 479.729 109.296 480.338 109.468 480.868C109.64 481.398 109.907 481.82 110.27 482.134C110.633 482.444 111.089 482.614 111.638 482.643C112.209 482.674 112.693 482.549 113.093 482.267C113.492 481.982 113.804 481.582 114.028 481.069C114.256 480.557 114.388 479.973 114.423 479.318C114.458 478.671 114.391 478.085 114.223 477.559C114.06 477.034 113.792 476.612 113.421 476.293C113.054 475.975 112.583 475.8 112.009 475.769C111.456 475.739 110.98 475.857 110.582 476.121C110.188 476.386 109.879 476.768 109.656 477.268C109.432 477.768 109.302 478.359 109.266 479.039ZM120.843 471.47L120.138 484.542L118.229 484.439L118.934 471.367L120.843 471.47ZM126.92 485.106C125.954 485.054 125.133 484.803 124.458 484.352C123.787 483.898 123.282 483.284 122.944 482.51C122.61 481.733 122.471 480.835 122.526 479.818C122.58 478.814 122.815 477.939 123.231 477.193C123.651 476.448 124.21 475.879 124.91 475.485C125.614 475.092 126.421 474.92 127.332 474.969C127.885 474.999 128.416 475.12 128.926 475.33C129.435 475.541 129.885 475.854 130.277 476.268C130.669 476.681 130.967 477.207 131.171 477.846C131.376 478.48 131.455 479.241 131.407 480.131L131.37 480.807L123.577 480.387L123.654 478.957L129.577 479.277C129.604 478.775 129.526 478.325 129.343 477.926C129.16 477.524 128.889 477.2 128.531 476.954C128.177 476.709 127.753 476.573 127.26 476.547C126.724 476.518 126.248 476.624 125.834 476.867C125.425 477.105 125.1 477.429 124.86 477.838C124.625 478.244 124.494 478.691 124.468 479.181L124.407 480.298C124.372 480.953 124.457 481.516 124.662 481.988C124.871 482.461 125.178 482.829 125.582 483.094C125.986 483.355 126.467 483.5 127.024 483.53C127.386 483.55 127.718 483.517 128.022 483.431C128.325 483.34 128.591 483.197 128.819 483C129.048 482.803 129.228 482.555 129.359 482.254L131.148 482.677C130.974 483.201 130.69 483.653 130.294 484.033C129.902 484.409 129.42 484.692 128.846 484.883C128.277 485.07 127.635 485.145 126.92 485.106ZM149.497 477.278L147.506 477.171C147.452 476.741 147.33 476.359 147.138 476.024C146.947 475.69 146.707 475.402 146.417 475.16C146.127 474.918 145.798 474.729 145.43 474.594C145.066 474.46 144.675 474.381 144.258 474.358C143.505 474.318 142.82 474.471 142.204 474.817C141.592 475.164 141.094 475.694 140.71 476.408C140.33 477.121 140.112 478.005 140.055 479.061C139.998 480.125 140.119 481.032 140.42 481.782C140.726 482.532 141.166 483.111 141.741 483.517C142.317 483.924 142.977 484.147 143.722 484.187C144.135 484.21 144.529 484.176 144.905 484.085C145.286 483.99 145.633 483.84 145.947 483.635C146.261 483.43 146.531 483.174 146.757 482.866C146.987 482.554 147.154 482.192 147.257 481.779L149.248 481.893C149.107 482.53 148.869 483.11 148.533 483.634C148.202 484.154 147.788 484.597 147.29 484.962C146.797 485.324 146.241 485.595 145.621 485.775C145.001 485.955 144.331 486.026 143.612 485.987C142.48 485.926 141.486 485.603 140.63 485.019C139.774 484.431 139.118 483.621 138.661 482.59C138.209 481.558 138.02 480.347 138.095 478.955C138.171 477.559 138.491 476.375 139.055 475.403C139.62 474.426 140.359 473.694 141.273 473.205C142.187 472.713 143.208 472.497 144.336 472.557C145.03 472.595 145.671 472.73 146.26 472.962C146.854 473.19 147.381 473.509 147.841 473.918C148.301 474.322 148.674 474.808 148.96 475.374C149.245 475.935 149.424 476.57 149.497 477.278ZM151.228 486.218L151.757 476.414L153.601 476.514L153.517 478.071L153.62 478.077C153.827 477.559 154.164 477.161 154.631 476.883C155.103 476.601 155.626 476.476 156.201 476.507C156.32 476.513 156.46 476.525 156.621 476.542C156.787 476.559 156.916 476.577 157.009 476.595L156.911 478.42C156.835 478.395 156.7 478.364 156.506 478.328C156.312 478.288 156.117 478.262 155.921 478.252C155.47 478.228 155.063 478.302 154.699 478.474C154.34 478.642 154.049 478.889 153.827 479.214C153.605 479.535 153.482 479.908 153.459 480.334L153.137 486.321L151.228 486.218ZM161.99 486.997C161.024 486.945 160.203 486.694 159.528 486.243C158.857 485.789 158.352 485.175 158.014 484.401C157.68 483.624 157.541 482.726 157.596 481.709C157.65 480.705 157.885 479.83 158.301 479.084C158.721 478.339 159.281 477.769 159.98 477.376C160.684 476.983 161.492 476.811 162.402 476.86C162.955 476.89 163.487 477.01 163.996 477.221C164.505 477.432 164.956 477.745 165.347 478.158C165.739 478.572 166.037 479.098 166.242 479.736C166.446 480.371 166.525 481.132 166.477 482.022L166.44 482.698L158.647 482.278L158.724 480.848L164.647 481.168C164.674 480.666 164.596 480.215 164.413 479.817C164.23 479.415 163.959 479.091 163.601 478.845C163.247 478.6 162.824 478.464 162.33 478.437C161.794 478.408 161.319 478.515 160.904 478.757C160.495 478.996 160.17 479.32 159.93 479.729C159.695 480.135 159.564 480.582 159.538 481.071L159.478 482.188C159.442 482.844 159.527 483.407 159.732 483.879C159.941 484.351 160.248 484.72 160.652 484.985C161.056 485.246 161.537 485.391 162.094 485.421C162.456 485.441 162.788 485.408 163.092 485.321C163.395 485.231 163.661 485.088 163.89 484.891C164.118 484.694 164.298 484.445 164.429 484.145L166.218 484.568C166.045 485.092 165.76 485.544 165.364 485.924C164.972 486.3 164.49 486.583 163.916 486.774C163.347 486.961 162.705 487.035 161.99 486.997ZM171.984 487.529C171.193 487.487 170.497 487.246 169.898 486.809C169.303 486.367 168.849 485.76 168.537 484.988C168.228 484.211 168.103 483.294 168.16 482.234C168.217 481.174 168.443 480.278 168.837 479.544C169.235 478.81 169.755 478.259 170.398 477.893C171.041 477.526 171.756 477.364 172.543 477.407C173.151 477.44 173.635 477.568 173.994 477.792C174.358 478.013 174.635 478.262 174.825 478.541C175.019 478.821 175.168 479.065 175.271 479.276L175.386 479.282L175.648 474.425L177.557 474.528L176.852 487.6L174.988 487.499L175.07 485.974L174.911 485.965C174.785 486.167 174.606 486.397 174.374 486.653C174.147 486.91 173.841 487.128 173.456 487.308C173.07 487.488 172.58 487.561 171.984 487.529ZM172.493 485.924C173.042 485.954 173.514 485.834 173.908 485.565C174.307 485.292 174.618 484.902 174.842 484.393C175.07 483.885 175.202 483.286 175.24 482.597C175.276 481.916 175.211 481.315 175.042 480.793C174.874 480.272 174.608 479.859 174.245 479.553C173.882 479.248 173.421 479.08 172.864 479.05C172.289 479.019 171.803 479.142 171.404 479.419C171.005 479.697 170.693 480.087 170.47 480.592C170.251 481.096 170.124 481.672 170.089 482.319C170.053 482.974 170.12 483.569 170.287 484.103C170.455 484.637 170.722 485.067 171.088 485.394C171.459 485.717 171.927 485.894 172.493 485.924ZM179.576 487.747L180.104 477.943L182.013 478.045L181.484 487.849L179.576 487.747ZM181.15 476.482C180.818 476.464 180.539 476.338 180.312 476.104C180.09 475.866 179.988 475.591 180.005 475.281C180.022 474.966 180.153 474.704 180.399 474.495C180.649 474.283 180.941 474.185 181.273 474.203C181.604 474.221 181.881 474.349 182.103 474.587C182.33 474.821 182.434 475.096 182.417 475.411C182.401 475.721 182.267 475.983 182.017 476.196C181.771 476.404 181.482 476.5 181.15 476.482ZM189.157 478.431L189.074 479.962L183.719 479.674L183.802 478.142L189.157 478.431ZM185.364 475.87L187.273 475.973L186.773 485.248C186.753 485.618 186.793 485.899 186.894 486.093C186.994 486.282 187.13 486.415 187.301 486.492C187.476 486.566 187.668 486.608 187.877 486.619C188.03 486.628 188.164 486.624 188.28 486.609C188.397 486.594 188.487 486.582 188.551 486.572L188.811 488.168C188.698 488.204 188.538 488.238 188.332 488.27C188.125 488.306 187.868 488.317 187.562 488.305C187.059 488.287 186.596 488.172 186.172 487.961C185.748 487.751 185.413 487.442 185.166 487.036C184.919 486.631 184.811 486.132 184.843 485.54L185.364 475.87Z" fill="#3CB779"/>
<rect x="37.2712" y="447.526" width="178" height="51" rx="25.5" transform="rotate(3.08614 37.2712 447.526)" stroke="#F2F4F7"/>
<rect x="995.346" y="76.9707" width="119.345" height="34.3392" rx="17.1696" transform="rotate(-2.22078 995.346 76.9707)" fill="#D5F2E4"/>
<path d="M1017.31 91.3629C1017.25 90.9614 1017.05 90.6563 1016.71 90.4475C1016.38 90.2359 1015.96 90.1399 1015.46 90.1592C1015.1 90.1731 1014.79 90.2419 1014.54 90.3656C1014.28 90.4865 1014.08 90.6478 1013.94 90.8493C1013.81 91.0479 1013.75 91.2708 1013.76 91.5178C1013.77 91.7252 1013.82 91.9022 1013.92 92.049C1014.03 92.1956 1014.16 92.317 1014.33 92.413C1014.49 92.5062 1014.67 92.5832 1014.85 92.6442C1015.04 92.7024 1015.22 92.7495 1015.39 92.7854L1016.25 92.9739C1016.53 93.0313 1016.82 93.1125 1017.12 93.2176C1017.42 93.3227 1017.69 93.4655 1017.95 93.6461C1018.21 93.8267 1018.42 94.0546 1018.58 94.3298C1018.75 94.6049 1018.84 94.9384 1018.86 95.3303C1018.88 95.8244 1018.77 96.2681 1018.53 96.6614C1018.29 97.0546 1017.93 97.3713 1017.46 97.6115C1016.99 97.8516 1016.41 97.9849 1015.73 98.0113C1015.08 98.0367 1014.51 97.9549 1014.02 97.7661C1013.54 97.5773 1013.15 97.2979 1012.87 96.9278C1012.58 96.5549 1012.41 96.1063 1012.37 95.582L1013.69 95.5308C1013.72 95.845 1013.84 96.1037 1014.02 96.307C1014.21 96.5072 1014.45 96.653 1014.74 96.7444C1015.02 96.8327 1015.34 96.8704 1015.67 96.8573C1016.05 96.8428 1016.38 96.7718 1016.66 96.6441C1016.95 96.5135 1017.17 96.3399 1017.33 96.1232C1017.49 95.9037 1017.57 95.652 1017.55 95.368C1017.54 95.1096 1017.46 94.9009 1017.31 94.7419C1017.16 94.5828 1016.95 94.4541 1016.7 94.3559C1016.45 94.2576 1016.17 94.1733 1015.85 94.1031L1014.81 93.8619C1014.1 93.6987 1013.54 93.4405 1013.11 93.0871C1012.69 92.7337 1012.47 92.2531 1012.45 91.6454C1012.43 91.1427 1012.55 90.6987 1012.81 90.3133C1013.06 89.9278 1013.42 89.6224 1013.88 89.3971C1014.34 89.1689 1014.86 89.0434 1015.44 89.0207C1016.03 88.9978 1016.56 89.0813 1017.02 89.2711C1017.48 89.4607 1017.85 89.7323 1018.13 90.0856C1018.4 90.4362 1018.55 90.8455 1018.58 91.3136L1017.31 91.3629ZM1023.18 97.7094C1022.55 97.734 1022 97.6117 1021.53 97.3426C1021.07 97.0706 1020.7 96.6851 1020.44 96.1863C1020.17 95.6874 1020.03 95.11 1020 94.454C1019.98 93.7894 1020.08 93.1982 1020.31 92.6801C1020.54 92.1593 1020.88 91.7466 1021.32 91.4422C1021.76 91.1377 1022.29 90.9735 1022.91 90.9497C1023.41 90.9304 1023.85 91.0055 1024.25 91.175C1024.64 91.3417 1024.97 91.5851 1025.22 91.9053C1025.47 92.2253 1025.63 92.6046 1025.69 93.043L1024.45 93.091C1024.37 92.787 1024.21 92.5289 1023.96 92.3169C1023.71 92.1047 1023.38 92.0065 1022.97 92.0223C1022.62 92.0361 1022.31 92.1418 1022.05 92.3396C1021.79 92.5344 1021.6 92.8065 1021.46 93.1559C1021.33 93.5024 1021.27 93.9085 1021.29 94.3743C1021.31 94.8513 1021.39 95.2603 1021.55 95.6012C1021.71 95.942 1021.93 96.2024 1022.2 96.3825C1022.47 96.5624 1022.79 96.6454 1023.15 96.6314C1023.39 96.622 1023.61 96.5695 1023.8 96.4739C1024 96.3753 1024.16 96.2396 1024.28 96.0669C1024.41 95.8941 1024.5 95.6888 1024.55 95.451L1025.79 95.4029C1025.76 95.8278 1025.63 96.2108 1025.42 96.552C1025.2 96.8932 1024.9 97.1664 1024.52 97.3717C1024.15 97.5768 1023.7 97.6894 1023.18 97.7094ZM1029.14 97.4913C1028.72 97.5074 1028.35 97.4453 1028 97.3049C1027.66 97.1617 1027.39 96.9462 1027.18 96.6585C1026.98 96.3706 1026.87 96.0123 1026.85 95.5835C1026.84 95.2143 1026.89 94.9077 1027.03 94.6636C1027.16 94.4196 1027.34 94.2233 1027.58 94.0748C1027.82 93.9263 1028.08 93.8107 1028.38 93.7282C1028.67 93.6456 1028.97 93.5799 1029.28 93.5309C1029.67 93.4703 1029.99 93.421 1030.23 93.3832C1030.48 93.3425 1030.65 93.2859 1030.76 93.2134C1030.87 93.141 1030.92 93.0281 1030.91 92.8747L1030.91 92.8449C1030.9 92.4729 1030.78 92.1887 1030.56 91.9924C1030.35 91.796 1030.03 91.7057 1029.62 91.7217C1029.19 91.7383 1028.86 91.8466 1028.62 92.0464C1028.38 92.2433 1028.22 92.4586 1028.14 92.6923L1026.93 92.4661C1027.06 92.063 1027.25 91.734 1027.51 91.4792C1027.78 91.2215 1028.09 91.0303 1028.44 90.9057C1028.8 90.7782 1029.17 90.7068 1029.57 90.6915C1029.83 90.6814 1030.1 90.7019 1030.4 90.753C1030.7 90.8012 1030.98 90.9013 1031.24 91.0532C1031.5 91.2051 1031.72 91.4283 1031.9 91.7229C1032.08 92.0147 1032.17 92.3992 1032.19 92.8763L1032.36 97.2213L1031.12 97.2695L1031.08 96.3749L1031.03 96.3769C1030.96 96.5448 1030.84 96.7115 1030.68 96.8769C1030.52 97.0423 1030.31 97.1826 1030.06 97.2977C1029.81 97.4128 1029.5 97.4773 1029.14 97.4913ZM1029.38 96.4582C1029.73 96.4446 1030.03 96.3633 1030.27 96.2145C1030.52 96.0655 1030.7 95.8763 1030.82 95.6469C1030.95 95.4146 1031.01 95.1692 1031 94.9107L1030.96 94.0673C1030.92 94.1145 1030.83 94.1605 1030.7 94.2053C1030.58 94.2472 1030.43 94.2855 1030.27 94.3203C1030.11 94.3523 1029.95 94.3826 1029.79 94.4114C1029.64 94.4373 1029.51 94.4595 1029.4 94.4777C1029.15 94.5185 1028.93 94.5798 1028.73 94.6616C1028.53 94.7433 1028.37 94.856 1028.26 94.9999C1028.14 95.1409 1028.09 95.3249 1028.1 95.5521C1028.11 95.8673 1028.24 96.1014 1028.48 96.2542C1028.71 96.4042 1029.01 96.4722 1029.38 96.4582ZM1034.99 88.3821L1035.33 97.1061L1034.06 97.1555L1033.72 88.4314L1034.99 88.3821ZM1038.95 97.1106C1038.54 97.1267 1038.16 97.0646 1037.82 96.9242C1037.48 96.781 1037.21 96.5655 1037 96.2778C1036.79 95.9899 1036.68 95.6316 1036.67 95.2028C1036.65 94.8336 1036.71 94.527 1036.84 94.2829C1036.98 94.0389 1037.16 93.8426 1037.4 93.6941C1037.63 93.5456 1037.9 93.43 1038.19 93.3475C1038.49 93.2649 1038.79 93.1992 1039.1 93.1502C1039.49 93.0896 1039.81 93.0404 1040.05 93.0025C1040.29 92.9618 1040.47 92.9052 1040.58 92.8327C1040.68 92.7603 1040.74 92.6474 1040.73 92.494L1040.73 92.4642C1040.71 92.0922 1040.6 91.808 1040.38 91.6117C1040.16 91.4153 1039.85 91.3251 1039.44 91.341C1039.01 91.3576 1038.68 91.4659 1038.44 91.6657C1038.2 91.8626 1038.04 92.0779 1037.95 92.3116L1036.75 92.0854C1036.87 91.6823 1037.07 91.3534 1037.33 91.0986C1037.6 90.8408 1037.91 90.6496 1038.26 90.525C1038.61 90.3975 1038.99 90.3261 1039.38 90.3108C1039.64 90.3007 1039.92 90.3212 1040.22 90.3723C1040.51 90.4205 1040.79 90.5206 1041.06 90.6725C1041.32 90.8244 1041.54 91.0476 1041.72 91.3423C1041.89 91.6341 1041.99 92.0185 1042.01 92.4956L1042.18 96.8406L1040.93 96.8888L1040.9 95.9943L1040.85 95.9962C1040.77 96.1642 1040.66 96.3308 1040.5 96.4962C1040.34 96.6617 1040.13 96.8019 1039.88 96.917C1039.62 97.0321 1039.32 97.0966 1038.95 97.1106ZM1039.19 96.0775C1039.54 96.0639 1039.84 95.9826 1040.09 95.8338C1040.33 95.6848 1040.52 95.4957 1040.64 95.2662C1040.77 95.0339 1040.82 94.7885 1040.81 94.5301L1040.78 93.6866C1040.74 93.7338 1040.65 93.7798 1040.52 93.8247C1040.39 93.8665 1040.25 93.9049 1040.09 93.9396C1039.92 93.9716 1039.76 94.0019 1039.61 94.0307C1039.45 94.0567 1039.32 94.0788 1039.22 94.097C1038.97 94.1379 1038.75 94.1992 1038.55 94.2809C1038.35 94.3626 1038.19 94.4753 1038.07 94.6192C1037.96 94.7602 1037.91 94.9442 1037.92 95.1714C1037.93 95.4866 1038.05 95.7207 1038.29 95.8735C1038.53 96.0235 1038.83 96.0915 1039.19 96.0775ZM1043.98 96.7708L1043.64 88.0468L1044.91 87.9974L1045.04 91.2391L1045.11 91.2361C1045.18 91.0969 1045.28 90.9352 1045.42 90.7509C1045.55 90.5666 1045.73 90.4029 1045.98 90.2599C1046.22 90.114 1046.54 90.0331 1046.95 90.0174C1047.48 89.9969 1047.95 90.1121 1048.38 90.363C1048.8 90.6138 1049.14 90.986 1049.4 91.4795C1049.66 91.9729 1049.8 92.5732 1049.83 93.2803C1049.85 93.9875 1049.76 94.5983 1049.54 95.113C1049.33 95.6248 1049.02 96.025 1048.62 96.3136C1048.22 96.5993 1047.75 96.7524 1047.22 96.7729C1046.83 96.7883 1046.5 96.7342 1046.24 96.6105C1045.99 96.4867 1045.78 96.3382 1045.63 96.1648C1045.49 95.9913 1045.37 95.8366 1045.29 95.7004L1045.18 95.7045L1045.22 96.7226L1043.98 96.7708ZM1045.1 93.4509C1045.12 93.911 1045.2 94.3116 1045.35 94.6529C1045.49 94.9942 1045.7 95.2579 1045.96 95.4441C1046.22 95.6274 1046.53 95.7119 1046.9 95.6977C1047.28 95.683 1047.59 95.5698 1047.84 95.3583C1048.09 95.1439 1048.27 94.8595 1048.39 94.5052C1048.51 94.1507 1048.56 93.7548 1048.54 93.3174C1048.52 92.8858 1048.44 92.5007 1048.3 92.1621C1048.16 91.8235 1047.95 91.5597 1047.69 91.371C1047.42 91.1821 1047.1 91.0951 1046.72 91.1099C1046.35 91.1243 1046.04 91.2315 1045.79 91.4317C1045.55 91.6318 1045.37 91.9047 1045.25 92.2506C1045.13 92.5964 1045.08 92.9965 1045.1 93.4509ZM1052.32 87.7102L1052.66 96.4342L1051.38 96.4836L1051.05 87.7596L1052.32 87.7102ZM1057.2 96.3905C1056.55 96.4155 1055.99 96.2993 1055.51 96.0418C1055.04 95.7815 1054.67 95.4049 1054.4 94.912C1054.13 94.4162 1053.98 93.829 1053.95 93.1502C1053.93 92.48 1054.03 91.8845 1054.26 91.3636C1054.49 90.8427 1054.83 90.43 1055.27 90.1257C1055.71 89.8212 1056.24 89.6572 1056.84 89.6337C1057.21 89.6193 1057.57 89.6665 1057.92 89.7752C1058.28 89.8839 1058.59 90.0635 1058.88 90.3141C1059.17 90.5647 1059.4 90.8956 1059.57 91.3069C1059.75 91.7154 1059.85 92.2163 1059.87 92.8099L1059.89 93.2614L1054.68 93.4631L1054.65 92.5089L1058.6 92.3556C1058.59 92.0205 1058.51 91.7264 1058.36 91.4733C1058.22 91.2173 1058.02 91.0188 1057.76 90.8779C1057.51 90.7368 1057.22 90.6727 1056.89 90.6855C1056.54 90.6994 1056.23 90.7995 1055.97 90.9859C1055.71 91.1694 1055.51 91.4045 1055.38 91.6913C1055.25 91.9751 1055.19 92.2803 1055.2 92.6069L1055.23 93.3523C1055.25 93.7897 1055.34 94.1587 1055.5 94.4595C1055.67 94.7601 1055.9 94.986 1056.18 95.1371C1056.47 95.2853 1056.8 95.3522 1057.17 95.3378C1057.41 95.3284 1057.63 95.2858 1057.82 95.21C1058.02 95.1313 1058.19 95.0195 1058.33 94.8747C1058.47 94.73 1058.57 94.5539 1058.64 94.3464L1059.85 94.5169C1059.77 94.8757 1059.61 95.1933 1059.37 95.47C1059.13 95.7437 1058.83 95.9616 1058.46 96.1238C1058.09 96.2831 1057.67 96.372 1057.2 96.3905ZM1071.71 89.7997L1070.38 89.8512C1070.31 89.5692 1070.21 89.323 1070.06 89.1125C1069.91 88.9021 1069.74 88.7255 1069.53 88.5829C1069.32 88.4402 1069.09 88.3353 1068.84 88.2683C1068.59 88.2012 1068.32 88.1731 1068.05 88.1839C1067.54 88.2034 1067.1 88.3472 1066.71 88.6154C1066.33 88.8834 1066.03 89.2661 1065.82 89.7635C1065.61 90.2608 1065.52 90.8616 1065.55 91.5658C1065.57 92.2758 1065.71 92.8706 1065.96 93.3503C1066.2 93.8298 1066.53 94.1868 1066.94 94.4213C1067.35 94.6558 1067.8 94.7634 1068.3 94.7441C1068.57 94.7334 1068.83 94.6864 1069.08 94.603C1069.32 94.5166 1069.54 94.3957 1069.74 94.2402C1069.94 94.0847 1070.1 93.8977 1070.23 93.6794C1070.36 93.458 1070.45 93.2072 1070.5 92.9268L1071.82 92.8795C1071.77 93.3111 1071.65 93.7111 1071.46 94.0797C1071.27 94.4454 1071.02 94.765 1070.71 95.0386C1070.41 95.3092 1070.06 95.5234 1069.66 95.6812C1069.25 95.8389 1068.81 95.9271 1068.33 95.9457C1067.58 95.975 1066.9 95.8222 1066.29 95.4873C1065.69 95.1495 1065.2 94.6521 1064.84 93.9952C1064.47 93.3381 1064.27 92.5452 1064.24 91.6166C1064.2 90.6851 1064.34 89.8791 1064.66 89.1985C1064.97 88.5151 1065.42 87.983 1065.99 87.6022C1066.57 87.2187 1067.23 87.0123 1067.99 86.9831C1068.45 86.9652 1068.88 87.0152 1069.29 87.1331C1069.7 87.2481 1070.07 87.4272 1070.4 87.6703C1070.73 87.9106 1071.01 88.2099 1071.23 88.5681C1071.46 88.9234 1071.61 89.3339 1071.71 89.7997ZM1073.41 95.6296L1073.15 89.0865L1074.38 89.0388L1074.42 90.0782L1074.49 90.0755C1074.6 89.7188 1074.8 89.4337 1075.09 89.2204C1075.39 89.0042 1075.73 88.8886 1076.11 88.8738C1076.19 88.8707 1076.28 88.8699 1076.39 88.8714C1076.5 88.8728 1076.59 88.8765 1076.65 88.8826L1076.7 90.1009C1076.65 90.0887 1076.56 90.0766 1076.42 90.0646C1076.29 90.0498 1076.16 90.0449 1076.03 90.05C1075.73 90.0617 1075.46 90.136 1075.23 90.2729C1075.01 90.4069 1074.83 90.5887 1074.7 90.8183C1074.57 91.0451 1074.51 91.3005 1074.53 91.5845L1074.68 95.5802L1073.41 95.6296ZM1080.6 95.4828C1079.96 95.5078 1079.4 95.3916 1078.92 95.1342C1078.45 94.8738 1078.07 94.4972 1077.8 94.0044C1077.53 93.5086 1077.38 92.9213 1077.36 92.2426C1077.33 91.5724 1077.43 90.9769 1077.66 90.456C1077.9 89.935 1078.23 89.5224 1078.67 89.218C1079.12 88.9136 1079.64 88.7496 1080.25 88.726C1080.62 88.7117 1080.98 88.7589 1081.33 88.8675C1081.68 88.9762 1082 89.1559 1082.29 89.4064C1082.57 89.657 1082.8 89.988 1082.98 90.3993C1083.15 90.8077 1083.25 91.3087 1083.27 91.9022L1083.29 92.3538L1078.09 92.5555L1078.05 91.6013L1082.01 91.448C1081.99 91.1129 1081.91 90.8188 1081.77 90.5656C1081.62 90.3096 1081.42 90.1112 1081.17 89.9702C1080.92 89.8292 1080.63 89.7651 1080.3 89.7778C1079.94 89.7917 1079.63 89.8919 1079.37 90.0783C1079.11 90.2618 1078.92 90.4969 1078.78 90.7836C1078.65 91.0675 1078.59 91.3727 1078.61 91.6992L1078.64 92.4447C1078.65 92.882 1078.74 93.2511 1078.91 93.5518C1079.08 93.8525 1079.3 94.0784 1079.59 94.2294C1079.87 94.3777 1080.2 94.4446 1080.57 94.4302C1080.81 94.4208 1081.03 94.3782 1081.23 94.3023C1081.43 94.2236 1081.59 94.1119 1081.73 93.9671C1081.87 93.8223 1081.98 93.6462 1082.04 93.4388L1083.26 93.6093C1083.18 93.968 1083.01 94.2857 1082.78 94.5623C1082.54 94.836 1082.24 95.054 1081.87 95.2162C1081.5 95.3754 1081.08 95.4643 1080.6 95.4828ZM1087.27 95.2199C1086.74 95.2404 1086.27 95.1238 1085.84 94.8701C1085.42 94.6134 1085.08 94.2383 1084.82 93.7448C1084.57 93.2483 1084.43 92.6466 1084.4 91.9394C1084.38 91.2323 1084.47 90.6228 1084.69 90.1111C1084.91 89.5991 1085.22 89.2017 1085.62 88.9187C1086.03 88.6356 1086.49 88.4839 1087.02 88.4636C1087.42 88.4478 1087.75 88.5033 1088 88.63C1088.26 88.7538 1088.46 88.9025 1088.6 89.0761C1088.75 89.2497 1088.86 89.4031 1088.94 89.5364L1089.02 89.5335L1088.9 86.2918L1090.17 86.2424L1090.51 94.9664L1089.26 95.0146L1089.22 93.9965L1089.12 94.0007C1089.05 94.1428 1088.94 94.3061 1088.8 94.4907C1088.67 94.6751 1088.48 94.8389 1088.23 94.982C1087.99 95.1252 1087.67 95.2045 1087.27 95.2199ZM1087.51 94.1228C1087.88 94.1086 1088.18 94 1088.43 93.7971C1088.68 93.5912 1088.86 93.3125 1088.97 92.961C1089.09 92.6094 1089.15 92.2035 1089.13 91.7435C1089.11 91.2891 1089.03 90.894 1088.89 90.5583C1088.74 90.2226 1088.54 89.9645 1088.28 89.784C1088.02 89.6036 1087.7 89.5205 1087.33 89.535C1086.95 89.5498 1086.63 89.6616 1086.38 89.8703C1086.14 90.079 1085.95 90.3577 1085.84 90.7064C1085.72 91.055 1085.67 91.4451 1085.69 91.8768C1085.71 92.3141 1085.79 92.7049 1085.93 93.0491C1086.08 93.3934 1086.28 93.6628 1086.54 93.8573C1086.81 94.0489 1087.13 94.1374 1087.51 94.1228ZM1092.33 94.8959L1092.07 88.3529L1093.35 88.3035L1093.6 94.8465L1092.33 94.8959ZM1092.68 87.3184C1092.45 87.327 1092.26 87.2605 1092.1 87.119C1091.93 86.9745 1091.85 86.7987 1091.84 86.5913C1091.83 86.3812 1091.9 86.1993 1092.05 86.0455C1092.21 85.8888 1092.4 85.8062 1092.62 85.7976C1092.84 85.789 1093.03 85.857 1093.19 86.0014C1093.36 86.1429 1093.44 86.3188 1093.45 86.5289C1093.46 86.7362 1093.39 86.9182 1093.23 87.0749C1093.08 87.2286 1092.9 87.3098 1092.68 87.3184ZM1098.11 88.1186L1098.15 89.1409L1094.58 89.2795L1094.54 88.2572L1098.11 88.1186ZM1095.44 86.6524L1096.71 86.603L1096.95 92.7925C1096.96 93.0396 1097 93.2241 1097.08 93.3462C1097.16 93.4655 1097.26 93.5456 1097.38 93.5865C1097.5 93.6245 1097.63 93.6408 1097.77 93.6354C1097.87 93.6314 1097.96 93.6208 1098.04 93.6036C1098.11 93.5865 1098.17 93.5728 1098.21 93.5626L1098.48 94.6059C1098.41 94.6371 1098.31 94.6696 1098.17 94.7033C1098.04 94.7398 1097.87 94.7635 1097.66 94.7742C1097.33 94.7929 1097.01 94.7454 1096.72 94.6317C1096.42 94.518 1096.18 94.3339 1095.99 94.0796C1095.8 93.8253 1095.7 93.5007 1095.69 93.106L1095.44 86.6524Z" fill="#3CB779"/>
<rect x="995.346" y="76.9707" width="119.345" height="34.3392" rx="17.1696" transform="rotate(-2.22078 995.346 76.9707)" stroke="#F2F4F7" stroke-width="0.66692"/>
<rect x="74.332" y="122.195" width="170.932" height="53.9659" rx="26.9829" transform="rotate(-3.12443 74.332 122.195)" fill="#0B3420"/>
<path d="M110.877 139.396L111.684 154.19L109.633 154.302L101.52 143.862L101.383 143.87L101.975 154.72L99.7432 154.842L98.9357 140.048L101.002 139.935L109.122 150.389L109.259 150.381L108.666 139.516L110.877 139.396ZM119.453 153.991C118.413 154.047 117.492 153.859 116.691 153.424C115.889 152.99 115.251 152.356 114.775 151.522C114.3 150.688 114.031 149.698 113.968 148.552C113.906 147.401 114.065 146.383 114.446 145.497C114.828 144.612 115.393 143.909 116.143 143.39C116.892 142.871 117.787 142.583 118.827 142.527C119.867 142.47 120.788 142.659 121.59 143.093C122.391 143.527 123.029 144.164 123.505 145.003C123.981 145.841 124.25 146.836 124.313 147.987C124.375 149.133 124.216 150.147 123.834 151.027C123.452 151.908 122.887 152.608 122.137 153.127C121.388 153.646 120.493 153.934 119.453 153.991ZM119.361 152.177C120.035 152.14 120.584 151.932 121.008 151.551C121.432 151.171 121.733 150.678 121.913 150.074C122.097 149.47 122.17 148.812 122.131 148.099C122.092 147.391 121.948 146.747 121.699 146.166C121.455 145.581 121.101 145.119 120.638 144.782C120.176 144.445 119.607 144.295 118.933 144.332C118.254 144.369 117.7 144.58 117.272 144.966C116.849 145.351 116.545 145.849 116.361 146.458C116.181 147.062 116.111 147.718 116.15 148.425C116.188 149.138 116.33 149.785 116.574 150.366C116.823 150.946 117.179 151.403 117.642 151.735C118.109 152.067 118.682 152.214 119.361 152.177ZM145.028 144.951C145.114 146.53 144.9 147.904 144.384 149.072C143.868 150.236 143.123 151.151 142.15 151.817C141.181 152.479 140.059 152.844 138.783 152.914C137.502 152.984 136.341 152.743 135.302 152.191C134.267 151.634 133.429 150.803 132.789 149.698C132.149 148.593 131.786 147.253 131.7 145.678C131.614 144.099 131.829 142.727 132.345 141.564C132.861 140.396 133.603 139.481 134.572 138.82C135.545 138.153 136.672 137.785 137.953 137.715C139.229 137.645 140.385 137.889 141.42 138.446C142.46 138.998 143.299 139.826 143.939 140.931C144.579 142.031 144.942 143.371 145.028 144.951ZM142.818 145.071C142.752 143.868 142.502 142.864 142.066 142.062C141.636 141.255 141.072 140.658 140.375 140.271C139.682 139.879 138.912 139.706 138.064 139.752C137.212 139.799 136.463 140.054 135.817 140.52C135.17 140.98 134.675 141.635 134.33 142.485C133.989 143.329 133.852 144.353 133.918 145.557C133.984 146.761 134.232 147.767 134.662 148.574C135.097 149.376 135.661 149.974 136.354 150.366C137.047 150.753 137.819 150.923 138.671 150.877C139.519 150.83 140.266 150.577 140.912 150.117C141.563 149.651 142.059 148.996 142.399 148.152C142.744 147.302 142.883 146.275 142.818 145.071ZM156.928 140.592L153.51 151.907L151.198 152.033L146.562 141.158L148.881 141.031L152.157 149.416L152.272 149.41L154.609 140.718L156.928 140.592ZM163.98 151.56C162.887 151.62 161.933 151.438 161.118 151.014C160.307 150.584 159.664 149.955 159.189 149.126C158.718 148.292 158.451 147.3 158.389 146.149C158.327 145.012 158.484 143.999 158.86 143.109C159.242 142.219 159.802 141.51 160.541 140.981C161.285 140.453 162.172 140.16 163.203 140.104C163.829 140.07 164.441 140.14 165.04 140.315C165.639 140.491 166.184 140.787 166.675 141.204C167.167 141.622 167.567 142.177 167.875 142.871C168.183 143.559 168.365 144.406 168.419 145.413L168.461 146.179L159.641 146.66L159.553 145.042L166.256 144.676C166.225 144.108 166.082 143.611 165.827 143.185C165.572 142.755 165.228 142.423 164.795 142.191C164.367 141.958 163.873 141.857 163.315 141.888C162.708 141.921 162.186 142.099 161.75 142.422C161.318 142.741 160.992 143.145 160.773 143.635C160.558 144.12 160.465 144.639 160.496 145.193L160.565 146.457C160.605 147.199 160.77 147.823 161.058 148.329C161.351 148.834 161.741 149.212 162.228 149.46C162.715 149.704 163.274 149.809 163.905 149.775C164.314 149.752 164.684 149.674 165.015 149.54C165.345 149.401 165.627 149.207 165.86 148.958C166.092 148.709 166.264 148.407 166.375 148.053L168.44 148.31C168.309 148.921 168.044 149.464 167.645 149.94C167.25 150.411 166.742 150.789 166.12 151.074C165.503 151.354 164.789 151.516 163.98 151.56ZM171.125 150.946L170.519 139.85L172.607 139.736L172.703 141.498L172.819 141.492C172.989 140.884 173.319 140.395 173.811 140.025C174.307 139.65 174.881 139.445 175.531 139.41C175.666 139.402 175.825 139.398 176.008 139.398C176.197 139.397 176.344 139.401 176.451 139.41L176.564 141.476C176.476 141.457 176.32 141.439 176.097 141.422C175.874 141.4 175.651 141.395 175.43 141.408C174.919 141.435 174.47 141.569 174.082 141.807C173.699 142.041 173.402 142.354 173.192 142.747C172.981 143.135 172.889 143.57 172.915 144.052L173.285 150.828L171.125 150.946ZM182.7 150.531C181.805 150.58 180.993 150.395 180.265 149.976C179.541 149.551 178.956 148.924 178.51 148.093C178.068 147.258 177.815 146.24 177.749 145.041C177.684 143.842 177.828 142.805 178.181 141.931C178.539 141.057 179.057 140.374 179.735 139.883C180.414 139.392 181.199 139.122 182.089 139.073C182.778 139.036 183.338 139.121 183.77 139.329C184.206 139.533 184.548 139.78 184.796 140.07C185.048 140.361 185.246 140.618 185.388 140.842L185.518 140.835L185.218 135.338L187.378 135.22L188.186 150.014L186.077 150.129L185.982 148.403L185.802 148.413C185.685 148.656 185.511 148.936 185.282 149.253C185.058 149.569 184.74 149.852 184.329 150.102C183.917 150.351 183.375 150.494 182.7 150.531ZM183.077 148.663C183.698 148.629 184.214 148.437 184.625 148.086C185.04 147.73 185.342 147.252 185.532 146.652C185.726 146.052 185.802 145.362 185.759 144.582C185.717 143.812 185.57 143.144 185.317 142.578C185.063 142.012 184.714 141.579 184.268 141.28C183.821 140.981 183.283 140.848 182.652 140.883C182.002 140.918 181.469 141.117 181.054 141.477C180.639 141.838 180.337 142.316 180.147 142.911C179.962 143.505 179.89 144.168 179.93 144.901C179.97 145.642 180.117 146.303 180.371 146.883C180.625 147.464 180.978 147.915 181.43 148.238C181.887 148.556 182.436 148.698 183.077 148.663ZM191.269 149.846L190.663 138.75L192.751 138.636L192.847 140.399L192.962 140.393C193.132 139.784 193.463 139.295 193.955 138.926C194.451 138.551 195.024 138.346 195.674 138.31C195.809 138.303 195.968 138.299 196.152 138.298C196.34 138.298 196.488 138.302 196.595 138.311L196.707 140.377C196.619 140.357 196.464 140.339 196.241 140.322C196.017 140.301 195.795 140.296 195.573 140.308C195.063 140.336 194.614 140.469 194.226 140.708C193.842 140.941 193.546 141.254 193.335 141.647C193.125 142.036 193.032 142.471 193.059 142.952L193.429 149.728L191.269 149.846ZM202.219 149.495C201.516 149.533 200.873 149.438 200.29 149.209C199.708 148.975 199.237 148.616 198.877 148.134C198.522 147.651 198.325 147.046 198.285 146.318C198.251 145.692 198.343 145.171 198.562 144.753C198.781 144.335 199.088 143.997 199.485 143.739C199.881 143.481 200.329 143.277 200.828 143.129C201.327 142.981 201.837 142.862 202.359 142.771C203.019 142.657 203.555 142.565 203.967 142.494C204.378 142.419 204.675 142.318 204.856 142.192C205.038 142.066 205.121 141.873 205.107 141.613L205.104 141.563C205.07 140.932 204.865 140.453 204.49 140.126C204.119 139.798 203.585 139.653 202.886 139.691C202.159 139.731 201.595 139.924 201.194 140.269C200.797 140.61 200.53 140.979 200.392 141.378L198.337 141.027C198.541 140.339 198.863 139.776 199.302 139.336C199.747 138.892 200.267 138.559 200.864 138.338C201.46 138.113 202.093 137.981 202.762 137.945C203.205 137.921 203.678 137.948 204.179 138.027C204.686 138.101 205.163 138.263 205.612 138.514C206.065 138.764 206.445 139.137 206.752 139.633C207.059 140.123 207.235 140.773 207.279 141.582L207.681 148.95L205.572 149.065L205.489 147.548L205.402 147.553C205.278 147.84 205.083 148.126 204.819 148.411C204.554 148.696 204.208 148.939 203.779 149.141C203.351 149.343 202.83 149.461 202.219 149.495ZM202.594 147.735C203.191 147.703 203.695 147.557 204.106 147.298C204.522 147.038 204.83 146.712 205.031 146.32C205.236 145.922 205.327 145.504 205.303 145.066L205.225 143.636C205.152 143.717 205.006 143.797 204.789 143.877C204.575 143.951 204.33 144.02 204.054 144.084C203.777 144.142 203.507 144.198 203.244 144.251C202.981 144.299 202.761 144.34 202.584 144.374C202.168 144.45 201.79 144.56 201.45 144.704C201.115 144.848 200.85 145.043 200.656 145.291C200.467 145.533 200.382 145.847 200.403 146.232C200.432 146.766 200.652 147.16 201.062 147.413C201.472 147.661 201.982 147.769 202.594 147.735ZM215.233 137.409L215.328 139.143L209.057 139.485L208.963 137.751L215.233 137.409ZM211.288 148.753L210.612 136.372C210.574 135.678 210.694 135.094 210.973 134.62C211.251 134.141 211.634 133.775 212.123 133.521C212.611 133.263 213.149 133.118 213.736 133.086C214.17 133.062 214.542 133.078 214.855 133.133C215.166 133.184 215.399 133.234 215.551 133.284L215.141 135.059C215.038 135.036 214.906 135.009 214.745 134.98C214.584 134.945 214.39 134.934 214.164 134.946C213.639 134.975 213.27 135.125 213.058 135.398C212.851 135.67 212.761 136.051 212.787 136.543L213.447 148.635L211.288 148.753ZM222.641 137.005L222.736 138.738L216.675 139.069L216.58 137.336L222.641 137.005ZM218.06 134.588L220.22 134.471L220.793 144.967C220.816 145.386 220.896 145.698 221.033 145.903C221.169 146.103 221.338 146.236 221.54 146.303C221.746 146.364 221.967 146.388 222.203 146.375C222.377 146.366 222.528 146.345 222.656 146.314C222.785 146.283 222.885 146.258 222.957 146.24L223.444 148.003C223.321 148.058 223.146 148.116 222.917 148.176C222.689 148.242 222.402 148.287 222.055 148.31C221.488 148.351 220.952 148.279 220.449 148.094C219.947 147.909 219.532 147.603 219.204 147.176C218.876 146.75 218.694 146.202 218.658 145.532L218.06 134.588Z" fill="#D5F2E4"/>
<rect x="74.8139" y="122.627" width="170.017" height="53.0506" rx="26.5253" transform="rotate(-3.12443 74.8139 122.627)" stroke="#D5F2E4" stroke-opacity="0.2" stroke-width="0.915245"/>
<defs>
<linearGradient id="paint0_linear_455_966" x1="2160" y1="753.188" x2="2160" y2="1255.37" gradientUnits="userSpaceOnUse">
<stop stop-color="#F9FAFB"/>
<stop offset="1" stop-color="#F9FAFB" stop-opacity="0"/>
</linearGradient>
</defs>
</svg>
