<svg width="375" height="600" viewBox="0 0 375 600" fill="none" xmlns="http://www.w3.org/2000/svg">
<g clip-path="url(#clip0_219_15139)">
<rect width="375" height="600" fill="#F3FAF8"/>
<circle opacity="0.4" cx="80.3193" cy="397.776" r="292.399" transform="rotate(-19.8815 80.3193 397.776)" stroke="#85E6B5" stroke-width="0.793991"/>
<circle opacity="0.4" cx="167.706" cy="330.524" r="292.399" transform="rotate(-19.8815 167.706 330.524)" stroke="#85E6B5" stroke-width="0.793991"/>
<circle opacity="0.4" cx="293.819" cy="284.919" r="292.399" transform="rotate(-19.8815 293.819 284.919)" stroke="#85E6B5" stroke-width="0.793991"/>
<path d="M47 299H328V479C328 487.837 320.837 495 312 495H63C54.1634 495 47 487.837 47 479V299Z" fill="white"/>
<path d="M73.6094 349.514C73.2216 349.508 72.8338 349.434 72.446 349.292C72.0582 349.151 71.7043 348.912 71.3842 348.577C71.0641 348.238 70.8072 347.781 70.6133 347.206C70.4194 346.627 70.3224 345.901 70.3224 345.027C70.3224 344.19 70.4009 343.448 70.5579 342.802C70.7148 342.152 70.9426 341.606 71.2411 341.163C71.5396 340.717 71.8997 340.378 72.3214 340.147C72.7461 339.916 73.2246 339.801 73.7571 339.801C74.2864 339.801 74.7573 339.907 75.1697 340.119C75.5852 340.329 75.9237 340.621 76.1853 340.997C76.4469 341.372 76.6162 341.805 76.6932 342.294H75.5667C75.4621 341.869 75.259 341.517 74.9574 341.237C74.6558 340.957 74.2557 340.817 73.7571 340.817C73.0246 340.817 72.4475 341.135 72.0259 341.772C71.6073 342.409 71.3965 343.303 71.3934 344.454H71.4673C71.6397 344.193 71.8443 343.97 72.0813 343.785C72.3214 343.597 72.586 343.453 72.8753 343.351C73.1646 343.249 73.4709 343.199 73.794 343.199C74.3357 343.199 74.8312 343.334 75.2805 343.605C75.7299 343.873 76.0899 344.244 76.3608 344.718C76.6316 345.188 76.767 345.729 76.767 346.338C76.767 346.923 76.6362 347.458 76.3746 347.944C76.113 348.428 75.7452 348.812 75.2713 349.099C74.8004 349.382 74.2464 349.52 73.6094 349.514ZM73.6094 348.498C73.9971 348.498 74.3449 348.401 74.6527 348.208C74.9635 348.014 75.2082 347.754 75.3867 347.427C75.5683 347.101 75.6591 346.738 75.6591 346.338C75.6591 345.947 75.5714 345.592 75.3959 345.271C75.2236 344.948 74.9851 344.691 74.6804 344.501C74.3788 344.31 74.0341 344.214 73.6463 344.214C73.3539 344.214 73.0815 344.273 72.8292 344.39C72.5768 344.504 72.3552 344.661 72.1644 344.861C71.9767 345.061 71.8289 345.29 71.7212 345.548C71.6135 345.804 71.5596 346.073 71.5596 346.356C71.5596 346.732 71.6473 347.083 71.8228 347.409C72.0013 347.735 72.2444 347.998 72.5522 348.198C72.863 348.398 73.2154 348.498 73.6094 348.498ZM81.6663 349.514C80.9707 349.514 80.3783 349.325 79.8889 348.946C79.3996 348.565 79.0256 348.012 78.7671 347.289C78.5086 346.563 78.3793 345.685 78.3793 344.657C78.3793 343.636 78.5086 342.763 78.7671 342.04C79.0287 341.314 79.4042 340.76 79.8935 340.378C80.386 339.993 80.9769 339.801 81.6663 339.801C82.3557 339.801 82.945 339.993 83.4344 340.378C83.9268 340.76 84.3023 341.314 84.5608 342.04C84.8224 342.763 84.9532 343.636 84.9532 344.657C84.9532 345.685 84.8239 346.563 84.5654 347.289C84.3069 348.012 83.933 348.565 83.4436 348.946C82.9543 349.325 82.3618 349.514 81.6663 349.514ZM81.6663 348.498C82.3557 348.498 82.8912 348.166 83.2728 347.501C83.6544 346.836 83.8452 345.889 83.8452 344.657C83.8452 343.839 83.7575 343.142 83.5821 342.566C83.4097 341.991 83.1605 341.552 82.8342 341.251C82.5111 340.949 82.1218 340.798 81.6663 340.798C80.983 340.798 80.449 341.135 80.0643 341.809C79.6796 342.48 79.4873 343.43 79.4873 344.657C79.4873 345.476 79.5735 346.172 79.7458 346.744C79.9182 347.317 80.1659 347.752 80.4891 348.051C80.8153 348.349 81.2077 348.498 81.6663 348.498ZM90.7884 344.824V345.839H86.6521V344.824H90.7884ZM95.383 349.532C94.7921 349.532 94.2704 349.383 93.818 349.085C93.3656 348.783 93.0116 348.358 92.7562 347.811C92.5007 347.26 92.373 346.609 92.373 345.858C92.373 345.113 92.5007 344.467 92.7562 343.919C93.0116 343.371 93.3671 342.948 93.8226 342.649C94.2781 342.351 94.8044 342.202 95.4014 342.202C95.8631 342.202 96.2278 342.278 96.4955 342.432C96.7664 342.583 96.9726 342.756 97.1141 342.949C97.2588 343.14 97.3711 343.297 97.4511 343.42H97.5435V339.93H98.633V349.385H97.5804V348.295H97.4511C97.3711 348.425 97.2573 348.588 97.1095 348.785C96.9618 348.979 96.751 349.152 96.4771 349.306C96.2032 349.457 95.8385 349.532 95.383 349.532ZM95.5307 348.554C95.9677 348.554 96.337 348.44 96.6386 348.212C96.9403 347.981 97.1695 347.663 97.3265 347.257C97.4835 346.847 97.5619 346.375 97.5619 345.839C97.5619 345.31 97.485 344.847 97.3311 344.45C97.1772 344.05 96.9495 343.739 96.6479 343.517C96.3463 343.293 95.9739 343.18 95.5307 343.18C95.069 343.18 94.6843 343.299 94.3766 343.536C94.0719 343.77 93.8426 344.088 93.6887 344.491C93.5379 344.891 93.4625 345.341 93.4625 345.839C93.4625 346.344 93.5395 346.803 93.6933 347.215C93.8503 347.624 94.0811 347.951 94.3858 348.194C94.6936 348.434 95.0752 348.554 95.5307 348.554ZM102.866 349.551C102.417 349.551 102.009 349.466 101.643 349.297C101.277 349.125 100.986 348.877 100.77 348.554C100.555 348.228 100.447 347.834 100.447 347.372C100.447 346.966 100.527 346.636 100.687 346.384C100.847 346.129 101.061 345.929 101.329 345.784C101.597 345.639 101.892 345.532 102.215 345.461C102.542 345.387 102.869 345.328 103.199 345.285C103.63 345.23 103.979 345.188 104.247 345.161C104.517 345.13 104.714 345.079 104.838 345.008C104.964 344.938 105.027 344.814 105.027 344.639V344.602C105.027 344.147 104.902 343.793 104.653 343.54C104.407 343.288 104.033 343.162 103.531 343.162C103.011 343.162 102.603 343.276 102.308 343.503C102.012 343.731 101.804 343.974 101.684 344.233L100.65 343.863C100.835 343.433 101.081 343.097 101.389 342.857C101.7 342.614 102.038 342.445 102.405 342.349C102.774 342.251 103.137 342.202 103.494 342.202C103.722 342.202 103.983 342.229 104.279 342.285C104.577 342.337 104.865 342.446 105.142 342.612C105.422 342.779 105.655 343.029 105.839 343.365C106.024 343.7 106.116 344.15 106.116 344.713V349.385H105.027V348.425H104.971C104.898 348.578 104.774 348.743 104.602 348.919C104.43 349.094 104.2 349.243 103.914 349.366C103.628 349.489 103.279 349.551 102.866 349.551ZM103.032 348.572C103.463 348.572 103.827 348.488 104.122 348.318C104.42 348.149 104.645 347.931 104.796 347.663C104.95 347.395 105.027 347.113 105.027 346.818V345.821C104.981 345.876 104.879 345.927 104.722 345.973C104.568 346.016 104.39 346.055 104.187 346.089C103.987 346.119 103.791 346.147 103.6 346.172C103.413 346.193 103.26 346.212 103.143 346.227C102.86 346.264 102.595 346.324 102.349 346.407C102.106 346.487 101.909 346.609 101.758 346.772C101.611 346.932 101.537 347.15 101.537 347.427C101.537 347.806 101.677 348.092 101.957 348.286C102.24 348.477 102.599 348.572 103.032 348.572ZM108.553 352.044C108.368 352.044 108.203 352.028 108.059 351.998C107.914 351.97 107.814 351.942 107.759 351.915L108.036 350.954C108.3 351.022 108.534 351.047 108.737 351.028C108.94 351.01 109.12 350.919 109.277 350.756C109.437 350.596 109.584 350.336 109.716 349.976L109.919 349.422L107.297 342.294H108.479L110.436 347.944H110.51L112.467 342.294H113.649L110.639 350.419C110.504 350.785 110.336 351.088 110.136 351.328C109.936 351.571 109.704 351.751 109.439 351.868C109.177 351.985 108.882 352.044 108.553 352.044ZM118.743 349.385V342.294H119.796V343.402H119.888C120.036 343.023 120.275 342.729 120.604 342.52C120.933 342.308 121.329 342.202 121.79 342.202C122.258 342.202 122.647 342.308 122.958 342.52C123.272 342.729 123.517 343.023 123.692 343.402H123.766C123.948 343.036 124.22 342.745 124.583 342.529C124.947 342.311 125.382 342.202 125.89 342.202C126.524 342.202 127.042 342.4 127.446 342.797C127.849 343.191 128.05 343.805 128.05 344.639V349.385H126.961V344.639C126.961 344.116 126.818 343.742 126.531 343.517C126.245 343.293 125.908 343.18 125.52 343.18C125.022 343.18 124.636 343.331 124.362 343.633C124.088 343.931 123.951 344.31 123.951 344.768V349.385H122.843V344.528C122.843 344.125 122.712 343.8 122.451 343.554C122.189 343.305 121.852 343.18 121.44 343.18C121.156 343.18 120.892 343.256 120.645 343.406C120.402 343.557 120.205 343.767 120.055 344.034C119.907 344.299 119.833 344.605 119.833 344.953V349.385H118.743ZM130.042 349.385V342.294H131.132V349.385H130.042ZM130.596 341.112C130.384 341.112 130.201 341.04 130.047 340.895C129.896 340.75 129.821 340.577 129.821 340.373C129.821 340.17 129.896 339.996 130.047 339.852C130.201 339.707 130.384 339.635 130.596 339.635C130.809 339.635 130.99 339.707 131.141 339.852C131.295 339.996 131.372 340.17 131.372 340.373C131.372 340.577 131.295 340.75 131.141 340.895C130.99 341.04 130.809 341.112 130.596 341.112ZM134.217 345.119V349.385H133.127V342.294H134.18V343.402H134.272C134.438 343.042 134.691 342.752 135.029 342.534C135.368 342.312 135.805 342.202 136.34 342.202C136.82 342.202 137.241 342.3 137.601 342.497C137.961 342.691 138.241 342.986 138.441 343.383C138.641 343.777 138.741 344.276 138.741 344.879V349.385H137.651V344.953C137.651 344.396 137.507 343.962 137.217 343.651C136.928 343.337 136.531 343.18 136.026 343.18C135.679 343.18 135.368 343.256 135.094 343.406C134.823 343.557 134.609 343.777 134.452 344.067C134.295 344.356 134.217 344.707 134.217 345.119ZM140.732 349.385V342.294H141.821V349.385H140.732ZM141.286 341.112C141.073 341.112 140.89 341.04 140.736 340.895C140.586 340.75 140.51 340.577 140.51 340.373C140.51 340.17 140.586 339.996 140.736 339.852C140.89 339.707 141.073 339.635 141.286 339.635C141.498 339.635 141.68 339.707 141.83 339.852C141.984 339.996 142.061 340.17 142.061 340.373C142.061 340.577 141.984 340.75 141.83 340.895C141.68 341.04 141.498 341.112 141.286 341.112ZM143.817 349.385V342.294H144.869V343.402H144.962C145.109 343.023 145.348 342.729 145.677 342.52C146.006 342.308 146.402 342.202 146.864 342.202C147.331 342.202 147.721 342.308 148.032 342.52C148.346 342.729 148.59 343.023 148.766 343.402H148.839C149.021 343.036 149.293 342.745 149.657 342.529C150.02 342.311 150.455 342.202 150.963 342.202C151.597 342.202 152.116 342.4 152.519 342.797C152.922 343.191 153.124 343.805 153.124 344.639V349.385H152.034V344.639C152.034 344.116 151.891 343.742 151.605 343.517C151.319 343.293 150.982 343.18 150.594 343.18C150.095 343.18 149.709 343.331 149.435 343.633C149.161 343.931 149.024 344.31 149.024 344.768V349.385H147.916V344.528C147.916 344.125 147.785 343.8 147.524 343.554C147.262 343.305 146.925 343.18 146.513 343.18C146.23 343.18 145.965 343.256 145.719 343.406C145.476 343.557 145.279 343.767 145.128 344.034C144.98 344.299 144.906 344.605 144.906 344.953V349.385H143.817ZM159.584 346.486V342.294H160.674V349.385H159.584V348.184H159.51C159.344 348.545 159.086 348.851 158.735 349.103C158.384 349.352 157.941 349.477 157.405 349.477C156.962 349.477 156.568 349.38 156.224 349.186C155.879 348.989 155.608 348.694 155.411 348.3C155.214 347.903 155.116 347.403 155.116 346.8V342.294H156.205V346.726C156.205 347.243 156.35 347.655 156.639 347.963C156.931 348.271 157.304 348.425 157.756 348.425C158.027 348.425 158.302 348.355 158.583 348.217C158.866 348.078 159.103 347.866 159.293 347.58C159.487 347.294 159.584 346.929 159.584 346.486ZM162.669 349.385V342.294H163.722V343.402H163.814C163.962 343.023 164.2 342.729 164.53 342.52C164.859 342.308 165.255 342.202 165.716 342.202C166.184 342.202 166.573 342.308 166.884 342.52C167.198 342.729 167.443 343.023 167.618 343.402H167.692C167.874 343.036 168.146 342.745 168.509 342.529C168.872 342.311 169.308 342.202 169.816 342.202C170.45 342.202 170.968 342.4 171.371 342.797C171.775 343.191 171.976 343.805 171.976 344.639V349.385H170.887V344.639C170.887 344.116 170.743 343.742 170.457 343.517C170.171 343.293 169.834 343.18 169.446 343.18C168.948 343.18 168.561 343.331 168.288 343.633C168.014 343.931 167.877 344.31 167.877 344.768V349.385H166.769V344.528C166.769 344.125 166.638 343.8 166.376 343.554C166.115 343.305 165.778 343.18 165.365 343.18C165.082 343.18 164.817 343.256 164.571 343.406C164.328 343.557 164.131 343.767 163.98 344.034C163.833 344.299 163.759 344.605 163.759 344.953V349.385H162.669Z" fill="#475467"/>
<path d="M266.336 350.567V338.748H267.093V350.567H266.336ZM268.704 342.414C268.655 341.977 268.452 341.638 268.095 341.398C267.738 341.155 267.288 341.034 266.747 341.034C266.359 341.034 266.023 341.095 265.74 341.218C265.457 341.338 265.237 341.504 265.08 341.717C264.926 341.926 264.849 342.165 264.849 342.432C264.849 342.657 264.901 342.851 265.006 343.014C265.114 343.177 265.254 343.314 265.426 343.425C265.602 343.533 265.789 343.623 265.989 343.697C266.189 343.768 266.382 343.827 266.566 343.873L267.49 344.113C267.791 344.187 268.101 344.287 268.418 344.413C268.735 344.539 269.029 344.705 269.299 344.911C269.57 345.118 269.789 345.373 269.955 345.678C270.124 345.982 270.209 346.347 270.209 346.772C270.209 347.307 270.07 347.783 269.793 348.198C269.519 348.614 269.121 348.942 268.598 349.182C268.078 349.422 267.448 349.542 266.71 349.542C266.002 349.542 265.389 349.429 264.872 349.205C264.355 348.98 263.95 348.662 263.658 348.249C263.366 347.834 263.204 347.341 263.173 346.772H264.604C264.632 347.113 264.743 347.398 264.937 347.626C265.134 347.851 265.385 348.018 265.689 348.129C265.997 348.237 266.334 348.291 266.7 348.291C267.104 348.291 267.462 348.228 267.776 348.101C268.093 347.972 268.342 347.794 268.524 347.566C268.705 347.335 268.796 347.066 268.796 346.758C268.796 346.478 268.716 346.249 268.556 346.07C268.399 345.892 268.185 345.744 267.915 345.627C267.647 345.51 267.344 345.407 267.005 345.318L265.888 345.013C265.131 344.807 264.531 344.504 264.087 344.104C263.647 343.703 263.427 343.174 263.427 342.515C263.427 341.971 263.575 341.495 263.87 341.089C264.166 340.683 264.566 340.367 265.071 340.143C265.575 339.915 266.145 339.801 266.779 339.801C267.419 339.801 267.984 339.913 268.473 340.138C268.966 340.363 269.353 340.672 269.636 341.066C269.92 341.457 270.067 341.906 270.08 342.414H268.704ZM275.371 339.93V349.385H273.94V341.361H273.885L271.623 342.839V341.472L273.982 339.93H275.371ZM279.197 348.092L279.128 348.595C279.082 348.965 279.003 349.349 278.892 349.749C278.785 350.153 278.672 350.527 278.555 350.871C278.442 351.216 278.348 351.49 278.274 351.693H277.295C277.335 351.502 277.391 351.244 277.461 350.917C277.532 350.594 277.601 350.233 277.669 349.833C277.737 349.432 277.788 349.025 277.821 348.609L277.868 348.092H279.197ZM281.128 349.385V348.351L284.327 345.036C284.669 344.676 284.95 344.36 285.172 344.09C285.397 343.816 285.564 343.556 285.675 343.309C285.786 343.063 285.841 342.802 285.841 342.525C285.841 342.211 285.768 341.94 285.62 341.712C285.472 341.481 285.271 341.304 285.015 341.181C284.76 341.055 284.472 340.992 284.152 340.992C283.813 340.992 283.518 341.061 283.265 341.2C283.013 341.338 282.819 341.534 282.684 341.786C282.548 342.038 282.481 342.334 282.481 342.672H281.119C281.119 342.097 281.251 341.594 281.516 341.163C281.78 340.732 282.144 340.398 282.605 340.161C283.067 339.921 283.592 339.801 284.18 339.801C284.773 339.801 285.297 339.919 285.749 340.156C286.205 340.39 286.56 340.71 286.816 341.117C287.071 341.52 287.199 341.975 287.199 342.483C287.199 342.834 287.133 343.177 287 343.513C286.871 343.848 286.645 344.222 286.322 344.634C285.998 345.044 285.549 345.541 284.974 346.126L283.095 348.092V348.161H287.351V349.385H281.128ZM292.392 349.542C291.663 349.539 291.04 349.346 290.523 348.965C290.005 348.583 289.61 348.028 289.336 347.298C289.062 346.569 288.925 345.69 288.925 344.662C288.925 343.637 289.062 342.762 289.336 342.035C289.613 341.309 290.01 340.755 290.527 340.373C291.047 339.992 291.669 339.801 292.392 339.801C293.115 339.801 293.736 339.993 294.253 340.378C294.77 340.76 295.165 341.314 295.439 342.04C295.716 342.763 295.855 343.637 295.855 344.662C295.855 345.693 295.718 346.573 295.444 347.303C295.17 348.029 294.774 348.585 294.257 348.969C293.74 349.351 293.119 349.542 292.392 349.542ZM292.392 348.309C293.032 348.309 293.532 347.997 293.893 347.372C294.256 346.747 294.437 345.844 294.437 344.662C294.437 343.877 294.354 343.214 294.188 342.672C294.025 342.128 293.789 341.715 293.482 341.435C293.177 341.152 292.814 341.01 292.392 341.01C291.755 341.01 291.255 341.324 290.892 341.952C290.529 342.58 290.346 343.483 290.343 344.662C290.343 345.45 290.424 346.116 290.587 346.661C290.753 347.203 290.989 347.614 291.293 347.894C291.598 348.171 291.964 348.309 292.392 348.309ZM300.784 349.542C300.054 349.539 299.431 349.346 298.914 348.965C298.397 348.583 298.002 348.028 297.728 347.298C297.454 346.569 297.317 345.69 297.317 344.662C297.317 343.637 297.454 342.762 297.728 342.035C298.005 341.309 298.402 340.755 298.919 340.373C299.439 339.992 300.061 339.801 300.784 339.801C301.507 339.801 302.127 339.993 302.644 340.378C303.161 340.76 303.557 341.314 303.831 342.04C304.108 342.763 304.246 343.637 304.246 344.662C304.246 345.693 304.109 346.573 303.835 347.303C303.561 348.029 303.166 348.585 302.649 348.969C302.132 349.351 301.51 349.542 300.784 349.542ZM300.784 348.309C301.424 348.309 301.924 347.997 302.284 347.372C302.647 346.747 302.829 345.844 302.829 344.662C302.829 343.877 302.746 343.214 302.58 342.672C302.417 342.128 302.181 341.715 301.873 341.435C301.569 341.152 301.205 341.01 300.784 341.01C300.147 341.01 299.647 341.324 299.283 341.952C298.92 342.58 298.737 343.483 298.734 344.662C298.734 345.45 298.816 346.116 298.979 346.661C299.145 347.203 299.38 347.614 299.685 347.894C299.99 348.171 300.356 348.309 300.784 348.309Z" fill="#475467"/>
<line x1="69.4915" y1="365.943" x2="305.509" y2="365.943" stroke="#F2F4F7"/>
<path d="M70.6363 393.5V384.045H71.7812V392.484H76.1761V393.5H70.6363ZM80.6818 393.648C80.0416 393.648 79.48 393.495 78.9968 393.191C78.5167 392.886 78.1412 392.46 77.8704 391.912C77.6026 391.364 77.4687 390.724 77.4687 389.991C77.4687 389.253 77.6026 388.608 77.8704 388.057C78.1412 387.506 78.5167 387.078 78.9968 386.774C79.48 386.469 80.0416 386.317 80.6818 386.317C81.3219 386.317 81.8821 386.469 82.3622 386.774C82.8454 387.078 83.2209 387.506 83.4886 388.057C83.7594 388.608 83.8949 389.253 83.8949 389.991C83.8949 390.724 83.7594 391.364 83.4886 391.912C83.2209 392.46 82.8454 392.886 82.3622 393.191C81.8821 393.495 81.3219 393.648 80.6818 393.648ZM80.6818 392.669C81.1681 392.669 81.5682 392.544 81.8821 392.295C82.196 392.046 82.4284 391.718 82.5792 391.312C82.73 390.906 82.8054 390.465 82.8054 389.991C82.8054 389.518 82.73 389.076 82.5792 388.667C82.4284 388.257 82.196 387.926 81.8821 387.674C81.5682 387.422 81.1681 387.295 80.6818 387.295C80.1955 387.295 79.7954 387.422 79.4815 387.674C79.1676 387.926 78.9352 388.257 78.7844 388.667C78.6336 389.076 78.5582 389.518 78.5582 389.991C78.5582 390.465 78.6336 390.906 78.7844 391.312C78.9352 391.718 79.1676 392.046 79.4815 392.295C79.7954 392.544 80.1955 392.669 80.6818 392.669ZM87.6446 393.666C87.1953 393.666 86.7875 393.582 86.4212 393.412C86.055 393.24 85.7642 392.992 85.5487 392.669C85.3333 392.343 85.2256 391.949 85.2256 391.487C85.2256 391.081 85.3056 390.752 85.4656 390.499C85.6257 390.244 85.8396 390.044 86.1073 389.899C86.3751 389.754 86.6705 389.647 86.9937 389.576C87.3199 389.502 87.6477 389.444 87.977 389.401C88.4079 389.345 88.7572 389.304 89.0249 389.276C89.2958 389.245 89.4927 389.194 89.6158 389.124C89.742 389.053 89.8051 388.93 89.8051 388.754V388.717C89.8051 388.262 89.6805 387.908 89.4312 387.656C89.185 387.403 88.811 387.277 88.3094 387.277C87.7892 387.277 87.3815 387.391 87.086 387.619C86.7905 387.846 86.5828 388.089 86.4628 388.348L85.4287 387.979C85.6133 387.548 85.8596 387.212 86.1673 386.972C86.4782 386.729 86.8167 386.56 87.183 386.464C87.5523 386.366 87.9154 386.317 88.2724 386.317C88.5002 386.317 88.7618 386.344 89.0572 386.4C89.3558 386.452 89.6435 386.561 89.9205 386.728C90.2006 386.894 90.433 387.145 90.6176 387.48C90.8023 387.816 90.8946 388.265 90.8946 388.828V393.5H89.8051V392.54H89.7497C89.6758 392.694 89.5527 392.858 89.3804 393.034C89.208 393.209 88.9788 393.358 88.6925 393.482C88.4063 393.605 88.057 393.666 87.6446 393.666ZM87.8108 392.688C88.2417 392.688 88.6048 392.603 88.9003 392.434C89.1988 392.264 89.4235 392.046 89.5743 391.778C89.7282 391.51 89.8051 391.229 89.8051 390.933V389.936C89.7589 389.991 89.6574 390.042 89.5004 390.088C89.3465 390.132 89.168 390.17 88.9649 390.204C88.7649 390.235 88.5694 390.262 88.3786 390.287C88.1909 390.308 88.0385 390.327 87.9216 390.342C87.6384 390.379 87.3738 390.439 87.1276 390.522C86.8844 390.602 86.6874 390.724 86.5366 390.887C86.3889 391.047 86.3151 391.266 86.3151 391.543C86.3151 391.921 86.4551 392.207 86.7352 392.401C87.0183 392.592 87.3768 392.688 87.8108 392.688ZM93.9726 389.234V393.5H92.8831V386.409H93.9357V387.517H94.028C94.1942 387.157 94.4466 386.868 94.7851 386.649C95.1237 386.428 95.5607 386.317 96.0962 386.317C96.5763 386.317 96.9964 386.415 97.3565 386.612C97.7166 386.806 97.9967 387.102 98.1967 387.499C98.3968 387.893 98.4968 388.391 98.4968 388.994V393.5H97.4073V389.068C97.4073 388.511 97.2626 388.077 96.9733 387.766C96.684 387.452 96.287 387.295 95.7823 387.295C95.4345 387.295 95.1237 387.371 94.8498 387.522C94.5789 387.672 94.365 387.893 94.2081 388.182C94.0511 388.471 93.9726 388.822 93.9726 389.234ZM106.231 393.666C105.781 393.666 105.373 393.582 105.007 393.412C104.641 393.24 104.35 392.992 104.135 392.669C103.919 392.343 103.812 391.949 103.812 391.487C103.812 391.081 103.892 390.752 104.052 390.499C104.212 390.244 104.425 390.044 104.693 389.899C104.961 389.754 105.256 389.647 105.58 389.576C105.906 389.502 106.234 389.444 106.563 389.401C106.994 389.345 107.343 389.304 107.611 389.276C107.882 389.245 108.079 389.194 108.202 389.124C108.328 389.053 108.391 388.93 108.391 388.754V388.717C108.391 388.262 108.266 387.908 108.017 387.656C107.771 387.403 107.397 387.277 106.895 387.277C106.375 387.277 105.967 387.391 105.672 387.619C105.376 387.846 105.169 388.089 105.049 388.348L104.015 387.979C104.199 387.548 104.445 387.212 104.753 386.972C105.064 386.729 105.403 386.56 105.769 386.464C106.138 386.366 106.501 386.317 106.858 386.317C107.086 386.317 107.348 386.344 107.643 386.4C107.942 386.452 108.229 386.561 108.506 386.728C108.787 386.894 109.019 387.145 109.204 387.48C109.388 387.816 109.481 388.265 109.481 388.828V393.5H108.391V392.54H108.336C108.262 392.694 108.139 392.858 107.966 393.034C107.794 393.209 107.565 393.358 107.278 393.482C106.992 393.605 106.643 393.666 106.231 393.666ZM106.397 392.688C106.828 392.688 107.191 392.603 107.486 392.434C107.785 392.264 108.009 392.046 108.16 391.778C108.314 391.51 108.391 391.229 108.391 390.933V389.936C108.345 389.991 108.243 390.042 108.086 390.088C107.932 390.132 107.754 390.17 107.551 390.204C107.351 390.235 107.155 390.262 106.965 390.287C106.777 390.308 106.624 390.327 106.508 390.342C106.224 390.379 105.96 390.439 105.713 390.522C105.47 390.602 105.273 390.724 105.123 390.887C104.975 391.047 104.901 391.266 104.901 391.543C104.901 391.921 105.041 392.207 105.321 392.401C105.604 392.592 105.963 392.688 106.397 392.688ZM111.469 393.5V386.409H112.522V387.517H112.614C112.762 387.138 113 386.845 113.33 386.635C113.659 386.423 114.054 386.317 114.516 386.317C114.984 386.317 115.373 386.423 115.684 386.635C115.998 386.845 116.243 387.138 116.418 387.517H116.492C116.673 387.151 116.946 386.86 117.309 386.645C117.672 386.426 118.108 386.317 118.615 386.317C119.249 386.317 119.768 386.515 120.171 386.912C120.574 387.306 120.776 387.92 120.776 388.754V393.5H119.686V388.754C119.686 388.231 119.543 387.857 119.257 387.632C118.971 387.408 118.634 387.295 118.246 387.295C117.747 387.295 117.361 387.446 117.087 387.748C116.813 388.046 116.676 388.425 116.676 388.884V393.5H115.569V388.643C115.569 388.24 115.438 387.916 115.176 387.669C114.915 387.42 114.578 387.295 114.165 387.295C113.882 387.295 113.617 387.371 113.371 387.522C113.128 387.672 112.931 387.882 112.78 388.15C112.632 388.414 112.559 388.72 112.559 389.068V393.5H111.469ZM125.649 393.648C125.008 393.648 124.447 393.495 123.964 393.191C123.483 392.886 123.108 392.46 122.837 391.912C122.569 391.364 122.436 390.724 122.436 389.991C122.436 389.253 122.569 388.608 122.837 388.057C123.108 387.506 123.483 387.078 123.964 386.774C124.447 386.469 125.008 386.317 125.649 386.317C126.289 386.317 126.849 386.469 127.329 386.774C127.812 387.078 128.188 387.506 128.455 388.057C128.726 388.608 128.862 389.253 128.862 389.991C128.862 390.724 128.726 391.364 128.455 391.912C128.188 392.46 127.812 392.886 127.329 393.191C126.849 393.495 126.289 393.648 125.649 393.648ZM125.649 392.669C126.135 392.669 126.535 392.544 126.849 392.295C127.163 392.046 127.395 391.718 127.546 391.312C127.697 390.906 127.772 390.465 127.772 389.991C127.772 389.518 127.697 389.076 127.546 388.667C127.395 388.257 127.163 387.926 126.849 387.674C126.535 387.422 126.135 387.295 125.649 387.295C125.162 387.295 124.762 387.422 124.448 387.674C124.134 387.926 123.902 388.257 123.751 388.667C123.6 389.076 123.525 389.518 123.525 389.991C123.525 390.465 123.6 390.906 123.751 391.312C123.902 391.718 124.134 392.046 124.448 392.295C124.762 392.544 125.162 392.669 125.649 392.669ZM134.993 390.601V386.409H136.083V393.5H134.993V392.3H134.92C134.753 392.66 134.495 392.966 134.144 393.218C133.793 393.468 133.35 393.592 132.815 393.592C132.371 393.592 131.977 393.495 131.633 393.301C131.288 393.105 131.017 392.809 130.82 392.415C130.623 392.018 130.525 391.518 130.525 390.915V386.409H131.614V390.841C131.614 391.358 131.759 391.77 132.048 392.078C132.341 392.386 132.713 392.54 133.165 392.54C133.436 392.54 133.712 392.471 133.992 392.332C134.275 392.194 134.512 391.981 134.703 391.695C134.897 391.409 134.993 391.044 134.993 390.601ZM139.168 389.234V393.5H138.078V386.409H139.131V387.517H139.223C139.39 387.157 139.642 386.868 139.98 386.649C140.319 386.428 140.756 386.317 141.292 386.317C141.772 386.317 142.192 386.415 142.552 386.612C142.912 386.806 143.192 387.102 143.392 387.499C143.592 387.893 143.692 388.391 143.692 388.994V393.5H142.603V389.068C142.603 388.511 142.458 388.077 142.169 387.766C141.879 387.452 141.482 387.295 140.978 387.295C140.63 387.295 140.319 387.371 140.045 387.522C139.774 387.672 139.56 387.893 139.403 388.182C139.246 388.471 139.168 388.822 139.168 389.234ZM148.767 386.409V387.332H145.092V386.409H148.767ZM146.163 384.71H147.253V391.469C147.253 391.777 147.297 392.007 147.386 392.161C147.479 392.312 147.596 392.414 147.737 392.466C147.882 392.515 148.034 392.54 148.194 392.54C148.314 392.54 148.413 392.534 148.49 392.521C148.567 392.506 148.628 392.494 148.674 392.484L148.896 393.463C148.822 393.491 148.719 393.518 148.587 393.546C148.454 393.577 148.287 393.592 148.084 393.592C147.776 393.592 147.474 393.526 147.179 393.394C146.886 393.261 146.643 393.06 146.449 392.789C146.258 392.518 146.163 392.177 146.163 391.764V384.71Z" fill="#475467"/>
<path d="M264.336 394.682V382.864H265.093V394.682H264.336ZM266.704 386.529C266.655 386.092 266.452 385.754 266.095 385.513C265.738 385.27 265.288 385.149 264.747 385.149C264.359 385.149 264.023 385.21 263.74 385.333C263.457 385.453 263.237 385.62 263.08 385.832C262.926 386.041 262.849 386.28 262.849 386.548C262.849 386.772 262.901 386.966 263.006 387.129C263.114 387.292 263.254 387.429 263.426 387.54C263.602 387.648 263.789 387.739 263.989 387.812C264.189 387.883 264.382 387.942 264.566 387.988L265.49 388.228C265.791 388.302 266.101 388.402 266.418 388.528C266.735 388.654 267.029 388.82 267.299 389.027C267.57 389.233 267.789 389.488 267.955 389.793C268.124 390.098 268.209 390.462 268.209 390.887C268.209 391.423 268.07 391.898 267.793 392.314C267.519 392.729 267.121 393.057 266.598 393.297C266.078 393.537 265.448 393.657 264.71 393.657C264.002 393.657 263.389 393.545 262.872 393.32C262.355 393.095 261.95 392.777 261.658 392.364C261.366 391.949 261.204 391.456 261.173 390.887H262.604C262.632 391.229 262.743 391.513 262.937 391.741C263.134 391.966 263.385 392.134 263.689 392.244C263.997 392.352 264.334 392.406 264.7 392.406C265.104 392.406 265.462 392.343 265.776 392.217C266.093 392.087 266.342 391.909 266.524 391.681C266.705 391.45 266.796 391.181 266.796 390.873C266.796 390.593 266.716 390.364 266.556 390.185C266.399 390.007 266.185 389.859 265.915 389.742C265.647 389.625 265.344 389.522 265.005 389.433L263.888 389.128C263.131 388.922 262.531 388.619 262.087 388.219C261.647 387.819 261.427 387.289 261.427 386.631C261.427 386.086 261.575 385.61 261.87 385.204C262.166 384.798 262.566 384.482 263.071 384.258C263.575 384.03 264.145 383.916 264.779 383.916C265.419 383.916 265.984 384.029 266.473 384.253C266.966 384.478 267.353 384.787 267.636 385.181C267.92 385.572 268.067 386.021 268.08 386.529H266.704ZM273.085 393.629C272.663 393.623 272.248 393.546 271.839 393.398C271.432 393.251 271.063 393.004 270.731 392.66C270.398 392.315 270.132 391.852 269.932 391.27C269.735 390.689 269.637 389.962 269.637 389.091C269.637 388.266 269.718 387.534 269.881 386.894C270.047 386.254 270.286 385.714 270.597 385.273C270.908 384.83 271.283 384.493 271.723 384.262C272.163 384.032 272.657 383.916 273.205 383.916C273.768 383.916 274.268 384.027 274.705 384.249C275.142 384.47 275.496 384.776 275.767 385.167C276.041 385.558 276.215 386.003 276.289 386.501H274.881C274.785 386.107 274.596 385.786 274.313 385.537C274.03 385.287 273.661 385.163 273.205 385.163C272.513 385.163 271.972 385.464 271.585 386.067C271.2 386.671 271.006 387.509 271.003 388.583H271.072C271.235 388.316 271.435 388.088 271.672 387.9C271.912 387.709 272.18 387.563 272.476 387.462C272.774 387.357 273.088 387.305 273.417 387.305C273.965 387.305 274.461 387.439 274.904 387.706C275.35 387.971 275.706 388.337 275.97 388.805C276.235 389.273 276.367 389.808 276.367 390.412C276.367 391.015 276.23 391.561 275.956 392.05C275.686 392.54 275.304 392.928 274.812 393.214C274.319 393.497 273.744 393.635 273.085 393.629ZM273.08 392.429C273.444 392.429 273.768 392.34 274.055 392.161C274.341 391.983 274.567 391.743 274.733 391.441C274.899 391.139 274.982 390.802 274.982 390.43C274.982 390.067 274.901 389.736 274.738 389.438C274.578 389.139 274.356 388.902 274.073 388.727C273.793 388.551 273.473 388.463 273.113 388.463C272.839 388.463 272.585 388.516 272.351 388.62C272.12 388.725 271.917 388.87 271.742 389.054C271.566 389.239 271.428 389.451 271.326 389.691C271.228 389.928 271.178 390.179 271.178 390.444C271.178 390.798 271.26 391.126 271.423 391.427C271.589 391.729 271.816 391.972 272.102 392.157C272.391 392.338 272.717 392.429 273.08 392.429ZM279.432 392.207L279.362 392.711C279.316 393.08 279.238 393.465 279.127 393.865C279.019 394.268 278.907 394.642 278.79 394.987C278.676 395.331 278.582 395.605 278.508 395.808H277.53C277.57 395.617 277.625 395.359 277.696 395.033C277.767 394.71 277.836 394.348 277.903 393.948C277.971 393.548 278.022 393.14 278.056 392.724L278.102 392.207H279.432ZM284.331 393.629C283.752 393.629 283.232 393.518 282.77 393.297C282.312 393.072 281.946 392.764 281.672 392.374C281.398 391.983 281.252 391.536 281.233 391.035H282.618C282.652 391.441 282.832 391.775 283.158 392.037C283.484 392.298 283.875 392.429 284.331 392.429C284.694 392.429 285.016 392.346 285.296 392.18C285.579 392.01 285.8 391.778 285.96 391.483C286.124 391.187 286.205 390.85 286.205 390.472C286.205 390.087 286.122 389.744 285.956 389.442C285.79 389.141 285.56 388.904 285.268 388.731C284.979 388.559 284.646 388.471 284.271 388.468C283.985 388.468 283.697 388.517 283.407 388.616C283.118 388.714 282.884 388.844 282.706 389.004L281.399 388.81L281.93 384.045H287.128V385.269H283.117L282.817 387.914H282.872C283.057 387.736 283.301 387.586 283.606 387.466C283.914 387.346 284.243 387.286 284.594 387.286C285.169 387.286 285.682 387.423 286.131 387.697C286.584 387.971 286.939 388.345 287.198 388.819C287.459 389.29 287.588 389.831 287.585 390.444C287.588 391.056 287.45 391.603 287.17 392.083C286.893 392.563 286.508 392.941 286.016 393.218C285.526 393.492 284.965 393.629 284.331 393.629ZM292.563 393.657C291.834 393.654 291.21 393.462 290.693 393.08C290.176 392.698 289.781 392.143 289.507 391.413C289.233 390.684 289.096 389.805 289.096 388.777C289.096 387.752 289.233 386.877 289.507 386.151C289.784 385.424 290.181 384.87 290.698 384.489C291.218 384.107 291.84 383.916 292.563 383.916C293.286 383.916 293.907 384.109 294.424 384.493C294.941 384.875 295.336 385.429 295.61 386.155C295.887 386.878 296.025 387.752 296.025 388.777C296.025 389.808 295.889 390.689 295.615 391.418C295.341 392.144 294.945 392.7 294.428 393.085C293.911 393.466 293.289 393.657 292.563 393.657ZM292.563 392.424C293.203 392.424 293.703 392.112 294.063 391.487C294.427 390.862 294.608 389.959 294.608 388.777C294.608 387.993 294.525 387.329 294.359 386.788C294.196 386.243 293.96 385.83 293.653 385.55C293.348 385.267 292.985 385.126 292.563 385.126C291.926 385.126 291.426 385.44 291.063 386.067C290.7 386.695 290.516 387.599 290.513 388.777C290.513 389.565 290.595 390.232 290.758 390.776C290.924 391.318 291.16 391.729 291.464 392.009C291.769 392.286 292.135 392.424 292.563 392.424ZM300.955 393.657C300.225 393.654 299.602 393.462 299.085 393.08C298.568 392.698 298.173 392.143 297.899 391.413C297.625 390.684 297.488 389.805 297.488 388.777C297.488 387.752 297.625 386.877 297.899 386.151C298.176 385.424 298.573 384.87 299.09 384.489C299.61 384.107 300.231 383.916 300.955 383.916C301.678 383.916 302.298 384.109 302.815 384.493C303.332 384.875 303.728 385.429 304.002 386.155C304.279 386.878 304.417 387.752 304.417 388.777C304.417 389.808 304.28 390.689 304.006 391.418C303.732 392.144 303.337 392.7 302.82 393.085C302.303 393.466 301.681 393.657 300.955 393.657ZM300.955 392.424C301.595 392.424 302.095 392.112 302.455 391.487C302.818 390.862 303 389.959 303 388.777C303 387.993 302.917 387.329 302.751 386.788C302.587 386.243 302.352 385.83 302.044 385.55C301.74 385.267 301.376 385.126 300.955 385.126C300.318 385.126 299.818 385.44 299.454 386.067C299.091 386.695 298.908 387.599 298.905 388.777C298.905 389.565 298.987 390.232 299.15 390.776C299.316 391.318 299.551 391.729 299.856 392.009C300.161 392.286 300.527 392.424 300.955 392.424Z" fill="#475467"/>
<path d="M70.6363 423.557V414.102H76.3054V415.118H71.7812V418.312H75.8807V419.328H71.7812V423.557H70.6363ZM78.1185 423.557V416.466H79.208V423.557H78.1185ZM78.6725 415.284C78.4601 415.284 78.277 415.212 78.1231 415.067C77.9723 414.922 77.8969 414.748 77.8969 414.545C77.8969 414.342 77.9723 414.168 78.1231 414.024C78.277 413.879 78.4601 413.807 78.6725 413.807C78.8848 413.807 79.0664 413.879 79.2172 414.024C79.3711 414.168 79.448 414.342 79.448 414.545C79.448 414.748 79.3711 414.922 79.2172 415.067C79.0664 415.212 78.8848 415.284 78.6725 415.284ZM82.016 416.466L83.7148 419.365L85.4137 416.466H86.6694L84.3796 420.011L86.6694 423.557H85.4137L83.7148 420.805L82.016 423.557H80.7603L83.0131 420.011L80.7603 416.466H82.016ZM90.905 423.704C90.2217 423.704 89.6324 423.554 89.1369 423.252C88.6444 422.947 88.2644 422.523 87.9966 421.978C87.7319 421.43 87.5996 420.793 87.5996 420.067C87.5996 419.34 87.7319 418.7 87.9966 418.146C88.2644 417.589 88.6368 417.155 89.1138 416.844C89.5939 416.53 90.154 416.373 90.7942 416.373C91.1635 416.373 91.5282 416.435 91.8883 416.558C92.2484 416.681 92.5761 416.881 92.8716 417.158C93.1671 417.432 93.4025 417.795 93.5779 418.248C93.7534 418.7 93.8411 419.257 93.8411 419.919V420.381H88.3752V419.439H92.7331C92.7331 419.039 92.6531 418.682 92.4931 418.368C92.3361 418.054 92.1114 417.806 91.819 417.624C91.5297 417.443 91.1881 417.352 90.7942 417.352C90.3602 417.352 89.9848 417.46 89.6678 417.675C89.3538 417.888 89.1123 418.165 88.943 418.506C88.7737 418.848 88.6891 419.214 88.6891 419.605V420.233C88.6891 420.768 88.7814 421.222 88.9661 421.595C89.1538 421.964 89.4139 422.246 89.7462 422.439C90.0786 422.63 90.4649 422.726 90.905 422.726C91.1912 422.726 91.4497 422.686 91.6806 422.606C91.9145 422.523 92.116 422.399 92.2853 422.236C92.4546 422.07 92.5854 421.864 92.6777 421.618L93.7303 421.913C93.6195 422.27 93.4333 422.584 93.1717 422.855C92.9101 423.123 92.5869 423.332 92.2022 423.483C91.8175 423.631 91.3851 423.704 90.905 423.704ZM98.1759 423.704C97.585 423.704 97.0634 423.555 96.611 423.257C96.1585 422.955 95.8046 422.53 95.5492 421.982C95.2937 421.432 95.166 420.781 95.166 420.03C95.166 419.285 95.2937 418.639 95.5492 418.091C95.8046 417.543 96.1601 417.12 96.6156 416.821C97.0711 416.523 97.5973 416.373 98.1944 416.373C98.6561 416.373 99.0208 416.45 99.2885 416.604C99.5593 416.755 99.7655 416.927 99.9071 417.121C100.052 417.312 100.164 417.469 100.244 417.592H100.336V414.102H101.426V423.557H100.373V422.467H100.244C100.164 422.596 100.05 422.76 99.9025 422.956C99.7548 423.15 99.544 423.324 99.27 423.478C98.9961 423.629 98.6314 423.704 98.1759 423.704ZM98.3237 422.726C98.7607 422.726 99.13 422.612 99.4316 422.384C99.7332 422.153 99.9625 421.835 100.119 421.428C100.276 421.019 100.355 420.547 100.355 420.011C100.355 419.482 100.278 419.019 100.124 418.622C99.9702 418.222 99.7425 417.911 99.4409 417.689C99.1392 417.464 98.7668 417.352 98.3237 417.352C97.862 417.352 97.4773 417.471 97.1695 417.708C96.8649 417.941 96.6356 418.26 96.4817 418.663C96.3309 419.063 96.2555 419.513 96.2555 420.011C96.2555 420.516 96.3324 420.974 96.4863 421.387C96.6433 421.796 96.8741 422.122 97.1788 422.366C97.4865 422.606 97.8682 422.726 98.3237 422.726ZM110.387 416.466V417.389H106.564V416.466H110.387ZM107.709 423.557V415.487C107.709 415.081 107.804 414.742 107.995 414.471C108.186 414.201 108.434 413.997 108.738 413.862C109.043 413.727 109.365 413.659 109.703 413.659C109.971 413.659 110.19 413.68 110.359 413.724C110.528 413.767 110.654 413.807 110.737 413.844L110.423 414.785C110.368 414.767 110.291 414.744 110.193 414.716C110.097 414.688 109.971 414.675 109.814 414.675C109.454 414.675 109.194 414.765 109.034 414.947C108.877 415.128 108.798 415.395 108.798 415.746V423.557H107.709ZM114.594 423.704C113.911 423.704 113.322 423.554 112.826 423.252C112.334 422.947 111.954 422.523 111.686 421.978C111.421 421.43 111.289 420.793 111.289 420.067C111.289 419.34 111.421 418.7 111.686 418.146C111.954 417.589 112.326 417.155 112.803 416.844C113.283 416.53 113.843 416.373 114.484 416.373C114.853 416.373 115.218 416.435 115.578 416.558C115.938 416.681 116.266 416.881 116.561 417.158C116.857 417.432 117.092 417.795 117.267 418.248C117.443 418.7 117.531 419.257 117.531 419.919V420.381H112.065V419.439H116.423C116.423 419.039 116.343 418.682 116.183 418.368C116.026 418.054 115.801 417.806 115.509 417.624C115.219 417.443 114.878 417.352 114.484 417.352C114.05 417.352 113.674 417.46 113.357 417.675C113.043 417.888 112.802 418.165 112.632 418.506C112.463 418.848 112.379 419.214 112.379 419.605V420.233C112.379 420.768 112.471 421.222 112.656 421.595C112.843 421.964 113.103 422.246 113.436 422.439C113.768 422.63 114.154 422.726 114.594 422.726C114.881 422.726 115.139 422.686 115.37 422.606C115.604 422.523 115.805 422.399 115.975 422.236C116.144 422.07 116.275 421.864 116.367 421.618L117.42 421.913C117.309 422.27 117.123 422.584 116.861 422.855C116.6 423.123 116.276 423.332 115.892 423.483C115.507 423.631 115.075 423.704 114.594 423.704ZM122.161 423.704C121.478 423.704 120.888 423.554 120.393 423.252C119.9 422.947 119.52 422.523 119.252 421.978C118.988 421.43 118.855 420.793 118.855 420.067C118.855 419.34 118.988 418.7 119.252 418.146C119.52 417.589 119.893 417.155 120.37 416.844C120.85 416.53 121.41 416.373 122.05 416.373C122.419 416.373 122.784 416.435 123.144 416.558C123.504 416.681 123.832 416.881 124.127 417.158C124.423 417.432 124.658 417.795 124.834 418.248C125.009 418.7 125.097 419.257 125.097 419.919V420.381H119.631V419.439H123.989C123.989 419.039 123.909 418.682 123.749 418.368C123.592 418.054 123.367 417.806 123.075 417.624C122.786 417.443 122.444 417.352 122.05 417.352C121.616 417.352 121.241 417.46 120.924 417.675C120.61 417.888 120.368 418.165 120.199 418.506C120.03 418.848 119.945 419.214 119.945 419.605V420.233C119.945 420.768 120.037 421.222 120.222 421.595C120.41 421.964 120.67 422.246 121.002 422.439C121.334 422.63 121.721 422.726 122.161 422.726C122.447 422.726 122.706 422.686 122.936 422.606C123.17 422.523 123.372 422.399 123.541 422.236C123.71 422.07 123.841 421.864 123.934 421.618L124.986 421.913C124.875 422.27 124.689 422.584 124.428 422.855C124.166 423.123 123.843 423.332 123.458 423.483C123.073 423.631 122.641 423.704 122.161 423.704Z" fill="#475467"/>
<path d="M273.63 425.829V413.102H274.445V425.829H273.63ZM276.18 417.05C276.127 416.579 275.909 416.214 275.524 415.956C275.14 415.694 274.656 415.563 274.073 415.563C273.655 415.563 273.294 415.629 272.989 415.762C272.684 415.891 272.447 416.07 272.278 416.299C272.112 416.524 272.029 416.781 272.029 417.069C272.029 417.311 272.086 417.52 272.198 417.696C272.314 417.872 272.465 418.019 272.651 418.138C272.84 418.254 273.042 418.352 273.257 418.432C273.473 418.508 273.68 418.571 273.879 418.621L274.873 418.879C275.198 418.959 275.531 419.066 275.872 419.202C276.214 419.338 276.53 419.517 276.822 419.739C277.113 419.961 277.349 420.236 277.528 420.564C277.71 420.893 277.801 421.285 277.801 421.743C277.801 422.319 277.652 422.831 277.354 423.279C277.059 423.726 276.63 424.079 276.066 424.338C275.506 424.596 274.828 424.726 274.033 424.726C273.27 424.726 272.611 424.605 272.054 424.363C271.497 424.121 271.061 423.778 270.747 423.334C270.432 422.886 270.258 422.356 270.225 421.743H271.766C271.796 422.111 271.915 422.417 272.124 422.662C272.336 422.904 272.606 423.085 272.934 423.204C273.265 423.32 273.628 423.378 274.023 423.378C274.457 423.378 274.843 423.31 275.181 423.175C275.523 423.035 275.791 422.843 275.987 422.598C276.182 422.349 276.28 422.059 276.28 421.728C276.28 421.426 276.194 421.179 276.021 420.987C275.852 420.795 275.622 420.636 275.33 420.51C275.042 420.384 274.716 420.273 274.351 420.177L273.148 419.849C272.332 419.626 271.686 419.3 271.209 418.869C270.735 418.438 270.498 417.868 270.498 417.159C270.498 416.572 270.657 416.06 270.975 415.623C271.293 415.185 271.724 414.845 272.268 414.604C272.811 414.358 273.425 414.236 274.107 414.236C274.797 414.236 275.405 414.357 275.932 414.599C276.462 414.84 276.88 415.174 277.185 415.598C277.49 416.019 277.649 416.503 277.662 417.05H276.18ZM282.938 424.696C282.226 424.696 281.596 424.573 281.049 424.328C280.505 424.083 280.079 423.745 279.771 423.314C279.463 422.883 279.311 422.392 279.314 421.842C279.311 421.411 279.398 421.015 279.577 420.654C279.76 420.289 280.007 419.986 280.318 419.744C280.63 419.499 280.978 419.343 281.362 419.277V419.217C280.855 419.095 280.449 418.823 280.144 418.402C279.839 417.981 279.688 417.497 279.692 416.95C279.688 416.43 279.826 415.966 280.104 415.558C280.386 415.147 280.772 414.824 281.263 414.589C281.753 414.353 282.312 414.236 282.938 414.236C283.558 414.236 284.111 414.355 284.599 414.594C285.089 414.829 285.475 415.152 285.757 415.563C286.039 415.971 286.181 416.433 286.185 416.95C286.181 417.497 286.025 417.981 285.717 418.402C285.409 418.823 285.008 419.095 284.514 419.217V419.277C284.895 419.343 285.238 419.499 285.543 419.744C285.851 419.986 286.097 420.289 286.279 420.654C286.465 421.015 286.559 421.411 286.562 421.842C286.559 422.392 286.403 422.883 286.095 423.314C285.787 423.745 285.359 424.083 284.812 424.328C284.269 424.573 283.644 424.696 282.938 424.696ZM282.938 423.438C283.359 423.438 283.724 423.368 284.032 423.229C284.34 423.087 284.579 422.89 284.748 422.638C284.917 422.382 285.003 422.084 285.006 421.743C285.003 421.388 284.91 421.075 284.728 420.803C284.549 420.531 284.305 420.318 283.997 420.162C283.689 420.006 283.336 419.928 282.938 419.928C282.537 419.928 282.181 420.006 281.869 420.162C281.558 420.318 281.312 420.531 281.133 420.803C280.954 421.075 280.867 421.388 280.87 421.743C280.867 422.084 280.948 422.382 281.114 422.638C281.283 422.89 281.523 423.087 281.834 423.229C282.146 423.368 282.514 423.438 282.938 423.438ZM282.938 418.7C283.276 418.7 283.576 418.632 283.838 418.496C284.1 418.36 284.305 418.171 284.454 417.93C284.607 417.688 284.685 417.404 284.688 417.079C284.685 416.761 284.609 416.483 284.459 416.244C284.314 416.006 284.11 415.822 283.848 415.692C283.586 415.56 283.283 415.493 282.938 415.493C282.587 415.493 282.279 415.56 282.013 415.692C281.752 415.822 281.548 416.006 281.402 416.244C281.256 416.483 281.185 416.761 281.188 417.079C281.185 417.404 281.258 417.688 281.407 417.93C281.556 418.171 281.762 418.36 282.023 418.496C282.288 418.632 282.593 418.7 282.938 418.7ZM291.888 424.726C291.103 424.722 290.432 424.515 289.875 424.104C289.318 423.693 288.892 423.095 288.597 422.309C288.302 421.524 288.155 420.578 288.155 419.471C288.155 418.367 288.302 417.424 288.597 416.642C288.895 415.86 289.323 415.263 289.88 414.852C290.44 414.441 291.109 414.236 291.888 414.236C292.667 414.236 293.335 414.443 293.892 414.857C294.449 415.268 294.874 415.865 295.169 416.647C295.468 417.426 295.617 418.367 295.617 419.471C295.617 420.581 295.469 421.529 295.174 422.314C294.879 423.097 294.454 423.695 293.897 424.109C293.34 424.52 292.67 424.726 291.888 424.726ZM291.888 423.398C292.578 423.398 293.116 423.062 293.504 422.389C293.895 421.716 294.091 420.743 294.091 419.471C294.091 418.626 294.001 417.911 293.822 417.328C293.647 416.741 293.393 416.297 293.062 415.996C292.733 415.691 292.342 415.538 291.888 415.538C291.202 415.538 290.664 415.876 290.272 416.552C289.881 417.229 289.684 418.201 289.681 419.471C289.681 420.319 289.769 421.037 289.944 421.623C290.123 422.207 290.377 422.649 290.705 422.951C291.033 423.249 291.428 423.398 291.888 423.398ZM300.925 424.726C300.14 424.722 299.469 424.515 298.912 424.104C298.355 423.693 297.929 423.095 297.634 422.309C297.339 421.524 297.192 420.578 297.192 419.471C297.192 418.367 297.339 417.424 297.634 416.642C297.932 415.86 298.36 415.263 298.917 414.852C299.477 414.441 300.146 414.236 300.925 414.236C301.704 414.236 302.372 414.443 302.929 414.857C303.486 415.268 303.912 415.865 304.207 416.647C304.505 417.426 304.654 418.367 304.654 419.471C304.654 420.581 304.507 421.529 304.212 422.314C303.917 423.097 303.491 423.695 302.934 424.109C302.377 424.52 301.708 424.726 300.925 424.726ZM300.925 423.398C301.615 423.398 302.153 423.062 302.541 422.389C302.932 421.716 303.128 420.743 303.128 419.471C303.128 418.626 303.038 417.911 302.859 417.328C302.684 416.741 302.43 416.297 302.099 415.996C301.771 415.691 301.379 415.538 300.925 415.538C300.239 415.538 299.701 415.876 299.31 416.552C298.918 417.229 298.721 418.201 298.718 419.471C298.718 420.319 298.806 421.037 298.981 421.623C299.16 422.207 299.414 422.649 299.742 422.951C300.07 423.249 300.465 423.398 300.925 423.398Z" fill="#475467"/>
<path d="M70.1193 446.176V445.161H77.2102V446.176H74.2372V454.615H73.0923V446.176H70.1193ZM80.6818 454.763C80.0416 454.763 79.48 454.611 78.9968 454.306C78.5167 454.001 78.1412 453.575 77.8704 453.027C77.6026 452.479 77.4687 451.839 77.4687 451.107C77.4687 450.368 77.6026 449.723 77.8704 449.172C78.1412 448.622 78.5167 448.194 78.9968 447.889C79.48 447.584 80.0416 447.432 80.6818 447.432C81.3219 447.432 81.8821 447.584 82.3622 447.889C82.8454 448.194 83.2209 448.622 83.4886 449.172C83.7594 449.723 83.8949 450.368 83.8949 451.107C83.8949 451.839 83.7594 452.479 83.4886 453.027C83.2209 453.575 82.8454 454.001 82.3622 454.306C81.8821 454.611 81.3219 454.763 80.6818 454.763ZM80.6818 453.784C81.1681 453.784 81.5682 453.66 81.8821 453.41C82.196 453.161 82.4284 452.833 82.5792 452.427C82.73 452.021 82.8054 451.581 82.8054 451.107C82.8054 450.633 82.73 450.191 82.5792 449.782C82.4284 449.372 82.196 449.042 81.8821 448.789C81.5682 448.537 81.1681 448.411 80.6818 448.411C80.1955 448.411 79.7954 448.537 79.4815 448.789C79.1676 449.042 78.9352 449.372 78.7844 449.782C78.6336 450.191 78.5582 450.633 78.5582 451.107C78.5582 451.581 78.6336 452.021 78.7844 452.427C78.9352 452.833 79.1676 453.161 79.4815 453.41C79.7954 453.66 80.1955 453.784 80.6818 453.784ZM88.6418 447.524V448.448H84.967V447.524H88.6418ZM86.0381 445.825H87.1276V452.584C87.1276 452.892 87.1722 453.123 87.2614 453.276C87.3538 453.427 87.4707 453.529 87.6123 453.581C87.7569 453.63 87.9093 453.655 88.0693 453.655C88.1893 453.655 88.2878 453.649 88.3648 453.637C88.4417 453.621 88.5033 453.609 88.5494 453.6L88.771 454.578C88.6972 454.606 88.5941 454.634 88.4617 454.661C88.3294 454.692 88.1616 454.708 87.9585 454.708C87.6508 454.708 87.3491 454.641 87.0537 454.509C86.7613 454.377 86.5182 454.175 86.3243 453.904C86.1335 453.633 86.0381 453.292 86.0381 452.879V445.825ZM92.3673 454.781C91.9179 454.781 91.5101 454.697 91.1439 454.528C90.7776 454.355 90.4868 454.107 90.2714 453.784C90.0559 453.458 89.9482 453.064 89.9482 452.602C89.9482 452.196 90.0282 451.867 90.1883 451.615C90.3483 451.359 90.5622 451.159 90.83 451.014C91.0977 450.87 91.3932 450.762 91.7163 450.691C92.0426 450.617 92.3703 450.559 92.6996 450.516C93.1305 450.46 93.4798 450.419 93.7476 450.391C94.0184 450.36 94.2154 450.31 94.3385 450.239C94.4647 450.168 94.5278 450.045 94.5278 449.869V449.833C94.5278 449.377 94.4031 449.023 94.1538 448.771C93.9076 448.518 93.5337 448.392 93.032 448.392C92.5119 448.392 92.1041 448.506 91.8087 448.734C91.5132 448.962 91.3055 449.205 91.1854 449.463L90.1513 449.094C90.336 448.663 90.5822 448.328 90.89 448.088C91.2008 447.844 91.5394 447.675 91.9056 447.58C92.2749 447.481 92.6381 447.432 92.9951 447.432C93.2228 447.432 93.4844 447.46 93.7799 447.515C94.0784 447.567 94.3662 447.677 94.6432 447.843C94.9232 448.009 95.1556 448.26 95.3403 448.595C95.5249 448.931 95.6173 449.38 95.6173 449.943V454.615H94.5278V453.655H94.4724C94.3985 453.809 94.2754 453.974 94.103 454.149C93.9307 454.324 93.7014 454.474 93.4152 454.597C93.129 454.72 92.7797 454.781 92.3673 454.781ZM92.5334 453.803C92.9643 453.803 93.3275 453.718 93.6229 453.549C93.9215 453.38 94.1461 453.161 94.2969 452.893C94.4508 452.626 94.5278 452.344 94.5278 452.048V451.051C94.4816 451.107 94.38 451.157 94.2231 451.204C94.0692 451.247 93.8907 451.285 93.6876 451.319C93.4875 451.35 93.2921 451.378 93.1013 451.402C92.9135 451.424 92.7612 451.442 92.6442 451.458C92.3611 451.494 92.0964 451.555 91.8502 451.638C91.6071 451.718 91.4101 451.839 91.2593 452.002C91.1116 452.162 91.0377 452.381 91.0377 452.658C91.0377 453.036 91.1777 453.323 91.4578 453.517C91.741 453.707 92.0995 453.803 92.5334 453.803ZM98.6953 445.161V454.615H97.6058V445.161H98.6953ZM106.434 454.781C105.984 454.781 105.577 454.697 105.21 454.528C104.844 454.355 104.553 454.107 104.338 453.784C104.122 453.458 104.015 453.064 104.015 452.602C104.015 452.196 104.095 451.867 104.255 451.615C104.415 451.359 104.629 451.159 104.896 451.014C105.164 450.87 105.46 450.762 105.783 450.691C106.109 450.617 106.437 450.559 106.766 450.516C107.197 450.46 107.546 450.419 107.814 450.391C108.085 450.36 108.282 450.31 108.405 450.239C108.531 450.168 108.594 450.045 108.594 449.869V449.833C108.594 449.377 108.47 449.023 108.22 448.771C107.974 448.518 107.6 448.392 107.098 448.392C106.578 448.392 106.171 448.506 105.875 448.734C105.58 448.962 105.372 449.205 105.252 449.463L104.218 449.094C104.402 448.663 104.649 448.328 104.956 448.088C105.267 447.844 105.606 447.675 105.972 447.58C106.341 447.481 106.704 447.432 107.062 447.432C107.289 447.432 107.551 447.46 107.846 447.515C108.145 447.567 108.433 447.677 108.71 447.843C108.99 448.009 109.222 448.26 109.407 448.595C109.591 448.931 109.684 449.38 109.684 449.943V454.615H108.594V453.655H108.539C108.465 453.809 108.342 453.974 108.169 454.149C107.997 454.324 107.768 454.474 107.482 454.597C107.195 454.72 106.846 454.781 106.434 454.781ZM106.6 453.803C107.031 453.803 107.394 453.718 107.689 453.549C107.988 453.38 108.213 453.161 108.363 452.893C108.517 452.626 108.594 452.344 108.594 452.048V451.051C108.548 451.107 108.446 451.157 108.289 451.204C108.136 451.247 107.957 451.285 107.754 451.319C107.554 451.35 107.358 451.378 107.168 451.402C106.98 451.424 106.828 451.442 106.711 451.458C106.428 451.494 106.163 451.555 105.917 451.638C105.673 451.718 105.477 451.839 105.326 452.002C105.178 452.162 105.104 452.381 105.104 452.658C105.104 453.036 105.244 453.323 105.524 453.517C105.807 453.707 106.166 453.803 106.6 453.803ZM111.672 454.615V447.524H112.725V448.632H112.817C112.965 448.254 113.203 447.96 113.533 447.751C113.862 447.538 114.257 447.432 114.719 447.432C115.187 447.432 115.576 447.538 115.887 447.751C116.201 447.96 116.446 448.254 116.621 448.632H116.695C116.877 448.266 117.149 447.975 117.512 447.76C117.875 447.541 118.311 447.432 118.819 447.432C119.453 447.432 119.971 447.631 120.374 448.028C120.777 448.421 120.979 449.035 120.979 449.869V454.615H119.89V449.869C119.89 449.346 119.746 448.972 119.46 448.748C119.174 448.523 118.837 448.411 118.449 448.411C117.951 448.411 117.564 448.561 117.29 448.863C117.017 449.162 116.88 449.54 116.88 449.999V454.615H115.772V449.759C115.772 449.356 115.641 449.031 115.379 448.785C115.118 448.535 114.781 448.411 114.368 448.411C114.085 448.411 113.82 448.486 113.574 448.637C113.331 448.788 113.134 448.997 112.983 449.265C112.836 449.529 112.762 449.836 112.762 450.183V454.615H111.672ZM125.852 454.763C125.212 454.763 124.65 454.611 124.167 454.306C123.687 454.001 123.311 453.575 123.04 453.027C122.773 452.479 122.639 451.839 122.639 451.107C122.639 450.368 122.773 449.723 123.04 449.172C123.311 448.622 123.687 448.194 124.167 447.889C124.65 447.584 125.212 447.432 125.852 447.432C126.492 447.432 127.052 447.584 127.532 447.889C128.015 448.194 128.391 448.622 128.659 449.172C128.929 449.723 129.065 450.368 129.065 451.107C129.065 451.839 128.929 452.479 128.659 453.027C128.391 453.575 128.015 454.001 127.532 454.306C127.052 454.611 126.492 454.763 125.852 454.763ZM125.852 453.784C126.338 453.784 126.738 453.66 127.052 453.41C127.366 453.161 127.598 452.833 127.749 452.427C127.9 452.021 127.975 451.581 127.975 451.107C127.975 450.633 127.9 450.191 127.749 449.782C127.598 449.372 127.366 449.042 127.052 448.789C126.738 448.537 126.338 448.411 125.852 448.411C125.365 448.411 124.965 448.537 124.651 448.789C124.338 449.042 124.105 449.372 123.954 449.782C123.804 450.191 123.728 450.633 123.728 451.107C123.728 451.581 123.804 452.021 123.954 452.427C124.105 452.833 124.338 453.161 124.651 453.41C124.965 453.66 125.365 453.784 125.852 453.784ZM135.197 451.716V447.524H136.286V454.615H135.197V453.415H135.123C134.957 453.775 134.698 454.081 134.347 454.334C133.996 454.583 133.553 454.708 133.018 454.708C132.574 454.708 132.181 454.611 131.836 454.417C131.491 454.22 131.22 453.924 131.023 453.53C130.826 453.133 130.728 452.633 130.728 452.03V447.524H131.817V451.956C131.817 452.473 131.962 452.886 132.251 453.193C132.544 453.501 132.916 453.655 133.368 453.655C133.639 453.655 133.915 453.586 134.195 453.447C134.478 453.309 134.715 453.096 134.906 452.81C135.1 452.524 135.197 452.159 135.197 451.716ZM139.371 450.35V454.615H138.282V447.524H139.334V448.632H139.426C139.593 448.272 139.845 447.983 140.184 447.764C140.522 447.543 140.959 447.432 141.495 447.432C141.975 447.432 142.395 447.53 142.755 447.727C143.115 447.921 143.395 448.217 143.595 448.614C143.795 449.008 143.895 449.506 143.895 450.11V454.615H142.806V450.183C142.806 449.626 142.661 449.192 142.372 448.882C142.082 448.568 141.685 448.411 141.181 448.411C140.833 448.411 140.522 448.486 140.248 448.637C139.977 448.788 139.763 449.008 139.607 449.297C139.45 449.586 139.371 449.937 139.371 450.35ZM148.97 447.524V448.448H145.295V447.524H148.97ZM146.366 445.825H147.456V452.584C147.456 452.892 147.5 453.123 147.59 453.276C147.682 453.427 147.799 453.529 147.94 453.581C148.085 453.63 148.237 453.655 148.397 453.655C148.517 453.655 148.616 453.649 148.693 453.637C148.77 453.621 148.831 453.609 148.878 453.6L149.099 454.578C149.025 454.606 148.922 454.634 148.79 454.661C148.658 454.692 148.49 454.708 148.287 454.708C147.979 454.708 147.677 454.641 147.382 454.509C147.089 454.377 146.846 454.175 146.652 453.904C146.462 453.633 146.366 453.292 146.366 452.879V445.825ZM157.146 454.763C156.506 454.763 155.944 454.611 155.461 454.306C154.981 454.001 154.605 453.575 154.334 453.027C154.066 452.479 153.933 451.839 153.933 451.107C153.933 450.368 154.066 449.723 154.334 449.172C154.605 448.622 154.981 448.194 155.461 447.889C155.944 447.584 156.506 447.432 157.146 447.432C157.786 447.432 158.346 447.584 158.826 447.889C159.309 448.194 159.685 448.622 159.952 449.172C160.223 449.723 160.359 450.368 160.359 451.107C160.359 451.839 160.223 452.479 159.952 453.027C159.685 453.575 159.309 454.001 158.826 454.306C158.346 454.611 157.786 454.763 157.146 454.763ZM157.146 453.784C157.632 453.784 158.032 453.66 158.346 453.41C158.66 453.161 158.892 452.833 159.043 452.427C159.194 452.021 159.269 451.581 159.269 451.107C159.269 450.633 159.194 450.191 159.043 449.782C158.892 449.372 158.66 449.042 158.346 448.789C158.032 448.537 157.632 448.411 157.146 448.411C156.659 448.411 156.259 448.537 155.945 448.789C155.631 449.042 155.399 449.372 155.248 449.782C155.097 450.191 155.022 450.633 155.022 451.107C155.022 451.581 155.097 452.021 155.248 452.427C155.399 452.833 155.631 453.161 155.945 453.41C156.259 453.66 156.659 453.784 157.146 453.784ZM163.387 454.615L161.227 447.524H162.372L163.904 452.953H163.978L165.492 447.524H166.656L168.151 452.935H168.225L169.758 447.524H170.903L168.742 454.615H167.671L166.12 449.168H166.009L164.458 454.615H163.387ZM175.075 454.763C174.392 454.763 173.802 454.612 173.307 454.311C172.814 454.006 172.434 453.581 172.167 453.036C171.902 452.489 171.77 451.852 171.77 451.125C171.77 450.399 171.902 449.759 172.167 449.205C172.434 448.648 172.807 448.214 173.284 447.903C173.764 447.589 174.324 447.432 174.964 447.432C175.333 447.432 175.698 447.494 176.058 447.617C176.418 447.74 176.746 447.94 177.042 448.217C177.337 448.491 177.572 448.854 177.748 449.306C177.923 449.759 178.011 450.316 178.011 450.977V451.439H172.545V450.497H176.903C176.903 450.097 176.823 449.74 176.663 449.426C176.506 449.112 176.281 448.865 175.989 448.683C175.7 448.501 175.358 448.411 174.964 448.411C174.53 448.411 174.155 448.518 173.838 448.734C173.524 448.946 173.282 449.223 173.113 449.565C172.944 449.906 172.859 450.273 172.859 450.664V451.291C172.859 451.827 172.951 452.281 173.136 452.653C173.324 453.023 173.584 453.304 173.916 453.498C174.249 453.689 174.635 453.784 175.075 453.784C175.361 453.784 175.62 453.744 175.85 453.664C176.084 453.581 176.286 453.458 176.455 453.295C176.625 453.129 176.755 452.923 176.848 452.676L177.9 452.972C177.789 453.329 177.603 453.643 177.342 453.914C177.08 454.181 176.757 454.391 176.372 454.541C175.987 454.689 175.555 454.763 175.075 454.763ZM182.346 454.763C181.755 454.763 181.233 454.614 180.781 454.315C180.328 454.014 179.975 453.589 179.719 453.041C179.464 452.49 179.336 451.839 179.336 451.088C179.336 450.343 179.464 449.697 179.719 449.149C179.975 448.602 180.33 448.178 180.785 447.88C181.241 447.581 181.767 447.432 182.364 447.432C182.826 447.432 183.191 447.509 183.458 447.663C183.729 447.814 183.935 447.986 184.077 448.18C184.222 448.371 184.334 448.528 184.414 448.651H184.506V445.161H185.596V454.615H184.543V453.526H184.414C184.334 453.655 184.22 453.818 184.072 454.015C183.925 454.209 183.714 454.383 183.44 454.537C183.166 454.688 182.801 454.763 182.346 454.763ZM182.494 453.784C182.931 453.784 183.3 453.67 183.602 453.443C183.903 453.212 184.132 452.893 184.289 452.487C184.446 452.078 184.525 451.605 184.525 451.07C184.525 450.54 184.448 450.077 184.294 449.68C184.14 449.28 183.912 448.969 183.611 448.748C183.309 448.523 182.937 448.411 182.494 448.411C182.032 448.411 181.647 448.529 181.339 448.766C181.035 449 180.805 449.319 180.652 449.722C180.501 450.122 180.425 450.571 180.425 451.07C180.425 451.575 180.502 452.033 180.656 452.445C180.813 452.855 181.044 453.181 181.349 453.424C181.656 453.664 182.038 453.784 182.494 453.784Z" fill="#475467"/>
<path d="M266.336 455.797V443.979H267.093V455.797H266.336ZM268.704 447.644C268.655 447.207 268.452 446.869 268.095 446.629C267.738 446.386 267.288 446.264 266.747 446.264C266.359 446.264 266.023 446.326 265.74 446.449C265.457 446.569 265.237 446.735 265.08 446.947C264.926 447.157 264.849 447.395 264.849 447.663C264.849 447.887 264.901 448.081 265.006 448.244C265.114 448.408 265.254 448.545 265.426 448.655C265.602 448.763 265.789 448.854 265.989 448.928C266.189 448.999 266.382 449.057 266.566 449.103L267.49 449.343C267.791 449.417 268.101 449.517 268.418 449.643C268.735 449.769 269.029 449.936 269.299 450.142C269.57 450.348 269.789 450.604 269.955 450.908C270.124 451.213 270.209 451.578 270.209 452.002C270.209 452.538 270.07 453.013 269.793 453.429C269.519 453.844 269.121 454.172 268.598 454.412C268.078 454.652 267.448 454.772 266.71 454.772C266.002 454.772 265.389 454.66 264.872 454.435C264.355 454.211 263.95 453.892 263.658 453.48C263.366 453.064 263.204 452.572 263.173 452.002H264.604C264.632 452.344 264.743 452.629 264.937 452.856C265.134 453.081 265.385 453.249 265.689 453.36C265.997 453.467 266.334 453.521 266.7 453.521C267.104 453.521 267.462 453.458 267.776 453.332C268.093 453.203 268.342 453.024 268.524 452.796C268.705 452.566 268.796 452.296 268.796 451.988C268.796 451.708 268.716 451.479 268.556 451.301C268.399 451.122 268.185 450.974 267.915 450.857C267.647 450.74 267.344 450.637 267.005 450.548L265.888 450.243C265.131 450.037 264.531 449.734 264.087 449.334C263.647 448.934 263.427 448.405 263.427 447.746C263.427 447.201 263.575 446.726 263.87 446.319C264.166 445.913 264.566 445.598 265.071 445.373C265.575 445.145 266.145 445.031 266.779 445.031C267.419 445.031 267.984 445.144 268.473 445.368C268.966 445.593 269.353 445.902 269.636 446.296C269.92 446.687 270.067 447.137 270.08 447.644H268.704ZM272.103 454.615L276.23 446.453V446.384H271.456V445.161H277.707V446.426L273.594 454.615H272.103ZM279.502 453.323L279.433 453.826C279.386 454.195 279.308 454.58 279.197 454.98C279.089 455.383 278.977 455.757 278.86 456.102C278.746 456.446 278.652 456.72 278.579 456.923H277.6C277.64 456.733 277.695 456.474 277.766 456.148C277.837 455.825 277.906 455.463 277.974 455.063C278.042 454.663 278.092 454.255 278.126 453.84L278.172 453.323H279.502ZM284.381 454.744C283.747 454.744 283.181 454.635 282.683 454.417C282.187 454.198 281.795 453.895 281.505 453.507C281.219 453.116 281.065 452.664 281.044 452.15H282.493C282.512 452.43 282.606 452.673 282.775 452.879C282.947 453.083 283.172 453.24 283.449 453.35C283.726 453.461 284.034 453.517 284.372 453.517C284.745 453.517 285.074 453.452 285.36 453.323C285.649 453.193 285.876 453.013 286.039 452.782C286.202 452.549 286.283 452.279 286.283 451.975C286.283 451.658 286.202 451.379 286.039 451.139C285.879 450.896 285.643 450.705 285.332 450.567C285.025 450.428 284.652 450.359 284.215 450.359H283.417V449.195H284.215C284.566 449.195 284.874 449.132 285.139 449.006C285.406 448.88 285.616 448.705 285.766 448.48C285.917 448.252 285.993 447.986 285.993 447.681C285.993 447.389 285.926 447.135 285.794 446.92C285.665 446.701 285.48 446.53 285.24 446.407C285.003 446.284 284.723 446.222 284.4 446.222C284.092 446.222 283.804 446.279 283.537 446.393C283.272 446.504 283.057 446.664 282.89 446.873C282.724 447.08 282.635 447.327 282.623 447.617H281.242C281.258 447.106 281.408 446.656 281.695 446.269C281.984 445.881 282.366 445.578 282.84 445.359C283.314 445.141 283.84 445.031 284.418 445.031C285.025 445.031 285.548 445.15 285.988 445.387C286.431 445.621 286.773 445.933 287.013 446.324C287.256 446.715 287.376 447.143 287.373 447.607C287.376 448.137 287.228 448.586 286.93 448.955C286.634 449.325 286.24 449.573 285.748 449.699V449.773C286.376 449.868 286.862 450.117 287.207 450.52C287.555 450.924 287.727 451.424 287.724 452.021C287.727 452.541 287.582 453.007 287.29 453.42C287.001 453.832 286.605 454.157 286.103 454.394C285.602 454.628 285.028 454.744 284.381 454.744ZM292.76 454.772C292.031 454.769 291.408 454.577 290.891 454.195C290.374 453.814 289.978 453.258 289.704 452.529C289.43 451.799 289.293 450.921 289.293 449.893C289.293 448.868 289.43 447.992 289.704 447.266C289.981 446.539 290.378 445.985 290.895 445.604C291.415 445.222 292.037 445.031 292.76 445.031C293.484 445.031 294.104 445.224 294.621 445.608C295.138 445.99 295.533 446.544 295.807 447.27C296.084 447.994 296.223 448.868 296.223 449.893C296.223 450.924 296.086 451.804 295.812 452.533C295.538 453.26 295.142 453.815 294.625 454.2C294.108 454.581 293.487 454.772 292.76 454.772ZM292.76 453.54C293.401 453.54 293.901 453.227 294.261 452.602C294.624 451.978 294.805 451.074 294.805 449.893C294.805 449.108 294.722 448.445 294.556 447.903C294.393 447.358 294.158 446.946 293.85 446.666C293.545 446.383 293.182 446.241 292.76 446.241C292.123 446.241 291.623 446.555 291.26 447.183C290.897 447.811 290.714 448.714 290.711 449.893C290.711 450.68 290.792 451.347 290.955 451.892C291.122 452.433 291.357 452.844 291.662 453.124C291.966 453.401 292.333 453.54 292.76 453.54ZM301.152 454.772C300.423 454.769 299.799 454.577 299.282 454.195C298.765 453.814 298.37 453.258 298.096 452.529C297.822 451.799 297.685 450.921 297.685 449.893C297.685 448.868 297.822 447.992 298.096 447.266C298.373 446.539 298.77 445.985 299.287 445.604C299.807 445.222 300.429 445.031 301.152 445.031C301.875 445.031 302.495 445.224 303.012 445.608C303.529 445.99 303.925 446.544 304.199 447.27C304.476 447.994 304.614 448.868 304.614 449.893C304.614 450.924 304.477 451.804 304.203 452.533C303.93 453.26 303.534 453.815 303.017 454.2C302.5 454.581 301.878 454.772 301.152 454.772ZM301.152 453.54C301.792 453.54 302.292 453.227 302.652 452.602C303.016 451.978 303.197 451.074 303.197 449.893C303.197 449.108 303.114 448.445 302.948 447.903C302.785 447.358 302.549 446.946 302.241 446.666C301.937 446.383 301.574 446.241 301.152 446.241C300.515 446.241 300.015 446.555 299.652 447.183C299.288 447.811 299.105 448.714 299.102 449.893C299.102 450.68 299.184 451.347 299.347 451.892C299.513 452.433 299.749 452.844 300.053 453.124C300.358 453.401 300.724 453.54 301.152 453.54Z" fill="#475467"/>
<rect x="21" y="105" width="333" height="193" rx="15" fill="white"/>
<path d="M43.1882 145.448H47.1523V147H41.2651V135.276H43.1882V145.448ZM52.792 147.152C51.9149 147.152 51.1221 146.955 50.4136 146.561C49.7051 146.157 49.1484 145.594 48.7436 144.875C48.3387 144.144 48.1363 143.3 48.1363 142.344C48.1363 141.4 48.3444 140.562 48.7605 139.831C49.1765 139.1 49.7445 138.538 50.4642 138.144C51.1839 137.75 51.988 137.554 52.8764 137.554C53.7648 137.554 54.5689 137.75 55.2886 138.144C56.0083 138.538 56.5762 139.1 56.9923 139.831C57.4084 140.562 57.6165 141.4 57.6165 142.344C57.6165 143.289 57.4028 144.127 56.9755 144.858C56.5481 145.589 55.9633 146.157 55.2211 146.561C54.4901 146.955 53.6805 147.152 52.792 147.152ZM52.792 145.482C53.2869 145.482 53.7479 145.364 54.1753 145.128C54.6139 144.891 54.9681 144.537 55.238 144.065C55.5079 143.593 55.6428 143.019 55.6428 142.344C55.6428 141.67 55.5135 141.102 55.2549 140.641C54.9962 140.168 54.6532 139.814 54.2259 139.578C53.7985 139.342 53.3375 139.224 52.8427 139.224C52.3478 139.224 51.8868 139.342 51.4594 139.578C51.0433 139.814 50.7116 140.168 50.4642 140.641C50.2168 141.102 50.0931 141.67 50.0931 142.344C50.0931 143.345 50.3461 144.121 50.8522 144.672C51.3695 145.212 52.0161 145.482 52.792 145.482ZM58.8765 142.311C58.8765 141.377 59.0676 140.551 59.45 139.831C59.8436 139.111 60.3721 138.554 61.0356 138.161C61.7104 137.756 62.4526 137.554 63.2623 137.554C63.9933 137.554 64.6286 137.7 65.1684 137.992C65.7195 138.273 66.1581 138.628 66.4842 139.055V137.705H68.4241V147H66.4842V145.617C66.1581 146.055 65.7139 146.421 65.1516 146.713C64.5893 147.006 63.9483 147.152 63.2286 147.152C62.4301 147.152 61.6991 146.949 61.0356 146.545C60.3721 146.128 59.8436 145.555 59.45 144.824C59.0676 144.082 58.8765 143.244 58.8765 142.311ZM66.4842 142.344C66.4842 141.703 66.3492 141.147 66.0793 140.674C65.8207 140.202 65.4777 139.842 65.0504 139.595C64.623 139.347 64.1619 139.224 63.6671 139.224C63.1723 139.224 62.7112 139.347 62.2839 139.595C61.8566 139.831 61.508 140.185 61.2381 140.657C60.9794 141.118 60.8501 141.67 60.8501 142.311C60.8501 142.952 60.9794 143.514 61.2381 143.997C61.508 144.481 61.8566 144.852 62.2839 145.111C62.7225 145.358 63.1836 145.482 63.6671 145.482C64.1619 145.482 64.623 145.358 65.0504 145.111C65.4777 144.863 65.8207 144.503 66.0793 144.031C66.3492 143.548 66.4842 142.985 66.4842 142.344ZM75.6393 137.554C76.3703 137.554 77.0226 137.705 77.5961 138.009C78.1809 138.313 78.6363 138.763 78.9624 139.359C79.2886 139.955 79.4516 140.674 79.4516 141.518V147H77.5455V141.804C77.5455 140.972 77.3374 140.337 76.9214 139.898C76.5053 139.449 75.9374 139.224 75.2176 139.224C74.4979 139.224 73.9244 139.449 73.497 139.898C73.0809 140.337 72.8729 140.972 72.8729 141.804V147H70.9499V137.705H72.8729V138.768C73.1878 138.386 73.587 138.088 74.0706 137.874C74.5654 137.66 75.0883 137.554 75.6393 137.554ZM93.3544 144.605H88.4456L87.6022 147H85.5948L89.7951 135.259H92.0218L96.222 147H94.1978L93.3544 144.605ZM92.8146 143.036L90.9084 137.587L88.9854 143.036H92.8146ZM109.3 137.554C110.031 137.554 110.683 137.705 111.256 138.009C111.841 138.313 112.297 138.763 112.623 139.359C112.96 139.955 113.129 140.674 113.129 141.518V147H111.223V141.804C111.223 140.972 111.015 140.337 110.599 139.898C110.182 139.449 109.615 139.224 108.895 139.224C108.175 139.224 107.602 139.449 107.174 139.898C106.758 140.337 106.55 140.972 106.55 141.804V147H104.644V141.804C104.644 140.972 104.436 140.337 104.02 139.898C103.604 139.449 103.036 139.224 102.316 139.224C101.596 139.224 101.023 139.449 100.595 139.898C100.179 140.337 99.9713 140.972 99.9713 141.804V147H98.0483V137.705H99.9713V138.768C100.286 138.386 100.685 138.088 101.169 137.874C101.653 137.66 102.17 137.554 102.721 137.554C103.463 137.554 104.127 137.711 104.711 138.026C105.296 138.341 105.746 138.796 106.061 139.392C106.342 138.83 106.781 138.386 107.377 138.06C107.973 137.722 108.614 137.554 109.3 137.554ZM119.607 147.152C118.73 147.152 117.937 146.955 117.229 146.561C116.52 146.157 115.964 145.594 115.559 144.875C115.154 144.144 114.952 143.3 114.952 142.344C114.952 141.4 115.16 140.562 115.576 139.831C115.992 139.1 116.56 138.538 117.28 138.144C117.999 137.75 118.803 137.554 119.692 137.554C120.58 137.554 121.384 137.75 122.104 138.144C122.824 138.538 123.392 139.1 123.808 139.831C124.224 140.562 124.432 141.4 124.432 142.344C124.432 143.289 124.218 144.127 123.791 144.858C123.363 145.589 122.779 146.157 122.036 146.561C121.306 146.955 120.496 147.152 119.607 147.152ZM119.607 145.482C120.102 145.482 120.563 145.364 120.991 145.128C121.429 144.891 121.783 144.537 122.053 144.065C122.323 143.593 122.458 143.019 122.458 142.344C122.458 141.67 122.329 141.102 122.07 140.641C121.812 140.168 121.469 139.814 121.041 139.578C120.614 139.342 120.153 139.224 119.658 139.224C119.163 139.224 118.702 139.342 118.275 139.578C117.859 139.814 117.527 140.168 117.28 140.641C117.032 141.102 116.908 141.67 116.908 142.344C116.908 143.345 117.161 144.121 117.668 144.672C118.185 145.212 118.831 145.482 119.607 145.482ZM134.75 137.705V147H132.827V145.904C132.524 146.286 132.124 146.59 131.63 146.814C131.146 147.028 130.629 147.135 130.078 147.135C129.347 147.135 128.689 146.983 128.104 146.679C127.53 146.376 127.075 145.926 126.738 145.33C126.412 144.734 126.248 144.014 126.248 143.171V137.705H128.155V142.884C128.155 143.716 128.363 144.357 128.779 144.807C129.195 145.246 129.763 145.465 130.482 145.465C131.202 145.465 131.77 145.246 132.186 144.807C132.614 144.357 132.827 143.716 132.827 142.884V137.705H134.75ZM141.977 137.554C142.708 137.554 143.36 137.705 143.934 138.009C144.519 138.313 144.974 138.763 145.3 139.359C145.626 139.955 145.789 140.674 145.789 141.518V147H143.883V141.804C143.883 140.972 143.675 140.337 143.259 139.898C142.843 139.449 142.275 139.224 141.555 139.224C140.836 139.224 140.262 139.449 139.835 139.898C139.419 140.337 139.211 140.972 139.211 141.804V147H137.288V137.705H139.211V138.768C139.525 138.386 139.925 138.088 140.408 137.874C140.903 137.66 141.426 137.554 141.977 137.554ZM150.486 139.274V144.419C150.486 144.768 150.564 145.021 150.722 145.178C150.891 145.324 151.172 145.397 151.565 145.397H152.746V147H151.228C150.362 147 149.699 146.798 149.237 146.393C148.776 145.988 148.546 145.33 148.546 144.419V139.274H147.449V137.705H148.546V135.394H150.486V137.705H152.746V139.274H150.486Z" fill="#555555"/>
<path d="M54.3467 182.537C54.3467 183.414 54.119 184.241 53.6635 185.017C53.225 185.776 52.5671 186.409 51.6899 186.915C50.8296 187.404 49.8091 187.691 48.6283 187.775V189.824H47.0089V187.75C45.322 187.598 43.9641 187.092 42.9351 186.231C41.9061 185.354 41.3748 184.173 41.3411 182.689H45.1365C45.2377 183.904 45.8618 184.637 47.0089 184.89V180.057C45.7944 179.754 44.816 179.45 44.0738 179.147C43.3315 178.843 42.6905 178.354 42.1507 177.679C41.6109 177.004 41.3411 176.085 41.3411 174.921C41.3411 173.453 41.864 172.256 42.9098 171.328C43.9725 170.4 45.3389 169.869 47.0089 169.734V167.684H48.6283V169.734C50.2477 169.869 51.5381 170.358 52.4996 171.201C53.478 172.045 54.0262 173.209 54.1443 174.693H50.3236C50.273 174.204 50.0958 173.782 49.7922 173.428C49.5054 173.057 49.1175 172.796 48.6283 172.644V177.426C49.8934 177.746 50.8887 178.059 51.614 178.362C52.3562 178.649 52.9972 179.13 53.537 179.804C54.0768 180.462 54.3467 181.373 54.3467 182.537ZM45.0353 174.744C45.0353 175.301 45.204 175.756 45.5413 176.11C45.8787 176.448 46.3679 176.726 47.0089 176.945V172.568C46.4016 172.652 45.9209 172.88 45.5666 173.251C45.2124 173.622 45.0353 174.12 45.0353 174.744ZM48.6283 184.941C49.2693 184.823 49.7669 184.561 50.1211 184.157C50.4923 183.752 50.6778 183.263 50.6778 182.689C50.6778 182.132 50.5007 181.685 50.1464 181.348C49.7922 181.011 49.2861 180.732 48.6283 180.513V184.941Z" fill="#3F455D"/>
<path d="M79.1513 173.782C78.9826 173.074 78.6874 172.543 78.2657 172.188C77.8608 171.834 77.2704 171.657 76.4945 171.657C75.3305 171.657 74.4702 172.129 73.9136 173.074C73.3738 174.002 73.0954 175.52 73.0786 177.628C73.4834 176.954 74.0738 176.431 74.8498 176.06C75.6257 175.672 76.4692 175.478 77.3801 175.478C78.4765 175.478 79.4465 175.714 80.2899 176.186C81.1333 176.658 81.7912 177.35 82.2635 178.261C82.7358 179.155 82.972 180.235 82.972 181.5C82.972 182.697 82.7274 183.769 82.2382 184.713C81.7659 185.641 81.0658 186.366 80.1381 186.889C79.2103 187.412 78.1054 187.674 76.8234 187.674C75.0691 187.674 73.6858 187.286 72.6737 186.51C71.6785 185.734 70.9784 184.654 70.5736 183.271C70.1856 181.871 69.9916 180.15 69.9916 178.109C69.9916 175.022 70.523 172.694 71.5857 171.126C72.6484 169.54 74.3268 168.747 76.621 168.747C78.3922 168.747 79.767 169.228 80.7453 170.189C81.7237 171.151 82.2888 172.349 82.4406 173.782H79.1513ZM76.5704 178.388C75.6763 178.388 74.9257 178.649 74.3184 179.172C73.7111 179.695 73.4075 180.454 73.4075 181.449C73.4075 182.444 73.6858 183.229 74.2425 183.802C74.816 184.376 75.6173 184.663 76.6463 184.663C77.5572 184.663 78.2741 184.384 78.797 183.828C79.3368 183.271 79.6067 182.52 79.6067 181.576C79.6067 180.597 79.3452 179.821 78.8223 179.248C78.3163 178.674 77.5656 178.388 76.5704 178.388ZM90.0479 183.904L87.0875 191.014H84.8102L86.4549 183.904H90.0479ZM104.595 172.239H96.3965V176.566C96.7508 176.127 97.2568 175.773 97.9147 175.503C98.5726 175.216 99.2726 175.073 100.015 175.073C101.364 175.073 102.469 175.368 103.33 175.958C104.19 176.549 104.814 177.308 105.202 178.236C105.59 179.147 105.784 180.125 105.784 181.171C105.784 183.111 105.227 184.671 104.114 185.852C103.017 187.033 101.449 187.623 99.4076 187.623C97.4846 187.623 95.9495 187.142 94.8025 186.181C93.6554 185.219 93.006 183.963 92.8541 182.411H96.2953C96.4471 183.085 96.7845 183.625 97.3074 184.03C97.8472 184.435 98.5304 184.637 99.357 184.637C100.352 184.637 101.103 184.325 101.609 183.701C102.115 183.077 102.368 182.25 102.368 181.221C102.368 180.176 102.107 179.383 101.584 178.843C101.078 178.286 100.327 178.008 99.3317 178.008C98.6232 178.008 98.0328 178.185 97.5605 178.539C97.0882 178.894 96.7508 179.366 96.5484 179.956H93.1578V169.127H104.595V172.239ZM108.48 178.16C108.48 175.242 109.003 172.956 110.049 171.303C111.112 169.65 112.866 168.823 115.312 168.823C117.758 168.823 119.504 169.65 120.549 171.303C121.612 172.956 122.144 175.242 122.144 178.16C122.144 181.095 121.612 183.397 120.549 185.067C119.504 186.737 117.758 187.572 115.312 187.572C112.866 187.572 111.112 186.737 110.049 185.067C109.003 183.397 108.48 181.095 108.48 178.16ZM118.652 178.16C118.652 176.912 118.567 175.866 118.399 175.022C118.247 174.162 117.926 173.462 117.437 172.922C116.965 172.382 116.256 172.112 115.312 172.112C114.367 172.112 113.65 172.382 113.161 172.922C112.689 173.462 112.368 174.162 112.2 175.022C112.048 175.866 111.972 176.912 111.972 178.16C111.972 179.442 112.048 180.521 112.2 181.399C112.351 182.259 112.672 182.959 113.161 183.499C113.65 184.022 114.367 184.283 115.312 184.283C116.256 184.283 116.973 184.022 117.463 183.499C117.952 182.959 118.272 182.259 118.424 181.399C118.576 180.521 118.652 179.442 118.652 178.16ZM124.838 178.16C124.838 175.242 125.361 172.956 126.407 171.303C127.469 169.65 129.224 168.823 131.67 168.823C134.116 168.823 135.862 169.65 136.907 171.303C137.97 172.956 138.501 175.242 138.501 178.16C138.501 181.095 137.97 183.397 136.907 185.067C135.862 186.737 134.116 187.572 131.67 187.572C129.224 187.572 127.469 186.737 126.407 185.067C125.361 183.397 124.838 181.095 124.838 178.16ZM135.01 178.16C135.01 176.912 134.925 175.866 134.757 175.022C134.605 174.162 134.284 173.462 133.795 172.922C133.323 172.382 132.614 172.112 131.67 172.112C130.725 172.112 130.008 172.382 129.519 172.922C129.047 173.462 128.726 174.162 128.557 175.022C128.406 175.866 128.33 176.912 128.33 178.16C128.33 179.442 128.406 180.521 128.557 181.399C128.709 182.259 129.03 182.959 129.519 183.499C130.008 184.022 130.725 184.283 131.67 184.283C132.614 184.283 133.331 184.022 133.82 183.499C134.31 182.959 134.63 182.259 134.782 181.399C134.934 180.521 135.01 179.442 135.01 178.16Z" fill="#3F455D"/>
<rect x="40" y="229" width="295" height="8" rx="4" fill="#E5E7EC"/>
<rect x="40" y="229" width="206" height="8" rx="4" fill="#4DDD96"/>
<circle cx="245.869" cy="232.869" r="16.8686" fill="#4DDD96" fill-opacity="0.3"/>
<g filter="url(#filter0_d_219_15139)">
<circle cx="245.868" cy="232.87" r="14.0571" fill="white"/>
</g>
<circle cx="245.868" cy="232.869" r="5.62286" fill="#4DDD96"/>
<path d="M40.992 262.098C40.992 260.263 41.2907 258.834 41.888 257.81C42.4853 256.775 43.5307 256.258 45.024 256.258C46.5067 256.258 47.5467 256.775 48.144 257.81C48.7413 258.834 49.04 260.263 49.04 262.098C49.04 263.965 48.7413 265.415 48.144 266.45C47.5467 267.485 46.5067 268.002 45.024 268.002C43.5307 268.002 42.4853 267.485 41.888 266.45C41.2907 265.415 40.992 263.965 40.992 262.098ZM47.6 262.098C47.6 261.17 47.536 260.386 47.408 259.746C47.2907 259.095 47.04 258.573 46.656 258.178C46.2827 257.783 45.7387 257.586 45.024 257.586C44.2987 257.586 43.744 257.783 43.36 258.178C42.9867 258.573 42.736 259.095 42.608 259.746C42.4907 260.386 42.432 261.17 42.432 262.098C42.432 263.058 42.4907 263.863 42.608 264.514C42.736 265.165 42.9867 265.687 43.36 266.082C43.744 266.477 44.2987 266.674 45.024 266.674C45.7387 266.674 46.2827 266.477 46.656 266.082C47.04 265.687 47.2907 265.165 47.408 264.514C47.536 263.863 47.6 263.058 47.6 262.098Z" fill="#9299B5"/>
<path d="M286.608 257.762V256.434H289.616V268.002H288.144V257.762H286.608ZM292.117 262.098C292.117 260.263 292.416 258.834 293.013 257.81C293.61 256.775 294.656 256.258 296.149 256.258C297.632 256.258 298.672 256.775 299.269 257.81C299.866 258.834 300.165 260.263 300.165 262.098C300.165 263.965 299.866 265.415 299.269 266.45C298.672 267.485 297.632 268.002 296.149 268.002C294.656 268.002 293.61 267.485 293.013 266.45C292.416 265.415 292.117 263.965 292.117 262.098ZM298.725 262.098C298.725 261.17 298.661 260.386 298.533 259.746C298.416 259.095 298.165 258.573 297.781 258.178C297.408 257.783 296.864 257.586 296.149 257.586C295.424 257.586 294.869 257.783 294.485 258.178C294.112 258.573 293.861 259.095 293.733 259.746C293.616 260.386 293.557 261.17 293.557 262.098C293.557 263.058 293.616 263.863 293.733 264.514C293.861 265.165 294.112 265.687 294.485 266.082C294.869 266.477 295.424 266.674 296.149 266.674C296.864 266.674 297.408 266.477 297.781 266.082C298.165 265.687 298.416 265.165 298.533 264.514C298.661 263.863 298.725 263.058 298.725 262.098ZM303.908 265.986L302.116 270.29H301.14L302.308 265.986H303.908ZM305.336 262.098C305.336 260.263 305.634 258.834 306.232 257.81C306.829 256.775 307.874 256.258 309.368 256.258C310.85 256.258 311.89 256.775 312.488 257.81C313.085 258.834 313.384 260.263 313.384 262.098C313.384 263.965 313.085 265.415 312.488 266.45C311.89 267.485 310.85 268.002 309.368 268.002C307.874 268.002 306.829 267.485 306.232 266.45C305.634 265.415 305.336 263.965 305.336 262.098ZM311.944 262.098C311.944 261.17 311.88 260.386 311.752 259.746C311.634 259.095 311.384 258.573 311 258.178C310.626 257.783 310.082 257.586 309.368 257.586C308.642 257.586 308.088 257.783 307.704 258.178C307.33 258.573 307.08 259.095 306.952 259.746C306.834 260.386 306.776 261.17 306.776 262.098C306.776 263.058 306.834 263.863 306.952 264.514C307.08 265.165 307.33 265.687 307.704 266.082C308.088 266.477 308.642 266.674 309.368 266.674C310.082 266.674 310.626 266.477 311 266.082C311.384 265.687 311.634 265.165 311.752 264.514C311.88 263.863 311.944 263.058 311.944 262.098ZM315.383 262.098C315.383 260.263 315.681 258.834 316.279 257.81C316.876 256.775 317.921 256.258 319.415 256.258C320.897 256.258 321.937 256.775 322.535 257.81C323.132 258.834 323.431 260.263 323.431 262.098C323.431 263.965 323.132 265.415 322.535 266.45C321.937 267.485 320.897 268.002 319.415 268.002C317.921 268.002 316.876 267.485 316.279 266.45C315.681 265.415 315.383 263.965 315.383 262.098ZM321.991 262.098C321.991 261.17 321.927 260.386 321.799 259.746C321.681 259.095 321.431 258.573 321.047 258.178C320.673 257.783 320.129 257.586 319.415 257.586C318.689 257.586 318.135 257.783 317.751 258.178C317.377 258.573 317.127 259.095 316.999 259.746C316.881 260.386 316.823 261.17 316.823 262.098C316.823 263.058 316.881 263.863 316.999 264.514C317.127 265.165 317.377 265.687 317.751 266.082C318.135 266.477 318.689 266.674 319.415 266.674C320.129 266.674 320.673 266.477 321.047 266.082C321.431 265.687 321.681 265.165 321.799 264.514C321.927 263.863 321.991 263.058 321.991 262.098ZM325.43 262.098C325.43 260.263 325.728 258.834 326.326 257.81C326.923 256.775 327.968 256.258 329.462 256.258C330.944 256.258 331.984 256.775 332.582 257.81C333.179 258.834 333.477 260.263 333.477 262.098C333.477 263.965 333.179 265.415 332.582 266.45C331.984 267.485 330.944 268.002 329.462 268.002C327.968 268.002 326.923 267.485 326.326 266.45C325.728 265.415 325.43 263.965 325.43 262.098ZM332.038 262.098C332.038 261.17 331.974 260.386 331.846 259.746C331.728 259.095 331.478 258.573 331.094 258.178C330.72 257.783 330.176 257.586 329.462 257.586C328.736 257.586 328.182 257.783 327.798 258.178C327.424 258.573 327.174 259.095 327.046 259.746C326.928 260.386 326.87 261.17 326.87 262.098C326.87 263.058 326.928 263.863 327.046 264.514C327.174 265.165 327.424 265.687 327.798 266.082C328.182 266.477 328.736 266.674 329.462 266.674C330.176 266.674 330.72 266.477 331.094 266.082C331.478 265.687 331.728 265.165 331.846 264.514C331.974 263.863 332.038 263.058 332.038 262.098Z" fill="#9299B5"/>
<rect x="21" y="105" width="333" height="193" rx="15" stroke="#4DDD96" stroke-width="2"/>
</g>
<defs>
<filter id="filter0_d_219_15139" x="226.188" y="218.812" width="39.36" height="39.3609" filterUnits="userSpaceOnUse" color-interpolation-filters="sRGB">
<feFlood flood-opacity="0" result="BackgroundImageFix"/>
<feColorMatrix in="SourceAlpha" type="matrix" values="0 0 0 0 0 0 0 0 0 0 0 0 0 0 0 0 0 0 127 0" result="hardAlpha"/>
<feOffset dy="5.62286"/>
<feGaussianBlur stdDeviation="2.81143"/>
<feComposite in2="hardAlpha" operator="out"/>
<feColorMatrix type="matrix" values="0 0 0 0 0 0 0 0 0 0 0 0 0 0 0 0 0 0 0.08 0"/>
<feBlend mode="normal" in2="BackgroundImageFix" result="effect1_dropShadow_219_15139"/>
<feBlend mode="normal" in="SourceGraphic" in2="effect1_dropShadow_219_15139" result="shape"/>
</filter>
<clipPath id="clip0_219_15139">
<rect width="375" height="600" fill="white"/>
</clipPath>
</defs>
</svg>
