<svg width="604" height="600" viewBox="0 0 604 600" fill="none" xmlns="http://www.w3.org/2000/svg">
<g clip-path="url(#clip0_219_2034)">
<rect width="604" height="600" rx="16" fill="#F3FAF8"/>
<circle opacity="0.4" cx="247.319" cy="421.776" r="292.399" transform="rotate(-19.8815 247.319 421.776)" stroke="#85E6B5" stroke-width="0.793991"/>
<circle opacity="0.4" cx="334.706" cy="354.524" r="292.399" transform="rotate(-19.8815 334.706 354.524)" stroke="#85E6B5" stroke-width="0.793991"/>
<circle opacity="0.4" cx="460.819" cy="308.919" r="292.399" transform="rotate(-19.8815 460.819 308.919)" stroke="#85E6B5" stroke-width="0.793991"/>
<rect x="57" y="119.152" width="490" height="192.834" rx="15" fill="white"/>
<path d="M81.6796 157.093H85.6437V158.645H79.7566V146.921H81.6796V157.093ZM91.2835 158.796C90.4063 158.796 89.6135 158.6 88.905 158.206C88.1966 157.801 87.6399 157.239 87.235 156.519C86.8302 155.788 86.6278 154.945 86.6278 153.989C86.6278 153.044 86.8358 152.206 87.2519 151.475C87.668 150.744 88.2359 150.182 88.9556 149.789C89.6754 149.395 90.4794 149.198 91.3678 149.198C92.2563 149.198 93.0603 149.395 93.78 149.789C94.4998 150.182 95.0677 150.744 95.4838 151.475C95.8999 152.206 96.1079 153.044 96.1079 153.989C96.1079 154.933 95.8942 155.771 95.4669 156.502C95.0396 157.233 94.4548 157.801 93.7126 158.206C92.9816 158.6 92.1719 158.796 91.2835 158.796ZM91.2835 157.126C91.7783 157.126 92.2394 157.008 92.6667 156.772C93.1053 156.536 93.4595 156.182 93.7294 155.709C93.9993 155.237 94.1343 154.664 94.1343 153.989C94.1343 153.314 94.005 152.746 93.7463 152.285C93.4877 151.813 93.1447 151.459 92.7173 151.222C92.29 150.986 91.8289 150.868 91.3341 150.868C90.8393 150.868 90.3782 150.986 89.9509 151.222C89.5348 151.459 89.203 151.813 88.9556 152.285C88.7082 152.746 88.5845 153.314 88.5845 153.989C88.5845 154.99 88.8376 155.766 89.3436 156.317C89.8609 156.856 90.5075 157.126 91.2835 157.126ZM97.3679 153.955C97.3679 153.022 97.5591 152.195 97.9414 151.475C98.335 150.756 98.8636 150.199 99.5271 149.805C100.202 149.401 100.944 149.198 101.754 149.198C102.485 149.198 103.12 149.344 103.66 149.637C104.211 149.918 104.65 150.272 104.976 150.699V149.35H106.916V158.645H104.976V157.261C104.65 157.7 104.205 158.065 103.643 158.358C103.081 158.65 102.44 158.796 101.72 158.796C100.922 158.796 100.191 158.594 99.5271 158.189C98.8636 157.773 98.335 157.199 97.9414 156.468C97.5591 155.726 97.3679 154.888 97.3679 153.955ZM104.976 153.989C104.976 153.348 104.841 152.791 104.571 152.319C104.312 151.846 103.969 151.487 103.542 151.239C103.114 150.992 102.653 150.868 102.159 150.868C101.664 150.868 101.203 150.992 100.775 151.239C100.348 151.475 99.9994 151.83 99.7295 152.302C99.4709 152.763 99.3415 153.314 99.3415 153.955C99.3415 154.596 99.4709 155.158 99.7295 155.642C99.9994 156.125 100.348 156.497 100.775 156.755C101.214 157.003 101.675 157.126 102.159 157.126C102.653 157.126 103.114 157.003 103.542 156.755C103.969 156.508 104.312 156.148 104.571 155.676C104.841 155.192 104.976 154.63 104.976 153.989ZM114.131 149.198C114.862 149.198 115.514 149.35 116.088 149.654C116.672 149.957 117.128 150.407 117.454 151.003C117.78 151.599 117.943 152.319 117.943 153.162V158.645H116.037V153.449C116.037 152.617 115.829 151.981 115.413 151.543C114.997 151.093 114.429 150.868 113.709 150.868C112.989 150.868 112.416 151.093 111.988 151.543C111.572 151.981 111.364 152.617 111.364 153.449V158.645H109.441V149.35H111.364V150.413C111.679 150.03 112.078 149.732 112.562 149.519C113.057 149.305 113.58 149.198 114.131 149.198ZM131.846 156.249H126.937L126.094 158.645H124.086L128.287 146.904H130.513L134.713 158.645H132.689L131.846 156.249ZM131.306 154.68L129.4 149.232L127.477 154.68H131.306ZM147.791 149.198C148.522 149.198 149.174 149.35 149.748 149.654C150.333 149.957 150.788 150.407 151.114 151.003C151.452 151.599 151.62 152.319 151.62 153.162V158.645H149.714V153.449C149.714 152.617 149.506 151.981 149.09 151.543C148.674 151.093 148.106 150.868 147.386 150.868C146.667 150.868 146.093 151.093 145.666 151.543C145.25 151.981 145.042 152.617 145.042 153.449V158.645H143.135V153.449C143.135 152.617 142.927 151.981 142.511 151.543C142.095 151.093 141.527 150.868 140.808 150.868C140.088 150.868 139.514 151.093 139.087 151.543C138.671 151.981 138.463 152.617 138.463 153.449V158.645H136.54V149.35H138.463V150.413C138.778 150.03 139.177 149.732 139.66 149.519C140.144 149.305 140.661 149.198 141.212 149.198C141.955 149.198 142.618 149.356 143.203 149.67C143.788 149.985 144.237 150.441 144.552 151.037C144.833 150.475 145.272 150.03 145.868 149.704C146.464 149.367 147.105 149.198 147.791 149.198ZM158.099 158.796C157.222 158.796 156.429 158.6 155.72 158.206C155.012 157.801 154.455 157.239 154.05 156.519C153.646 155.788 153.443 154.945 153.443 153.989C153.443 153.044 153.651 152.206 154.067 151.475C154.483 150.744 155.051 150.182 155.771 149.789C156.491 149.395 157.295 149.198 158.183 149.198C159.072 149.198 159.876 149.395 160.595 149.789C161.315 150.182 161.883 150.744 162.299 151.475C162.715 152.206 162.923 153.044 162.923 153.989C162.923 154.933 162.71 155.771 162.282 156.502C161.855 157.233 161.27 157.801 160.528 158.206C159.797 158.6 158.987 158.796 158.099 158.796ZM158.099 157.126C158.594 157.126 159.055 157.008 159.482 156.772C159.921 156.536 160.275 156.182 160.545 155.709C160.815 155.237 160.95 154.664 160.95 153.989C160.95 153.314 160.82 152.746 160.562 152.285C160.303 151.813 159.96 151.459 159.533 151.222C159.105 150.986 158.644 150.868 158.149 150.868C157.655 150.868 157.194 150.986 156.766 151.222C156.35 151.459 156.018 151.813 155.771 152.285C155.524 152.746 155.4 153.314 155.4 153.989C155.4 154.99 155.653 155.766 156.159 156.317C156.676 156.856 157.323 157.126 158.099 157.126ZM173.242 149.35V158.645H171.319V157.548C171.015 157.93 170.616 158.234 170.121 158.459C169.637 158.673 169.12 158.779 168.569 158.779C167.838 158.779 167.18 158.628 166.595 158.324C166.022 158.02 165.566 157.571 165.229 156.975C164.903 156.379 164.74 155.659 164.74 154.815V149.35H166.646V154.529C166.646 155.361 166.854 156.002 167.27 156.452C167.686 156.89 168.254 157.109 168.974 157.109C169.694 157.109 170.262 156.89 170.678 156.452C171.105 156.002 171.319 155.361 171.319 154.529V149.35H173.242ZM180.468 149.198C181.199 149.198 181.852 149.35 182.425 149.654C183.01 149.957 183.465 150.407 183.792 151.003C184.118 151.599 184.281 152.319 184.281 153.162V158.645H182.375V153.449C182.375 152.617 182.167 151.981 181.75 151.543C181.334 151.093 180.766 150.868 180.047 150.868C179.327 150.868 178.753 151.093 178.326 151.543C177.91 151.981 177.702 152.617 177.702 153.449V158.645H175.779V149.35H177.702V150.413C178.017 150.03 178.416 149.732 178.9 149.519C179.394 149.305 179.917 149.198 180.468 149.198ZM188.977 150.919V156.064C188.977 156.412 189.056 156.665 189.213 156.823C189.382 156.969 189.663 157.042 190.057 157.042H191.238V158.645H189.719C188.853 158.645 188.19 158.442 187.729 158.037C187.268 157.632 187.037 156.975 187.037 156.064V150.919H185.941V149.35H187.037V147.039H188.977V149.35H191.238V150.919H188.977Z" fill="#555555"/>
<path d="M92.8382 194.182C92.8382 195.059 92.6104 195.885 92.155 196.661C91.7164 197.42 91.0585 198.053 90.1814 198.559C89.3211 199.048 88.3005 199.335 87.1197 199.419V201.469H85.5003V199.394C83.8135 199.242 82.4556 198.736 81.4266 197.876C80.3976 196.999 79.8662 195.818 79.8325 194.334H83.6279C83.7291 195.548 84.3533 196.282 85.5003 196.535V191.702C84.2858 191.398 83.3074 191.095 82.5652 190.791C81.823 190.487 81.182 189.998 80.6422 189.324C80.1024 188.649 79.8325 187.729 79.8325 186.566C79.8325 185.098 80.3554 183.9 81.4013 182.973C82.464 182.045 83.8304 181.513 85.5003 181.378V179.329H87.1197V181.378C88.7391 181.513 90.0296 182.003 90.9911 182.846C91.9694 183.689 92.5177 184.853 92.6358 186.338H88.815C88.7644 185.849 88.5873 185.427 88.2837 185.073C87.9969 184.702 87.6089 184.44 87.1197 184.288V189.071C88.3849 189.391 89.3801 189.703 90.1055 190.007C90.8477 190.293 91.4887 190.774 92.0285 191.449C92.5683 192.107 92.8382 193.018 92.8382 194.182ZM83.5267 186.388C83.5267 186.945 83.6954 187.401 84.0328 187.755C84.3702 188.092 84.8593 188.37 85.5003 188.59V184.212C84.8931 184.297 84.4123 184.524 84.0581 184.896C83.7038 185.267 83.5267 185.764 83.5267 186.388ZM87.1197 196.585C87.7607 196.467 88.2584 196.206 88.6126 195.801C88.9837 195.396 89.1693 194.907 89.1693 194.334C89.1693 193.777 88.9921 193.33 88.6379 192.992C88.2837 192.655 87.7776 192.377 87.1197 192.157V196.585Z" fill="#3F455D"/>
<path d="M117.643 185.427C117.474 184.718 117.179 184.187 116.757 183.833C116.352 183.479 115.762 183.301 114.986 183.301C113.822 183.301 112.962 183.774 112.405 184.718C111.865 185.646 111.587 187.164 111.57 189.273C111.975 188.598 112.565 188.075 113.341 187.704C114.117 187.316 114.961 187.122 115.872 187.122C116.968 187.122 117.938 187.358 118.781 187.831C119.625 188.303 120.283 188.995 120.755 189.906C121.227 190.8 121.463 191.879 121.463 193.144C121.463 194.342 121.219 195.413 120.73 196.358C120.257 197.286 119.557 198.011 118.63 198.534C117.702 199.057 116.597 199.318 115.315 199.318C113.561 199.318 112.177 198.93 111.165 198.154C110.17 197.378 109.47 196.299 109.065 194.915C108.677 193.515 108.483 191.795 108.483 189.754C108.483 186.667 109.014 184.339 110.077 182.77C111.14 181.184 112.818 180.392 115.112 180.392C116.884 180.392 118.258 180.872 119.237 181.834C120.215 182.795 120.78 183.993 120.932 185.427H117.643ZM115.062 190.032C114.168 190.032 113.417 190.293 112.81 190.816C112.203 191.339 111.899 192.098 111.899 193.094C111.899 194.089 112.177 194.873 112.734 195.447C113.307 196.02 114.109 196.307 115.138 196.307C116.049 196.307 116.766 196.029 117.288 195.472C117.828 194.915 118.098 194.165 118.098 193.22C118.098 192.242 117.837 191.466 117.314 190.892C116.808 190.319 116.057 190.032 115.062 190.032ZM128.539 195.548L125.579 202.658H123.302L124.946 195.548H128.539ZM143.086 183.883H134.888V188.21C135.242 187.772 135.748 187.417 136.406 187.148C137.064 186.861 137.764 186.717 138.506 186.717C139.856 186.717 140.961 187.013 141.821 187.603C142.681 188.193 143.305 188.952 143.693 189.88C144.081 190.791 144.275 191.769 144.275 192.815C144.275 194.755 143.719 196.316 142.605 197.496C141.509 198.677 139.94 199.268 137.899 199.268C135.976 199.268 134.441 198.787 133.294 197.825C132.147 196.864 131.497 195.607 131.346 194.055H134.787C134.939 194.73 135.276 195.27 135.799 195.675C136.339 196.079 137.022 196.282 137.848 196.282C138.844 196.282 139.594 195.97 140.1 195.346C140.606 194.721 140.859 193.895 140.859 192.866C140.859 191.82 140.598 191.027 140.075 190.487C139.569 189.931 138.818 189.652 137.823 189.652C137.115 189.652 136.524 189.83 136.052 190.184C135.58 190.538 135.242 191.01 135.04 191.601H131.649V180.771H143.086V183.883ZM146.971 189.804C146.971 186.886 147.494 184.6 148.54 182.947C149.603 181.294 151.357 180.468 153.803 180.468C156.249 180.468 157.995 181.294 159.041 182.947C160.104 184.6 160.635 186.886 160.635 189.804C160.635 192.739 160.104 195.042 159.041 196.712C157.995 198.382 156.249 199.217 153.803 199.217C151.357 199.217 149.603 198.382 148.54 196.712C147.494 195.042 146.971 192.739 146.971 189.804ZM157.143 189.804C157.143 188.556 157.059 187.51 156.89 186.667C156.738 185.806 156.418 185.106 155.929 184.567C155.456 184.027 154.748 183.757 153.803 183.757C152.859 183.757 152.142 184.027 151.653 184.567C151.18 185.106 150.86 185.806 150.691 186.667C150.539 187.51 150.463 188.556 150.463 189.804C150.463 191.086 150.539 192.166 150.691 193.043C150.843 193.903 151.163 194.603 151.653 195.143C152.142 195.666 152.859 195.928 153.803 195.928C154.748 195.928 155.465 195.666 155.954 195.143C156.443 194.603 156.764 193.903 156.916 193.043C157.067 192.166 157.143 191.086 157.143 189.804ZM163.329 189.804C163.329 186.886 163.852 184.6 164.898 182.947C165.961 181.294 167.715 180.468 170.161 180.468C172.607 180.468 174.353 181.294 175.399 182.947C176.462 184.6 176.993 186.886 176.993 189.804C176.993 192.739 176.462 195.042 175.399 196.712C174.353 198.382 172.607 199.217 170.161 199.217C167.715 199.217 165.961 198.382 164.898 196.712C163.852 195.042 163.329 192.739 163.329 189.804ZM173.501 189.804C173.501 188.556 173.417 187.51 173.248 186.667C173.096 185.806 172.776 185.106 172.287 184.567C171.814 184.027 171.106 183.757 170.161 183.757C169.217 183.757 168.5 184.027 168.01 184.567C167.538 185.106 167.218 185.806 167.049 186.667C166.897 187.51 166.821 188.556 166.821 189.804C166.821 191.086 166.897 192.166 167.049 193.043C167.201 193.903 167.521 194.603 168.01 195.143C168.5 195.666 169.217 195.928 170.161 195.928C171.106 195.928 171.823 195.666 172.312 195.143C172.801 194.603 173.122 193.903 173.273 193.043C173.425 192.166 173.501 191.086 173.501 189.804Z" fill="#3F455D"/>
<rect x="78.4917" y="244.412" width="447.017" height="8.43429" rx="4.21714" fill="#E5E7EC"/>
<rect x="78.4917" y="244.412" width="296.606" height="8.43429" rx="4.21714" fill="#4DDD96"/>
<circle cx="368.069" cy="248.628" r="16.8686" fill="#4DDD96" fill-opacity="0.3"/>
<g filter="url(#filter0_d_219_2034)">
<circle cx="368.069" cy="248.629" r="14.0571" fill="white"/>
</g>
<circle cx="368.069" cy="248.629" r="5.62286" fill="#4DDD96"/>
<path d="M79.5376 277.272C79.5376 275.337 79.8524 273.83 80.4822 272.751C81.112 271.66 82.214 271.115 83.7884 271.115C85.3516 271.115 86.448 271.66 87.0778 272.751C87.7076 273.83 88.0224 275.337 88.0224 277.272C88.0224 279.24 87.7076 280.769 87.0778 281.86C86.448 282.951 85.3516 283.496 83.7884 283.496C82.214 283.496 81.112 282.951 80.4822 281.86C79.8524 280.769 79.5376 279.24 79.5376 277.272ZM86.5043 277.272C86.5043 276.293 86.4368 275.467 86.3018 274.792C86.1781 274.106 85.9139 273.555 85.509 273.139C85.1154 272.723 84.5419 272.515 83.7884 272.515C83.0237 272.515 82.4389 272.723 82.0341 273.139C81.6405 273.555 81.3762 274.106 81.2413 274.792C81.1176 275.467 81.0557 276.293 81.0557 277.272C81.0557 278.284 81.1176 279.133 81.2413 279.819C81.3762 280.505 81.6405 281.056 82.0341 281.472C82.4389 281.888 83.0237 282.096 83.7884 282.096C84.5419 282.096 85.1154 281.888 85.509 281.472C85.9139 281.056 86.1781 280.505 86.3018 279.819C86.4368 279.133 86.5043 278.284 86.5043 277.272Z" fill="#9299B5"/>
<path d="M474.15 272.7V271.3H477.321V283.496H475.769V272.7H474.15ZM479.958 277.272C479.958 275.337 480.273 273.83 480.902 272.751C481.532 271.66 482.634 271.115 484.209 271.115C485.772 271.115 486.868 271.66 487.498 272.751C488.128 273.83 488.443 275.337 488.443 277.272C488.443 279.24 488.128 280.769 487.498 281.86C486.868 282.951 485.772 283.496 484.209 283.496C482.634 283.496 481.532 282.951 480.902 281.86C480.273 280.769 479.958 279.24 479.958 277.272ZM486.925 277.272C486.925 276.293 486.857 275.467 486.722 274.792C486.598 274.106 486.334 273.555 485.929 273.139C485.536 272.723 484.962 272.515 484.209 272.515C483.444 272.515 482.859 272.723 482.454 273.139C482.061 273.555 481.797 274.106 481.662 274.792C481.538 275.467 481.476 276.293 481.476 277.272C481.476 278.284 481.538 279.133 481.662 279.819C481.797 280.505 482.061 281.056 482.454 281.472C482.859 281.888 483.444 282.096 484.209 282.096C484.962 282.096 485.536 281.888 485.929 281.472C486.334 281.056 486.598 280.505 486.722 279.819C486.857 279.133 486.925 278.284 486.925 277.272ZM492.389 281.371L490.5 285.908H489.471L490.702 281.371H492.389ZM493.894 277.272C493.894 275.337 494.209 273.83 494.839 272.751C495.469 271.66 496.571 271.115 498.145 271.115C499.708 271.115 500.805 271.66 501.434 272.751C502.064 273.83 502.379 275.337 502.379 277.272C502.379 279.24 502.064 280.769 501.434 281.86C500.805 282.951 499.708 283.496 498.145 283.496C496.571 283.496 495.469 282.951 494.839 281.86C494.209 280.769 493.894 279.24 493.894 277.272ZM500.861 277.272C500.861 276.293 500.793 275.467 500.658 274.792C500.535 274.106 500.271 273.555 499.866 273.139C499.472 272.723 498.899 272.515 498.145 272.515C497.38 272.515 496.796 272.723 496.391 273.139C495.997 273.555 495.733 274.106 495.598 274.792C495.474 275.467 495.412 276.293 495.412 277.272C495.412 278.284 495.474 279.133 495.598 279.819C495.733 280.505 495.997 281.056 496.391 281.472C496.796 281.888 497.38 282.096 498.145 282.096C498.899 282.096 499.472 281.888 499.866 281.472C500.271 281.056 500.535 280.505 500.658 279.819C500.793 279.133 500.861 278.284 500.861 277.272ZM504.486 277.272C504.486 275.337 504.801 273.83 505.431 272.751C506.061 271.66 507.163 271.115 508.737 271.115C510.301 271.115 511.397 271.66 512.027 272.751C512.656 273.83 512.971 275.337 512.971 277.272C512.971 279.24 512.656 280.769 512.027 281.86C511.397 282.951 510.301 283.496 508.737 283.496C507.163 283.496 506.061 282.951 505.431 281.86C504.801 280.769 504.486 279.24 504.486 277.272ZM511.453 277.272C511.453 276.293 511.386 275.467 511.251 274.792C511.127 274.106 510.863 273.555 510.458 273.139C510.064 272.723 509.491 272.515 508.737 272.515C507.973 272.515 507.388 272.723 506.983 273.139C506.589 273.555 506.325 274.106 506.19 274.792C506.066 275.467 506.005 276.293 506.005 277.272C506.005 278.284 506.066 279.133 506.19 279.819C506.325 280.505 506.589 281.056 506.983 281.472C507.388 281.888 507.973 282.096 508.737 282.096C509.491 282.096 510.064 281.888 510.458 281.472C510.863 281.056 511.127 280.505 511.251 279.819C511.386 279.133 511.453 278.284 511.453 277.272ZM515.079 277.272C515.079 275.337 515.394 273.83 516.023 272.751C516.653 271.66 517.755 271.115 519.33 271.115C520.893 271.115 521.989 271.66 522.619 272.751C523.249 273.83 523.564 275.337 523.564 277.272C523.564 279.24 523.249 280.769 522.619 281.86C521.989 282.951 520.893 283.496 519.33 283.496C517.755 283.496 516.653 282.951 516.023 281.86C515.394 280.769 515.079 279.24 515.079 277.272ZM522.045 277.272C522.045 276.293 521.978 275.467 521.843 274.792C521.719 274.106 521.455 273.555 521.05 273.139C520.657 272.723 520.083 272.515 519.33 272.515C518.565 272.515 517.98 272.723 517.575 273.139C517.182 273.555 516.917 274.106 516.782 274.792C516.659 275.467 516.597 276.293 516.597 277.272C516.597 278.284 516.659 279.133 516.782 279.819C516.917 280.505 517.182 281.056 517.575 281.472C517.98 281.888 518.565 282.096 519.33 282.096C520.083 282.096 520.657 281.888 521.05 281.472C521.455 281.056 521.719 280.505 521.843 279.819C521.978 279.133 522.045 278.284 522.045 277.272Z" fill="#9299B5"/>
<rect x="57" y="119.152" width="490" height="192.834" rx="15" stroke="#4DDD96" stroke-width="2"/>
<path d="M95 312.986H509V466.198C509 475.034 501.837 482.198 493 482.198H111C102.163 482.198 95 475.034 95 466.198V312.986Z" fill="white"/>
<path d="M121.926 349.618C121.509 349.611 121.091 349.532 120.673 349.379C120.256 349.227 119.875 348.97 119.53 348.608C119.185 348.244 118.908 347.752 118.7 347.132C118.491 346.509 118.386 345.727 118.386 344.785C118.386 343.884 118.471 343.085 118.64 342.389C118.809 341.69 119.054 341.101 119.376 340.624C119.697 340.144 120.085 339.779 120.539 339.53C120.996 339.282 121.512 339.157 122.085 339.157C122.655 339.157 123.162 339.272 123.607 339.501C124.054 339.726 124.419 340.041 124.7 340.445C124.982 340.849 125.164 341.315 125.247 341.842H124.034C123.921 341.385 123.703 341.005 123.378 340.704C123.053 340.402 122.622 340.251 122.085 340.251C121.296 340.251 120.675 340.594 120.221 341.28C119.77 341.966 119.543 342.929 119.54 344.169H119.619C119.805 343.887 120.025 343.647 120.281 343.448C120.539 343.246 120.824 343.09 121.136 342.981C121.447 342.871 121.777 342.817 122.125 342.817C122.708 342.817 123.242 342.962 123.726 343.254C124.21 343.542 124.598 343.942 124.889 344.452C125.181 344.959 125.327 345.541 125.327 346.197C125.327 346.827 125.186 347.404 124.904 347.927C124.622 348.448 124.226 348.862 123.716 349.17C123.209 349.475 122.612 349.624 121.926 349.618ZM121.926 348.524C122.344 348.524 122.718 348.42 123.05 348.211C123.384 348.002 123.648 347.722 123.84 347.371C124.036 347.019 124.134 346.628 124.134 346.197C124.134 345.776 124.039 345.394 123.85 345.049C123.665 344.701 123.408 344.424 123.08 344.219C122.755 344.013 122.384 343.91 121.966 343.91C121.651 343.91 121.358 343.973 121.086 344.099C120.814 344.222 120.575 344.391 120.37 344.606C120.168 344.822 120.009 345.069 119.893 345.347C119.777 345.622 119.719 345.912 119.719 346.217C119.719 346.622 119.813 346.999 120.002 347.351C120.194 347.702 120.456 347.985 120.788 348.201C121.122 348.416 121.502 348.524 121.926 348.524ZM130.603 349.618C129.854 349.618 129.216 349.414 128.689 349.006C128.162 348.595 127.759 348 127.481 347.221C127.202 346.439 127.063 345.495 127.063 344.388C127.063 343.287 127.202 342.348 127.481 341.569C127.762 340.787 128.167 340.19 128.694 339.779C129.224 339.365 129.86 339.157 130.603 339.157C131.345 339.157 131.98 339.365 132.507 339.779C133.037 340.19 133.442 340.787 133.72 341.569C134.002 342.348 134.143 343.287 134.143 344.388C134.143 345.495 134.003 346.439 133.725 347.221C133.447 348 133.044 348.595 132.517 349.006C131.99 349.414 131.352 349.618 130.603 349.618ZM130.603 348.524C131.345 348.524 131.922 348.166 132.333 347.45C132.744 346.734 132.949 345.713 132.949 344.388C132.949 343.506 132.855 342.755 132.666 342.135C132.48 341.516 132.212 341.043 131.861 340.719C131.513 340.394 131.093 340.231 130.603 340.231C129.867 340.231 129.292 340.594 128.878 341.32C128.463 342.043 128.256 343.065 128.256 344.388C128.256 345.269 128.349 346.018 128.535 346.635C128.72 347.251 128.987 347.72 129.335 348.042C129.686 348.363 130.109 348.524 130.603 348.524ZM140.427 344.567V345.66H135.972V344.567H140.427ZM145.375 349.638C144.738 349.638 144.176 349.477 143.689 349.155C143.202 348.831 142.821 348.373 142.546 347.783C142.271 347.19 142.133 346.489 142.133 345.68C142.133 344.878 142.271 344.182 142.546 343.592C142.821 343.002 143.204 342.546 143.694 342.225C144.185 341.903 144.752 341.743 145.395 341.743C145.892 341.743 146.284 341.826 146.573 341.991C146.864 342.154 147.087 342.339 147.239 342.548C147.395 342.754 147.516 342.923 147.602 343.055H147.701V339.297H148.875V349.479H147.741V348.305H147.602C147.516 348.444 147.393 348.62 147.234 348.832C147.075 349.041 146.848 349.228 146.553 349.394C146.258 349.556 145.865 349.638 145.375 349.638ZM145.534 348.584C146.004 348.584 146.402 348.461 146.727 348.216C147.052 347.967 147.299 347.624 147.468 347.187C147.637 346.746 147.721 346.237 147.721 345.66C147.721 345.09 147.638 344.591 147.473 344.164C147.307 343.733 147.062 343.398 146.737 343.16C146.412 342.918 146.011 342.797 145.534 342.797C145.037 342.797 144.622 342.924 144.291 343.18C143.963 343.431 143.716 343.774 143.55 344.209C143.388 344.64 143.306 345.123 143.306 345.66C143.306 346.204 143.389 346.698 143.555 347.142C143.724 347.583 143.973 347.934 144.301 348.196C144.632 348.454 145.043 348.584 145.534 348.584ZM153.434 349.657C152.95 349.657 152.511 349.566 152.116 349.384C151.722 349.198 151.408 348.932 151.176 348.584C150.944 348.232 150.828 347.808 150.828 347.311C150.828 346.873 150.915 346.519 151.087 346.247C151.259 345.972 151.49 345.756 151.778 345.601C152.066 345.445 152.385 345.329 152.733 345.253C153.084 345.173 153.437 345.11 153.792 345.064C154.256 345.004 154.632 344.959 154.92 344.93C155.212 344.896 155.424 344.842 155.556 344.765C155.692 344.689 155.76 344.557 155.76 344.368V344.328C155.76 343.837 155.626 343.456 155.358 343.184C155.092 342.913 154.69 342.777 154.149 342.777C153.589 342.777 153.15 342.899 152.832 343.145C152.514 343.39 152.29 343.652 152.161 343.93L151.047 343.532C151.246 343.068 151.511 342.707 151.843 342.449C152.177 342.187 152.542 342.005 152.936 341.902C153.334 341.796 153.725 341.743 154.11 341.743C154.355 341.743 154.637 341.773 154.955 341.832C155.276 341.889 155.586 342.006 155.885 342.185C156.186 342.364 156.436 342.634 156.635 342.996C156.834 343.357 156.934 343.841 156.934 344.447V349.479H155.76V348.444H155.701C155.621 348.61 155.488 348.787 155.303 348.976C155.117 349.165 154.87 349.326 154.562 349.459C154.254 349.591 153.878 349.657 153.434 349.657ZM153.613 348.604C154.077 348.604 154.468 348.512 154.786 348.33C155.107 348.148 155.349 347.912 155.512 347.624C155.677 347.336 155.76 347.032 155.76 346.714V345.64C155.711 345.7 155.601 345.755 155.432 345.805C155.266 345.851 155.074 345.892 154.855 345.929C154.64 345.962 154.43 345.992 154.224 346.018C154.022 346.041 153.858 346.061 153.732 346.078C153.427 346.118 153.142 346.182 152.877 346.272C152.615 346.358 152.403 346.489 152.24 346.665C152.081 346.837 152.002 347.072 152.002 347.371C152.002 347.778 152.153 348.086 152.454 348.295C152.759 348.501 153.145 348.604 153.613 348.604ZM159.557 352.342C159.358 352.342 159.181 352.326 159.025 352.292C158.87 352.263 158.762 352.233 158.702 352.203L159.001 351.169C159.286 351.242 159.537 351.268 159.756 351.248C159.975 351.229 160.169 351.131 160.338 350.955C160.51 350.783 160.668 350.503 160.81 350.115L161.029 349.518L158.205 341.842H159.478L161.586 347.927H161.665L163.773 341.842H165.046L161.804 350.592C161.659 350.987 161.478 351.313 161.263 351.572C161.047 351.833 160.797 352.027 160.512 352.153C160.23 352.279 159.912 352.342 159.557 352.342ZM170.532 349.479V341.842H171.666V343.035H171.765C171.924 342.628 172.181 342.311 172.536 342.086C172.89 341.857 173.316 341.743 173.813 341.743C174.317 341.743 174.736 341.857 175.071 342.086C175.409 342.311 175.673 342.628 175.862 343.035H175.941C176.137 342.641 176.43 342.328 176.821 342.096C177.212 341.86 177.681 341.743 178.228 341.743C178.911 341.743 179.469 341.956 179.904 342.384C180.338 342.808 180.555 343.47 180.555 344.368V349.479H179.382V344.368C179.382 343.804 179.227 343.402 178.919 343.16C178.611 342.918 178.248 342.797 177.83 342.797C177.293 342.797 176.878 342.959 176.583 343.284C176.288 343.605 176.14 344.013 176.14 344.507V349.479H174.947V344.248C174.947 343.814 174.806 343.465 174.524 343.199C174.243 342.931 173.88 342.797 173.436 342.797C173.131 342.797 172.846 342.878 172.58 343.04C172.319 343.203 172.106 343.428 171.944 343.716C171.785 344.001 171.705 344.331 171.705 344.706V349.479H170.532ZM182.7 349.479V341.842H183.873V349.479H182.7ZM183.297 340.569C183.068 340.569 182.871 340.492 182.705 340.336C182.543 340.18 182.461 339.993 182.461 339.774C182.461 339.555 182.543 339.368 182.705 339.212C182.871 339.056 183.068 338.979 183.297 338.979C183.525 338.979 183.721 339.056 183.883 339.212C184.049 339.368 184.132 339.555 184.132 339.774C184.132 339.993 184.049 340.18 183.883 340.336C183.721 340.492 183.525 340.569 183.297 340.569ZM187.196 344.885V349.479H186.022V341.842H187.156V343.035H187.255C187.434 342.648 187.706 342.336 188.071 342.101C188.435 341.862 188.906 341.743 189.483 341.743C190 341.743 190.452 341.849 190.84 342.061C191.228 342.27 191.529 342.588 191.745 343.015C191.96 343.44 192.068 343.977 192.068 344.626V349.479H190.895V344.706C190.895 344.106 190.739 343.639 190.427 343.304C190.116 342.966 189.688 342.797 189.145 342.797C188.77 342.797 188.435 342.878 188.14 343.04C187.849 343.203 187.618 343.44 187.449 343.751C187.28 344.063 187.196 344.441 187.196 344.885ZM194.212 349.479V341.842H195.385V349.479H194.212ZM194.808 340.569C194.58 340.569 194.382 340.492 194.217 340.336C194.054 340.18 193.973 339.993 193.973 339.774C193.973 339.555 194.054 339.368 194.217 339.212C194.382 339.056 194.58 338.979 194.808 338.979C195.037 338.979 195.233 339.056 195.395 339.212C195.561 339.368 195.644 339.555 195.644 339.774C195.644 339.993 195.561 340.18 195.395 340.336C195.233 340.492 195.037 340.569 194.808 340.569ZM197.534 349.479V341.842H198.668V343.035H198.767C198.926 342.628 199.183 342.311 199.538 342.086C199.892 341.857 200.318 341.743 200.815 341.743C201.319 341.743 201.738 341.857 202.073 342.086C202.411 342.311 202.675 342.628 202.864 343.035H202.943C203.139 342.641 203.432 342.328 203.823 342.096C204.214 341.86 204.683 341.743 205.23 341.743C205.913 341.743 206.471 341.956 206.906 342.384C207.34 342.808 207.557 343.47 207.557 344.368V349.479H206.384V344.368C206.384 343.804 206.229 343.402 205.921 343.16C205.613 342.918 205.25 342.797 204.832 342.797C204.295 342.797 203.879 342.959 203.584 343.284C203.29 343.605 203.142 344.013 203.142 344.507V349.479H201.949V344.248C201.949 343.814 201.808 343.465 201.526 343.199C201.245 342.931 200.882 342.797 200.437 342.797C200.133 342.797 199.848 342.878 199.582 343.04C199.321 343.203 199.108 343.428 198.946 343.716C198.787 344.001 198.707 344.331 198.707 344.706V349.479H197.534ZM214.515 346.356V341.842H215.688V349.479H214.515V348.186H214.435C214.256 348.574 213.978 348.903 213.6 349.175C213.222 349.444 212.745 349.578 212.168 349.578C211.691 349.578 211.266 349.474 210.895 349.265C210.524 349.053 210.232 348.734 210.02 348.31C209.808 347.883 209.702 347.344 209.702 346.694V341.842H210.875V346.615C210.875 347.172 211.031 347.616 211.343 347.947C211.658 348.279 212.059 348.444 212.546 348.444C212.837 348.444 213.134 348.37 213.436 348.221C213.741 348.072 213.996 347.843 214.201 347.535C214.41 347.226 214.515 346.834 214.515 346.356ZM217.837 349.479V341.842H218.97V343.035H219.07C219.229 342.628 219.486 342.311 219.84 342.086C220.195 341.857 220.621 341.743 221.118 341.743C221.622 341.743 222.041 341.857 222.376 342.086C222.714 342.311 222.977 342.628 223.166 343.035H223.246C223.441 342.641 223.735 342.328 224.126 342.096C224.517 341.86 224.986 341.743 225.533 341.743C226.216 341.743 226.774 341.956 227.208 342.384C227.642 342.808 227.86 343.47 227.86 344.368V349.479H226.686V344.368C226.686 343.804 226.532 343.402 226.224 343.16C225.916 342.918 225.553 342.797 225.135 342.797C224.598 342.797 224.182 342.959 223.887 343.284C223.592 343.605 223.445 344.013 223.445 344.507V349.479H222.252V344.248C222.252 343.814 222.111 343.465 221.829 343.199C221.547 342.931 221.184 342.797 220.74 342.797C220.435 342.797 220.15 342.878 219.885 343.04C219.623 343.203 219.411 343.428 219.249 343.716C219.09 344.001 219.01 344.331 219.01 344.706V349.479H217.837Z" fill="#475467"/>
<path d="M444.63 350.751V338.024H445.445V350.751H444.63ZM447.18 341.971C447.127 341.501 446.909 341.136 446.524 340.878C446.14 340.616 445.656 340.485 445.072 340.485C444.655 340.485 444.294 340.551 443.989 340.684C443.684 340.813 443.447 340.992 443.278 341.221C443.112 341.446 443.029 341.703 443.029 341.991C443.029 342.233 443.085 342.442 443.198 342.618C443.314 342.793 443.465 342.941 443.651 343.06C443.84 343.176 444.042 343.274 444.257 343.354C444.473 343.43 444.68 343.493 444.879 343.542L445.873 343.801C446.198 343.881 446.531 343.988 446.872 344.124C447.214 344.26 447.53 344.439 447.822 344.661C448.113 344.883 448.349 345.158 448.528 345.486C448.71 345.814 448.801 346.207 448.801 346.665C448.801 347.241 448.652 347.753 448.354 348.201C448.059 348.648 447.63 349.001 447.066 349.26C446.506 349.518 445.828 349.648 445.033 349.648C444.27 349.648 443.611 349.527 443.054 349.285C442.497 349.043 442.061 348.7 441.746 348.256C441.432 347.808 441.258 347.278 441.224 346.665H442.766C442.795 347.032 442.915 347.339 443.124 347.584C443.336 347.826 443.606 348.007 443.934 348.126C444.265 348.242 444.628 348.3 445.023 348.3C445.457 348.3 445.843 348.232 446.181 348.096C446.523 347.957 446.791 347.765 446.987 347.52C447.182 347.271 447.28 346.981 447.28 346.65C447.28 346.348 447.194 346.101 447.021 345.909C446.852 345.717 446.622 345.558 446.33 345.432C446.042 345.306 445.715 345.195 445.351 345.099L444.148 344.77C443.332 344.548 442.686 344.222 442.209 343.791C441.735 343.36 441.498 342.79 441.498 342.081C441.498 341.494 441.657 340.982 441.975 340.545C442.293 340.107 442.724 339.767 443.268 339.525C443.811 339.28 444.425 339.157 445.107 339.157C445.797 339.157 446.405 339.278 446.932 339.52C447.462 339.762 447.88 340.095 448.185 340.52C448.49 340.941 448.649 341.425 448.662 341.971H447.18ZM454.361 339.297V349.479H452.819V340.838H452.76L450.324 342.429V340.957L452.864 339.297H454.361ZM458.481 348.086L458.406 348.628C458.357 349.026 458.272 349.44 458.153 349.871C458.037 350.305 457.916 350.708 457.79 351.079C457.667 351.451 457.566 351.746 457.487 351.964H456.433C456.476 351.759 456.535 351.48 456.612 351.129C456.688 350.781 456.762 350.392 456.835 349.961C456.908 349.53 456.963 349.091 456.999 348.643L457.049 348.086H458.481ZM460.56 349.479V348.365L464.006 344.795C464.373 344.407 464.677 344.068 464.915 343.776C465.157 343.481 465.338 343.201 465.457 342.936C465.577 342.671 465.636 342.389 465.636 342.091C465.636 341.753 465.557 341.461 465.398 341.216C465.238 340.967 465.021 340.777 464.746 340.644C464.471 340.508 464.161 340.44 463.817 340.44C463.452 340.44 463.134 340.515 462.862 340.664C462.59 340.813 462.381 341.023 462.236 341.295C462.09 341.567 462.017 341.885 462.017 342.25H460.55C460.55 341.63 460.693 341.088 460.978 340.624C461.263 340.16 461.654 339.8 462.151 339.545C462.648 339.287 463.213 339.157 463.846 339.157C464.486 339.157 465.05 339.285 465.537 339.54C466.027 339.792 466.41 340.137 466.685 340.574C466.96 341.009 467.098 341.499 467.098 342.046C467.098 342.424 467.027 342.793 466.884 343.155C466.745 343.516 466.501 343.919 466.153 344.363C465.805 344.804 465.321 345.339 464.702 345.969L462.678 348.086V348.161H467.262V349.479H460.56ZM472.691 349.648C471.905 349.644 471.234 349.437 470.677 349.026C470.121 348.615 469.695 348.017 469.4 347.231C469.105 346.446 468.957 345.5 468.957 344.393C468.957 343.289 469.105 342.346 469.4 341.564C469.698 340.782 470.126 340.185 470.682 339.774C471.243 339.363 471.912 339.157 472.691 339.157C473.47 339.157 474.138 339.365 474.694 339.779C475.251 340.19 475.677 340.787 475.972 341.569C476.27 342.348 476.42 343.289 476.42 344.393C476.42 345.503 476.272 346.451 475.977 347.236C475.682 348.019 475.256 348.617 474.699 349.031C474.143 349.442 473.473 349.648 472.691 349.648ZM472.691 348.32C473.38 348.32 473.919 347.984 474.307 347.311C474.698 346.638 474.893 345.665 474.893 344.393C474.893 343.547 474.804 342.833 474.625 342.25C474.449 341.663 474.196 341.219 473.864 340.917C473.536 340.613 473.145 340.46 472.691 340.46C472.005 340.46 471.466 340.798 471.075 341.474C470.684 342.15 470.487 343.123 470.484 344.393C470.484 345.241 470.571 345.959 470.747 346.545C470.926 347.129 471.18 347.571 471.508 347.873C471.836 348.171 472.23 348.32 472.691 348.32ZM481.728 349.648C480.942 349.644 480.271 349.437 479.715 349.026C479.158 348.615 478.732 348.017 478.437 347.231C478.142 346.446 477.994 345.5 477.994 344.393C477.994 343.289 478.142 342.346 478.437 341.564C478.735 340.782 479.163 340.185 479.719 339.774C480.28 339.363 480.949 339.157 481.728 339.157C482.507 339.157 483.175 339.365 483.732 339.779C484.288 340.19 484.714 340.787 485.009 341.569C485.308 342.348 485.457 343.289 485.457 344.393C485.457 345.503 485.309 346.451 485.014 347.236C484.719 348.019 484.293 348.617 483.737 349.031C483.18 349.442 482.51 349.648 481.728 349.648ZM481.728 348.32C482.417 348.32 482.956 347.984 483.344 347.311C483.735 346.638 483.93 345.665 483.93 344.393C483.93 343.547 483.841 342.833 483.662 342.25C483.486 341.663 483.233 341.219 482.901 340.917C482.573 340.613 482.182 340.46 481.728 340.46C481.042 340.46 480.503 340.798 480.112 341.474C479.721 342.15 479.524 343.123 479.521 344.393C479.521 345.241 479.608 345.959 479.784 346.545C479.963 347.129 480.217 347.571 480.545 347.873C480.873 348.171 481.267 348.32 481.728 348.32Z" fill="#475467"/>
<line x1="117.491" y1="366.035" x2="486.509" y2="366.035" stroke="#F2F4F7"/>
<path d="M118.724 394.592V384.41H119.957V393.498H124.69V394.592H118.724ZM129.543 394.751C128.853 394.751 128.248 394.587 127.728 394.259C127.211 393.931 126.807 393.472 126.515 392.882C126.227 392.292 126.082 391.602 126.082 390.813C126.082 390.018 126.227 389.324 126.515 388.73C126.807 388.137 127.211 387.676 127.728 387.348C128.248 387.02 128.853 386.856 129.543 386.856C130.232 386.856 130.835 387.02 131.352 387.348C131.873 387.676 132.277 388.137 132.565 388.73C132.857 389.324 133.003 390.018 133.003 390.813C133.003 391.602 132.857 392.292 132.565 392.882C132.277 393.472 131.873 393.931 131.352 394.259C130.835 394.587 130.232 394.751 129.543 394.751ZM129.543 393.697C130.066 393.697 130.497 393.563 130.835 393.294C131.173 393.026 131.424 392.673 131.586 392.235C131.748 391.798 131.83 391.324 131.83 390.813C131.83 390.303 131.748 389.827 131.586 389.387C131.424 388.946 131.173 388.589 130.835 388.318C130.497 388.046 130.066 387.91 129.543 387.91C129.019 387.91 128.588 388.046 128.25 388.318C127.912 388.589 127.662 388.946 127.499 389.387C127.337 389.827 127.256 390.303 127.256 390.813C127.256 391.324 127.337 391.798 127.499 392.235C127.662 392.673 127.912 393.026 128.25 393.294C128.588 393.563 129.019 393.697 129.543 393.697ZM137.041 394.771C136.557 394.771 136.118 394.68 135.724 394.497C135.329 394.312 135.016 394.045 134.784 393.697C134.552 393.346 134.436 392.921 134.436 392.424C134.436 391.987 134.522 391.632 134.694 391.36C134.867 391.085 135.097 390.87 135.385 390.714C135.674 390.558 135.992 390.442 136.34 390.366C136.691 390.286 137.044 390.223 137.399 390.177C137.863 390.117 138.239 390.073 138.527 390.043C138.819 390.01 139.031 389.955 139.164 389.879C139.3 389.802 139.368 389.67 139.368 389.481V389.441C139.368 388.951 139.233 388.57 138.965 388.298C138.7 388.026 138.297 387.89 137.757 387.89C137.197 387.89 136.758 388.013 136.439 388.258C136.121 388.503 135.898 388.765 135.768 389.044L134.655 388.646C134.853 388.182 135.119 387.82 135.45 387.562C135.785 387.3 136.149 387.118 136.544 387.015C136.942 386.909 137.333 386.856 137.717 386.856C137.962 386.856 138.244 386.886 138.562 386.945C138.884 387.002 139.194 387.119 139.492 387.298C139.794 387.477 140.044 387.748 140.243 388.109C140.442 388.47 140.541 388.954 140.541 389.561V394.592H139.368V393.558H139.308C139.228 393.723 139.096 393.901 138.91 394.09C138.725 394.279 138.478 394.439 138.17 394.572C137.861 394.704 137.485 394.771 137.041 394.771ZM137.22 393.717C137.684 393.717 138.075 393.626 138.393 393.443C138.715 393.261 138.957 393.026 139.119 392.737C139.285 392.449 139.368 392.146 139.368 391.828V390.754C139.318 390.813 139.209 390.868 139.04 390.918C138.874 390.964 138.682 391.006 138.463 391.042C138.247 391.075 138.037 391.105 137.831 391.132C137.629 391.155 137.465 391.175 137.339 391.191C137.034 391.231 136.749 391.296 136.484 391.385C136.222 391.471 136.01 391.602 135.848 391.778C135.689 391.95 135.609 392.186 135.609 392.484C135.609 392.892 135.76 393.2 136.062 393.409C136.367 393.614 136.753 393.717 137.22 393.717ZM143.856 389.998V394.592H142.683V386.955H143.816V388.149H143.915C144.094 387.761 144.366 387.449 144.731 387.214C145.095 386.975 145.566 386.856 146.143 386.856C146.66 386.856 147.112 386.962 147.5 387.174C147.888 387.383 148.189 387.701 148.405 388.129C148.62 388.553 148.728 389.09 148.728 389.74V394.592H147.555V389.819C147.555 389.219 147.399 388.752 147.087 388.417C146.776 388.079 146.348 387.91 145.805 387.91C145.43 387.91 145.095 387.991 144.8 388.154C144.509 388.316 144.278 388.553 144.109 388.865C143.94 389.176 143.856 389.554 143.856 389.998ZM157.057 394.771C156.573 394.771 156.134 394.68 155.739 394.497C155.345 394.312 155.032 394.045 154.8 393.697C154.568 393.346 154.452 392.921 154.452 392.424C154.452 391.987 154.538 391.632 154.71 391.36C154.882 391.085 155.113 390.87 155.401 390.714C155.689 390.558 156.008 390.442 156.356 390.366C156.707 390.286 157.06 390.223 157.415 390.177C157.879 390.117 158.255 390.073 158.543 390.043C158.835 390.01 159.047 389.955 159.179 389.879C159.315 389.802 159.383 389.67 159.383 389.481V389.441C159.383 388.951 159.249 388.57 158.981 388.298C158.715 388.026 158.313 387.89 157.773 387.89C157.212 387.89 156.773 388.013 156.455 388.258C156.137 388.503 155.913 388.765 155.784 389.044L154.67 388.646C154.869 388.182 155.134 387.82 155.466 387.562C155.8 387.3 156.165 387.118 156.559 387.015C156.957 386.909 157.348 386.856 157.733 386.856C157.978 386.856 158.26 386.886 158.578 386.945C158.899 387.002 159.209 387.119 159.508 387.298C159.809 387.477 160.059 387.748 160.258 388.109C160.457 388.47 160.557 388.954 160.557 389.561V394.592H159.383V393.558H159.324C159.244 393.723 159.112 393.901 158.926 394.09C158.74 394.279 158.493 394.439 158.185 394.572C157.877 394.704 157.501 394.771 157.057 394.771ZM157.236 393.717C157.7 393.717 158.091 393.626 158.409 393.443C158.73 393.261 158.972 393.026 159.135 392.737C159.3 392.449 159.383 392.146 159.383 391.828V390.754C159.334 390.813 159.224 390.868 159.055 390.918C158.889 390.964 158.697 391.006 158.478 391.042C158.263 391.075 158.053 391.105 157.847 391.132C157.645 391.155 157.481 391.175 157.355 391.191C157.05 391.231 156.765 391.296 156.5 391.385C156.238 391.471 156.026 391.602 155.863 391.778C155.704 391.95 155.625 392.186 155.625 392.484C155.625 392.892 155.776 393.2 156.077 393.409C156.382 393.614 156.768 393.717 157.236 393.717ZM162.698 394.592V386.955H163.832V388.149H163.931C164.09 387.741 164.347 387.424 164.702 387.199C165.056 386.97 165.482 386.856 165.979 386.856C166.483 386.856 166.902 386.97 167.237 387.199C167.575 387.424 167.839 387.741 168.028 388.149H168.107C168.303 387.754 168.596 387.441 168.987 387.209C169.378 386.974 169.847 386.856 170.394 386.856C171.077 386.856 171.635 387.07 172.07 387.497C172.504 387.922 172.721 388.583 172.721 389.481V394.592H171.548V389.481C171.548 388.918 171.393 388.515 171.085 388.273C170.777 388.031 170.414 387.91 169.996 387.91C169.459 387.91 169.044 388.072 168.749 388.397C168.454 388.719 168.306 389.126 168.306 389.62V394.592H167.113V389.362C167.113 388.927 166.972 388.578 166.69 388.313C166.409 388.044 166.046 387.91 165.602 387.91C165.297 387.91 165.012 387.991 164.746 388.154C164.485 388.316 164.272 388.541 164.11 388.83C163.951 389.115 163.871 389.445 163.871 389.819V394.592H162.698ZM177.968 394.751C177.279 394.751 176.674 394.587 176.154 394.259C175.637 393.931 175.232 393.472 174.941 392.882C174.652 392.292 174.508 391.602 174.508 390.813C174.508 390.018 174.652 389.324 174.941 388.73C175.232 388.137 175.637 387.676 176.154 387.348C176.674 387.02 177.279 386.856 177.968 386.856C178.658 386.856 179.261 387.02 179.778 387.348C180.298 387.676 180.703 388.137 180.991 388.73C181.283 389.324 181.429 390.018 181.429 390.813C181.429 391.602 181.283 392.292 180.991 392.882C180.703 393.472 180.298 393.931 179.778 394.259C179.261 394.587 178.658 394.751 177.968 394.751ZM177.968 393.697C178.492 393.697 178.923 393.563 179.261 393.294C179.599 393.026 179.849 392.673 180.012 392.235C180.174 391.798 180.255 391.324 180.255 390.813C180.255 390.303 180.174 389.827 180.012 389.387C179.849 388.946 179.599 388.589 179.261 388.318C178.923 388.046 178.492 387.91 177.968 387.91C177.445 387.91 177.014 388.046 176.676 388.318C176.338 388.589 176.087 388.946 175.925 389.387C175.763 389.827 175.681 390.303 175.681 390.813C175.681 391.324 175.763 391.798 175.925 392.235C176.087 392.673 176.338 393.026 176.676 393.294C177.014 393.563 177.445 393.697 177.968 393.697ZM188.032 391.47V386.955H189.205V394.592H188.032V393.299H187.953C187.774 393.687 187.495 394.017 187.117 394.289C186.74 394.557 186.262 394.691 185.686 394.691C185.208 394.691 184.784 394.587 184.413 394.378C184.042 394.166 183.75 393.848 183.538 393.423C183.326 392.996 183.22 392.457 183.22 391.808V386.955H184.393V391.728C184.393 392.285 184.549 392.729 184.86 393.061C185.175 393.392 185.576 393.558 186.063 393.558C186.355 393.558 186.652 393.483 186.953 393.334C187.258 393.185 187.513 392.956 187.719 392.648C187.928 392.34 188.032 391.947 188.032 391.47ZM192.528 389.998V394.592H191.354V386.955H192.488V388.149H192.587C192.766 387.761 193.038 387.449 193.403 387.214C193.767 386.975 194.238 386.856 194.815 386.856C195.332 386.856 195.784 386.962 196.172 387.174C196.56 387.383 196.861 387.701 197.077 388.129C197.292 388.553 197.4 389.09 197.4 389.74V394.592H196.227V389.819C196.227 389.219 196.071 388.752 195.759 388.417C195.448 388.079 195.02 387.91 194.477 387.91C194.102 387.91 193.767 387.991 193.472 388.154C193.181 388.316 192.95 388.553 192.781 388.865C192.612 389.176 192.528 389.554 192.528 389.998ZM202.865 386.955V387.95H198.907V386.955H202.865ZM200.061 385.126H201.234V392.404C201.234 392.736 201.282 392.984 201.378 393.15C201.478 393.312 201.604 393.422 201.756 393.478C201.912 393.531 202.076 393.558 202.248 393.558C202.378 393.558 202.484 393.551 202.567 393.538C202.649 393.521 202.716 393.508 202.765 393.498L203.004 394.552C202.925 394.582 202.813 394.612 202.671 394.642C202.528 394.675 202.348 394.691 202.129 394.691C201.798 394.691 201.473 394.62 201.155 394.477C200.84 394.335 200.578 394.118 200.369 393.826C200.164 393.535 200.061 393.167 200.061 392.722V385.126Z" fill="#475467"/>
<path d="M441.63 395.865V383.137H442.445V395.865H441.63ZM444.18 387.085C444.127 386.614 443.909 386.249 443.524 385.991C443.14 385.729 442.656 385.598 442.072 385.598C441.655 385.598 441.294 385.664 440.989 385.797C440.684 385.926 440.447 386.105 440.278 386.334C440.112 386.559 440.029 386.816 440.029 387.105C440.029 387.347 440.085 387.555 440.198 387.731C440.314 387.907 440.465 388.054 440.651 388.173C440.84 388.289 441.042 388.387 441.257 388.467C441.473 388.543 441.68 388.606 441.879 388.656L442.873 388.914C443.198 388.994 443.531 389.102 443.872 389.237C444.214 389.373 444.53 389.552 444.822 389.774C445.113 389.996 445.349 390.271 445.528 390.6C445.71 390.928 445.801 391.32 445.801 391.778C445.801 392.355 445.652 392.867 445.354 393.314C445.059 393.762 444.63 394.115 444.066 394.373C443.506 394.632 442.828 394.761 442.033 394.761C441.27 394.761 440.611 394.64 440.054 394.398C439.497 394.156 439.061 393.813 438.746 393.369C438.432 392.921 438.258 392.391 438.224 391.778H439.766C439.795 392.146 439.915 392.452 440.124 392.698C440.336 392.94 440.606 393.12 440.934 393.24C441.265 393.356 441.628 393.414 442.023 393.414C442.457 393.414 442.843 393.346 443.181 393.21C443.523 393.07 443.791 392.878 443.987 392.633C444.182 392.384 444.28 392.094 444.28 391.763C444.28 391.461 444.194 391.214 444.021 391.022C443.852 390.83 443.622 390.671 443.33 390.545C443.042 390.419 442.715 390.308 442.351 390.212L441.148 389.884C440.332 389.662 439.686 389.335 439.209 388.904C438.735 388.473 438.498 387.903 438.498 387.194C438.498 386.607 438.657 386.095 438.975 385.658C439.293 385.22 439.724 384.881 440.268 384.639C440.811 384.393 441.425 384.271 442.107 384.271C442.797 384.271 443.405 384.392 443.932 384.634C444.462 384.876 444.88 385.209 445.185 385.633C445.49 386.054 445.649 386.538 445.662 387.085H444.18ZM451.052 394.731C450.598 394.724 450.151 394.642 449.71 394.482C449.273 394.323 448.875 394.058 448.517 393.687C448.159 393.316 447.872 392.817 447.657 392.191C447.445 391.564 447.339 390.782 447.339 389.844C447.339 388.956 447.426 388.167 447.602 387.477C447.781 386.788 448.038 386.206 448.373 385.732C448.707 385.255 449.112 384.892 449.586 384.644C450.06 384.395 450.592 384.271 451.182 384.271C451.788 384.271 452.327 384.39 452.797 384.629C453.268 384.867 453.649 385.197 453.941 385.618C454.236 386.039 454.423 386.518 454.503 387.055H452.986C452.884 386.631 452.68 386.284 452.375 386.016C452.07 385.747 451.672 385.613 451.182 385.613C450.436 385.613 449.854 385.938 449.437 386.588C449.022 387.237 448.814 388.14 448.81 389.297H448.885C449.06 389.009 449.276 388.763 449.531 388.561C449.79 388.356 450.078 388.198 450.396 388.089C450.718 387.976 451.056 387.92 451.41 387.92C452 387.92 452.534 388.064 453.011 388.352C453.492 388.637 453.875 389.032 454.16 389.536C454.445 390.039 454.587 390.616 454.587 391.266C454.587 391.915 454.44 392.504 454.145 393.031C453.853 393.558 453.442 393.975 452.912 394.284C452.381 394.588 451.762 394.738 451.052 394.731ZM451.047 393.438C451.439 393.438 451.788 393.342 452.096 393.15C452.405 392.958 452.648 392.699 452.827 392.374C453.006 392.05 453.096 391.687 453.096 391.286C453.096 390.895 453.008 390.538 452.832 390.217C452.66 389.895 452.421 389.64 452.116 389.451C451.815 389.262 451.47 389.168 451.082 389.168C450.787 389.168 450.514 389.224 450.262 389.337C450.013 389.45 449.795 389.605 449.606 389.804C449.417 390.003 449.268 390.232 449.158 390.49C449.052 390.745 448.999 391.016 448.999 391.301C448.999 391.682 449.087 392.035 449.263 392.36C449.442 392.684 449.685 392.946 449.993 393.145C450.305 393.341 450.656 393.438 451.047 393.438ZM457.887 393.2L457.813 393.742C457.763 394.139 457.678 394.554 457.559 394.985C457.443 395.419 457.322 395.821 457.196 396.193C457.073 396.564 456.972 396.859 456.893 397.078H455.839C455.882 396.872 455.942 396.594 456.018 396.242C456.094 395.894 456.169 395.505 456.241 395.074C456.314 394.643 456.369 394.204 456.406 393.757L456.455 393.2H457.887ZM463.163 394.731C462.54 394.731 461.98 394.612 461.483 394.373C460.989 394.131 460.595 393.8 460.3 393.379C460.005 392.958 459.847 392.477 459.827 391.937H461.319C461.355 392.374 461.549 392.734 461.9 393.016C462.252 393.298 462.673 393.438 463.163 393.438C463.554 393.438 463.901 393.349 464.202 393.17C464.507 392.988 464.746 392.737 464.918 392.419C465.094 392.101 465.182 391.738 465.182 391.33C465.182 390.916 465.092 390.547 464.913 390.222C464.734 389.897 464.487 389.642 464.172 389.456C463.861 389.271 463.503 389.176 463.099 389.173C462.79 389.173 462.48 389.226 462.169 389.332C461.857 389.438 461.605 389.577 461.413 389.749L460.006 389.541L460.578 384.41H466.176V385.727H461.856L461.533 388.576H461.592C461.791 388.384 462.055 388.223 462.383 388.094C462.714 387.965 463.069 387.9 463.447 387.9C464.066 387.9 464.618 388.048 465.102 388.343C465.589 388.637 465.972 389.04 466.251 389.551C466.532 390.058 466.671 390.641 466.668 391.301C466.671 391.96 466.522 392.548 466.221 393.066C465.922 393.583 465.508 393.99 464.978 394.289C464.451 394.584 463.846 394.731 463.163 394.731ZM472.029 394.761C471.243 394.758 470.572 394.55 470.015 394.139C469.458 393.728 469.033 393.13 468.738 392.345C468.443 391.559 468.295 390.613 468.295 389.506C468.295 388.402 468.443 387.459 468.738 386.677C469.036 385.895 469.463 385.298 470.02 384.887C470.58 384.476 471.25 384.271 472.029 384.271C472.808 384.271 473.476 384.478 474.032 384.892C474.589 385.303 475.015 385.9 475.31 386.682C475.608 387.461 475.757 388.402 475.757 389.506C475.757 390.616 475.61 391.564 475.315 392.35C475.02 393.132 474.594 393.73 474.037 394.144C473.48 394.555 472.811 394.761 472.029 394.761ZM472.029 393.433C472.718 393.433 473.257 393.097 473.645 392.424C474.036 391.751 474.231 390.779 474.231 389.506C474.231 388.661 474.142 387.946 473.963 387.363C473.787 386.776 473.534 386.332 473.202 386.031C472.874 385.726 472.483 385.573 472.029 385.573C471.343 385.573 470.804 385.911 470.413 386.588C470.022 387.264 469.825 388.236 469.821 389.506C469.821 390.354 469.909 391.072 470.085 391.659C470.264 392.242 470.517 392.684 470.846 392.986C471.174 393.284 471.568 393.433 472.029 393.433ZM481.066 394.761C480.28 394.758 479.609 394.55 479.052 394.139C478.496 393.728 478.07 393.13 477.775 392.345C477.48 391.559 477.332 390.613 477.332 389.506C477.332 388.402 477.48 387.459 477.775 386.677C478.073 385.895 478.501 385.298 479.057 384.887C479.618 384.476 480.287 384.271 481.066 384.271C481.845 384.271 482.513 384.478 483.069 384.892C483.626 385.303 484.052 385.9 484.347 386.682C484.645 387.461 484.795 388.402 484.795 389.506C484.795 390.616 484.647 391.564 484.352 392.35C484.057 393.132 483.631 393.73 483.074 394.144C482.518 394.555 481.848 394.761 481.066 394.761ZM481.066 393.433C481.755 393.433 482.294 393.097 482.682 392.424C483.073 391.751 483.268 390.779 483.268 389.506C483.268 388.661 483.179 387.946 483 387.363C482.824 386.776 482.571 386.332 482.239 386.031C481.911 385.726 481.52 385.573 481.066 385.573C480.38 385.573 479.841 385.911 479.45 386.588C479.059 387.264 478.862 388.236 478.859 389.506C478.859 390.354 478.946 391.072 479.122 391.659C479.301 392.242 479.555 392.684 479.883 392.986C480.211 393.284 480.605 393.433 481.066 393.433Z" fill="#475467"/>
<path d="M118.724 425.648V415.467H124.83V416.56H119.957V420.001H124.372V421.094H119.957V425.648H118.724ZM126.782 425.648V418.012H127.955V425.648H126.782ZM127.379 416.739C127.15 416.739 126.953 416.661 126.787 416.506C126.625 416.35 126.543 416.163 126.543 415.944C126.543 415.725 126.625 415.538 126.787 415.382C126.953 415.226 127.15 415.148 127.379 415.148C127.607 415.148 127.803 415.226 127.965 415.382C128.131 415.538 128.214 415.725 128.214 415.944C128.214 416.163 128.131 416.35 127.965 416.506C127.803 416.661 127.607 416.739 127.379 416.739ZM130.979 418.012L132.809 421.134L134.638 418.012H135.991L133.525 421.83L135.991 425.648H134.638L132.809 422.685L130.979 425.648H129.627L132.053 421.83L129.627 418.012H130.979ZM140.552 425.808C139.816 425.808 139.182 425.645 138.648 425.32C138.118 424.992 137.708 424.535 137.42 423.948C137.135 423.358 136.993 422.672 136.993 421.89C136.993 421.108 137.135 420.418 137.42 419.822C137.708 419.222 138.109 418.754 138.623 418.42C139.14 418.082 139.743 417.913 140.433 417.913C140.831 417.913 141.223 417.979 141.611 418.112C141.999 418.244 142.352 418.46 142.67 418.758C142.988 419.053 143.242 419.444 143.431 419.931C143.62 420.418 143.714 421.018 143.714 421.731V422.228H137.828V421.214H142.521C142.521 420.783 142.435 420.398 142.262 420.06C142.093 419.722 141.851 419.455 141.537 419.26C141.225 419.064 140.857 418.967 140.433 418.967C139.966 418.967 139.561 419.083 139.22 419.315C138.882 419.543 138.622 419.842 138.439 420.21C138.257 420.577 138.166 420.972 138.166 421.393V422.069C138.166 422.646 138.265 423.134 138.464 423.536C138.666 423.933 138.946 424.237 139.304 424.445C139.662 424.651 140.078 424.754 140.552 424.754C140.86 424.754 141.139 424.71 141.387 424.624C141.639 424.535 141.856 424.402 142.039 424.227C142.221 424.048 142.362 423.826 142.461 423.56L143.595 423.879C143.475 424.263 143.275 424.601 142.993 424.893C142.712 425.181 142.363 425.406 141.949 425.569C141.535 425.728 141.069 425.808 140.552 425.808ZM148.382 425.808C147.746 425.808 147.184 425.647 146.697 425.325C146.21 425 145.829 424.543 145.554 423.953C145.279 423.36 145.141 422.659 145.141 421.85C145.141 421.048 145.279 420.352 145.554 419.762C145.829 419.172 146.212 418.716 146.702 418.395C147.193 418.073 147.759 417.913 148.402 417.913C148.899 417.913 149.292 417.996 149.581 418.161C149.872 418.324 150.094 418.509 150.247 418.718C150.403 418.924 150.524 419.093 150.61 419.225H150.709V415.467H151.882V425.648H150.749V424.475H150.61C150.524 424.614 150.401 424.79 150.242 425.002C150.083 425.211 149.856 425.398 149.561 425.564C149.266 425.726 148.873 425.808 148.382 425.808ZM148.542 424.754C149.012 424.754 149.41 424.631 149.735 424.386C150.06 424.137 150.306 423.794 150.475 423.357C150.645 422.916 150.729 422.407 150.729 421.83C150.729 421.26 150.646 420.761 150.48 420.334C150.315 419.903 150.069 419.568 149.745 419.33C149.42 419.088 149.019 418.967 148.542 418.967C148.044 418.967 147.63 419.094 147.299 419.349C146.971 419.601 146.724 419.944 146.558 420.379C146.395 420.809 146.314 421.293 146.314 421.83C146.314 422.374 146.397 422.868 146.563 423.312C146.732 423.753 146.98 424.104 147.309 424.366C147.64 424.624 148.051 424.754 148.542 424.754ZM161.532 418.012V419.006H157.416V418.012H161.532ZM158.649 425.648V416.958C158.649 416.521 158.752 416.156 158.957 415.864C159.163 415.573 159.429 415.354 159.757 415.208C160.086 415.062 160.432 414.989 160.796 414.989C161.085 414.989 161.32 415.013 161.502 415.059C161.685 415.105 161.821 415.148 161.91 415.188L161.572 416.202C161.512 416.183 161.43 416.158 161.323 416.128C161.221 416.098 161.085 416.083 160.916 416.083C160.528 416.083 160.248 416.181 160.076 416.376C159.907 416.572 159.822 416.859 159.822 417.237V425.648H158.649ZM166.064 425.808C165.328 425.808 164.693 425.645 164.16 425.32C163.629 424.992 163.22 424.535 162.932 423.948C162.647 423.358 162.504 422.672 162.504 421.89C162.504 421.108 162.647 420.418 162.932 419.822C163.22 419.222 163.621 418.754 164.135 418.42C164.652 418.082 165.255 417.913 165.945 417.913C166.342 417.913 166.735 417.979 167.123 418.112C167.511 418.244 167.864 418.46 168.182 418.758C168.5 419.053 168.754 419.444 168.942 419.931C169.131 420.418 169.226 421.018 169.226 421.731V422.228H163.339V421.214H168.033C168.033 420.783 167.946 420.398 167.774 420.06C167.605 419.722 167.363 419.455 167.048 419.26C166.737 419.064 166.369 418.967 165.945 418.967C165.477 418.967 165.073 419.083 164.732 419.315C164.393 419.543 164.133 419.842 163.951 420.21C163.769 420.577 163.678 420.972 163.678 421.393V422.069C163.678 422.646 163.777 423.134 163.976 423.536C164.178 423.933 164.458 424.237 164.816 424.445C165.174 424.651 165.59 424.754 166.064 424.754C166.372 424.754 166.651 424.71 166.899 424.624C167.151 424.535 167.368 424.402 167.55 424.227C167.733 424.048 167.874 423.826 167.973 423.56L169.107 423.879C168.987 424.263 168.787 424.601 168.505 424.893C168.223 425.181 167.875 425.406 167.461 425.569C167.047 425.728 166.581 425.808 166.064 425.808ZM174.212 425.808C173.477 425.808 172.842 425.645 172.308 425.32C171.778 424.992 171.369 424.535 171.08 423.948C170.795 423.358 170.653 422.672 170.653 421.89C170.653 421.108 170.795 420.418 171.08 419.822C171.369 419.222 171.77 418.754 172.283 418.42C172.8 418.082 173.404 417.913 174.093 417.913C174.491 417.913 174.884 417.979 175.271 418.112C175.659 418.244 176.012 418.46 176.33 418.758C176.648 419.053 176.902 419.444 177.091 419.931C177.28 420.418 177.374 421.018 177.374 421.731V422.228H171.488V421.214H176.181C176.181 420.783 176.095 420.398 175.923 420.06C175.754 419.722 175.512 419.455 175.197 419.26C174.885 419.064 174.517 418.967 174.093 418.967C173.626 418.967 173.221 419.083 172.88 419.315C172.542 419.543 172.282 419.842 172.099 420.21C171.917 420.577 171.826 420.972 171.826 421.393V422.069C171.826 422.646 171.925 423.134 172.124 423.536C172.326 423.933 172.607 424.237 172.964 424.445C173.322 424.651 173.738 424.754 174.212 424.754C174.521 424.754 174.799 424.71 175.048 424.624C175.299 424.535 175.517 424.402 175.699 424.227C175.881 424.048 176.022 423.826 176.121 423.56L177.255 423.879C177.136 424.263 176.935 424.601 176.653 424.893C176.372 425.181 176.024 425.406 175.609 425.569C175.195 425.728 174.729 425.808 174.212 425.808Z" fill="#475467"/>
<path d="M454.63 426.921V414.194H455.445V426.921H454.63ZM457.18 418.141C457.127 417.671 456.909 417.306 456.524 417.048C456.14 416.786 455.656 416.655 455.072 416.655C454.655 416.655 454.294 416.721 453.989 416.854C453.684 416.983 453.447 417.162 453.278 417.391C453.112 417.616 453.029 417.873 453.029 418.161C453.029 418.403 453.085 418.612 453.198 418.788C453.314 418.963 453.465 419.111 453.651 419.23C453.84 419.346 454.042 419.444 454.257 419.523C454.473 419.6 454.68 419.663 454.879 419.712L455.873 419.971C456.198 420.05 456.531 420.158 456.872 420.294C457.214 420.43 457.53 420.609 457.822 420.831C458.113 421.053 458.349 421.328 458.528 421.656C458.71 421.984 458.801 422.377 458.801 422.835C458.801 423.411 458.652 423.923 458.354 424.371C458.059 424.818 457.63 425.171 457.066 425.43C456.506 425.688 455.828 425.817 455.033 425.817C454.27 425.817 453.611 425.696 453.054 425.455C452.497 425.213 452.061 424.87 451.746 424.425C451.432 423.978 451.258 423.448 451.224 422.835H452.766C452.795 423.202 452.915 423.509 453.124 423.754C453.336 423.996 453.606 424.177 453.934 424.296C454.265 424.412 454.628 424.47 455.023 424.47C455.457 424.47 455.843 424.402 456.181 424.266C456.523 424.127 456.791 423.935 456.987 423.69C457.182 423.441 457.28 423.151 457.28 422.82C457.28 422.518 457.194 422.271 457.021 422.079C456.852 421.887 456.622 421.728 456.33 421.602C456.042 421.476 455.715 421.365 455.351 421.268L454.148 420.94C453.332 420.718 452.686 420.392 452.209 419.961C451.735 419.53 451.498 418.96 451.498 418.251C451.498 417.664 451.657 417.152 451.975 416.714C452.293 416.277 452.724 415.937 453.268 415.695C453.811 415.45 454.425 415.327 455.107 415.327C455.797 415.327 456.405 415.448 456.932 415.69C457.462 415.932 457.88 416.265 458.185 416.69C458.49 417.111 458.649 417.594 458.662 418.141H457.18ZM463.938 425.788C463.225 425.788 462.596 425.665 462.049 425.42C461.505 425.174 461.079 424.836 460.771 424.406C460.463 423.975 460.31 423.484 460.314 422.934C460.31 422.503 460.398 422.107 460.577 421.746C460.76 421.381 461.006 421.078 461.318 420.836C461.63 420.591 461.978 420.435 462.362 420.369V420.309C461.855 420.186 461.449 419.915 461.144 419.494C460.839 419.073 460.688 418.589 460.692 418.042C460.688 417.522 460.826 417.058 461.104 416.65C461.386 416.239 461.772 415.916 462.263 415.68C462.753 415.445 463.312 415.327 463.938 415.327C464.558 415.327 465.111 415.447 465.599 415.685C466.089 415.921 466.475 416.244 466.757 416.655C467.039 417.062 467.181 417.525 467.185 418.042C467.181 418.589 467.025 419.073 466.717 419.494C466.409 419.915 466.008 420.186 465.514 420.309V420.369C465.895 420.435 466.238 420.591 466.543 420.836C466.851 421.078 467.097 421.381 467.279 421.746C467.465 422.107 467.559 422.503 467.562 422.934C467.559 423.484 467.403 423.975 467.095 424.406C466.787 424.836 466.359 425.174 465.812 425.42C465.269 425.665 464.644 425.788 463.938 425.788ZM463.938 424.53C464.359 424.53 464.724 424.46 465.032 424.321C465.34 424.179 465.579 423.981 465.748 423.729C465.917 423.474 466.003 423.176 466.006 422.835C466.003 422.48 465.91 422.167 465.728 421.895C465.549 421.623 465.305 421.409 464.997 421.254C464.689 421.098 464.336 421.02 463.938 421.02C463.537 421.02 463.181 421.098 462.869 421.254C462.558 421.409 462.312 421.623 462.133 421.895C461.954 422.167 461.867 422.48 461.87 422.835C461.867 423.176 461.948 423.474 462.113 423.729C462.283 423.981 462.523 424.179 462.834 424.321C463.146 424.46 463.514 424.53 463.938 424.53ZM463.938 419.792C464.276 419.792 464.576 419.724 464.838 419.588C465.1 419.452 465.305 419.263 465.454 419.021C465.607 418.779 465.685 418.496 465.688 418.171C465.685 417.853 465.609 417.575 465.459 417.336C465.314 417.097 465.11 416.913 464.848 416.784C464.586 416.652 464.283 416.585 463.938 416.585C463.587 416.585 463.278 416.652 463.013 416.784C462.752 416.913 462.548 417.097 462.402 417.336C462.256 417.575 462.185 417.853 462.188 418.171C462.185 418.496 462.258 418.779 462.407 419.021C462.556 419.263 462.761 419.452 463.023 419.588C463.288 419.724 463.593 419.792 463.938 419.792ZM472.888 425.817C472.103 425.814 471.431 425.607 470.875 425.196C470.318 424.785 469.892 424.187 469.597 423.401C469.302 422.616 469.154 421.67 469.154 420.562C469.154 419.459 469.302 418.516 469.597 417.734C469.895 416.951 470.323 416.355 470.88 415.944C471.44 415.533 472.109 415.327 472.888 415.327C473.667 415.327 474.335 415.535 474.892 415.949C475.449 416.36 475.874 416.956 476.169 417.739C476.468 418.518 476.617 419.459 476.617 420.562C476.617 421.673 476.469 422.621 476.174 423.406C475.879 424.188 475.454 424.787 474.897 425.201C474.34 425.612 473.67 425.817 472.888 425.817ZM472.888 424.49C473.578 424.49 474.116 424.154 474.504 423.481C474.895 422.808 475.091 421.835 475.091 420.562C475.091 419.717 475.001 419.003 474.822 418.42C474.646 417.833 474.393 417.389 474.061 417.087C473.733 416.782 473.342 416.63 472.888 416.63C472.202 416.63 471.663 416.968 471.272 417.644C470.881 418.32 470.684 419.293 470.681 420.562C470.681 421.411 470.769 422.129 470.944 422.715C471.123 423.299 471.377 423.741 471.705 424.043C472.033 424.341 472.427 424.49 472.888 424.49ZM481.925 425.817C481.14 425.814 480.469 425.607 479.912 425.196C479.355 424.785 478.929 424.187 478.634 423.401C478.339 422.616 478.192 421.67 478.192 420.562C478.192 419.459 478.339 418.516 478.634 417.734C478.932 416.951 479.36 416.355 479.917 415.944C480.477 415.533 481.146 415.327 481.925 415.327C482.704 415.327 483.372 415.535 483.929 415.949C484.486 416.36 484.912 416.956 485.207 417.739C485.505 418.518 485.654 419.459 485.654 420.562C485.654 421.673 485.506 422.621 485.211 423.406C484.917 424.188 484.491 424.787 483.934 425.201C483.377 425.612 482.707 425.817 481.925 425.817ZM481.925 424.49C482.615 424.49 483.153 424.154 483.541 423.481C483.932 422.808 484.128 421.835 484.128 420.562C484.128 419.717 484.038 419.003 483.859 418.42C483.684 417.833 483.43 417.389 483.099 417.087C482.77 416.782 482.379 416.63 481.925 416.63C481.239 416.63 480.701 416.968 480.31 417.644C479.918 418.32 479.721 419.293 479.718 420.562C479.718 421.411 479.806 422.129 479.981 422.715C480.16 423.299 480.414 423.741 480.742 424.043C481.07 424.341 481.465 424.49 481.925 424.49Z" fill="#475467"/>
<path d="M118.168 447.619V446.525H125.804V447.619H122.602V456.707H121.369V447.619H118.168ZM129.543 456.866C128.853 456.866 128.248 456.702 127.728 456.374C127.211 456.046 126.807 455.587 126.515 454.997C126.227 454.407 126.082 453.717 126.082 452.929C126.082 452.133 126.227 451.439 126.515 450.846C126.807 450.252 127.211 449.792 127.728 449.463C128.248 449.135 128.853 448.971 129.543 448.971C130.232 448.971 130.835 449.135 131.352 449.463C131.873 449.792 132.277 450.252 132.565 450.846C132.857 451.439 133.003 452.133 133.003 452.929C133.003 453.717 132.857 454.407 132.565 454.997C132.277 455.587 131.873 456.046 131.352 456.374C130.835 456.702 130.232 456.866 129.543 456.866ZM129.543 455.812C130.066 455.812 130.497 455.678 130.835 455.409C131.173 455.141 131.424 454.788 131.586 454.35C131.748 453.913 131.83 453.439 131.83 452.929C131.83 452.418 131.748 451.943 131.586 451.502C131.424 451.061 131.173 450.705 130.835 450.433C130.497 450.161 130.066 450.025 129.543 450.025C129.019 450.025 128.588 450.161 128.25 450.433C127.912 450.705 127.662 451.061 127.499 451.502C127.337 451.943 127.256 452.418 127.256 452.929C127.256 453.439 127.337 453.913 127.499 454.35C127.662 454.788 127.912 455.141 128.25 455.409C128.588 455.678 129.019 455.812 129.543 455.812ZM138.115 449.071V450.065H134.157V449.071H138.115ZM135.311 447.241H136.484V454.52C136.484 454.851 136.532 455.1 136.628 455.265C136.728 455.428 136.854 455.537 137.006 455.593C137.162 455.646 137.326 455.673 137.498 455.673C137.628 455.673 137.734 455.666 137.817 455.653C137.899 455.636 137.966 455.623 138.015 455.613L138.254 456.667C138.175 456.697 138.063 456.727 137.921 456.757C137.778 456.79 137.598 456.806 137.379 456.806C137.048 456.806 136.723 456.735 136.405 456.593C136.09 456.45 135.828 456.233 135.619 455.941C135.414 455.65 135.311 455.282 135.311 454.838V447.241ZM142.127 456.886C141.643 456.886 141.204 456.795 140.809 456.613C140.415 456.427 140.102 456.16 139.87 455.812C139.638 455.461 139.522 455.037 139.522 454.539C139.522 454.102 139.608 453.747 139.78 453.475C139.953 453.2 140.183 452.985 140.471 452.829C140.76 452.673 141.078 452.557 141.426 452.481C141.777 452.402 142.13 452.339 142.485 452.292C142.949 452.233 143.325 452.188 143.613 452.158C143.905 452.125 144.117 452.07 144.25 451.994C144.386 451.918 144.454 451.785 144.454 451.596V451.556C144.454 451.066 144.319 450.685 144.051 450.413C143.786 450.141 143.383 450.005 142.843 450.005C142.283 450.005 141.844 450.128 141.525 450.373C141.207 450.618 140.983 450.88 140.854 451.159L139.741 450.761C139.939 450.297 140.205 449.936 140.536 449.677C140.871 449.415 141.235 449.233 141.63 449.13C142.027 449.024 142.419 448.971 142.803 448.971C143.048 448.971 143.33 449.001 143.648 449.061C143.97 449.117 144.28 449.235 144.578 449.414C144.88 449.593 145.13 449.863 145.329 450.224C145.527 450.585 145.627 451.069 145.627 451.676V456.707H144.454V455.673H144.394C144.314 455.839 144.182 456.016 143.996 456.205C143.811 456.394 143.564 456.555 143.255 456.687C142.947 456.82 142.571 456.886 142.127 456.886ZM142.306 455.832C142.77 455.832 143.161 455.741 143.479 455.559C143.801 455.376 144.043 455.141 144.205 454.853C144.371 454.564 144.454 454.261 144.454 453.943V452.869C144.404 452.929 144.295 452.983 144.126 453.033C143.96 453.079 143.768 453.121 143.549 453.157C143.333 453.19 143.123 453.22 142.917 453.247C142.715 453.27 142.551 453.29 142.425 453.306C142.12 453.346 141.835 453.411 141.57 453.5C141.308 453.587 141.096 453.717 140.934 453.893C140.775 454.065 140.695 454.301 140.695 454.599C140.695 455.007 140.846 455.315 141.148 455.524C141.452 455.729 141.839 455.832 142.306 455.832ZM148.942 446.525V456.707H147.768V446.525H148.942ZM157.275 456.886C156.791 456.886 156.352 456.795 155.958 456.613C155.563 456.427 155.25 456.16 155.018 455.812C154.786 455.461 154.67 455.037 154.67 454.539C154.67 454.102 154.756 453.747 154.929 453.475C155.101 453.2 155.331 452.985 155.62 452.829C155.908 452.673 156.226 452.557 156.574 452.481C156.926 452.402 157.279 452.339 157.633 452.292C158.097 452.233 158.474 452.188 158.762 452.158C159.054 452.125 159.266 452.07 159.398 451.994C159.534 451.918 159.602 451.785 159.602 451.596V451.556C159.602 451.066 159.468 450.685 159.199 450.413C158.934 450.141 158.532 450.005 157.991 450.005C157.431 450.005 156.992 450.128 156.674 450.373C156.356 450.618 156.132 450.88 156.003 451.159L154.889 450.761C155.088 450.297 155.353 449.936 155.684 449.677C156.019 449.415 156.384 449.233 156.778 449.13C157.176 449.024 157.567 448.971 157.952 448.971C158.197 448.971 158.478 449.001 158.797 449.061C159.118 449.117 159.428 449.235 159.726 449.414C160.028 449.593 160.278 449.863 160.477 450.224C160.676 450.585 160.775 451.069 160.775 451.676V456.707H159.602V455.673H159.542C159.463 455.839 159.33 456.016 159.145 456.205C158.959 456.394 158.712 456.555 158.404 456.687C158.096 456.82 157.719 456.886 157.275 456.886ZM157.454 455.832C157.918 455.832 158.309 455.741 158.628 455.559C158.949 455.376 159.191 455.141 159.353 454.853C159.519 454.564 159.602 454.261 159.602 453.943V452.869C159.552 452.929 159.443 452.983 159.274 453.033C159.108 453.079 158.916 453.121 158.697 453.157C158.482 453.19 158.271 453.22 158.066 453.247C157.864 453.27 157.7 453.29 157.574 453.306C157.269 453.346 156.984 453.411 156.719 453.5C156.457 453.587 156.245 453.717 156.082 453.893C155.923 454.065 155.844 454.301 155.844 454.599C155.844 455.007 155.994 455.315 156.296 455.524C156.601 455.729 156.987 455.832 157.454 455.832ZM162.917 456.707V449.071H164.05V450.264H164.15C164.309 449.856 164.566 449.54 164.92 449.314C165.275 449.086 165.701 448.971 166.198 448.971C166.702 448.971 167.121 449.086 167.456 449.314C167.794 449.54 168.058 449.856 168.246 450.264H168.326C168.522 449.869 168.815 449.556 169.206 449.324C169.597 449.089 170.066 448.971 170.613 448.971C171.296 448.971 171.854 449.185 172.288 449.613C172.723 450.037 172.94 450.698 172.94 451.596V456.707H171.766V451.596C171.766 451.033 171.612 450.63 171.304 450.388C170.996 450.146 170.633 450.025 170.215 450.025C169.678 450.025 169.262 450.188 168.967 450.512C168.672 450.834 168.525 451.242 168.525 451.735V456.707H167.332V451.477C167.332 451.043 167.191 450.693 166.909 450.428C166.627 450.159 166.264 450.025 165.82 450.025C165.515 450.025 165.23 450.106 164.965 450.269C164.703 450.431 164.491 450.657 164.329 450.945C164.17 451.23 164.09 451.56 164.09 451.934V456.707H162.917ZM178.187 456.866C177.498 456.866 176.893 456.702 176.372 456.374C175.855 456.046 175.451 455.587 175.159 454.997C174.871 454.407 174.727 453.717 174.727 452.929C174.727 452.133 174.871 451.439 175.159 450.846C175.451 450.252 175.855 449.792 176.372 449.463C176.893 449.135 177.498 448.971 178.187 448.971C178.877 448.971 179.48 449.135 179.997 449.463C180.517 449.792 180.921 450.252 181.21 450.846C181.502 451.439 181.647 452.133 181.647 452.929C181.647 453.717 181.502 454.407 181.21 454.997C180.921 455.587 180.517 456.046 179.997 456.374C179.48 456.702 178.877 456.866 178.187 456.866ZM178.187 455.812C178.711 455.812 179.142 455.678 179.48 455.409C179.818 455.141 180.068 454.788 180.23 454.35C180.393 453.913 180.474 453.439 180.474 452.929C180.474 452.418 180.393 451.943 180.23 451.502C180.068 451.061 179.818 450.705 179.48 450.433C179.142 450.161 178.711 450.025 178.187 450.025C177.663 450.025 177.233 450.161 176.895 450.433C176.556 450.705 176.306 451.061 176.144 451.502C175.981 451.943 175.9 452.418 175.9 452.929C175.9 453.439 175.981 453.913 176.144 454.35C176.306 454.788 176.556 455.141 176.895 455.409C177.233 455.678 177.663 455.812 178.187 455.812ZM188.251 453.585V449.071H189.424V456.707H188.251V455.414H188.171C187.992 455.802 187.714 456.132 187.336 456.404C186.958 456.672 186.481 456.806 185.904 456.806C185.427 456.806 185.003 456.702 184.632 456.493C184.26 456.281 183.969 455.963 183.757 455.539C183.544 455.111 183.438 454.573 183.438 453.923V449.071H184.612V453.843C184.612 454.4 184.767 454.844 185.079 455.176C185.394 455.507 185.795 455.673 186.282 455.673C186.574 455.673 186.87 455.598 187.172 455.449C187.477 455.3 187.732 455.071 187.938 454.763C188.146 454.455 188.251 454.062 188.251 453.585ZM192.746 452.113V456.707H191.573V449.071H192.707V450.264H192.806C192.985 449.876 193.257 449.565 193.621 449.329C193.986 449.091 194.457 448.971 195.033 448.971C195.55 448.971 196.003 449.077 196.391 449.289C196.778 449.498 197.08 449.816 197.295 450.244C197.511 450.668 197.619 451.205 197.619 451.855V456.707H196.445V451.934C196.445 451.334 196.29 450.867 195.978 450.532C195.666 450.194 195.239 450.025 194.695 450.025C194.321 450.025 193.986 450.106 193.691 450.269C193.399 450.431 193.169 450.668 193 450.98C192.831 451.291 192.746 451.669 192.746 452.113ZM203.084 449.071V450.065H199.126V449.071H203.084ZM200.28 447.241H201.453V454.52C201.453 454.851 201.501 455.1 201.597 455.265C201.697 455.428 201.822 455.537 201.975 455.593C202.131 455.646 202.295 455.673 202.467 455.673C202.596 455.673 202.702 455.666 202.785 455.653C202.868 455.636 202.934 455.623 202.984 455.613L203.223 456.667C203.143 456.697 203.032 456.727 202.89 456.757C202.747 456.79 202.567 456.806 202.348 456.806C202.016 456.806 201.692 456.735 201.373 456.593C201.059 456.45 200.797 456.233 200.588 455.941C200.382 455.65 200.28 455.282 200.28 454.838V447.241ZM211.888 456.866C211.199 456.866 210.594 456.702 210.074 456.374C209.557 456.046 209.152 455.587 208.861 454.997C208.572 454.407 208.428 453.717 208.428 452.929C208.428 452.133 208.572 451.439 208.861 450.846C209.152 450.252 209.557 449.792 210.074 449.463C210.594 449.135 211.199 448.971 211.888 448.971C212.578 448.971 213.181 449.135 213.698 449.463C214.218 449.792 214.623 450.252 214.911 450.846C215.203 451.439 215.349 452.133 215.349 452.929C215.349 453.717 215.203 454.407 214.911 454.997C214.623 455.587 214.218 456.046 213.698 456.374C213.181 456.702 212.578 456.866 211.888 456.866ZM211.888 455.812C212.412 455.812 212.843 455.678 213.181 455.409C213.519 455.141 213.769 454.788 213.932 454.35C214.094 453.913 214.175 453.439 214.175 452.929C214.175 452.418 214.094 451.943 213.932 451.502C213.769 451.061 213.519 450.705 213.181 450.433C212.843 450.161 212.412 450.025 211.888 450.025C211.365 450.025 210.934 450.161 210.596 450.433C210.258 450.705 210.007 451.061 209.845 451.502C209.683 451.943 209.601 452.418 209.601 452.929C209.601 453.439 209.683 453.913 209.845 454.35C210.007 454.788 210.258 455.141 210.596 455.409C210.934 455.678 211.365 455.812 211.888 455.812ZM218.61 456.707L216.283 449.071H217.516L219.167 454.917H219.246L220.877 449.071H222.13L223.741 454.897H223.82L225.471 449.071H226.704L224.377 456.707H223.224L221.553 450.841H221.434L219.763 456.707H218.61ZM231.197 456.866C230.461 456.866 229.826 456.704 229.293 456.379C228.762 456.051 228.353 455.593 228.065 455.007C227.78 454.417 227.637 453.731 227.637 452.949C227.637 452.166 227.78 451.477 228.065 450.88C228.353 450.28 228.754 449.813 229.268 449.478C229.785 449.14 230.388 448.971 231.077 448.971C231.475 448.971 231.868 449.038 232.256 449.17C232.643 449.303 232.996 449.518 233.315 449.816C233.633 450.111 233.886 450.502 234.075 450.99C234.264 451.477 234.359 452.077 234.359 452.789V453.287H228.472V452.272H233.165C233.165 451.842 233.079 451.457 232.907 451.119C232.738 450.781 232.496 450.514 232.181 450.319C231.87 450.123 231.502 450.025 231.077 450.025C230.61 450.025 230.206 450.141 229.864 450.373C229.526 450.602 229.266 450.9 229.084 451.268C228.901 451.636 228.81 452.03 228.81 452.451V453.127C228.81 453.704 228.91 454.193 229.109 454.594C229.311 454.992 229.591 455.295 229.949 455.504C230.307 455.709 230.723 455.812 231.197 455.812C231.505 455.812 231.783 455.769 232.032 455.683C232.284 455.593 232.501 455.461 232.683 455.285C232.866 455.106 233.006 454.884 233.106 454.619L234.239 454.937C234.12 455.322 233.919 455.66 233.638 455.951C233.356 456.24 233.008 456.465 232.594 456.627C232.179 456.787 231.714 456.866 231.197 456.866ZM239.027 456.866C238.391 456.866 237.829 456.705 237.342 456.384C236.854 456.059 236.473 455.602 236.198 455.012C235.923 454.418 235.785 453.717 235.785 452.909C235.785 452.107 235.923 451.411 236.198 450.821C236.473 450.231 236.856 449.775 237.347 449.453C237.837 449.132 238.404 448.971 239.047 448.971C239.544 448.971 239.937 449.054 240.225 449.22C240.517 449.382 240.739 449.568 240.891 449.777C241.047 449.982 241.168 450.151 241.254 450.284H241.354V446.525H242.527V456.707H241.393V455.534H241.254C241.168 455.673 241.045 455.849 240.886 456.061C240.727 456.27 240.5 456.457 240.205 456.623C239.91 456.785 239.517 456.866 239.027 456.866ZM239.186 455.812C239.657 455.812 240.054 455.69 240.379 455.444C240.704 455.196 240.951 454.853 241.12 454.415C241.289 453.974 241.374 453.466 241.374 452.889C241.374 452.319 241.291 451.82 241.125 451.392C240.959 450.962 240.714 450.627 240.389 450.388C240.064 450.146 239.663 450.025 239.186 450.025C238.689 450.025 238.275 450.153 237.943 450.408C237.615 450.66 237.368 451.003 237.202 451.437C237.04 451.868 236.959 452.352 236.959 452.889C236.959 453.432 237.042 453.926 237.207 454.37C237.376 454.811 237.625 455.163 237.953 455.424C238.285 455.683 238.696 455.812 239.186 455.812Z" fill="#475467"/>
<path d="M443.63 457.98V445.252H444.445V457.98H443.63ZM446.18 449.2C446.127 448.729 445.909 448.365 445.524 448.106C445.14 447.844 444.656 447.713 444.072 447.713C443.655 447.713 443.294 447.78 442.989 447.912C442.684 448.042 442.447 448.221 442.278 448.449C442.112 448.675 442.029 448.931 442.029 449.22C442.029 449.462 442.085 449.671 442.198 449.846C442.314 450.022 442.465 450.169 442.651 450.289C442.84 450.405 443.042 450.502 443.257 450.582C443.473 450.658 443.68 450.721 443.879 450.771L444.873 451.029C445.198 451.109 445.531 451.217 445.872 451.353C446.214 451.489 446.53 451.667 446.822 451.89C447.113 452.112 447.349 452.387 447.528 452.715C447.71 453.043 447.801 453.436 447.801 453.893C447.801 454.47 447.652 454.982 447.354 455.429C447.059 455.877 446.63 456.23 446.066 456.488C445.506 456.747 444.828 456.876 444.033 456.876C443.27 456.876 442.611 456.755 442.054 456.513C441.497 456.271 441.061 455.928 440.746 455.484C440.432 455.037 440.258 454.506 440.224 453.893H441.766C441.795 454.261 441.915 454.568 442.124 454.813C442.336 455.055 442.606 455.235 442.934 455.355C443.265 455.471 443.628 455.529 444.023 455.529C444.457 455.529 444.843 455.461 445.181 455.325C445.523 455.186 445.791 454.993 445.987 454.748C446.182 454.5 446.28 454.21 446.28 453.878C446.28 453.577 446.194 453.33 446.021 453.137C445.852 452.945 445.622 452.786 445.33 452.66C445.042 452.534 444.715 452.423 444.351 452.327L443.148 451.999C442.332 451.777 441.686 451.45 441.209 451.02C440.735 450.589 440.498 450.019 440.498 449.309C440.498 448.723 440.657 448.211 440.975 447.773C441.293 447.336 441.724 446.996 442.268 446.754C442.811 446.509 443.425 446.386 444.107 446.386C444.797 446.386 445.405 446.507 445.932 446.749C446.462 446.991 446.88 447.324 447.185 447.748C447.49 448.169 447.649 448.653 447.662 449.2H446.18ZM449.841 456.707L454.285 447.917V447.843H449.145V446.525H455.876V447.887L451.447 456.707H449.841ZM457.809 455.315L457.734 455.857C457.685 456.255 457.6 456.669 457.481 457.1C457.365 457.534 457.244 457.937 457.118 458.308C456.995 458.679 456.894 458.974 456.815 459.193H455.761C455.804 458.987 455.863 458.709 455.94 458.358C456.016 458.01 456.09 457.62 456.163 457.189C456.236 456.758 456.291 456.319 456.327 455.872L456.377 455.315H457.809ZM463.064 456.846C462.381 456.846 461.771 456.729 461.234 456.493C460.701 456.258 460.278 455.931 459.967 455.514C459.658 455.093 459.493 454.606 459.469 454.052H461.031C461.05 454.354 461.152 454.616 461.334 454.838C461.519 455.056 461.761 455.225 462.06 455.345C462.358 455.464 462.689 455.524 463.054 455.524C463.455 455.524 463.81 455.454 464.118 455.315C464.429 455.176 464.673 454.982 464.849 454.733C465.024 454.481 465.112 454.191 465.112 453.863C465.112 453.522 465.024 453.222 464.849 452.963C464.676 452.702 464.423 452.496 464.088 452.347C463.757 452.198 463.356 452.123 462.885 452.123H462.025V450.87H462.885C463.263 450.87 463.594 450.802 463.879 450.667C464.168 450.531 464.393 450.342 464.555 450.1C464.718 449.855 464.799 449.568 464.799 449.24C464.799 448.925 464.728 448.651 464.585 448.419C464.446 448.184 464.247 448 463.989 447.868C463.733 447.735 463.432 447.669 463.084 447.669C462.752 447.669 462.442 447.73 462.154 447.853C461.869 447.972 461.637 448.144 461.458 448.37C461.279 448.592 461.183 448.859 461.17 449.17H459.683C459.7 448.62 459.862 448.136 460.17 447.718C460.482 447.301 460.893 446.974 461.403 446.739C461.914 446.504 462.481 446.386 463.104 446.386C463.757 446.386 464.32 446.514 464.794 446.769C465.271 447.021 465.639 447.357 465.898 447.778C466.16 448.199 466.289 448.66 466.286 449.16C466.289 449.73 466.13 450.214 465.808 450.612C465.49 451.01 465.066 451.276 464.536 451.412V451.492C465.212 451.595 465.735 451.863 466.107 452.297C466.481 452.731 466.667 453.27 466.663 453.913C466.667 454.473 466.511 454.975 466.196 455.419C465.884 455.864 465.459 456.213 464.918 456.468C464.378 456.72 463.76 456.846 463.064 456.846ZM472.087 456.876C471.302 456.873 470.631 456.666 470.074 456.255C469.517 455.844 469.091 455.245 468.796 454.46C468.501 453.674 468.354 452.728 468.354 451.621C468.354 450.517 468.501 449.574 468.796 448.792C469.094 448.01 469.522 447.413 470.079 447.002C470.639 446.592 471.308 446.386 472.087 446.386C472.866 446.386 473.534 446.593 474.091 447.007C474.648 447.418 475.074 448.015 475.369 448.797C475.667 449.576 475.816 450.517 475.816 451.621C475.816 452.731 475.669 453.679 475.374 454.465C475.079 455.247 474.653 455.845 474.096 456.26C473.539 456.671 472.87 456.876 472.087 456.876ZM472.087 455.549C472.777 455.549 473.315 455.212 473.703 454.539C474.094 453.867 474.29 452.894 474.29 451.621C474.29 450.776 474.2 450.062 474.021 449.478C473.846 448.892 473.592 448.448 473.261 448.146C472.933 447.841 472.541 447.689 472.087 447.689C471.401 447.689 470.863 448.027 470.472 448.703C470.081 449.379 469.883 450.352 469.88 451.621C469.88 452.47 469.968 453.187 470.143 453.774C470.322 454.357 470.576 454.8 470.904 455.101C471.232 455.4 471.627 455.549 472.087 455.549ZM481.124 456.876C480.339 456.873 479.668 456.666 479.111 456.255C478.554 455.844 478.128 455.245 477.833 454.46C477.538 453.674 477.391 452.728 477.391 451.621C477.391 450.517 477.538 449.574 477.833 448.792C478.132 448.01 478.559 447.413 479.116 447.002C479.676 446.592 480.346 446.386 481.124 446.386C481.903 446.386 482.571 446.593 483.128 447.007C483.685 447.418 484.111 448.015 484.406 448.797C484.704 449.576 484.853 450.517 484.853 451.621C484.853 452.731 484.706 453.679 484.411 454.465C484.116 455.247 483.69 455.845 483.133 456.26C482.576 456.671 481.907 456.876 481.124 456.876ZM481.124 455.549C481.814 455.549 482.352 455.212 482.74 454.539C483.131 453.867 483.327 452.894 483.327 451.621C483.327 450.776 483.237 450.062 483.058 449.478C482.883 448.892 482.629 448.448 482.298 448.146C481.97 447.841 481.579 447.689 481.124 447.689C480.438 447.689 479.9 448.027 479.509 448.703C479.118 449.379 478.92 450.352 478.917 451.621C478.917 452.47 479.005 453.187 479.181 453.774C479.36 454.357 479.613 454.8 479.941 455.101C480.269 455.4 480.664 455.549 481.124 455.549Z" fill="#475467"/>
</g>
<defs>
<filter id="filter0_d_219_2034" x="348.389" y="234.572" width="39.36" height="39.3609" filterUnits="userSpaceOnUse" color-interpolation-filters="sRGB">
<feFlood flood-opacity="0" result="BackgroundImageFix"/>
<feColorMatrix in="SourceAlpha" type="matrix" values="0 0 0 0 0 0 0 0 0 0 0 0 0 0 0 0 0 0 127 0" result="hardAlpha"/>
<feOffset dy="5.62286"/>
<feGaussianBlur stdDeviation="2.81143"/>
<feComposite in2="hardAlpha" operator="out"/>
<feColorMatrix type="matrix" values="0 0 0 0 0 0 0 0 0 0 0 0 0 0 0 0 0 0 0.08 0"/>
<feBlend mode="normal" in2="BackgroundImageFix" result="effect1_dropShadow_219_2034"/>
<feBlend mode="normal" in="SourceGraphic" in2="effect1_dropShadow_219_2034" result="shape"/>
</filter>
<clipPath id="clip0_219_2034">
<rect width="604" height="600" rx="16" fill="white"/>
</clipPath>
</defs>
</svg>
