<svg width="60" height="60" viewBox="0 0 60 60" fill="none" xmlns="http://www.w3.org/2000/svg">
<rect x="10" y="10" width="40" height="40" rx="20" fill="#31974E" fill-opacity="0.14"/>
<path d="M31 23C31 24.1046 28.5376 25 25.5 25C22.4624 25 20 24.1046 20 23M31 23C31 21.8954 28.5376 21 25.5 21C22.4624 21 20 21.8954 20 23M31 23V24.5M20 23V35C20 36.1046 22.4624 37 25.5 37M25.5 29C25.3315 29 25.1647 28.9972 25 28.9918C22.1967 28.9 20 28.0433 20 27M25.5 33C22.4624 33 20 32.1046 20 31M40 29.5C40 30.6046 37.5376 31.5 34.5 31.5C31.4624 31.5 29 30.6046 29 29.5M40 29.5C40 28.3954 37.5376 27.5 34.5 27.5C31.4624 27.5 29 28.3954 29 29.5M40 29.5V37C40 38.1046 37.5376 39 34.5 39C31.4624 39 29 38.1046 29 37V29.5M40 33.25C40 34.3546 37.5376 35.25 34.5 35.25C31.4624 35.25 29 34.3546 29 33.25" stroke="#288041" stroke-width="2" stroke-linecap="round" stroke-linejoin="round"/>
<rect x="5" y="5" width="50" height="50" rx="25" stroke="#31974E" stroke-opacity="0.1" stroke-width="10"/>
</svg>
