<svg width="424" height="507" viewBox="0 0 424 507" fill="none" xmlns="http://www.w3.org/2000/svg">
<rect width="423" height="506.783" transform="translate(0.612305 0.130859)" fill="white"/>
<path d="M49.7517 61.2437L57.3053 53.6908C58.4186 52.5776 58.9753 52.021 59.1686 51.364C59.3387 50.7861 59.3174 50.1565 59.1077 49.5657C58.8693 48.894 58.2737 48.2983 57.0824 47.1069L42.6178 32.6409C41.4265 31.4495 40.8308 30.8537 40.1591 30.6153C39.5683 30.4056 38.9388 30.3842 38.3609 30.5543C37.7038 30.7475 37.1471 31.3042 36.0339 32.4173L28.4803 39.9702C27.367 41.0834 26.8104 41.6399 26.617 42.297C26.4469 42.8749 26.4683 43.5044 26.6779 44.0953C26.9162 44.7669 27.5119 45.3627 28.7033 46.5541L43.1679 61.0201C44.3592 62.2115 44.9548 62.8072 45.6265 63.0456C46.2173 63.2554 46.8468 63.2768 47.4248 63.1067C48.0818 62.9134 48.6385 62.3568 49.7517 61.2437Z" stroke="#4DDD96" stroke-width="1.375" stroke-linecap="round" stroke-linejoin="round"/>
<path d="M35.9639 53.6434L43.5167 61.1969C44.6299 62.3102 45.1865 62.8669 45.843 63.0607C46.4205 63.2312 47.0494 63.2107 47.6393 63.0018C48.31 62.7644 48.9045 62.1701 50.0933 60.9813L64.5282 46.5478C65.717 45.3591 66.3115 44.7647 66.5489 44.094C66.7578 43.5041 66.7785 42.8752 66.608 42.2977C66.4142 41.6412 65.8576 41.0845 64.7444 39.9713L57.1915 32.4177C56.0784 31.3044 55.5218 30.7478 54.8652 30.5539C54.2878 30.3833 53.6589 30.404 53.069 30.6128C52.3983 30.8501 51.8038 31.4446 50.6149 32.6333L36.1801 47.0668C34.9913 48.2555 34.3968 48.8499 34.1594 49.5206C33.9505 50.1106 33.9298 50.7394 34.1003 51.3169C34.2941 51.9735 34.8507 52.5301 35.9639 53.6434Z" fill="#4DDD96" stroke="#4DDD96" stroke-width="1.375" stroke-linecap="round" stroke-linejoin="round"/>
<path d="M101.607 41.7828H96.8259C96.6895 40.9988 96.4381 40.3042 96.0716 39.699C95.7052 39.0854 95.2492 38.5655 94.7037 38.1394C94.1583 37.7132 93.5361 37.3936 92.8373 37.1806C92.1469 36.959 91.4012 36.8482 90.6001 36.8482C89.1768 36.8482 87.9154 37.2061 86.816 37.9221C85.7165 38.6294 84.8557 39.6692 84.2336 41.0414C83.6114 42.405 83.3003 44.0712 83.3003 46.0399C83.3003 48.0428 83.6114 49.7303 84.2336 51.1024C84.8643 52.4661 85.7251 53.4973 86.816 54.1962C87.9154 54.8865 89.1725 55.2317 90.5873 55.2317C91.3714 55.2317 92.1043 55.1294 92.7861 54.9249C93.4765 54.7118 94.0944 54.4007 94.6398 53.9917C95.1938 53.5826 95.6583 53.0797 96.0333 52.4831C96.4168 51.8865 96.681 51.2047 96.8259 50.4377L101.607 50.4632C101.428 51.7076 101.04 52.8752 100.444 53.9661C99.8557 55.057 99.0844 56.0201 98.1299 56.8553C97.1753 57.682 96.0589 58.3297 94.7805 58.7985C93.502 59.2587 92.083 59.4888 90.5233 59.4888C88.2222 59.4888 86.1682 58.9561 84.3614 57.8908C82.5546 56.8255 81.1313 55.2871 80.0915 53.2757C79.0518 51.2644 78.5319 48.8524 78.5319 46.0399C78.5319 43.2189 79.056 40.807 80.1043 38.8042C81.1526 36.7928 82.5802 35.2544 84.387 34.1891C86.1938 33.1238 88.2393 32.5911 90.5233 32.5911C91.9807 32.5911 93.3358 32.7956 94.5887 33.2047C95.8415 33.6138 96.958 34.2147 97.9381 35.0073C98.9182 35.7914 99.7236 36.7544 100.354 37.8965C100.994 39.03 101.411 40.3255 101.607 41.7828ZM110.677 59.5272C109.432 59.5272 108.312 59.3056 107.314 58.8624C106.326 58.4107 105.542 57.7459 104.962 56.8681C104.391 55.9902 104.106 54.9078 104.106 53.6209C104.106 52.513 104.31 51.5968 104.719 50.8723C105.128 50.1479 105.687 49.5684 106.394 49.1337C107.101 48.699 107.898 48.3709 108.785 48.1493C109.679 47.9192 110.604 47.753 111.559 47.6507C112.709 47.5314 113.642 47.4249 114.358 47.3311C115.074 47.2289 115.594 47.0755 115.918 46.8709C116.25 46.6578 116.417 46.3297 116.417 45.8865V45.8098C116.417 44.8468 116.131 44.101 115.56 43.5726C114.989 43.0442 114.167 42.78 113.093 42.78C111.959 42.78 111.06 43.0272 110.395 43.5215C109.739 44.0158 109.296 44.5996 109.066 45.2729L104.745 44.6593C105.086 43.4661 105.648 42.4689 106.432 41.6678C107.216 40.8581 108.175 40.253 109.309 39.8524C110.442 39.4434 111.695 39.2388 113.067 39.2388C114.013 39.2388 114.955 39.3496 115.892 39.5712C116.83 39.7928 117.687 40.1593 118.462 40.6706C119.238 41.1735 119.86 41.8596 120.329 42.7289C120.806 43.5982 121.044 44.6848 121.044 45.9888V59.1309H116.596V56.4334H116.442C116.161 56.9789 115.765 57.4902 115.253 57.9675C114.75 58.4363 114.115 58.8155 113.348 59.1053C112.59 59.3865 111.699 59.5272 110.677 59.5272ZM111.878 56.1266C112.807 56.1266 113.613 55.9434 114.294 55.5769C114.976 55.2019 115.5 54.7076 115.867 54.0939C116.242 53.4803 116.429 52.8113 116.429 52.0868V49.7729C116.285 49.8922 116.037 50.003 115.688 50.1053C115.347 50.2076 114.964 50.2971 114.537 50.3738C114.111 50.4505 113.689 50.5186 113.272 50.5783C112.854 50.638 112.492 50.6891 112.185 50.7317C111.495 50.8255 110.877 50.9789 110.331 51.1919C109.786 51.405 109.356 51.7033 109.04 52.0868C108.725 52.4618 108.567 52.9476 108.567 53.5442C108.567 54.3965 108.878 55.04 109.5 55.4746C110.123 55.9093 110.915 56.1266 111.878 56.1266ZM124.978 59.1309V39.4945H129.465V42.7672H129.67C130.028 41.6337 130.641 40.7601 131.511 40.1465C132.388 39.5243 133.39 39.2132 134.515 39.2132C134.77 39.2132 135.056 39.226 135.371 39.2516C135.695 39.2686 135.964 39.2985 136.177 39.3411V43.5982C135.981 43.53 135.67 43.4703 135.244 43.4192C134.826 43.3596 134.421 43.3297 134.029 43.3297C133.185 43.3297 132.427 43.513 131.753 43.8794C131.089 44.2374 130.565 44.736 130.181 45.3752C129.797 46.0144 129.606 46.7516 129.606 47.5868V59.1309H124.978ZM145.01 59.476C143.467 59.476 142.086 59.0797 140.868 58.2871C139.649 57.4945 138.686 56.3439 137.978 54.8354C137.271 53.3269 136.917 51.4945 136.917 49.3382C136.917 47.1564 137.275 45.3155 137.991 43.8155C138.716 42.307 139.691 41.1692 140.919 40.4022C142.146 39.6266 143.514 39.2388 145.022 39.2388C146.173 39.2388 147.119 39.4348 147.861 39.8269C148.602 40.2104 149.19 40.6749 149.625 41.2203C150.059 41.7573 150.396 42.2644 150.635 42.7417H150.826V32.949H155.467V59.1309H150.916V56.0371H150.635C150.396 56.5144 150.051 57.0215 149.599 57.5584C149.147 58.0868 148.551 58.5385 147.809 58.9135C147.068 59.2885 146.135 59.476 145.01 59.476ZM146.301 55.6792C147.281 55.6792 148.116 55.415 148.807 54.8865C149.497 54.3496 150.021 53.6039 150.379 52.6493C150.737 51.6948 150.916 50.5826 150.916 49.3127C150.916 48.0428 150.737 46.9391 150.379 46.0016C150.03 45.0641 149.51 44.3354 148.819 43.8155C148.137 43.2956 147.298 43.0357 146.301 43.0357C145.27 43.0357 144.409 43.3042 143.718 43.8411C143.028 44.378 142.508 45.1195 142.159 46.0655C141.809 47.0115 141.635 48.0939 141.635 49.3127C141.635 50.5399 141.809 51.6351 142.159 52.5982C142.517 53.5527 143.041 54.307 143.731 54.861C144.43 55.4064 145.287 55.6792 146.301 55.6792ZM168.093 59.1309V32.949H172.836V55.155H184.367V59.1309H168.093ZM187.559 59.1309V39.4945H192.187V59.1309H187.559ZM189.886 36.7076C189.153 36.7076 188.522 36.4647 187.993 35.9789C187.465 35.4846 187.201 34.8922 187.201 34.2019C187.201 33.503 187.465 32.9107 187.993 32.4249C188.522 31.9306 189.153 31.6834 189.886 31.6834C190.627 31.6834 191.258 31.9306 191.778 32.4249C192.306 32.9107 192.57 33.503 192.57 34.2019C192.57 34.8922 192.306 35.4846 191.778 35.9789C191.258 36.4647 190.627 36.7076 189.886 36.7076ZM196.226 59.1309V39.4945H200.649V42.8311H200.879C201.288 41.7061 201.966 40.8283 202.912 40.1976C203.858 39.5584 204.987 39.2388 206.299 39.2388C207.629 39.2388 208.75 39.5627 209.662 40.2104C210.582 40.8496 211.23 41.7232 211.605 42.8311H211.809C212.244 41.7402 212.977 40.8709 214.008 40.2232C215.048 39.5669 216.28 39.2388 217.703 39.2388C219.51 39.2388 220.984 39.8098 222.126 40.9519C223.268 42.0939 223.839 43.7601 223.839 45.9505V59.1309H219.199V46.6664C219.199 45.4476 218.875 44.557 218.227 43.9945C217.579 43.4235 216.787 43.138 215.849 43.138C214.733 43.138 213.859 43.4874 213.228 44.1863C212.606 44.8766 212.295 45.7757 212.295 46.8837V59.1309H207.757V46.4746C207.757 45.4604 207.45 44.6507 206.836 44.0456C206.231 43.4405 205.439 43.138 204.458 43.138C203.794 43.138 203.189 43.3084 202.643 43.6493C202.098 43.9817 201.663 44.4547 201.339 45.0684C201.015 45.6735 200.853 46.3809 200.853 47.1905V59.1309H196.226ZM227.814 59.1309V39.4945H232.442V59.1309H227.814ZM230.141 36.7076C229.408 36.7076 228.777 36.4647 228.249 35.9789C227.72 35.4846 227.456 34.8922 227.456 34.2019C227.456 33.503 227.72 32.9107 228.249 32.4249C228.777 31.9306 229.408 31.6834 230.141 31.6834C230.882 31.6834 231.513 31.9306 232.033 32.4249C232.561 32.9107 232.825 33.503 232.825 34.2019C232.825 34.8922 232.561 35.4846 232.033 35.9789C231.513 36.4647 230.882 36.7076 230.141 36.7076ZM246.286 39.4945V43.074H234.998V39.4945L246.286 39.4945ZM237.785 34.7899H242.413V53.2246C242.413 53.8468 242.506 54.324 242.694 54.6564C242.89 54.9803 243.146 55.2019 243.461 55.3212C243.776 55.4405 244.126 55.5002 244.509 55.5002C244.799 55.5002 245.063 55.4789 245.302 55.4363C245.549 55.3936 245.737 55.3553 245.864 55.3212L246.644 58.9391C246.397 59.0243 246.043 59.1181 245.583 59.2203C245.131 59.3226 244.577 59.3823 243.921 59.3993C242.762 59.4334 241.718 59.2587 240.789 58.8752C239.86 58.4831 239.123 57.878 238.577 57.0598C238.041 56.2417 237.776 55.2189 237.785 53.9917V34.7899Z" fill="#0C3521"/>
<path d="M35.385 92.1328H33.9759C33.8926 91.7275 33.7468 91.3714 33.5384 91.0646C33.3339 90.7578 33.0839 90.5002 32.7884 90.2919C32.4968 90.0798 32.1729 89.9207 31.8169 89.8146C31.4608 89.7086 31.0896 89.6555 30.7032 89.6555C29.9987 89.6555 29.3604 89.8336 28.7884 90.1896C28.2203 90.5457 27.7676 91.0703 27.4305 91.7635C27.0972 92.4567 26.9305 93.3071 26.9305 94.3146C26.9305 95.3222 27.0972 96.1726 27.4305 96.8658C27.7676 97.5589 28.2203 98.0836 28.7884 98.4396C29.3604 98.7957 29.9987 98.9737 30.7032 98.9737C31.0896 98.9737 31.4608 98.9207 31.8169 98.8146C32.1729 98.7086 32.4968 98.5514 32.7884 98.343C33.0839 98.1309 33.3339 97.8714 33.5384 97.5646C33.7468 97.254 33.8926 96.898 33.9759 96.4964H35.385C35.279 97.0911 35.0858 97.6233 34.8055 98.093C34.5252 98.5627 34.1767 98.9624 33.76 99.2919C33.3434 99.6177 32.8756 99.8658 32.3566 100.036C31.8415 100.207 31.2903 100.292 30.7032 100.292C29.7108 100.292 28.8282 100.049 28.0555 99.5646C27.2828 99.0798 26.6748 98.3904 26.2316 97.4964C25.7884 96.6025 25.5669 95.5419 25.5669 94.3146C25.5669 93.0874 25.7884 92.0268 26.2316 91.1328C26.6748 90.2389 27.2828 89.5495 28.0555 89.0646C28.8282 88.5798 29.7108 88.3374 30.7032 88.3374C31.2903 88.3374 31.8415 88.4226 32.3566 88.593C32.8756 88.7635 33.3434 89.0135 33.76 89.343C34.1767 89.6688 34.5252 90.0665 34.8055 90.5362C35.0858 91.0021 35.279 91.5343 35.385 92.1328ZM41.0257 100.315C40.2378 100.315 39.5465 100.127 38.9518 99.7521C38.3609 99.3771 37.8988 98.8525 37.5654 98.1783C37.2359 97.504 37.0711 96.7161 37.0711 95.8146C37.0711 94.9055 37.2359 94.112 37.5654 93.4339C37.8988 92.7559 38.3609 92.2294 38.9518 91.8544C39.5465 91.4794 40.2378 91.2919 41.0257 91.2919C41.8135 91.2919 42.5029 91.4794 43.0938 91.8544C43.6885 92.2294 44.1507 92.7559 44.4802 93.4339C44.8135 94.112 44.9802 94.9055 44.9802 95.8146C44.9802 96.7161 44.8135 97.504 44.4802 98.1783C44.1507 98.8525 43.6885 99.3771 43.0938 99.7521C42.5029 100.127 41.8135 100.315 41.0257 100.315ZM41.0257 99.1101C41.6241 99.1101 42.1166 98.9567 42.5029 98.6499C42.8893 98.343 43.1753 97.9396 43.3609 97.4396C43.5465 96.9396 43.6393 96.398 43.6393 95.8146C43.6393 95.2313 43.5465 94.6877 43.3609 94.1839C43.1753 93.6802 42.8893 93.273 42.5029 92.9624C42.1166 92.6518 41.6241 92.4964 41.0257 92.4964C40.4272 92.4964 39.9347 92.6518 39.5484 92.9624C39.162 93.273 38.876 93.6802 38.6904 94.1839C38.5048 94.6877 38.412 95.2313 38.412 95.8146C38.412 96.398 38.5048 96.9396 38.6904 97.4396C38.876 97.9396 39.162 98.343 39.5484 98.6499C39.9347 98.9567 40.4272 99.1101 41.0257 99.1101ZM48.368 94.8828V100.133H47.0271V91.4055H48.3225V92.7692H48.4362C48.6407 92.326 48.9513 91.9699 49.368 91.701C49.7847 91.4283 50.3225 91.2919 50.9816 91.2919C51.5725 91.2919 52.0896 91.4131 52.5328 91.6555C52.9759 91.8942 53.3206 92.2578 53.5669 92.7464C53.8131 93.2313 53.9362 93.8449 53.9362 94.5874V100.133H52.5953V94.6783C52.5953 93.9927 52.4172 93.4586 52.0612 93.076C51.7051 92.6896 51.2165 92.4964 50.5953 92.4964C50.1672 92.4964 49.7847 92.5893 49.4475 92.7749C49.1142 92.9605 48.8509 93.2313 48.6578 93.5874C48.4646 93.9434 48.368 94.3752 48.368 94.8828ZM59.9092 103.587C59.2615 103.587 58.7046 103.504 58.2387 103.337C57.7728 103.174 57.3846 102.959 57.074 102.69C56.7671 102.424 56.5228 102.14 56.341 101.837L57.4092 101.087C57.5304 101.246 57.6838 101.428 57.8694 101.633C58.055 101.841 58.3088 102.021 58.6308 102.173C58.9565 102.328 59.3827 102.406 59.9092 102.406C60.6137 102.406 61.1952 102.235 61.6535 101.894C62.1118 101.553 62.341 101.019 62.341 100.292V98.5192H62.2274C62.1289 98.6783 61.9887 98.8752 61.8069 99.1101C61.6289 99.3411 61.3713 99.5476 61.0342 99.7294C60.7008 99.9074 60.2501 99.9964 59.6819 99.9964C58.9774 99.9964 58.3448 99.8298 57.7842 99.4964C57.2274 99.1631 56.7861 98.6783 56.4603 98.0419C56.1383 97.4055 55.9774 96.6328 55.9774 95.7237C55.9774 94.8298 56.1346 94.0514 56.449 93.3885C56.7633 92.7218 57.2008 92.2067 57.7615 91.843C58.3221 91.4756 58.9698 91.2919 59.7046 91.2919C60.2728 91.2919 60.7236 91.3866 61.0569 91.576C61.394 91.7616 61.6516 91.9737 61.8296 92.2124C62.0115 92.4472 62.1516 92.6404 62.2501 92.7919H62.3865V91.4055H63.6819V100.383C63.6819 101.133 63.5115 101.743 63.1705 102.212C62.8334 102.686 62.3789 103.032 61.8069 103.252C61.2387 103.476 60.6061 103.587 59.9092 103.587ZM59.8637 98.7919C60.4016 98.7919 60.8561 98.6688 61.2274 98.4226C61.5986 98.1764 61.8808 97.8222 62.074 97.3601C62.2671 96.898 62.3637 96.3449 62.3637 95.701C62.3637 95.0722 62.269 94.5173 62.0796 94.0362C61.8902 93.5552 61.6099 93.1783 61.2387 92.9055C60.8675 92.6328 60.4092 92.4964 59.8637 92.4964C59.2955 92.4964 58.8221 92.6404 58.4433 92.9283C58.0683 93.2161 57.7861 93.6025 57.5967 94.0874C57.4111 94.5722 57.3183 95.1101 57.3183 95.701C57.3183 96.3071 57.413 96.843 57.6024 97.3089C57.7955 97.7711 58.0796 98.1347 58.4546 98.3999C58.8334 98.6612 59.3031 98.7919 59.8637 98.7919ZM66.1365 100.133V91.4055H67.4319V92.7237H67.5228C67.6819 92.2919 67.9698 91.9415 68.3865 91.6726C68.8031 91.4036 69.2728 91.2692 69.7955 91.2692C69.894 91.2692 70.0171 91.2711 70.1649 91.2749C70.3126 91.2786 70.4243 91.2843 70.5001 91.2919V92.6555C70.4546 92.6442 70.3505 92.6271 70.1876 92.6044C70.0285 92.5779 69.8599 92.5646 69.6819 92.5646C69.2577 92.5646 68.8789 92.6536 68.5455 92.8317C68.216 93.0059 67.9546 93.2483 67.7615 93.5589C67.5721 93.8658 67.4774 94.2161 67.4774 94.6101V100.133H66.1365ZM74.6578 100.337C74.1047 100.337 73.6028 100.233 73.1521 100.025C72.7013 99.8127 72.3434 99.5078 72.0782 99.1101C71.8131 98.7086 71.6805 98.2237 71.6805 97.6555C71.6805 97.1555 71.779 96.7502 71.9759 96.4396C72.1729 96.1252 72.4362 95.879 72.7657 95.701C73.0953 95.523 73.4589 95.3904 73.8566 95.3033C74.2581 95.2124 74.6615 95.1404 75.0669 95.0874C75.5972 95.0192 76.0271 94.968 76.3566 94.9339C76.69 94.8961 76.9324 94.8336 77.0839 94.7464C77.2392 94.6593 77.3169 94.5078 77.3169 94.2919V94.2464C77.3169 93.6858 77.1634 93.2502 76.8566 92.9396C76.5536 92.629 76.0934 92.4737 75.4759 92.4737C74.8358 92.4737 74.3339 92.6139 73.9703 92.8942C73.6066 93.1745 73.3509 93.4737 73.2032 93.7919L71.9305 93.3374C72.1578 92.8071 72.4608 92.3942 72.8396 92.0987C73.2222 91.7995 73.6388 91.5911 74.0896 91.4737C74.5441 91.3525 74.9911 91.2919 75.4305 91.2919C75.7108 91.2919 76.0328 91.326 76.3964 91.3942C76.7638 91.4586 77.118 91.593 77.4589 91.7976C77.8036 92.0021 78.0896 92.3108 78.3169 92.7237C78.5441 93.1366 78.6578 93.6896 78.6578 94.3828V100.133H77.3169V98.951H77.2487C77.1578 99.1404 77.0062 99.343 76.7941 99.5589C76.582 99.7749 76.2998 99.9586 75.9475 100.11C75.5953 100.262 75.1653 100.337 74.6578 100.337ZM74.8623 99.1328C75.3926 99.1328 75.8396 99.0286 76.2032 98.8203C76.5706 98.612 76.8472 98.343 77.0328 98.0135C77.2222 97.6839 77.3169 97.3374 77.3169 96.9737V95.7464C77.26 95.8146 77.135 95.8771 76.9419 95.9339C76.7525 95.987 76.5328 96.0343 76.2828 96.076C76.0365 96.1139 75.796 96.148 75.5612 96.1783C75.3301 96.2048 75.1426 96.2275 74.9987 96.2464C74.6502 96.2919 74.3244 96.3658 74.0214 96.468C73.7222 96.5665 73.4797 96.7161 73.2941 96.9169C73.1123 97.1139 73.0214 97.3828 73.0214 97.7237C73.0214 98.1896 73.1937 98.5419 73.5384 98.7805C73.8869 99.0154 74.3282 99.1328 74.8623 99.1328ZM84.9007 91.4055V92.5419H80.3779V91.4055H84.9007ZM81.6961 89.3146H83.037V97.6328C83.037 98.0116 83.0919 98.2957 83.2018 98.4851C83.3154 98.6707 83.4594 98.7957 83.6336 98.8601C83.8116 98.9207 83.9991 98.951 84.1961 98.951C84.3438 98.951 84.4651 98.9434 84.5597 98.9283C84.6544 98.9093 84.7302 98.8942 84.787 98.8828L85.0597 100.087C84.9688 100.121 84.8419 100.156 84.6791 100.19C84.5162 100.228 84.3097 100.246 84.0597 100.246C83.681 100.246 83.3097 100.165 82.9461 100.002C82.5863 99.8393 82.287 99.5911 82.0484 99.2578C81.8135 98.9245 81.6961 98.504 81.6961 97.9964V89.3146ZM92.4177 96.5646V91.4055H93.7586V100.133H92.4177V98.6555H92.3268C92.1222 99.0987 91.8041 99.4756 91.3722 99.7862C90.9404 100.093 90.395 100.246 89.7359 100.246C89.1904 100.246 88.7056 100.127 88.2813 99.8885C87.8571 99.6461 87.5238 99.2824 87.2813 98.7976C87.0389 98.3089 86.9177 97.6934 86.9177 96.951V91.4055H88.2586V96.8601C88.2586 97.4964 88.4366 98.004 88.7927 98.3828C89.1526 98.7616 89.6109 98.951 90.1677 98.951C90.501 98.951 90.8401 98.8658 91.1847 98.6953C91.5332 98.5249 91.8249 98.2635 92.0597 97.9112C92.2984 97.5589 92.4177 97.1101 92.4177 96.5646ZM97.5555 88.4964V100.133H96.2146V88.4964H97.5555ZM102.58 100.337C102.027 100.337 101.525 100.233 101.074 100.025C100.623 99.8127 100.265 99.5078 100 99.1101C99.7349 98.7086 99.6024 98.2237 99.6024 97.6555C99.6024 97.1555 99.7008 96.7502 99.8978 96.4396C100.095 96.1252 100.358 95.879 100.688 95.701C101.017 95.523 101.381 95.3904 101.778 95.3033C102.18 95.2124 102.583 95.1404 102.989 95.0874C103.519 95.0192 103.949 94.968 104.278 94.9339C104.612 94.8961 104.854 94.8336 105.006 94.7464C105.161 94.6593 105.239 94.5078 105.239 94.2919V94.2464C105.239 93.6858 105.085 93.2502 104.778 92.9396C104.475 92.629 104.015 92.4737 103.398 92.4737C102.758 92.4737 102.256 92.6139 101.892 92.8942C101.528 93.1745 101.273 93.4737 101.125 93.7919L99.8524 93.3374C100.08 92.8071 100.383 92.3942 100.761 92.0987C101.144 91.7995 101.561 91.5911 102.011 91.4737C102.466 91.3525 102.913 91.2919 103.352 91.2919C103.633 91.2919 103.955 91.326 104.318 91.3942C104.686 91.4586 105.04 91.593 105.381 91.7976C105.725 92.0021 106.011 92.3108 106.239 92.7237C106.466 93.1366 106.58 93.6896 106.58 94.3828V100.133H105.239V98.951H105.171C105.08 99.1404 104.928 99.343 104.716 99.5589C104.504 99.7749 104.222 99.9586 103.869 100.11C103.517 100.262 103.087 100.337 102.58 100.337ZM102.784 99.1328C103.314 99.1328 103.761 99.0286 104.125 98.8203C104.493 98.612 104.769 98.343 104.955 98.0135C105.144 97.6839 105.239 97.3374 105.239 96.9737V95.7464C105.182 95.8146 105.057 95.8771 104.864 95.9339C104.674 95.987 104.455 96.0343 104.205 96.076C103.958 96.1139 103.718 96.148 103.483 96.1783C103.252 96.2048 103.064 96.2275 102.921 96.2464C102.572 96.2919 102.246 96.3658 101.943 96.468C101.644 96.5665 101.402 96.7161 101.216 96.9169C101.034 97.1139 100.943 97.3828 100.943 97.7237C100.943 98.1896 101.116 98.5419 101.46 98.7805C101.809 99.0154 102.25 99.1328 102.784 99.1328ZM112.823 91.4055V92.5419H108.3V91.4055H112.823ZM109.618 89.3146H110.959V97.6328C110.959 98.0116 111.014 98.2957 111.124 98.4851C111.237 98.6707 111.381 98.7957 111.555 98.8601C111.734 98.9207 111.921 98.951 112.118 98.951C112.266 98.951 112.387 98.9434 112.482 98.9283C112.576 98.9093 112.652 98.8942 112.709 98.8828L112.982 100.087C112.891 100.121 112.764 100.156 112.601 100.19C112.438 100.228 112.232 100.246 111.982 100.246C111.603 100.246 111.232 100.165 110.868 100.002C110.508 99.8393 110.209 99.5911 109.97 99.2578C109.735 98.9245 109.618 98.504 109.618 97.9964V89.3146ZM114.84 100.133V91.4055L116.18 91.4055V100.133H114.84ZM115.521 89.951C115.26 89.951 115.035 89.862 114.845 89.6839C114.66 89.5059 114.567 89.2919 114.567 89.0419C114.567 88.7919 114.66 88.5779 114.845 88.3999C115.035 88.2218 115.26 88.1328 115.521 88.1328C115.783 88.1328 116.006 88.2218 116.192 88.3999C116.381 88.5779 116.476 88.7919 116.476 89.0419C116.476 89.2919 116.381 89.5059 116.192 89.6839C116.006 89.862 115.783 89.951 115.521 89.951ZM122.182 100.315C121.394 100.315 120.703 100.127 120.108 99.7521C119.517 99.3771 119.055 98.8525 118.722 98.1783C118.392 97.504 118.227 96.7161 118.227 95.8146C118.227 94.9055 118.392 94.112 118.722 93.4339C119.055 92.7559 119.517 92.2294 120.108 91.8544C120.703 91.4794 121.394 91.2919 122.182 91.2919C122.97 91.2919 123.659 91.4794 124.25 91.8544C124.845 92.2294 125.307 92.7559 125.636 93.4339C125.97 94.112 126.136 94.9055 126.136 95.8146C126.136 96.7161 125.97 97.504 125.636 98.1783C125.307 98.8525 124.845 99.3771 124.25 99.7521C123.659 100.127 122.97 100.315 122.182 100.315ZM122.182 99.1101C122.78 99.1101 123.273 98.9567 123.659 98.6499C124.046 98.343 124.332 97.9396 124.517 97.4396C124.703 96.9396 124.796 96.398 124.796 95.8146C124.796 95.2313 124.703 94.6877 124.517 94.1839C124.332 93.6802 124.046 93.273 123.659 92.9624C123.273 92.6518 122.78 92.4964 122.182 92.4964C121.583 92.4964 121.091 92.6518 120.705 92.9624C120.318 93.273 120.032 93.6802 119.847 94.1839C119.661 94.6877 119.568 95.2313 119.568 95.8146C119.568 96.398 119.661 96.9396 119.847 97.4396C120.032 97.9396 120.318 98.343 120.705 98.6499C121.091 98.9567 121.583 99.1101 122.182 99.1101ZM129.524 94.8828V100.133H128.183V91.4055H129.479V92.7692H129.592C129.797 92.326 130.108 91.9699 130.524 91.701C130.941 91.4283 131.479 91.2919 132.138 91.2919C132.729 91.2919 133.246 91.4131 133.689 91.6555C134.132 91.8942 134.477 92.2578 134.723 92.7464C134.969 93.2313 135.092 93.8449 135.092 94.5874V100.133H133.752V94.6783C133.752 93.9927 133.573 93.4586 133.217 93.076C132.861 92.6896 132.373 92.4964 131.752 92.4964C131.323 92.4964 130.941 92.5893 130.604 92.7749C130.27 92.9605 130.007 93.2313 129.814 93.5874C129.621 93.9434 129.524 94.3752 129.524 94.8828ZM143.725 93.3601L142.52 93.701C142.444 93.5002 142.332 93.3052 142.185 93.1158C142.041 92.9226 141.844 92.7635 141.594 92.6385C141.344 92.5135 141.024 92.451 140.634 92.451C140.1 92.451 139.654 92.5741 139.298 92.8203C138.946 93.0627 138.77 93.3714 138.77 93.7464C138.77 94.0798 138.891 94.343 139.134 94.5362C139.376 94.7294 139.755 94.8904 140.27 95.0192L141.565 95.3374C142.346 95.5268 142.927 95.8165 143.31 96.2067C143.692 96.593 143.884 97.0911 143.884 97.701C143.884 98.201 143.74 98.648 143.452 99.0419C143.168 99.4358 142.77 99.7464 142.259 99.9737C141.747 100.201 141.153 100.315 140.475 100.315C139.584 100.315 138.848 100.121 138.264 99.7351C137.681 99.3487 137.312 98.7843 137.156 98.0419L138.429 97.7237C138.55 98.1934 138.779 98.5457 139.117 98.7805C139.457 99.0154 139.903 99.1328 140.452 99.1328C141.077 99.1328 141.573 99.0002 141.94 98.7351C142.312 98.4661 142.497 98.1442 142.497 97.7692C142.497 97.4661 142.391 97.2124 142.179 97.0078C141.967 96.7995 141.641 96.6442 141.202 96.5419L139.747 96.201C138.948 96.0116 138.361 95.718 137.986 95.3203C137.615 94.9188 137.429 94.4169 137.429 93.8146C137.429 93.3222 137.567 92.8866 137.844 92.5078C138.124 92.129 138.505 91.8317 138.986 91.6158C139.471 91.3999 140.02 91.2919 140.634 91.2919C141.497 91.2919 142.175 91.4813 142.668 91.8601C143.164 92.2389 143.516 92.7389 143.725 93.3601ZM147.675 88.4964L147.561 96.8601H146.243L146.129 88.4964H147.675ZM146.902 100.224C146.622 100.224 146.381 100.123 146.18 99.9226C145.98 99.7218 145.879 99.4813 145.879 99.201C145.879 98.9207 145.98 98.6802 146.18 98.4794C146.381 98.2786 146.622 98.1783 146.902 98.1783C147.182 98.1783 147.423 98.2786 147.624 98.4794C147.824 98.6802 147.925 98.9207 147.925 99.201C147.925 99.3866 147.877 99.5571 147.783 99.7124C147.692 99.8677 147.569 99.9927 147.413 100.087C147.262 100.178 147.091 100.224 146.902 100.224ZM25.0214 120.496H26.635L29.8623 125.928H29.9987L33.2259 120.496H34.8396L30.635 127.337V132.133H29.2259V127.337L25.0214 120.496ZM38.7913 132.315C38.0034 132.315 37.3121 132.127 36.7174 131.752C36.1265 131.377 35.6644 130.853 35.3311 130.178C35.0015 129.504 34.8367 128.716 34.8367 127.815C34.8367 126.906 35.0015 126.112 35.3311 125.434C35.6644 124.756 36.1265 124.229 36.7174 123.854C37.3121 123.479 38.0034 123.292 38.7913 123.292C39.5792 123.292 40.2686 123.479 40.8595 123.854C41.4542 124.229 41.9163 124.756 42.2458 125.434C42.5792 126.112 42.7458 126.906 42.7458 127.815C42.7458 128.716 42.5792 129.504 42.2458 130.178C41.9163 130.853 41.4542 131.377 40.8595 131.752C40.2686 132.127 39.5792 132.315 38.7913 132.315ZM38.7913 131.11C39.3898 131.11 39.8822 130.957 40.2686 130.65C40.6549 130.343 40.9409 129.94 41.1265 129.44C41.3121 128.94 41.4049 128.398 41.4049 127.815C41.4049 127.231 41.3121 126.688 41.1265 126.184C40.9409 125.68 40.6549 125.273 40.2686 124.962C39.8822 124.652 39.3898 124.496 38.7913 124.496C38.1928 124.496 37.7004 124.652 37.314 124.962C36.9276 125.273 36.6417 125.68 36.4561 126.184C36.2704 126.688 36.1776 127.231 36.1776 127.815C36.1776 128.398 36.2704 128.94 36.4561 129.44C36.6417 129.94 36.9276 130.343 37.314 130.65C37.7004 130.957 38.1928 131.11 38.7913 131.11ZM50.2927 128.565V123.406H51.6336V132.133H50.2927V130.656H50.2018C49.9972 131.099 49.6791 131.476 49.2472 131.786C48.8154 132.093 48.27 132.246 47.6109 132.246C47.0654 132.246 46.5806 132.127 46.1563 131.888C45.7321 131.646 45.3988 131.282 45.1563 130.798C44.9139 130.309 44.7927 129.693 44.7927 128.951V123.406H46.1336V128.86C46.1336 129.496 46.3116 130.004 46.6677 130.383C47.0276 130.762 47.4859 130.951 48.0427 130.951C48.376 130.951 48.7151 130.866 49.0597 130.695C49.4082 130.525 49.6999 130.263 49.9347 129.911C50.1734 129.559 50.2927 129.11 50.2927 128.565ZM54.0896 132.133V123.406H55.385V124.724H55.4759C55.635 124.292 55.9229 123.942 56.3396 123.673C56.7562 123.404 57.2259 123.269 57.7487 123.269C57.8472 123.269 57.9703 123.271 58.118 123.275C58.2657 123.279 58.3775 123.284 58.4532 123.292V124.656C58.4078 124.644 58.3036 124.627 58.1407 124.604C57.9816 124.578 57.8131 124.565 57.635 124.565C57.2108 124.565 56.832 124.654 56.4987 124.832C56.1691 125.006 55.9078 125.248 55.7146 125.559C55.5252 125.866 55.4305 126.216 55.4305 126.61V132.133H54.0896ZM65.8836 120.496V132.133H64.5427V120.496H65.8836ZM68.3396 132.133V123.406H69.6805V132.133H68.3396ZM69.0214 121.951C68.76 121.951 68.5347 121.862 68.3453 121.684C68.1597 121.506 68.0669 121.292 68.0669 121.042C68.0669 120.792 68.1597 120.578 68.3453 120.4C68.5347 120.222 68.76 120.133 69.0214 120.133C69.2828 120.133 69.5062 120.222 69.6919 120.4C69.8812 120.578 69.9759 120.792 69.9759 121.042C69.9759 121.292 69.8812 121.506 69.6919 121.684C69.5062 121.862 69.2828 121.951 69.0214 121.951ZM72.1365 132.133V123.406H73.4319V124.769H73.5455C73.7274 124.303 74.0209 123.942 74.4262 123.684C74.8315 123.423 75.3183 123.292 75.8865 123.292C76.4622 123.292 76.9414 123.423 77.324 123.684C77.7103 123.942 78.0115 124.303 78.2274 124.769H78.3183C78.5418 124.318 78.877 123.96 79.324 123.695C79.7709 123.426 80.3069 123.292 80.9319 123.292C81.7122 123.292 82.3505 123.536 82.8467 124.025C83.3429 124.51 83.591 125.265 83.591 126.292V132.133H82.2501V126.292C82.2501 125.648 82.074 125.188 81.7217 124.911C81.3694 124.635 80.9546 124.496 80.4774 124.496C79.8637 124.496 79.3883 124.682 79.0512 125.053C78.7141 125.421 78.5455 125.887 78.5455 126.451V132.133H77.1819V126.156C77.1819 125.659 77.0209 125.26 76.699 124.957C76.377 124.65 75.9622 124.496 75.4546 124.496C75.1061 124.496 74.7804 124.589 74.4774 124.775C74.1781 124.96 73.9357 125.218 73.7501 125.548C73.5683 125.873 73.4774 126.25 73.4774 126.678V132.133H72.1365ZM86.0427 132.133V123.406H87.3836V132.133H86.0427ZM86.7245 121.951C86.4632 121.951 86.2378 121.862 86.0484 121.684C85.8628 121.506 85.77 121.292 85.77 121.042C85.77 120.792 85.8628 120.578 86.0484 120.4C86.2378 120.222 86.4632 120.133 86.7245 120.133C86.9859 120.133 87.2094 120.222 87.395 120.4C87.5844 120.578 87.6791 120.792 87.6791 121.042C87.6791 121.292 87.5844 121.506 87.395 121.684C87.2094 121.862 86.9859 121.951 86.7245 121.951ZM93.635 123.406V124.542H89.1123V123.406H93.635ZM90.4305 121.315H91.7714V129.633C91.7714 130.012 91.8263 130.296 91.9362 130.485C92.0498 130.671 92.1937 130.796 92.368 130.86C92.546 130.921 92.7335 130.951 92.9305 130.951C93.0782 130.951 93.1994 130.943 93.2941 130.928C93.3888 130.909 93.4646 130.894 93.5214 130.883L93.7941 132.087C93.7032 132.121 93.5763 132.156 93.4134 132.19C93.2506 132.228 93.0441 132.246 92.7941 132.246C92.4153 132.246 92.0441 132.165 91.6805 132.002C91.3206 131.839 91.0214 131.591 90.7828 131.258C90.5479 130.924 90.4305 130.504 90.4305 129.996V121.315ZM103.698 132.315C102.879 132.315 102.175 132.121 101.584 131.735C100.993 131.349 100.538 130.817 100.22 130.138C99.9021 129.46 99.743 128.686 99.743 127.815C99.743 126.928 99.9059 126.146 100.232 125.468C100.561 124.786 101.02 124.254 101.607 123.871C102.198 123.485 102.887 123.292 103.675 123.292C104.288 123.292 104.841 123.406 105.334 123.633C105.826 123.86 106.23 124.178 106.544 124.587C106.859 124.996 107.054 125.474 107.129 126.019H105.788C105.686 125.621 105.459 125.269 105.107 124.962C104.758 124.652 104.288 124.496 103.698 124.496C103.175 124.496 102.716 124.633 102.323 124.906C101.932 125.174 101.627 125.555 101.408 126.048C101.192 126.536 101.084 127.11 101.084 127.769C101.084 128.443 101.19 129.031 101.402 129.531C101.618 130.031 101.921 130.419 102.311 130.695C102.705 130.972 103.167 131.11 103.698 131.11C104.046 131.11 104.362 131.049 104.646 130.928C104.93 130.807 105.171 130.633 105.368 130.406C105.565 130.178 105.705 129.906 105.788 129.587H107.129C107.054 130.103 106.866 130.567 106.567 130.979C106.271 131.388 105.879 131.714 105.391 131.957C104.906 132.195 104.341 132.315 103.698 132.315ZM111.658 132.337C111.105 132.337 110.603 132.233 110.152 132.025C109.701 131.813 109.343 131.508 109.078 131.11C108.813 130.709 108.68 130.224 108.68 129.656C108.68 129.156 108.779 128.75 108.976 128.44C109.173 128.125 109.436 127.879 109.766 127.701C110.095 127.523 110.459 127.39 110.857 127.303C111.258 127.212 111.662 127.14 112.067 127.087C112.597 127.019 113.027 126.968 113.357 126.934C113.69 126.896 113.932 126.834 114.084 126.746C114.239 126.659 114.317 126.508 114.317 126.292V126.246C114.317 125.686 114.163 125.25 113.857 124.94C113.554 124.629 113.093 124.474 112.476 124.474C111.836 124.474 111.334 124.614 110.97 124.894C110.607 125.174 110.351 125.474 110.203 125.792L108.93 125.337C109.158 124.807 109.461 124.394 109.84 124.099C110.222 123.799 110.639 123.591 111.09 123.474C111.544 123.353 111.991 123.292 112.43 123.292C112.711 123.292 113.033 123.326 113.396 123.394C113.764 123.459 114.118 123.593 114.459 123.798C114.804 124.002 115.09 124.311 115.317 124.724C115.544 125.137 115.658 125.69 115.658 126.383V132.133H114.317V130.951H114.249C114.158 131.14 114.006 131.343 113.794 131.559C113.582 131.775 113.3 131.959 112.948 132.11C112.595 132.262 112.165 132.337 111.658 132.337ZM111.862 131.133C112.393 131.133 112.84 131.029 113.203 130.82C113.571 130.612 113.847 130.343 114.033 130.013C114.222 129.684 114.317 129.337 114.317 128.974V127.746C114.26 127.815 114.135 127.877 113.942 127.934C113.752 127.987 113.533 128.034 113.283 128.076C113.037 128.114 112.796 128.148 112.561 128.178C112.33 128.205 112.143 128.228 111.999 128.246C111.65 128.292 111.324 128.366 111.021 128.468C110.722 128.567 110.48 128.716 110.294 128.917C110.112 129.114 110.021 129.383 110.021 129.724C110.021 130.19 110.194 130.542 110.538 130.781C110.887 131.015 111.328 131.133 111.862 131.133ZM119.446 126.883V132.133H118.105V123.406H119.401V124.769H119.514C119.719 124.326 120.029 123.97 120.446 123.701C120.863 123.428 121.401 123.292 122.06 123.292C122.651 123.292 123.168 123.413 123.611 123.656C124.054 123.894 124.399 124.258 124.645 124.746C124.891 125.231 125.014 125.845 125.014 126.587V132.133H123.673V126.678C123.673 125.993 123.495 125.459 123.139 125.076C122.783 124.69 122.295 124.496 121.673 124.496C121.245 124.496 120.863 124.589 120.526 124.775C120.192 124.96 119.929 125.231 119.736 125.587C119.543 125.943 119.446 126.375 119.446 126.883ZM133.305 126.883V132.133H131.965V123.406H133.26V124.769H133.374C133.578 124.326 133.889 123.97 134.305 123.701C134.722 123.428 135.26 123.292 135.919 123.292C136.51 123.292 137.027 123.413 137.47 123.656C137.913 123.894 138.258 124.258 138.504 124.746C138.751 125.231 138.874 125.845 138.874 126.587V132.133H137.533V126.678C137.533 125.993 137.355 125.459 136.999 125.076C136.643 124.69 136.154 124.496 135.533 124.496C135.105 124.496 134.722 124.589 134.385 124.775C134.052 124.96 133.788 125.231 133.595 125.587C133.402 125.943 133.305 126.375 133.305 126.883ZM144.869 132.315C144.082 132.315 143.39 132.127 142.796 131.752C142.205 131.377 141.743 130.853 141.409 130.178C141.08 129.504 140.915 128.716 140.915 127.815C140.915 126.906 141.08 126.112 141.409 125.434C141.743 124.756 142.205 124.229 142.796 123.854C143.39 123.479 144.082 123.292 144.869 123.292C145.657 123.292 146.347 123.479 146.938 123.854C147.532 124.229 147.994 124.756 148.324 125.434C148.657 126.112 148.824 126.906 148.824 127.815C148.824 128.716 148.657 129.504 148.324 130.178C147.994 130.853 147.532 131.377 146.938 131.752C146.347 132.127 145.657 132.315 144.869 132.315ZM144.869 131.11C145.468 131.11 145.96 130.957 146.347 130.65C146.733 130.343 147.019 129.94 147.205 129.44C147.39 128.94 147.483 128.398 147.483 127.815C147.483 127.231 147.39 126.688 147.205 126.184C147.019 125.68 146.733 125.273 146.347 124.962C145.96 124.652 145.468 124.496 144.869 124.496C144.271 124.496 143.778 124.652 143.392 124.962C143.006 125.273 142.72 125.68 142.534 126.184C142.349 126.688 142.256 127.231 142.256 127.815C142.256 128.398 142.349 128.94 142.534 129.44C142.72 129.94 143.006 130.343 143.392 130.65C143.778 130.957 144.271 131.11 144.869 131.11ZM152.551 132.133L149.892 123.406H151.301L153.188 130.087H153.278L155.142 123.406H156.574L158.415 130.065H158.506L160.392 123.406H161.801L159.142 132.133H157.824L155.915 125.428H155.778L153.869 132.133H152.551ZM168.256 132.133V120.496H169.597V124.792H169.71C169.809 124.64 169.945 124.447 170.119 124.212C170.297 123.974 170.551 123.762 170.881 123.576C171.214 123.387 171.665 123.292 172.233 123.292C172.968 123.292 173.616 123.476 174.176 123.843C174.737 124.21 175.174 124.731 175.489 125.406C175.803 126.08 175.96 126.875 175.96 127.792C175.96 128.716 175.803 129.517 175.489 130.195C175.174 130.87 174.739 131.392 174.182 131.763C173.625 132.131 172.983 132.315 172.256 132.315C171.695 132.315 171.246 132.222 170.909 132.036C170.572 131.847 170.313 131.633 170.131 131.394C169.949 131.152 169.809 130.951 169.71 130.792H169.551V132.133H168.256ZM169.574 127.769C169.574 128.428 169.671 129.01 169.864 129.513C170.057 130.013 170.339 130.406 170.71 130.69C171.082 130.97 171.536 131.11 172.074 131.11C172.635 131.11 173.102 130.962 173.477 130.667C173.856 130.368 174.14 129.966 174.33 129.462C174.523 128.955 174.619 128.39 174.619 127.769C174.619 127.156 174.525 126.603 174.335 126.11C174.15 125.614 173.868 125.222 173.489 124.934C173.114 124.642 172.642 124.496 172.074 124.496C171.528 124.496 171.07 124.635 170.699 124.911C170.328 125.184 170.047 125.567 169.858 126.059C169.669 126.548 169.574 127.118 169.574 127.769ZM181.671 132.315C180.83 132.315 180.104 132.129 179.494 131.758C178.888 131.383 178.421 130.86 178.091 130.19C177.765 129.515 177.602 128.731 177.602 127.837C177.602 126.943 177.765 126.156 178.091 125.474C178.421 124.788 178.879 124.254 179.466 123.871C180.057 123.485 180.746 123.292 181.534 123.292C181.989 123.292 182.438 123.368 182.881 123.519C183.324 123.671 183.727 123.917 184.091 124.258C184.455 124.595 184.744 125.042 184.96 125.599C185.176 126.156 185.284 126.841 185.284 127.656V128.224H178.557V127.065H183.921C183.921 126.572 183.822 126.133 183.625 125.746C183.432 125.36 183.155 125.055 182.796 124.832C182.439 124.608 182.019 124.496 181.534 124.496C181 124.496 180.538 124.629 180.148 124.894C179.761 125.156 179.464 125.496 179.256 125.917C179.047 126.337 178.943 126.788 178.943 127.269V128.042C178.943 128.701 179.057 129.26 179.284 129.718C179.515 130.173 179.835 130.519 180.244 130.758C180.653 130.993 181.129 131.11 181.671 131.11C182.023 131.11 182.341 131.061 182.625 130.962C182.913 130.86 183.161 130.709 183.369 130.508C183.578 130.303 183.739 130.049 183.852 129.746L185.148 130.11C185.011 130.549 184.782 130.936 184.46 131.269C184.138 131.599 183.741 131.856 183.267 132.042C182.794 132.224 182.261 132.315 181.671 132.315ZM191.824 132.133V123.406H193.119V124.724H193.21C193.369 124.292 193.657 123.942 194.074 123.673C194.491 123.404 194.96 123.269 195.483 123.269C195.582 123.269 195.705 123.271 195.852 123.275C196 123.279 196.112 123.284 196.188 123.292V124.656C196.142 124.644 196.038 124.627 195.875 124.604C195.716 124.578 195.547 124.565 195.369 124.565C194.945 124.565 194.566 124.654 194.233 124.832C193.903 125.006 193.642 125.248 193.449 125.559C193.26 125.866 193.165 126.216 193.165 126.61V132.133H191.824ZM200.345 132.337C199.792 132.337 199.29 132.233 198.84 132.025C198.389 131.813 198.031 131.508 197.766 131.11C197.501 130.709 197.368 130.224 197.368 129.656C197.368 129.156 197.466 128.75 197.663 128.44C197.86 128.125 198.124 127.879 198.453 127.701C198.783 127.523 199.146 127.39 199.544 127.303C199.946 127.212 200.349 127.14 200.754 127.087C201.285 127.019 201.715 126.968 202.044 126.934C202.377 126.896 202.62 126.834 202.771 126.746C202.927 126.659 203.004 126.508 203.004 126.292V126.246C203.004 125.686 202.851 125.25 202.544 124.94C202.241 124.629 201.781 124.474 201.163 124.474C200.523 124.474 200.021 124.614 199.658 124.894C199.294 125.174 199.038 125.474 198.891 125.792L197.618 125.337C197.845 124.807 198.148 124.394 198.527 124.099C198.91 123.799 199.326 123.591 199.777 123.474C200.232 123.353 200.679 123.292 201.118 123.292C201.398 123.292 201.72 123.326 202.084 123.394C202.451 123.459 202.805 123.593 203.146 123.798C203.491 124.002 203.777 124.311 204.004 124.724C204.232 125.137 204.345 125.69 204.345 126.383V132.133H203.004V130.951H202.936C202.845 131.14 202.694 131.343 202.482 131.559C202.27 131.775 201.987 131.959 201.635 132.11C201.283 132.262 200.853 132.337 200.345 132.337ZM200.55 131.133C201.08 131.133 201.527 131.029 201.891 130.82C202.258 130.612 202.535 130.343 202.72 130.013C202.91 129.684 203.004 129.337 203.004 128.974V127.746C202.948 127.815 202.823 127.877 202.629 127.934C202.44 127.987 202.22 128.034 201.97 128.076C201.724 128.114 201.484 128.148 201.249 128.178C201.018 128.205 200.83 128.228 200.686 128.246C200.338 128.292 200.012 128.366 199.709 128.468C199.41 128.567 199.167 128.716 198.982 128.917C198.8 129.114 198.709 129.383 198.709 129.724C198.709 130.19 198.881 130.542 199.226 130.781C199.574 131.015 200.016 131.133 200.55 131.133ZM206.793 132.133V123.406H208.134V132.133H206.793ZM207.475 121.951C207.213 121.951 206.988 121.862 206.798 121.684C206.613 121.506 206.52 121.292 206.52 121.042C206.52 120.792 206.613 120.578 206.798 120.4C206.988 120.222 207.213 120.133 207.475 120.133C207.736 120.133 207.959 120.222 208.145 120.4C208.334 120.578 208.429 120.792 208.429 121.042C208.429 121.292 208.334 121.506 208.145 121.684C207.959 121.862 207.736 121.951 207.475 121.951ZM216.771 125.36L215.567 125.701C215.491 125.5 215.379 125.305 215.232 125.116C215.088 124.923 214.891 124.763 214.641 124.638C214.391 124.513 214.071 124.451 213.68 124.451C213.146 124.451 212.701 124.574 212.345 124.82C211.993 125.063 211.817 125.371 211.817 125.746C211.817 126.08 211.938 126.343 212.18 126.536C212.423 126.729 212.802 126.89 213.317 127.019L214.612 127.337C215.393 127.527 215.974 127.817 216.357 128.207C216.739 128.593 216.93 129.091 216.93 129.701C216.93 130.201 216.787 130.648 216.499 131.042C216.215 131.436 215.817 131.746 215.305 131.974C214.794 132.201 214.199 132.315 213.521 132.315C212.631 132.315 211.895 132.121 211.311 131.735C210.728 131.349 210.359 130.784 210.203 130.042L211.476 129.724C211.597 130.193 211.826 130.546 212.163 130.781C212.504 131.015 212.949 131.133 213.499 131.133C214.124 131.133 214.62 131 214.987 130.735C215.359 130.466 215.544 130.144 215.544 129.769C215.544 129.466 215.438 129.212 215.226 129.008C215.014 128.799 214.688 128.644 214.249 128.542L212.794 128.201C211.995 128.012 211.408 127.718 211.033 127.32C210.662 126.919 210.476 126.417 210.476 125.815C210.476 125.322 210.614 124.887 210.891 124.508C211.171 124.129 211.552 123.832 212.033 123.616C212.518 123.4 213.067 123.292 213.68 123.292C214.544 123.292 215.222 123.481 215.715 123.86C216.211 124.239 216.563 124.739 216.771 125.36ZM222.608 132.315C221.767 132.315 221.042 132.129 220.432 131.758C219.826 131.383 219.358 130.86 219.028 130.19C218.703 129.515 218.54 128.731 218.54 127.837C218.54 126.943 218.703 126.156 219.028 125.474C219.358 124.788 219.816 124.254 220.403 123.871C220.994 123.485 221.684 123.292 222.472 123.292C222.926 123.292 223.375 123.368 223.818 123.519C224.261 123.671 224.665 123.917 225.028 124.258C225.392 124.595 225.682 125.042 225.898 125.599C226.114 126.156 226.222 126.841 226.222 127.656V128.224H219.494V127.065H224.858C224.858 126.572 224.76 126.133 224.563 125.746C224.369 125.36 224.093 125.055 223.733 124.832C223.377 124.608 222.957 124.496 222.472 124.496C221.938 124.496 221.475 124.629 221.085 124.894C220.699 125.156 220.402 125.496 220.193 125.917C219.985 126.337 219.881 126.788 219.881 127.269V128.042C219.881 128.701 219.994 129.26 220.222 129.718C220.453 130.173 220.773 130.519 221.182 130.758C221.591 130.993 222.066 131.11 222.608 131.11C222.96 131.11 223.278 131.061 223.563 130.962C223.85 130.86 224.099 130.709 224.307 130.508C224.515 130.303 224.676 130.049 224.79 129.746L226.085 130.11C225.949 130.549 225.72 130.936 225.398 131.269C225.076 131.599 224.678 131.856 224.205 132.042C223.731 132.224 223.199 132.315 222.608 132.315ZM231.557 132.315C230.83 132.315 230.188 132.131 229.631 131.763C229.074 131.392 228.638 130.87 228.324 130.195C228.01 129.517 227.852 128.716 227.852 127.792C227.852 126.875 228.01 126.08 228.324 125.406C228.638 124.731 229.076 124.21 229.636 123.843C230.197 123.476 230.845 123.292 231.58 123.292C232.148 123.292 232.597 123.387 232.926 123.576C233.26 123.762 233.513 123.974 233.688 124.212C233.866 124.447 234.004 124.64 234.102 124.792H234.216V120.496H235.557V132.133H234.261V130.792H234.102C234.004 130.951 233.864 131.152 233.682 131.394C233.5 131.633 233.241 131.847 232.903 132.036C232.566 132.222 232.118 132.315 231.557 132.315ZM231.739 131.11C232.277 131.11 232.731 130.97 233.102 130.69C233.474 130.406 233.756 130.013 233.949 129.513C234.142 129.01 234.239 128.428 234.239 127.769C234.239 127.118 234.144 126.548 233.955 126.059C233.765 125.567 233.485 125.184 233.114 124.911C232.743 124.635 232.284 124.496 231.739 124.496C231.171 124.496 230.697 124.642 230.318 124.934C229.943 125.222 229.661 125.614 229.472 126.11C229.286 126.603 229.193 127.156 229.193 127.769C229.193 128.39 229.288 128.955 229.477 129.462C229.671 129.966 229.955 130.368 230.33 130.667C230.708 130.962 231.178 131.11 231.739 131.11ZM239.176 132.224C238.896 132.224 238.655 132.123 238.455 131.923C238.254 131.722 238.153 131.481 238.153 131.201C238.153 130.921 238.254 130.68 238.455 130.479C238.655 130.279 238.896 130.178 239.176 130.178C239.457 130.178 239.697 130.279 239.898 130.479C240.099 130.68 240.199 130.921 240.199 131.201C240.199 131.387 240.152 131.557 240.057 131.712C239.966 131.868 239.843 131.993 239.688 132.087C239.536 132.178 239.366 132.224 239.176 132.224ZM247.287 132.133V120.496H251.219C252.132 120.496 252.878 120.661 253.457 120.991C254.041 121.317 254.473 121.758 254.753 122.315C255.033 122.871 255.173 123.493 255.173 124.178C255.173 124.864 255.033 125.487 254.753 126.048C254.476 126.608 254.048 127.055 253.469 127.388C252.889 127.718 252.147 127.883 251.242 127.883H248.423V126.633H251.196C251.821 126.633 252.323 126.525 252.702 126.309C253.081 126.093 253.355 125.801 253.526 125.434C253.7 125.063 253.787 124.644 253.787 124.178C253.787 123.712 253.7 123.296 253.526 122.928C253.355 122.561 253.079 122.273 252.696 122.065C252.314 121.853 251.806 121.746 251.173 121.746H248.696V132.133H247.287ZM258.602 120.496V132.133H257.261V120.496H258.602ZM264.717 132.315C263.877 132.315 263.151 132.129 262.541 131.758C261.935 131.383 261.467 130.86 261.138 130.19C260.812 129.515 260.649 128.731 260.649 127.837C260.649 126.943 260.812 126.156 261.138 125.474C261.467 124.788 261.926 124.254 262.513 123.871C263.104 123.485 263.793 123.292 264.581 123.292C265.036 123.292 265.484 123.368 265.928 123.519C266.371 123.671 266.774 123.917 267.138 124.258C267.502 124.595 267.791 125.042 268.007 125.599C268.223 126.156 268.331 126.841 268.331 127.656V128.224H261.604V127.065H266.967C266.967 126.572 266.869 126.133 266.672 125.746C266.479 125.36 266.202 125.055 265.842 124.832C265.486 124.608 265.066 124.496 264.581 124.496C264.047 124.496 263.585 124.629 263.195 124.894C262.808 125.156 262.511 125.496 262.303 125.917C262.094 126.337 261.99 126.788 261.99 127.269V128.042C261.99 128.701 262.104 129.26 262.331 129.718C262.562 130.173 262.882 130.519 263.291 130.758C263.7 130.993 264.176 131.11 264.717 131.11C265.07 131.11 265.388 131.061 265.672 130.962C265.96 130.86 266.208 130.709 266.416 130.508C266.625 130.303 266.786 130.049 266.899 129.746L268.195 130.11C268.058 130.549 267.829 130.936 267.507 131.269C267.185 131.599 266.787 131.856 266.314 132.042C265.841 132.224 265.308 132.315 264.717 132.315ZM272.939 132.337C272.386 132.337 271.884 132.233 271.433 132.025C270.983 131.813 270.625 131.508 270.359 131.11C270.094 130.709 269.962 130.224 269.962 129.656C269.962 129.156 270.06 128.75 270.257 128.44C270.454 128.125 270.717 127.879 271.047 127.701C271.377 127.523 271.74 127.39 272.138 127.303C272.539 127.212 272.943 127.14 273.348 127.087C273.878 127.019 274.308 126.968 274.638 126.934C274.971 126.896 275.214 126.834 275.365 126.746C275.52 126.659 275.598 126.508 275.598 126.292V126.246C275.598 125.686 275.445 125.25 275.138 124.94C274.835 124.629 274.375 124.474 273.757 124.474C273.117 124.474 272.615 124.614 272.252 124.894C271.888 125.174 271.632 125.474 271.484 125.792L270.212 125.337C270.439 124.807 270.742 124.394 271.121 124.099C271.503 123.799 271.92 123.591 272.371 123.474C272.825 123.353 273.272 123.292 273.712 123.292C273.992 123.292 274.314 123.326 274.678 123.394C275.045 123.459 275.399 123.593 275.74 123.798C276.085 124.002 276.371 124.311 276.598 124.724C276.825 125.137 276.939 125.69 276.939 126.383V132.133H275.598V130.951H275.53C275.439 131.14 275.287 131.343 275.075 131.559C274.863 131.775 274.581 131.959 274.229 132.11C273.877 132.262 273.447 132.337 272.939 132.337ZM273.144 131.133C273.674 131.133 274.121 131.029 274.484 130.82C274.852 130.612 275.128 130.343 275.314 130.013C275.503 129.684 275.598 129.337 275.598 128.974V127.746C275.541 127.815 275.416 127.877 275.223 127.934C275.034 127.987 274.814 128.034 274.564 128.076C274.318 128.114 274.077 128.148 273.842 128.178C273.611 128.205 273.424 128.228 273.28 128.246C272.931 128.292 272.606 128.366 272.303 128.468C272.003 128.567 271.761 128.716 271.575 128.917C271.394 129.114 271.303 129.383 271.303 129.724C271.303 130.19 271.475 130.542 271.82 130.781C272.168 131.015 272.609 131.133 273.144 131.133ZM285.568 125.36L284.364 125.701C284.288 125.5 284.176 125.305 284.028 125.116C283.885 124.923 283.688 124.763 283.438 124.638C283.188 124.513 282.868 124.451 282.477 124.451C281.943 124.451 281.498 124.574 281.142 124.82C280.79 125.063 280.614 125.371 280.614 125.746C280.614 126.08 280.735 126.343 280.977 126.536C281.22 126.729 281.599 126.89 282.114 127.019L283.409 127.337C284.189 127.527 284.771 127.817 285.153 128.207C285.536 128.593 285.727 129.091 285.727 129.701C285.727 130.201 285.583 130.648 285.296 131.042C285.011 131.436 284.614 131.746 284.102 131.974C283.591 132.201 282.996 132.315 282.318 132.315C281.428 132.315 280.691 132.121 280.108 131.735C279.525 131.349 279.155 130.784 279 130.042L280.273 129.724C280.394 130.193 280.623 130.546 280.96 130.781C281.301 131.015 281.746 131.133 282.296 131.133C282.921 131.133 283.417 131 283.784 130.735C284.155 130.466 284.341 130.144 284.341 129.769C284.341 129.466 284.235 129.212 284.023 129.008C283.811 128.799 283.485 128.644 283.046 128.542L281.591 128.201C280.792 128.012 280.205 127.718 279.83 127.32C279.458 126.919 279.273 126.417 279.273 125.815C279.273 125.322 279.411 124.887 279.688 124.508C279.968 124.129 280.349 123.832 280.83 123.616C281.314 123.4 281.864 123.292 282.477 123.292C283.341 123.292 284.019 123.481 284.511 123.86C285.008 124.239 285.36 124.739 285.568 125.36ZM291.405 132.315C290.564 132.315 289.839 132.129 289.229 131.758C288.623 131.383 288.155 130.86 287.825 130.19C287.5 129.515 287.337 128.731 287.337 127.837C287.337 126.943 287.5 126.156 287.825 125.474C288.155 124.788 288.613 124.254 289.2 123.871C289.791 123.485 290.481 123.292 291.269 123.292C291.723 123.292 292.172 123.368 292.615 123.519C293.058 123.671 293.462 123.917 293.825 124.258C294.189 124.595 294.479 125.042 294.695 125.599C294.911 126.156 295.019 126.841 295.019 127.656V128.224H288.291V127.065H293.655C293.655 126.572 293.556 126.133 293.359 125.746C293.166 125.36 292.89 125.055 292.53 124.832C292.174 124.608 291.753 124.496 291.269 124.496C290.734 124.496 290.272 124.629 289.882 124.894C289.496 125.156 289.198 125.496 288.99 125.917C288.782 126.337 288.678 126.788 288.678 127.269V128.042C288.678 128.701 288.791 129.26 289.019 129.718C289.25 130.173 289.57 130.519 289.979 130.758C290.388 130.993 290.863 131.11 291.405 131.11C291.757 131.11 292.075 131.061 292.359 130.962C292.647 130.86 292.895 130.709 293.104 130.508C293.312 130.303 293.473 130.049 293.587 129.746L294.882 130.11C294.746 130.549 294.517 130.936 294.195 131.269C293.873 131.599 293.475 131.856 293.002 132.042C292.528 132.224 291.996 132.315 291.405 132.315ZM305.104 132.315C304.286 132.315 303.581 132.121 302.99 131.735C302.399 131.349 301.945 130.817 301.627 130.138C301.308 129.46 301.149 128.686 301.149 127.815C301.149 126.928 301.312 126.146 301.638 125.468C301.967 124.786 302.426 124.254 303.013 123.871C303.604 123.485 304.293 123.292 305.081 123.292C305.695 123.292 306.248 123.406 306.74 123.633C307.233 123.86 307.636 124.178 307.95 124.587C308.265 124.996 308.46 125.474 308.536 126.019H307.195C307.092 125.621 306.865 125.269 306.513 124.962C306.164 124.652 305.695 124.496 305.104 124.496C304.581 124.496 304.123 124.633 303.729 124.906C303.339 125.174 303.034 125.555 302.814 126.048C302.598 126.536 302.49 127.11 302.49 127.769C302.49 128.443 302.596 129.031 302.808 129.531C303.024 130.031 303.327 130.419 303.717 130.695C304.111 130.972 304.573 131.11 305.104 131.11C305.452 131.11 305.769 131.049 306.053 130.928C306.337 130.807 306.577 130.633 306.774 130.406C306.971 130.178 307.111 129.906 307.195 129.587H308.536C308.46 130.103 308.272 130.567 307.973 130.979C307.678 131.388 307.286 131.714 306.797 131.957C306.312 132.195 305.748 132.315 305.104 132.315ZM314.041 132.315C313.253 132.315 312.562 132.127 311.967 131.752C311.377 131.377 310.914 130.853 310.581 130.178C310.252 129.504 310.087 128.716 310.087 127.815C310.087 126.906 310.252 126.112 310.581 125.434C310.914 124.756 311.377 124.229 311.967 123.854C312.562 123.479 313.253 123.292 314.041 123.292C314.829 123.292 315.519 123.479 316.109 123.854C316.704 124.229 317.166 124.756 317.496 125.434C317.829 126.112 317.996 126.906 317.996 127.815C317.996 128.716 317.829 129.504 317.496 130.178C317.166 130.853 316.704 131.377 316.109 131.752C315.519 132.127 314.829 132.315 314.041 132.315ZM314.041 131.11C314.64 131.11 315.132 130.957 315.519 130.65C315.905 130.343 316.191 129.94 316.377 129.44C316.562 128.94 316.655 128.398 316.655 127.815C316.655 127.231 316.562 126.688 316.377 126.184C316.191 125.68 315.905 125.273 315.519 124.962C315.132 124.652 314.64 124.496 314.041 124.496C313.443 124.496 312.95 124.652 312.564 124.962C312.178 125.273 311.892 125.68 311.706 126.184C311.52 126.688 311.428 127.231 311.428 127.815C311.428 128.398 311.52 128.94 311.706 129.44C311.892 129.94 312.178 130.343 312.564 130.65C312.95 130.957 313.443 131.11 314.041 131.11ZM321.384 126.883V132.133H320.043V123.406H321.338V124.769H321.452C321.656 124.326 321.967 123.97 322.384 123.701C322.8 123.428 323.338 123.292 323.997 123.292C324.588 123.292 325.105 123.413 325.548 123.656C325.992 123.894 326.336 124.258 326.582 124.746C326.829 125.231 326.952 125.845 326.952 126.587V132.133H325.611V126.678C325.611 125.993 325.433 125.459 325.077 125.076C324.721 124.69 324.232 124.496 323.611 124.496C323.183 124.496 322.8 124.589 322.463 124.775C322.13 124.96 321.867 125.231 321.673 125.587C321.48 125.943 321.384 126.375 321.384 126.883ZM333.288 123.406V124.542H328.584V123.406H333.288ZM329.993 132.133V122.201C329.993 121.701 330.11 121.284 330.345 120.951C330.58 120.618 330.885 120.368 331.26 120.201C331.635 120.034 332.031 119.951 332.448 119.951C332.777 119.951 333.046 119.978 333.254 120.031C333.463 120.084 333.618 120.133 333.72 120.178L333.334 121.337C333.266 121.315 333.171 121.286 333.05 121.252C332.932 121.218 332.777 121.201 332.584 121.201C332.141 121.201 331.821 121.313 331.624 121.536C331.43 121.76 331.334 122.087 331.334 122.519V132.133H329.993ZM335.168 132.133V123.406H336.509V132.133H335.168ZM335.85 121.951C335.588 121.951 335.363 121.862 335.173 121.684C334.988 121.506 334.895 121.292 334.895 121.042C334.895 120.792 334.988 120.578 335.173 120.4C335.363 120.222 335.588 120.133 335.85 120.133C336.111 120.133 336.334 120.222 336.52 120.4C336.709 120.578 336.804 120.792 336.804 121.042C336.804 121.292 336.709 121.506 336.52 121.684C336.334 121.862 336.111 121.951 335.85 121.951ZM338.965 132.133V123.406H340.26V124.724H340.351C340.51 124.292 340.798 123.942 341.215 123.673C341.631 123.404 342.101 123.269 342.624 123.269C342.722 123.269 342.845 123.271 342.993 123.275C343.141 123.279 343.252 123.284 343.328 123.292V124.656C343.283 124.644 343.179 124.627 343.016 124.604C342.857 124.578 342.688 124.565 342.51 124.565C342.086 124.565 341.707 124.654 341.374 124.832C341.044 125.006 340.783 125.248 340.59 125.559C340.4 125.866 340.305 126.216 340.305 126.61V132.133H338.965ZM344.918 132.133V123.406H346.213V124.769H346.327C346.509 124.303 346.802 123.942 347.207 123.684C347.613 123.423 348.1 123.292 348.668 123.292C349.243 123.292 349.723 123.423 350.105 123.684C350.492 123.942 350.793 124.303 351.009 124.769H351.1C351.323 124.318 351.658 123.96 352.105 123.695C352.552 123.426 353.088 123.292 353.713 123.292C354.493 123.292 355.132 123.536 355.628 124.025C356.124 124.51 356.372 125.265 356.372 126.292V132.133H355.031V126.292C355.031 125.648 354.855 125.188 354.503 124.911C354.151 124.635 353.736 124.496 353.259 124.496C352.645 124.496 352.17 124.682 351.832 125.053C351.495 125.421 351.327 125.887 351.327 126.451V132.133H349.963V126.156C349.963 125.659 349.802 125.26 349.48 124.957C349.158 124.65 348.743 124.496 348.236 124.496C347.887 124.496 347.562 124.589 347.259 124.775C346.959 124.96 346.717 125.218 346.531 125.548C346.35 125.873 346.259 126.25 346.259 126.678V132.133H344.918ZM364.188 135.406C363.96 135.406 363.758 135.387 363.58 135.349C363.402 135.315 363.278 135.281 363.21 135.246L363.551 134.065C363.877 134.148 364.165 134.178 364.415 134.156C364.665 134.133 364.886 134.021 365.08 133.82C365.277 133.623 365.457 133.303 365.619 132.86L365.869 132.178L362.642 123.406H364.097L366.506 130.36H366.597L369.006 123.406H370.46L366.756 133.406C366.589 133.856 366.383 134.229 366.136 134.525C365.89 134.824 365.604 135.046 365.278 135.19C364.957 135.334 364.593 135.406 364.188 135.406ZM375.463 132.315C374.675 132.315 373.984 132.127 373.389 131.752C372.798 131.377 372.336 130.853 372.003 130.178C371.673 129.504 371.509 128.716 371.509 127.815C371.509 126.906 371.673 126.112 372.003 125.434C372.336 124.756 372.798 124.229 373.389 123.854C373.984 123.479 374.675 123.292 375.463 123.292C376.251 123.292 376.94 123.479 377.531 123.854C378.126 124.229 378.588 124.756 378.918 125.434C379.251 126.112 379.418 126.906 379.418 127.815C379.418 128.716 379.251 129.504 378.918 130.178C378.588 130.853 378.126 131.377 377.531 131.752C376.94 132.127 376.251 132.315 375.463 132.315ZM375.463 131.11C376.062 131.11 376.554 130.957 376.94 130.65C377.327 130.343 377.613 129.94 377.798 129.44C377.984 128.94 378.077 128.398 378.077 127.815C378.077 127.231 377.984 126.688 377.798 126.184C377.613 125.68 377.327 125.273 376.94 124.962C376.554 124.652 376.062 124.496 375.463 124.496C374.865 124.496 374.372 124.652 373.986 124.962C373.6 125.273 373.314 125.68 373.128 126.184C372.942 126.688 372.85 127.231 372.85 127.815C372.85 128.398 372.942 128.94 373.128 129.44C373.314 129.94 373.6 130.343 373.986 130.65C374.372 130.957 374.865 131.11 375.463 131.11ZM386.965 128.565V123.406H388.305V132.133H386.965V130.656H386.874C386.669 131.099 386.351 131.476 385.919 131.786C385.487 132.093 384.942 132.246 384.283 132.246C383.737 132.246 383.252 132.127 382.828 131.888C382.404 131.646 382.071 131.282 381.828 130.798C381.586 130.309 381.465 129.693 381.465 128.951V123.406H382.805V128.86C382.805 129.496 382.984 130.004 383.34 130.383C383.699 130.762 384.158 130.951 384.715 130.951C385.048 130.951 385.387 130.866 385.732 130.695C386.08 130.525 386.372 130.263 386.607 129.911C386.845 129.559 386.965 129.11 386.965 128.565ZM390.761 132.133V123.406H392.057V124.724H392.148C392.307 124.292 392.595 123.942 393.011 123.673C393.428 123.404 393.898 123.269 394.421 123.269C394.519 123.269 394.642 123.271 394.79 123.275C394.938 123.279 395.049 123.284 395.125 123.292V124.656C395.08 124.644 394.975 124.627 394.813 124.604C394.653 124.578 394.485 124.565 394.307 124.565C393.883 124.565 393.504 124.654 393.171 124.832C392.841 125.006 392.58 125.248 392.386 125.559C392.197 125.866 392.102 126.216 392.102 126.61V132.133H390.761ZM27.1805 146.883V152.133H25.8396V143.406H27.135V144.769H27.2487C27.4532 144.326 27.7638 143.97 28.1805 143.701C28.5972 143.428 29.135 143.292 29.7941 143.292C30.385 143.292 30.9021 143.413 31.3453 143.656C31.7884 143.894 32.1331 144.258 32.3794 144.746C32.6256 145.231 32.7487 145.845 32.7487 146.587V152.133H31.4078V146.678C31.4078 145.993 31.2297 145.459 30.8737 145.076C30.5176 144.69 30.029 144.496 29.4078 144.496C28.9797 144.496 28.5972 144.589 28.26 144.775C27.9267 144.96 27.6634 145.231 27.4703 145.587C27.2771 145.943 27.1805 146.375 27.1805 146.883ZM38.858 152.315C38.0171 152.315 37.2918 152.129 36.6819 151.758C36.0758 151.383 35.608 150.86 35.2785 150.19C34.9527 149.515 34.7899 148.731 34.7899 147.837C34.7899 146.943 34.9527 146.156 35.2785 145.474C35.608 144.788 36.0664 144.254 36.6535 143.871C37.2444 143.485 37.9338 143.292 38.7217 143.292C39.1762 143.292 39.6251 143.368 40.0683 143.519C40.5115 143.671 40.9149 143.917 41.2785 144.258C41.6421 144.595 41.9319 145.042 42.1478 145.599C42.3637 146.156 42.4717 146.841 42.4717 147.656V148.224H35.7444V147.065H41.108C41.108 146.572 41.0096 146.133 40.8126 145.746C40.6194 145.36 40.3429 145.055 39.983 144.832C39.627 144.608 39.2065 144.496 38.7217 144.496C38.1876 144.496 37.7255 144.629 37.3353 144.894C36.949 145.156 36.6516 145.496 36.4433 145.917C36.2349 146.337 36.1308 146.788 36.1308 147.269V148.042C36.1308 148.701 36.2444 149.26 36.4717 149.718C36.7027 150.173 37.0228 150.519 37.4319 150.758C37.841 150.993 38.3164 151.11 38.858 151.11C39.2103 151.11 39.5285 151.061 39.8126 150.962C40.1005 150.86 40.3486 150.709 40.5569 150.508C40.7652 150.303 40.9262 150.049 41.0399 149.746L42.3353 150.11C42.199 150.549 41.9698 150.936 41.6478 151.269C41.3258 151.599 40.9281 151.856 40.4546 152.042C39.9811 152.224 39.449 152.315 38.858 152.315ZM46.4887 152.133L43.8296 143.406H45.2387L47.1251 150.087H47.216L49.0796 143.406H50.5115L52.3524 150.065H52.4433L54.3296 143.406H55.7387L53.0796 152.133H51.7615L49.8524 145.428H49.716L47.8069 152.133H46.4887ZM65.5569 152.315C64.769 152.315 64.0777 152.127 63.483 151.752C62.8921 151.377 62.43 150.853 62.0967 150.178C61.7671 149.504 61.6024 148.716 61.6024 147.815C61.6024 146.906 61.7671 146.112 62.0967 145.434C62.43 144.756 62.8921 144.229 63.483 143.854C64.0777 143.479 64.769 143.292 65.5569 143.292C66.3448 143.292 67.0342 143.479 67.6251 143.854C68.2198 144.229 68.6819 144.756 69.0115 145.434C69.3448 146.112 69.5115 146.906 69.5115 147.815C69.5115 148.716 69.3448 149.504 69.0115 150.178C68.6819 150.853 68.2198 151.377 67.6251 151.752C67.0342 152.127 66.3448 152.315 65.5569 152.315ZM65.5569 151.11C66.1554 151.11 66.6478 150.957 67.0342 150.65C67.4205 150.343 67.7065 149.94 67.8921 149.44C68.0777 148.94 68.1705 148.398 68.1705 147.815C68.1705 147.231 68.0777 146.688 67.8921 146.184C67.7065 145.68 67.4205 145.273 67.0342 144.962C66.6478 144.652 66.1554 144.496 65.5569 144.496C64.9584 144.496 64.466 144.652 64.0796 144.962C63.6933 145.273 63.4073 145.68 63.2217 146.184C63.0361 146.688 62.9433 147.231 62.9433 147.815C62.9433 148.398 63.0361 148.94 63.2217 149.44C63.4073 149.94 63.6933 150.343 64.0796 150.65C64.466 150.957 64.9584 151.11 65.5569 151.11ZM75.4447 143.406V144.542H70.7401V143.406H75.4447ZM72.1492 152.133V142.201C72.1492 141.701 72.2667 141.284 72.5015 140.951C72.7364 140.618 73.0413 140.368 73.4163 140.201C73.7913 140.034 74.1871 139.951 74.6038 139.951C74.9333 139.951 75.2023 139.978 75.4106 140.031C75.6189 140.084 75.7742 140.133 75.8765 140.178L75.4901 141.337C75.422 141.315 75.3273 141.286 75.2061 141.252C75.0886 141.218 74.9333 141.201 74.7401 141.201C74.297 141.201 73.9769 141.313 73.7799 141.536C73.5867 141.76 73.4901 142.087 73.4901 142.519V152.133H72.1492ZM81.2103 143.406V144.542H76.5058V143.406H81.2103ZM77.9149 152.133V142.201C77.9149 141.701 78.0323 141.284 78.2671 140.951C78.502 140.618 78.8069 140.368 79.1819 140.201C79.5569 140.034 79.9527 139.951 80.3694 139.951C80.699 139.951 80.9679 139.978 81.1762 140.031C81.3846 140.084 81.5399 140.133 81.6421 140.178L81.2558 141.337C81.1876 141.315 81.0929 141.286 80.9717 141.252C80.8543 141.218 80.699 141.201 80.5058 141.201C80.0626 141.201 79.7425 141.313 79.5455 141.536C79.3524 141.76 79.2558 142.087 79.2558 142.519V152.133H77.9149ZM86.3893 152.315C85.5484 152.315 84.823 152.129 84.2132 151.758C83.6071 151.383 83.1393 150.86 82.8097 150.19C82.484 149.515 82.3211 148.731 82.3211 147.837C82.3211 146.943 82.484 146.156 82.8097 145.474C83.1393 144.788 83.5976 144.254 84.1847 143.871C84.7757 143.485 85.4651 143.292 86.2529 143.292C86.7075 143.292 87.1563 143.368 87.5995 143.519C88.0427 143.671 88.4461 143.917 88.8097 144.258C89.1734 144.595 89.4632 145.042 89.6791 145.599C89.895 146.156 90.0029 146.841 90.0029 147.656V148.224H83.2757V147.065H88.6393C88.6393 146.572 88.5408 146.133 88.3438 145.746C88.1507 145.36 87.8741 145.055 87.5143 144.832C87.1582 144.608 86.7378 144.496 86.2529 144.496C85.7188 144.496 85.2567 144.629 84.8666 144.894C84.4802 145.156 84.1829 145.496 83.9745 145.917C83.7662 146.337 83.662 146.788 83.662 147.269V148.042C83.662 148.701 83.7757 149.26 84.0029 149.718C84.234 150.173 84.5541 150.519 84.9632 150.758C85.3722 150.993 85.8476 151.11 86.3893 151.11C86.7416 151.11 87.0597 151.061 87.3438 150.962C87.6317 150.86 87.8798 150.709 88.0882 150.508C88.2965 150.303 88.4575 150.049 88.5711 149.746L89.8666 150.11C89.7302 150.549 89.501 150.936 89.1791 151.269C88.8571 151.599 88.4594 151.856 87.9859 152.042C87.5124 152.224 86.9802 152.315 86.3893 152.315ZM92.0427 152.133V143.406H93.3382V144.724H93.4291C93.5882 144.292 93.876 143.942 94.2927 143.673C94.7094 143.404 95.1791 143.269 95.7018 143.269C95.8003 143.269 95.9234 143.271 96.0711 143.275C96.2188 143.279 96.3306 143.284 96.4063 143.292V144.656C96.3609 144.644 96.2567 144.627 96.0938 144.604C95.9347 144.578 95.7662 144.565 95.5882 144.565C95.1639 144.565 94.7851 144.654 94.4518 144.832C94.1222 145.006 93.8609 145.248 93.6677 145.559C93.4783 145.866 93.3836 146.216 93.3836 146.61V152.133H92.0427ZM102.678 152.133V140.496H104.019V144.792H104.132C104.231 144.64 104.367 144.447 104.541 144.212C104.719 143.974 104.973 143.762 105.303 143.576C105.636 143.387 106.087 143.292 106.655 143.292C107.39 143.292 108.037 143.476 108.598 143.843C109.159 144.21 109.596 144.731 109.911 145.406C110.225 146.08 110.382 146.875 110.382 147.792C110.382 148.716 110.225 149.517 109.911 150.195C109.596 150.87 109.161 151.392 108.604 151.763C108.047 152.131 107.405 152.315 106.678 152.315C106.117 152.315 105.668 152.222 105.331 152.036C104.994 151.847 104.734 151.633 104.553 151.394C104.371 151.152 104.231 150.951 104.132 150.792H103.973V152.133H102.678ZM103.996 147.769C103.996 148.428 104.092 149.01 104.286 149.513C104.479 150.013 104.761 150.406 105.132 150.69C105.503 150.97 105.958 151.11 106.496 151.11C107.056 151.11 107.524 150.962 107.899 150.667C108.278 150.368 108.562 149.966 108.752 149.462C108.945 148.955 109.041 148.39 109.041 147.769C109.041 147.156 108.947 146.603 108.757 146.11C108.572 145.614 108.289 145.222 107.911 144.934C107.536 144.642 107.064 144.496 106.496 144.496C105.95 144.496 105.492 144.635 105.121 144.911C104.75 145.184 104.469 145.567 104.28 146.059C104.091 146.548 103.996 147.118 103.996 147.769ZM116.092 152.315C115.252 152.315 114.526 152.129 113.916 151.758C113.31 151.383 112.842 150.86 112.513 150.19C112.187 149.515 112.024 148.731 112.024 147.837C112.024 146.943 112.187 146.156 112.513 145.474C112.842 144.788 113.301 144.254 113.888 143.871C114.479 143.485 115.168 143.292 115.956 143.292C116.411 143.292 116.859 143.368 117.303 143.519C117.746 143.671 118.149 143.917 118.513 144.258C118.877 144.595 119.166 145.042 119.382 145.599C119.598 146.156 119.706 146.841 119.706 147.656V148.224H112.979V147.065H118.342C118.342 146.572 118.244 146.133 118.047 145.746C117.854 145.36 117.577 145.055 117.217 144.832C116.861 144.608 116.441 144.496 115.956 144.496C115.422 144.496 114.96 144.629 114.57 144.894C114.183 145.156 113.886 145.496 113.678 145.917C113.469 146.337 113.365 146.788 113.365 147.269V148.042C113.365 148.701 113.479 149.26 113.706 149.718C113.937 150.173 114.257 150.519 114.666 150.758C115.075 150.993 115.551 151.11 116.092 151.11C116.445 151.11 116.763 151.061 117.047 150.962C117.335 150.86 117.583 150.709 117.791 150.508C118 150.303 118.161 150.049 118.274 149.746L119.57 150.11C119.433 150.549 119.204 150.936 118.882 151.269C118.56 151.599 118.162 151.856 117.689 152.042C117.216 152.224 116.683 152.315 116.092 152.315ZM123.087 140.496V152.133H121.746V140.496H123.087ZM129.088 152.315C128.3 152.315 127.609 152.127 127.014 151.752C126.423 151.377 125.961 150.853 125.628 150.178C125.298 149.504 125.134 148.716 125.134 147.815C125.134 146.906 125.298 146.112 125.628 145.434C125.961 144.756 126.423 144.229 127.014 143.854C127.609 143.479 128.3 143.292 129.088 143.292C129.876 143.292 130.565 143.479 131.156 143.854C131.751 144.229 132.213 144.756 132.543 145.434C132.876 146.112 133.043 146.906 133.043 147.815C133.043 148.716 132.876 149.504 132.543 150.178C132.213 150.853 131.751 151.377 131.156 151.752C130.565 152.127 129.876 152.315 129.088 152.315ZM129.088 151.11C129.687 151.11 130.179 150.957 130.565 150.65C130.952 150.343 131.238 149.94 131.423 149.44C131.609 148.94 131.702 148.398 131.702 147.815C131.702 147.231 131.609 146.688 131.423 146.184C131.238 145.68 130.952 145.273 130.565 144.962C130.179 144.652 129.687 144.496 129.088 144.496C128.49 144.496 127.997 144.652 127.611 144.962C127.225 145.273 126.939 145.68 126.753 146.184C126.567 146.688 126.475 147.231 126.475 147.815C126.475 148.398 126.567 148.94 126.753 149.44C126.939 149.94 127.225 150.343 127.611 150.65C127.997 150.957 128.49 151.11 129.088 151.11ZM136.77 152.133L134.111 143.406H135.52L137.406 150.087H137.497L139.361 143.406H140.793L142.634 150.065H142.725L144.611 143.406H146.02L143.361 152.133H142.043L140.134 145.428H139.997L138.088 152.133H136.77ZM147.582 152.224C147.302 152.224 147.062 152.123 146.861 151.923C146.66 151.722 146.56 151.481 146.56 151.201C146.56 150.921 146.66 150.68 146.861 150.479C147.062 150.279 147.302 150.178 147.582 150.178C147.863 150.178 148.103 150.279 148.304 150.479C148.505 150.68 148.605 150.921 148.605 151.201C148.605 151.387 148.558 151.557 148.463 151.712C148.372 151.868 148.249 151.993 148.094 152.087C147.942 152.178 147.772 152.224 147.582 152.224Z" fill="#667085"/>
<path d="M155.877 278.796V246.069H157.973V278.796H155.877ZM161.923 256.539C161.804 255.423 161.301 254.553 160.415 253.931C159.537 253.309 158.395 252.998 156.989 252.998C156 252.998 155.152 253.147 154.445 253.445C153.737 253.744 153.196 254.148 152.821 254.66C152.446 255.171 152.254 255.755 152.246 256.411C152.246 256.957 152.369 257.43 152.617 257.83C152.872 258.231 153.217 258.572 153.652 258.853C154.087 259.126 154.568 259.356 155.097 259.543C155.625 259.731 156.158 259.888 156.695 260.016L159.149 260.63C160.138 260.86 161.088 261.171 162 261.563C162.921 261.955 163.743 262.45 164.467 263.046C165.2 263.643 165.78 264.363 166.206 265.207C166.632 266.05 166.845 267.039 166.845 268.173C166.845 269.707 166.453 271.058 165.669 272.225C164.885 273.384 163.752 274.292 162.269 274.948C160.794 275.596 159.009 275.92 156.912 275.92C154.875 275.92 153.107 275.604 151.607 274.974C150.115 274.343 148.948 273.423 148.104 272.212C147.269 271.002 146.817 269.528 146.749 267.789H151.415C151.483 268.701 151.764 269.46 152.259 270.065C152.753 270.67 153.396 271.121 154.189 271.42C154.99 271.718 155.885 271.867 156.874 271.867C157.905 271.867 158.808 271.714 159.584 271.407C160.368 271.092 160.982 270.657 161.425 270.103C161.868 269.54 162.094 268.884 162.102 268.134C162.094 267.452 161.894 266.89 161.502 266.447C161.109 265.995 160.56 265.62 159.852 265.322C159.153 265.015 158.335 264.742 157.398 264.504L154.419 263.737C152.263 263.183 150.558 262.343 149.305 261.218C148.061 260.085 147.439 258.58 147.439 256.705C147.439 255.163 147.857 253.812 148.692 252.653C149.536 251.494 150.682 250.594 152.131 249.955C153.58 249.308 155.22 248.984 157.053 248.984C158.911 248.984 160.538 249.308 161.936 249.955C163.342 250.594 164.446 251.485 165.247 252.627C166.048 253.761 166.462 255.065 166.487 256.539H161.923ZM180.747 249.342V275.523H176.004V253.957H175.851L169.727 257.869V253.522L176.234 249.342H180.747ZM197.324 249.342V275.523H192.581V253.957H192.428L186.304 257.869V253.522L192.811 249.342H197.324ZM207.295 271.944L207.128 273.35C207.009 274.424 206.796 275.515 206.489 276.623C206.191 277.739 205.876 278.766 205.543 279.704C205.211 280.641 204.942 281.379 204.738 281.915H201.618C201.738 281.396 201.9 280.688 202.104 279.793C202.317 278.898 202.522 277.893 202.718 276.776C202.914 275.66 203.046 274.526 203.114 273.376L203.204 271.944H207.295ZM220.365 276.022C218.26 276.022 216.454 275.489 214.945 274.424C213.445 273.35 212.29 271.803 211.481 269.783C210.679 267.755 210.279 265.313 210.279 262.458C210.287 259.603 210.692 257.174 211.493 255.171C212.303 253.16 213.458 251.626 214.958 250.569C216.466 249.512 218.269 248.984 220.365 248.984C222.462 248.984 224.265 249.512 225.773 250.569C227.282 251.626 228.436 253.16 229.238 255.171C230.047 257.183 230.452 259.612 230.452 262.458C230.452 265.322 230.047 267.768 229.238 269.796C228.436 271.816 227.282 273.359 225.773 274.424C224.273 275.489 222.471 276.022 220.365 276.022ZM220.365 272.021C222.002 272.021 223.293 271.215 224.239 269.604C225.194 267.985 225.671 265.603 225.671 262.458C225.671 260.379 225.454 258.631 225.019 257.217C224.584 255.802 223.971 254.737 223.178 254.021C222.385 253.296 221.448 252.934 220.365 252.934C218.738 252.934 217.451 253.744 216.505 255.363C215.559 256.974 215.081 259.339 215.073 262.458C215.064 264.546 215.273 266.302 215.699 267.725C216.134 269.148 216.748 270.222 217.54 270.947C218.333 271.663 219.275 272.021 220.365 272.021ZM243.657 276.022C241.552 276.022 239.745 275.489 238.237 274.424C236.737 273.35 235.582 271.803 234.772 269.783C233.971 267.755 233.571 265.313 233.571 262.458C233.579 259.603 233.984 257.174 234.785 255.171C235.595 253.16 236.75 251.626 238.25 250.569C239.758 249.512 241.561 248.984 243.657 248.984C245.754 248.984 247.556 249.512 249.065 250.569C250.573 251.626 251.728 253.16 252.529 255.171C253.339 257.183 253.744 259.612 253.744 262.458C253.744 265.322 253.339 267.768 252.529 269.796C251.728 271.816 250.573 273.359 249.065 274.424C247.565 275.489 245.762 276.022 243.657 276.022ZM243.657 272.021C245.294 272.021 246.585 271.215 247.531 269.604C248.485 267.985 248.963 265.603 248.963 262.458C248.963 260.379 248.745 258.631 248.311 257.217C247.876 255.802 247.262 254.737 246.47 254.021C245.677 253.296 244.74 252.934 243.657 252.934C242.029 252.934 240.742 253.744 239.796 255.363C238.85 256.974 238.373 259.339 238.365 262.458C238.356 264.546 238.565 266.302 238.991 267.725C239.426 269.148 240.039 270.222 240.832 270.947C241.625 271.663 242.566 272.021 243.657 272.021ZM266.949 276.022C264.844 276.022 263.037 275.489 261.528 274.424C260.028 273.35 258.874 271.803 258.064 269.783C257.263 267.755 256.862 265.313 256.862 262.458C256.871 259.603 257.276 257.174 258.077 255.171C258.886 253.16 260.041 251.626 261.541 250.569C263.05 249.512 264.852 248.984 266.949 248.984C269.046 248.984 270.848 249.512 272.357 250.569C273.865 251.626 275.02 253.16 275.821 255.171C276.631 257.183 277.036 259.612 277.036 262.458C277.036 265.322 276.631 267.768 275.821 269.796C275.02 271.816 273.865 273.359 272.357 274.424C270.857 275.489 269.054 276.022 266.949 276.022ZM266.949 272.021C268.585 272.021 269.876 271.215 270.822 269.604C271.777 267.985 272.254 265.603 272.254 262.458C272.254 260.379 272.037 258.631 271.602 257.217C271.168 255.802 270.554 254.737 269.761 254.021C268.969 253.296 268.031 252.934 266.949 252.934C265.321 252.934 264.034 253.744 263.088 255.363C262.142 256.974 261.665 259.339 261.656 262.458C261.648 264.546 261.857 266.302 262.283 267.725C262.717 269.148 263.331 270.222 264.124 270.947C264.916 271.663 265.858 272.021 266.949 272.021Z" fill="#137746"/>
<g clip-path="url(#clip0_219_2886)">
<rect x="24.6123" y="316.523" width="375" height="11" rx="5.5" fill="#F2F4F7"/>
<rect x="24.6123" y="316.523" width="283.374" height="11" fill="#3CB779"/>
</g>
<path d="M29.2487 354.978V340.433H30.1805V354.978H29.2487ZM32.385 344.796C32.3169 344.22 32.0403 343.773 31.5555 343.455C31.0706 343.137 30.4759 342.978 29.7714 342.978C29.2562 342.978 28.8055 343.061 28.4191 343.228C28.0365 343.395 27.7373 343.624 27.5214 343.915C27.3093 344.207 27.2032 344.539 27.2032 344.91C27.2032 345.22 27.2771 345.487 27.4248 345.711C27.5763 345.931 27.7695 346.114 28.0044 346.262C28.2392 346.406 28.4854 346.525 28.743 346.62C29.0006 346.711 29.2373 346.785 29.4532 346.842L30.635 347.16C30.9381 347.239 31.2752 347.349 31.6464 347.489C32.0214 347.629 32.3794 347.821 32.7203 348.063C33.065 348.302 33.349 348.609 33.5725 348.984C33.796 349.359 33.9078 349.819 33.9078 350.364C33.9078 350.993 33.743 351.561 33.4134 352.069C33.0877 352.576 32.6104 352.98 31.9816 353.279C31.3566 353.578 30.5972 353.728 29.7032 353.728C28.8699 353.728 28.1483 353.594 27.5384 353.325C26.9324 353.056 26.4551 352.681 26.1066 352.2C25.7619 351.719 25.5669 351.16 25.5214 350.523H26.9759C27.0138 350.963 27.1615 351.326 27.4191 351.614C27.6805 351.898 28.01 352.111 28.4078 352.251C28.8093 352.387 29.2411 352.455 29.7032 352.455C30.2411 352.455 30.724 352.368 31.1521 352.194C31.5801 352.016 31.9191 351.77 32.1691 351.455C32.4191 351.137 32.5441 350.766 32.5441 350.342C32.5441 349.955 32.4362 349.641 32.2203 349.398C32.0044 349.156 31.7203 348.959 31.368 348.808C31.0157 348.656 30.635 348.523 30.2259 348.41L28.7941 348.001C27.885 347.739 27.1653 347.366 26.635 346.881C26.1047 346.397 25.8396 345.762 25.8396 344.978C25.8396 344.326 26.0157 343.758 26.368 343.273C26.724 342.785 27.2013 342.406 27.7998 342.137C28.4021 341.864 29.0744 341.728 29.8169 341.728C30.5669 341.728 31.2335 341.862 31.8169 342.131C32.4002 342.397 32.8623 342.76 33.2032 343.222C33.5479 343.684 33.7297 344.209 33.7487 344.796H32.385ZM39.7472 353.683C38.9669 353.683 38.2776 353.544 37.6791 353.268C37.0844 352.987 36.6204 352.603 36.287 352.114C35.9537 351.622 35.7889 351.061 35.7927 350.433C35.7889 349.94 35.8855 349.486 36.0825 349.069C36.2794 348.648 36.5484 348.298 36.8893 348.018C37.234 347.734 37.6185 347.554 38.0427 347.478V347.41C37.4859 347.266 37.0427 346.953 36.7132 346.472C36.3836 345.987 36.2207 345.436 36.2245 344.819C36.2207 344.228 36.3704 343.7 36.6734 343.234C36.9764 342.768 37.3931 342.4 37.9234 342.131C38.4575 341.862 39.0654 341.728 39.7472 341.728C40.4215 341.728 41.0238 341.862 41.5541 342.131C42.0844 342.4 42.501 342.768 42.8041 343.234C43.1109 343.7 43.2662 344.228 43.27 344.819C43.2662 345.436 43.0976 345.987 42.7643 346.472C42.4347 346.953 41.9972 347.266 41.4518 347.41V347.478C41.8722 347.554 42.251 347.734 42.5882 348.018C42.9253 348.298 43.1942 348.648 43.395 349.069C43.5957 349.486 43.698 349.94 43.7018 350.433C43.698 351.061 43.5276 351.622 43.1904 352.114C42.8571 352.603 42.3931 352.987 41.7984 353.268C41.2075 353.544 40.5238 353.683 39.7472 353.683ZM39.7472 352.433C40.2738 352.433 40.7283 352.347 41.1109 352.177C41.4935 352.006 41.7889 351.766 41.9972 351.455C42.2056 351.145 42.3116 350.781 42.3154 350.364C42.3116 349.925 42.198 349.537 41.9745 349.2C41.751 348.862 41.4461 348.597 41.0597 348.404C40.6772 348.211 40.2397 348.114 39.7472 348.114C39.251 348.114 38.8079 348.211 38.4177 348.404C38.0313 348.597 37.7264 348.862 37.5029 349.2C37.2832 349.537 37.1753 349.925 37.1791 350.364C37.1753 350.781 37.2757 351.145 37.4802 351.455C37.6885 351.766 37.9859 352.006 38.3722 352.177C38.7586 352.347 39.2169 352.433 39.7472 352.433ZM39.7472 346.91C40.1639 346.91 40.5332 346.826 40.8552 346.66C41.181 346.493 41.4366 346.26 41.6222 345.961C41.8079 345.662 41.9026 345.311 41.9063 344.91C41.9026 344.516 41.8097 344.173 41.6279 343.881C41.4461 343.586 41.1942 343.359 40.8722 343.2C40.5503 343.037 40.1753 342.955 39.7472 342.955C39.3116 342.955 38.931 343.037 38.6052 343.2C38.2794 343.359 38.0276 343.586 37.8495 343.881C37.6715 344.173 37.5844 344.516 37.5882 344.91C37.5844 345.311 37.6734 345.662 37.8552 345.961C38.0408 346.26 38.2965 346.493 38.6222 346.66C38.948 346.826 39.323 346.91 39.7472 346.91ZM47.5427 351.933L47.4518 352.546C47.3874 352.978 47.2889 353.44 47.1563 353.933C47.0276 354.425 46.8931 354.889 46.7529 355.325C46.6128 355.76 46.4972 356.107 46.4063 356.364H45.3836C45.4329 356.122 45.4972 355.802 45.5768 355.404C45.6563 355.006 45.7359 354.561 45.8154 354.069C45.8988 353.58 45.9669 353.08 46.02 352.569L46.0882 351.933H47.5427ZM53.3936 353.683C52.5375 353.683 51.8083 353.45 51.2061 352.984C50.6038 352.514 50.1436 351.834 49.8254 350.944C49.5072 350.05 49.3481 348.97 49.3481 347.705C49.3481 346.448 49.5072 345.374 49.8254 344.484C50.1473 343.59 50.6095 342.908 51.2117 342.438C51.8178 341.965 52.5451 341.728 53.3936 341.728C54.242 341.728 54.9674 341.965 55.5697 342.438C56.1758 342.908 56.6379 343.59 56.9561 344.484C57.278 345.374 57.439 346.448 57.439 347.705C57.439 348.97 57.2799 350.05 56.9617 350.944C56.6436 351.834 56.1833 352.514 55.5811 352.984C54.9788 353.45 54.2496 353.683 53.3936 353.683ZM53.3936 352.433C54.242 352.433 54.9011 352.023 55.3708 351.205C55.8405 350.387 56.0754 349.22 56.0754 347.705C56.0754 346.698 55.9674 345.84 55.7515 345.131C55.5394 344.423 55.2326 343.883 54.8311 343.512C54.4333 343.141 53.9542 342.955 53.3936 342.955C52.5526 342.955 51.8954 343.37 51.422 344.2C50.9485 345.025 50.7117 346.194 50.7117 347.705C50.7117 348.713 50.8178 349.569 51.0299 350.273C51.242 350.978 51.547 351.514 51.9447 351.881C52.3462 352.249 52.8292 352.433 53.3936 352.433ZM63.3936 353.683C62.5375 353.683 61.8083 353.45 61.2061 352.984C60.6038 352.514 60.1436 351.834 59.8254 350.944C59.5072 350.05 59.3481 348.97 59.3481 347.705C59.3481 346.448 59.5072 345.374 59.8254 344.484C60.1473 343.59 60.6095 342.908 61.2117 342.438C61.8178 341.965 62.5451 341.728 63.3936 341.728C64.242 341.728 64.9674 341.965 65.5697 342.438C66.1758 342.908 66.6379 343.59 66.9561 344.484C67.278 345.374 67.439 346.448 67.439 347.705C67.439 348.97 67.2799 350.05 66.9617 350.944C66.6436 351.834 66.1833 352.514 65.5811 352.984C64.9788 353.45 64.2496 353.683 63.3936 353.683ZM63.3936 352.433C64.242 352.433 64.9011 352.023 65.3708 351.205C65.8405 350.387 66.0754 349.22 66.0754 347.705C66.0754 346.698 65.9674 345.84 65.7515 345.131C65.5394 344.423 65.2326 343.883 64.8311 343.512C64.4333 343.141 63.9542 342.955 63.3936 342.955C62.5526 342.955 61.8954 343.37 61.422 344.2C60.9485 345.025 60.7117 346.194 60.7117 347.705C60.7117 348.713 60.8178 349.569 61.0299 350.273C61.242 350.978 61.547 351.514 61.9447 351.881C62.3462 352.249 62.8292 352.433 63.3936 352.433ZM73.3936 353.683C72.5375 353.683 71.8083 353.45 71.2061 352.984C70.6038 352.514 70.1436 351.834 69.8254 350.944C69.5072 350.05 69.3481 348.97 69.3481 347.705C69.3481 346.448 69.5072 345.374 69.8254 344.484C70.1473 343.59 70.6095 342.908 71.2117 342.438C71.8178 341.965 72.5451 341.728 73.3936 341.728C74.242 341.728 74.9674 341.965 75.5697 342.438C76.1758 342.908 76.6379 343.59 76.9561 344.484C77.278 345.374 77.439 346.448 77.439 347.705C77.439 348.97 77.2799 350.05 76.9617 350.944C76.6436 351.834 76.1833 352.514 75.5811 352.984C74.9788 353.45 74.2496 353.683 73.3936 353.683ZM73.3936 352.433C74.242 352.433 74.9011 352.023 75.3708 351.205C75.8405 350.387 76.0754 349.22 76.0754 347.705C76.0754 346.698 75.9674 345.84 75.7515 345.131C75.5394 344.423 75.2326 343.883 74.8311 343.512C74.4333 343.141 73.9542 342.955 73.3936 342.955C72.5526 342.955 71.8954 343.37 71.422 344.2C70.9485 345.025 70.7117 346.194 70.7117 347.705C70.7117 348.713 70.8178 349.569 71.0299 350.273C71.242 350.978 71.547 351.514 71.9447 351.881C72.3462 352.249 72.8292 352.433 73.3936 352.433Z" fill="#667085"/>
<path d="M345.249 354.978V340.433H346.18V354.978H345.249ZM348.385 344.796C348.317 344.22 348.04 343.773 347.555 343.455C347.071 343.137 346.476 342.978 345.771 342.978C345.256 342.978 344.805 343.061 344.419 343.228C344.037 343.395 343.737 343.624 343.521 343.915C343.309 344.207 343.203 344.539 343.203 344.91C343.203 345.22 343.277 345.487 343.425 345.711C343.576 345.931 343.77 346.114 344.004 346.262C344.239 346.406 344.485 346.525 344.743 346.62C345.001 346.711 345.237 346.785 345.453 346.842L346.635 347.16C346.938 347.239 347.275 347.349 347.646 347.489C348.021 347.629 348.379 347.821 348.72 348.063C349.065 348.302 349.349 348.609 349.573 348.984C349.796 349.359 349.908 349.819 349.908 350.364C349.908 350.993 349.743 351.561 349.413 352.069C349.088 352.576 348.61 352.98 347.982 353.279C347.357 353.578 346.597 353.728 345.703 353.728C344.87 353.728 344.148 353.594 343.538 353.325C342.932 353.056 342.455 352.681 342.107 352.2C341.762 351.719 341.567 351.16 341.521 350.523H342.976C343.014 350.963 343.162 351.326 343.419 351.614C343.68 351.898 344.01 352.111 344.408 352.251C344.809 352.387 345.241 352.455 345.703 352.455C346.241 352.455 346.724 352.368 347.152 352.194C347.58 352.016 347.919 351.77 348.169 351.455C348.419 351.137 348.544 350.766 348.544 350.342C348.544 349.955 348.436 349.641 348.22 349.398C348.004 349.156 347.72 348.959 347.368 348.808C347.016 348.656 346.635 348.523 346.226 348.41L344.794 348.001C343.885 347.739 343.165 347.366 342.635 346.881C342.105 346.397 341.84 345.762 341.84 344.978C341.84 344.326 342.016 343.758 342.368 343.273C342.724 342.785 343.201 342.406 343.8 342.137C344.402 341.864 345.074 341.728 345.817 341.728C346.567 341.728 347.234 341.862 347.817 342.131C348.4 342.397 348.862 342.76 349.203 343.222C349.548 343.684 349.73 344.209 349.749 344.796H348.385ZM356.111 341.887V353.523H354.702V343.364H354.634L351.793 345.251V343.819L354.702 341.887H356.111ZM363.548 341.887V353.523H362.139V343.364H362.071L359.23 345.251V343.819L362.139 341.887H363.548ZM368.23 351.933L368.139 352.546C368.075 352.978 367.976 353.44 367.844 353.933C367.715 354.425 367.581 354.889 367.44 355.325C367.3 355.76 367.185 356.107 367.094 356.364H366.071C366.12 356.122 366.185 355.802 366.264 355.404C366.344 355.006 366.423 354.561 366.503 354.069C366.586 353.58 366.654 353.08 366.707 352.569L366.776 351.933H368.23ZM374.081 353.683C373.225 353.683 372.496 353.45 371.894 352.984C371.291 352.514 370.831 351.834 370.513 350.944C370.195 350.05 370.036 348.97 370.036 347.705C370.036 346.448 370.195 345.374 370.513 344.484C370.835 343.59 371.297 342.908 371.899 342.438C372.505 341.965 373.233 341.728 374.081 341.728C374.93 341.728 375.655 341.965 376.257 342.438C376.863 342.908 377.325 343.59 377.644 344.484C377.966 345.374 378.127 346.448 378.127 347.705C378.127 348.97 377.967 350.05 377.649 350.944C377.331 351.834 376.871 352.514 376.269 352.984C375.666 353.45 374.937 353.683 374.081 353.683ZM374.081 352.433C374.93 352.433 375.589 352.023 376.058 351.205C376.528 350.387 376.763 349.22 376.763 347.705C376.763 346.698 376.655 345.84 376.439 345.131C376.227 344.423 375.92 343.883 375.519 343.512C375.121 343.141 374.642 342.955 374.081 342.955C373.24 342.955 372.583 343.37 372.109 344.2C371.636 345.025 371.399 346.194 371.399 347.705C371.399 348.713 371.505 349.569 371.717 350.273C371.93 350.978 372.234 351.514 372.632 351.881C373.034 352.249 373.517 352.433 374.081 352.433ZM384.081 353.683C383.225 353.683 382.496 353.45 381.894 352.984C381.291 352.514 380.831 351.834 380.513 350.944C380.195 350.05 380.036 348.97 380.036 347.705C380.036 346.448 380.195 345.374 380.513 344.484C380.835 343.59 381.297 342.908 381.899 342.438C382.505 341.965 383.233 341.728 384.081 341.728C384.93 341.728 385.655 341.965 386.257 342.438C386.863 342.908 387.325 343.59 387.644 344.484C387.966 345.374 388.127 346.448 388.127 347.705C388.127 348.97 387.967 350.05 387.649 350.944C387.331 351.834 386.871 352.514 386.269 352.984C385.666 353.45 384.937 353.683 384.081 353.683ZM384.081 352.433C384.93 352.433 385.589 352.023 386.058 351.205C386.528 350.387 386.763 349.22 386.763 347.705C386.763 346.698 386.655 345.84 386.439 345.131C386.227 344.423 385.92 343.883 385.519 343.512C385.121 343.141 384.642 342.955 384.081 342.955C383.24 342.955 382.583 343.37 382.109 344.2C381.636 345.025 381.399 346.194 381.399 347.705C381.399 348.713 381.505 349.569 381.717 350.273C381.93 350.978 382.234 351.514 382.632 351.881C383.034 352.249 383.517 352.433 384.081 352.433ZM394.081 353.683C393.225 353.683 392.496 353.45 391.894 352.984C391.291 352.514 390.831 351.834 390.513 350.944C390.195 350.05 390.036 348.97 390.036 347.705C390.036 346.448 390.195 345.374 390.513 344.484C390.835 343.59 391.297 342.908 391.899 342.438C392.505 341.965 393.233 341.728 394.081 341.728C394.93 341.728 395.655 341.965 396.257 342.438C396.863 342.908 397.325 343.59 397.644 344.484C397.966 345.374 398.127 346.448 398.127 347.705C398.127 348.97 397.967 350.05 397.649 350.944C397.331 351.834 396.871 352.514 396.269 352.984C395.666 353.45 394.937 353.683 394.081 353.683ZM394.081 352.433C394.93 352.433 395.589 352.023 396.058 351.205C396.528 350.387 396.763 349.22 396.763 347.705C396.763 346.698 396.655 345.84 396.439 345.131C396.227 344.423 395.92 343.883 395.519 343.512C395.121 343.141 394.642 342.955 394.081 342.955C393.24 342.955 392.583 343.37 392.109 344.2C391.636 345.025 391.399 346.194 391.399 347.705C391.399 348.713 391.505 349.569 391.717 350.273C391.93 350.978 392.234 351.514 392.632 351.881C393.034 352.249 393.517 352.433 394.081 352.433Z" fill="#667085"/>
<g filter="url(#filter0_d_219_2886)">
<rect x="301.654" y="313.277" width="19" height="19" rx="9.5" fill="#3CB779"/>
<rect x="304.154" y="315.777" width="14" height="14" rx="7" stroke="#FCFCFD" stroke-width="5"/>
</g>
<rect x="24.6123" y="430.914" width="375" height="52" rx="26" fill="#4DDD96" fill-opacity="0.1"/>
<path d="M189.923 455.08H187.929C187.852 454.654 187.71 454.279 187.501 453.955C187.292 453.631 187.036 453.357 186.734 453.131C186.431 452.905 186.092 452.734 185.717 452.619C185.347 452.504 184.953 452.447 184.535 452.447C183.781 452.447 183.105 452.636 182.509 453.016C181.916 453.395 181.448 453.951 181.102 454.684C180.761 455.417 180.591 456.312 180.591 457.369C180.591 458.434 180.761 459.333 181.102 460.066C181.448 460.799 181.918 461.353 182.515 461.728C183.112 462.103 183.783 462.29 184.528 462.29C184.942 462.29 185.334 462.235 185.705 462.124C186.08 462.009 186.418 461.841 186.721 461.619C187.024 461.398 187.279 461.127 187.488 460.808C187.701 460.484 187.848 460.113 187.929 459.695L189.923 459.702C189.817 460.345 189.61 460.937 189.303 461.479C189.001 462.016 188.611 462.48 188.134 462.872C187.661 463.26 187.119 463.56 186.51 463.773C185.901 463.987 185.236 464.093 184.516 464.093C183.382 464.093 182.372 463.825 181.486 463.288C180.6 462.746 179.901 461.973 179.389 460.967C178.882 459.962 178.629 458.762 178.629 457.369C178.629 455.971 178.884 454.771 179.396 453.77C179.907 452.764 180.606 451.993 181.492 451.456C182.379 450.915 183.386 450.644 184.516 450.644C185.21 450.644 185.858 450.744 186.459 450.945C187.064 451.141 187.607 451.43 188.089 451.814C188.57 452.193 188.969 452.658 189.284 453.207C189.6 453.753 189.813 454.377 189.923 455.08ZM196.269 464.112C195.349 464.112 194.545 463.901 193.859 463.479C193.173 463.058 192.641 462.467 192.261 461.709C191.882 460.95 191.692 460.064 191.692 459.05C191.692 458.031 191.882 457.141 192.261 456.378C192.641 455.615 193.173 455.023 193.859 454.601C194.545 454.179 195.349 453.968 196.269 453.968C197.19 453.968 197.993 454.179 198.679 454.601C199.365 455.023 199.898 455.615 200.277 456.378C200.656 457.141 200.846 458.031 200.846 459.05C200.846 460.064 200.656 460.95 200.277 461.709C199.898 462.467 199.365 463.058 198.679 463.479C197.993 463.901 197.19 464.112 196.269 464.112ZM196.275 462.508C196.872 462.508 197.366 462.35 197.758 462.035C198.15 461.719 198.44 461.3 198.628 460.776C198.82 460.251 198.915 459.674 198.915 459.043C198.915 458.417 198.82 457.842 198.628 457.317C198.44 456.789 198.15 456.365 197.758 456.045C197.366 455.726 196.872 455.566 196.275 455.566C195.675 455.566 195.176 455.726 194.78 456.045C194.388 456.365 194.096 456.789 193.904 457.317C193.717 457.842 193.623 458.417 193.623 459.043C193.623 459.674 193.717 460.251 193.904 460.776C194.096 461.3 194.388 461.719 194.78 462.035C195.176 462.35 195.675 462.508 196.275 462.508ZM204.89 458.085V463.914H202.979V454.096H204.814V455.694H204.935C205.161 455.174 205.515 454.756 205.996 454.441C206.482 454.126 207.093 453.968 207.831 453.968C208.5 453.968 209.086 454.109 209.589 454.39C210.091 454.667 210.481 455.08 210.758 455.63C211.035 456.18 211.174 456.859 211.174 457.669V463.914H209.263V457.899C209.263 457.188 209.077 456.631 208.706 456.231C208.336 455.826 207.826 455.624 207.179 455.624C206.736 455.624 206.341 455.719 205.996 455.911C205.655 456.103 205.385 456.384 205.184 456.755C204.988 457.121 204.89 457.565 204.89 458.085ZM218.41 454.096V455.63H212.861V454.096H218.41ZM214.383 463.914V452.958C214.383 452.344 214.517 451.835 214.785 451.43C215.054 451.021 215.41 450.717 215.853 450.516C216.296 450.312 216.777 450.21 217.297 450.21C217.681 450.21 218.009 450.241 218.282 450.305C218.554 450.365 218.757 450.42 218.889 450.472L218.441 452.018C218.352 451.993 218.237 451.963 218.096 451.929C217.956 451.891 217.785 451.871 217.585 451.871C217.12 451.871 216.788 451.987 216.588 452.217C216.392 452.447 216.294 452.779 216.294 453.214V463.914H214.383ZM220.381 463.914V454.096H222.293V463.914H220.381ZM221.347 452.581C221.014 452.581 220.729 452.47 220.49 452.249C220.256 452.023 220.139 451.754 220.139 451.443C220.139 451.128 220.256 450.859 220.49 450.638C220.729 450.412 221.014 450.299 221.347 450.299C221.679 450.299 221.962 450.412 222.197 450.638C222.435 450.859 222.555 451.128 222.555 451.443C222.555 451.754 222.435 452.023 222.197 452.249C221.962 452.47 221.679 452.581 221.347 452.581ZM224.864 463.914V454.096H226.711V455.656H226.813C226.992 455.127 227.308 454.712 227.759 454.409C228.215 454.102 228.731 453.949 229.306 453.949C229.426 453.949 229.566 453.953 229.728 453.962C229.894 453.97 230.024 453.981 230.118 453.994V455.822C230.041 455.8 229.905 455.777 229.709 455.751C229.513 455.722 229.317 455.707 229.121 455.707C228.669 455.707 228.267 455.803 227.913 455.994C227.563 456.182 227.286 456.444 227.082 456.781C226.877 457.113 226.775 457.492 226.775 457.918V463.914H224.864ZM231.772 463.914V454.096H233.607V455.694H233.728C233.933 455.153 234.267 454.731 234.732 454.428C235.196 454.121 235.752 453.968 236.4 453.968C237.056 453.968 237.606 454.121 238.049 454.428C238.497 454.735 238.827 455.157 239.04 455.694H239.142C239.377 455.17 239.749 454.752 240.261 454.441C240.772 454.126 241.381 453.968 242.089 453.968C242.979 453.968 243.706 454.247 244.269 454.805C244.835 455.364 245.119 456.205 245.119 457.33V463.914H243.207V457.509C243.207 456.844 243.026 456.363 242.664 456.065C242.302 455.766 241.869 455.617 241.367 455.617C240.744 455.617 240.261 455.809 239.916 456.192C239.57 456.572 239.398 457.06 239.398 457.656V463.914H237.493V457.388C237.493 456.855 237.327 456.427 236.994 456.103C236.662 455.779 236.229 455.617 235.697 455.617C235.335 455.617 235 455.713 234.693 455.905C234.391 456.092 234.146 456.354 233.958 456.691C233.775 457.028 233.683 457.418 233.683 457.861V463.914H231.772Z" fill="#137746"/>
<defs>
<filter id="filter0_d_219_2886" x="293.654" y="305.277" width="35" height="35" filterUnits="userSpaceOnUse" color-interpolation-filters="sRGB">
<feFlood flood-opacity="0" result="BackgroundImageFix"/>
<feColorMatrix in="SourceAlpha" type="matrix" values="0 0 0 0 0 0 0 0 0 0 0 0 0 0 0 0 0 0 127 0" result="hardAlpha"/>
<feOffset/>
<feGaussianBlur stdDeviation="4"/>
<feComposite in2="hardAlpha" operator="out"/>
<feColorMatrix type="matrix" values="0 0 0 0 0.0627451 0 0 0 0 0.0941176 0 0 0 0 0.156863 0 0 0 0.21 0"/>
<feBlend mode="normal" in2="BackgroundImageFix" result="effect1_dropShadow_219_2886"/>
<feBlend mode="normal" in="SourceGraphic" in2="effect1_dropShadow_219_2886" result="shape"/>
</filter>
<clipPath id="clip0_219_2886">
<rect x="24.6123" y="316.523" width="375" height="11" rx="5.5" fill="white"/>
</clipPath>
</defs>
</svg>
