<svg width="1012" height="482" viewBox="0 0 1012 482" fill="none" xmlns="http://www.w3.org/2000/svg">
<path d="M577.668 828.725L751.223 655.169C776.802 629.59 789.593 616.8 794.035 601.703C797.942 588.424 797.452 573.958 792.633 560.383C787.155 544.949 773.468 531.262 746.093 503.887L413.715 171.509C386.34 144.134 372.652 130.445 357.218 124.968C343.644 120.15 329.177 119.659 315.899 123.567C300.802 128.009 288.011 140.799 262.432 166.378L88.8768 339.934C63.2979 365.513 50.5083 378.302 46.0663 393.4C42.1576 406.679 42.6491 421.144 47.4668 434.72C52.944 450.153 66.6326 463.842 94.0074 491.216L426.385 823.594C453.76 850.969 467.447 864.657 482.881 870.134C496.457 874.953 510.922 875.443 524.202 871.536C539.299 867.093 552.089 854.304 577.668 828.725Z" stroke="#DBF8EA" stroke-width="31.5942" stroke-linecap="round" stroke-linejoin="round"/>
<path d="M260.856 654.105L434.411 827.661C459.99 853.24 472.781 866.03 487.866 870.484C501.135 874.401 515.585 873.927 529.14 869.128C544.551 863.673 558.209 850.015 585.525 822.699L917.188 491.036C944.504 463.72 958.163 450.061 963.617 434.65C968.417 421.096 968.891 406.645 964.973 393.377C960.52 378.291 947.729 365.501 922.15 339.922L748.595 166.366C723.016 140.787 710.226 127.998 695.14 123.544C681.871 119.626 667.422 120.101 653.866 124.899C638.455 130.354 624.796 144.013 597.48 171.329L265.818 502.991C238.502 530.307 224.844 543.965 219.389 559.376C214.59 572.932 214.115 587.381 218.033 600.651C222.487 615.737 235.276 628.526 260.856 654.105Z" fill="#DBF8EA" stroke="#DBF8EA" stroke-width="31.5942" stroke-linecap="round" stroke-linejoin="round"/>
</svg>
