<svg width="375" height="543" viewBox="0 0 375 543" fill="none" xmlns="http://www.w3.org/2000/svg">
<g clip-path="url(#clip0_219_13562)">
<rect width="375" height="543" fill="#F3FAF8"/>
<path d="M20 416V524" stroke="#D5F2E4" stroke-width="3" stroke-dasharray="10 10"/>
<path d="M355 188L355 360" stroke="#D5F2E4" stroke-width="3" stroke-dasharray="10 10"/>
<path d="M218 319L218 452" stroke="#D5F2E4" stroke-width="3" stroke-dasharray="10 10"/>
<path d="M98 375L98 493" stroke="#D5F2E4" stroke-width="3" stroke-dasharray="10 10"/>
<path d="M20 523C22.9574 520.637 23.5774 520.058 24.886 518.577C28.5925 514.383 33.505 510.794 38.389 508.139C57.0812 497.979 76.787 495.136 97.6425 495.136C115.936 495.136 133.993 495.263 151.921 490.978C178.255 484.685 201.117 464.477 222.59 448.961C235.604 439.558 250.379 425.211 266.964 422.734C273.997 421.683 281.374 422.847 288.284 421.407C305.079 417.907 316.493 401.142 326.217 388.501C334.484 377.754 343.223 366.036 355 359" stroke="#3CB779" stroke-width="5" stroke-linecap="round"/>
<path d="M20 416C21.9706 414.029 26.9022 408.203 28.2108 406.144C31.9173 400.313 33.505 399.031 38.389 395.34C57.0812 381.214 76.787 377.262 97.6425 377.262C115.936 377.262 133.993 377.439 151.921 371.482C178.255 362.733 201.117 334.639 222.59 313.068C235.604 299.995 250.379 280.049 266.964 276.605C273.997 275.145 281.374 276.763 288.284 274.761C305.079 269.894 316.493 246.588 326.217 229.013C334.484 214.073 343.223 197.782 355 188" stroke="#3CB779" stroke-width="5" stroke-linecap="round" stroke-dasharray="14 14"/>
<g filter="url(#filter0_dddd_219_13562)">
<rect x="20" y="20" width="175.839" height="103.402" rx="9.76884" fill="white"/>
<path d="M41.7718 48.3237C41.7094 47.7964 41.4561 47.3871 41.0121 47.0957C40.5681 46.8043 40.0234 46.6586 39.3782 46.6586C38.9064 46.6586 38.4936 46.7349 38.1397 46.8875C37.7893 47.0402 37.5153 47.25 37.3176 47.5172C37.1233 47.7843 37.0262 48.0878 37.0262 48.4278C37.0262 48.7122 37.0938 48.9568 37.2291 49.1615C37.3679 49.3627 37.5448 49.5309 37.7599 49.6662C37.9749 49.7981 38.2004 49.9073 38.4363 49.9941C38.6722 50.0773 38.889 50.145 39.0868 50.197L40.1691 50.4884C40.4466 50.5613 40.7554 50.6619 41.0953 50.7902C41.4388 50.9186 41.7666 51.0938 42.0788 51.3158C42.3945 51.5343 42.6547 51.8153 42.8594 52.1587C43.064 52.5022 43.1664 52.9237 43.1664 53.4232C43.1664 53.9991 43.0155 54.5194 42.7137 54.9843C42.4153 55.4491 41.9782 55.8186 41.4024 56.0927C40.83 56.3667 40.1344 56.5037 39.3157 56.5037C38.5525 56.5037 37.8917 56.3806 37.3332 56.1343C36.7781 55.888 36.341 55.5445 36.0219 55.104C35.7062 54.6634 35.5275 54.1517 35.4859 53.5689H36.818C36.8527 53.9713 36.988 54.3044 37.2239 54.568C37.4633 54.8282 37.7651 55.0225 38.1293 55.1508C38.497 55.2757 38.8925 55.3381 39.3157 55.3381C39.8083 55.3381 40.2506 55.2583 40.6426 55.0988C41.0346 54.9357 41.3451 54.7102 41.5741 54.4223C41.803 54.1309 41.9175 53.7909 41.9175 53.4024C41.9175 53.0486 41.8186 52.7606 41.6209 52.5386C41.4232 52.3166 41.163 52.1362 40.8404 51.9974C40.5177 51.8587 40.1691 51.7373 39.7945 51.6332L38.4832 51.2585C37.6506 51.0192 36.9915 50.6775 36.5058 50.2334C36.0201 49.7894 35.7773 49.2083 35.7773 48.4902C35.7773 47.8936 35.9386 47.3732 36.2612 46.9292C36.5873 46.4816 37.0244 46.1347 37.5725 45.8884C38.1241 45.6387 38.7399 45.5138 39.4198 45.5138C40.1067 45.5138 40.7172 45.6369 41.2515 45.8832C41.7857 46.1261 42.2089 46.4591 42.5211 46.8823C42.8368 47.3055 43.0033 47.786 43.0207 48.3237H41.7718ZM47.4736 56.5037C46.9671 56.5037 46.5075 56.4083 46.0947 56.2175C45.6819 56.0233 45.354 55.744 45.1112 55.3798C44.8684 55.012 44.747 54.568 44.747 54.0476C44.747 53.5897 44.8371 53.2185 45.0175 52.9341C45.1979 52.6462 45.439 52.4207 45.7408 52.2576C46.0426 52.0946 46.3757 51.9732 46.7399 51.8934C47.1076 51.8101 47.4771 51.7442 47.8483 51.6956C48.334 51.6332 48.7277 51.5864 49.0295 51.5551C49.3348 51.5204 49.5568 51.4632 49.6956 51.3834C49.8378 51.3036 49.9089 51.1649 49.9089 50.9671V50.9255C49.9089 50.4121 49.7684 50.0131 49.4874 49.7287C49.2099 49.4442 48.7884 49.302 48.2229 49.302C47.6367 49.302 47.177 49.4303 46.844 49.6871C46.511 49.9438 46.2768 50.2178 46.1415 50.5092L44.9759 50.0929C45.1841 49.6073 45.4616 49.2291 45.8085 48.9586C46.1589 48.6845 46.5405 48.4937 46.9533 48.3862C47.3696 48.2751 47.7789 48.2196 48.1813 48.2196C48.438 48.2196 48.7329 48.2509 49.0659 48.3133C49.4024 48.3723 49.7268 48.4954 50.039 48.6828C50.3547 48.8701 50.6166 49.1528 50.8247 49.5309C51.0329 49.9091 51.1369 50.4156 51.1369 51.0504V56.3164H49.9089V55.2341H49.8465C49.7632 55.4075 49.6244 55.5931 49.4302 55.7908C49.2359 55.9886 48.9775 56.1568 48.6548 56.2956C48.3322 56.4344 47.9385 56.5037 47.4736 56.5037ZM47.661 55.4006C48.1466 55.4006 48.556 55.3052 48.889 55.1144C49.2255 54.9236 49.4787 54.6773 49.6487 54.3755C49.8222 54.0737 49.9089 53.7562 49.9089 53.4232V52.2992C49.8569 52.3617 49.7424 52.4189 49.5655 52.471C49.392 52.5195 49.1908 52.5629 48.9619 52.6011C48.7364 52.6357 48.5161 52.667 48.301 52.6947C48.0894 52.719 47.9177 52.7398 47.7858 52.7572C47.4667 52.7988 47.1684 52.8664 46.8908 52.9601C46.6168 53.0503 46.3948 53.1873 46.2248 53.3712C46.0583 53.5516 45.975 53.7979 45.975 54.1101C45.975 54.5368 46.1328 54.8594 46.4485 55.078C46.7677 55.293 47.1718 55.4006 47.661 55.4006ZM59.6279 48.3237L56.6722 56.3164H55.4234L52.4678 48.3237H53.7999L56.0062 54.6929H56.0894L58.2958 48.3237H59.6279ZM61.2488 56.3164V48.3237H62.4768V56.3164H61.2488ZM61.8732 46.9916C61.6339 46.9916 61.4274 46.9101 61.254 46.747C61.084 46.584 60.999 46.388 60.999 46.159C60.999 45.9301 61.084 45.7341 61.254 45.571C61.4274 45.408 61.6339 45.3265 61.8732 45.3265C62.1126 45.3265 62.3173 45.408 62.4872 45.571C62.6607 45.7341 62.7474 45.9301 62.7474 46.159C62.7474 46.388 62.6607 46.584 62.4872 46.747C62.3173 46.9101 62.1126 46.9916 61.8732 46.9916ZM65.9541 51.5083V56.3164H64.7261V48.3237H65.9125V49.5726H66.0166C66.2039 49.1667 66.4884 48.8406 66.87 48.5943C67.2515 48.3445 67.7442 48.2196 68.3478 48.2196C68.8889 48.2196 69.3625 48.3307 69.7683 48.5527C70.1742 48.7712 70.4899 49.1043 70.7154 49.5518C70.9409 49.9958 71.0536 50.5578 71.0536 51.2377V56.3164H69.8256V51.321C69.8256 50.6931 69.6625 50.2039 69.3364 49.8536C69.0104 49.4997 68.5628 49.3228 67.9939 49.3228C67.6019 49.3228 67.2515 49.4078 66.9428 49.5778C66.6375 49.7478 66.3964 49.9958 66.2195 50.3219C66.0426 50.648 65.9541 51.0435 65.9541 51.5083ZM76.5239 59.4802C75.9307 59.4802 75.4207 59.4039 74.994 59.2512C74.5673 59.1021 74.2118 58.9043 73.9273 58.658C73.6463 58.4152 73.4226 58.155 73.256 57.8775L74.2343 57.1906C74.3453 57.3363 74.4858 57.5028 74.6558 57.6902C74.8258 57.8809 75.0582 58.0457 75.3531 58.1845C75.6514 58.3267 76.0417 58.3978 76.5239 58.3978C77.1691 58.3978 77.7016 58.2417 78.1214 57.9295C78.5411 57.6173 78.751 57.1282 78.751 56.4621V54.8386H78.6469C78.5568 54.9843 78.4284 55.1647 78.2619 55.3798C78.0988 55.5914 77.8629 55.7804 77.5542 55.947C77.2489 56.11 76.8361 56.1915 76.3157 56.1915C75.6705 56.1915 75.0912 56.0389 74.5778 55.7336C74.0678 55.4283 73.6637 54.9843 73.3653 54.4015C73.0704 53.8187 72.923 53.111 72.923 52.2784C72.923 51.4597 73.067 50.7468 73.3549 50.1398C73.6428 49.5292 74.0435 49.0574 74.5569 48.7244C75.0704 48.3879 75.6636 48.2196 76.3366 48.2196C76.8569 48.2196 77.2697 48.3064 77.575 48.4798C77.8838 48.6498 78.1197 48.8441 78.2827 49.0626C78.4492 49.2777 78.5776 49.4546 78.6678 49.5934H78.7926V48.3237H79.9791V56.5454C79.9791 57.2322 79.823 57.7908 79.5107 58.2209C79.202 58.6545 78.7857 58.972 78.2619 59.1732C77.7415 59.3778 77.1622 59.4802 76.5239 59.4802ZM76.4823 55.0884C76.9749 55.0884 77.3911 54.9756 77.7311 54.7501C78.0711 54.5246 78.3295 54.2003 78.5064 53.7771C78.6834 53.3538 78.7718 52.8474 78.7718 52.2576C78.7718 51.6818 78.6851 51.1735 78.5117 50.733C78.3382 50.2924 78.0815 49.9472 77.7415 49.6975C77.4016 49.4477 76.9818 49.3228 76.4823 49.3228C75.9619 49.3228 75.5283 49.4546 75.1814 49.7183C74.8379 49.9819 74.5795 50.3358 74.406 50.7798C74.236 51.2238 74.1511 51.7164 74.1511 52.2576C74.1511 52.8127 74.2378 53.3035 74.4112 53.7302C74.5882 54.1535 74.8483 54.4865 75.1918 54.7293C75.5387 54.9687 75.9688 55.0884 76.4823 55.0884ZM87.8885 50.1137L86.7853 50.426C86.716 50.2421 86.6136 50.0634 86.4783 49.89C86.3465 49.7131 86.1661 49.5674 85.9372 49.4529C85.7082 49.3384 85.4151 49.2812 85.0577 49.2812C84.5686 49.2812 84.161 49.3939 83.8349 49.6194C83.5123 49.8414 83.351 50.1242 83.351 50.4676C83.351 50.7729 83.462 51.014 83.684 51.1909C83.906 51.3678 84.2529 51.5152 84.7247 51.6332L85.9111 51.9246C86.6258 52.098 87.1583 52.3634 87.5086 52.7207C87.859 53.0746 88.0342 53.5308 88.0342 54.0893C88.0342 54.5472 87.9024 54.9565 87.6387 55.3173C87.3785 55.6781 87.0143 55.9626 86.546 56.1707C86.0776 56.3788 85.533 56.4829 84.912 56.4829C84.0968 56.4829 83.4221 56.306 82.8879 55.9522C82.3536 55.5983 82.0154 55.0814 81.8732 54.4015L83.0388 54.1101C83.1498 54.5403 83.3596 54.8629 83.6684 55.078C83.9806 55.293 84.3882 55.4006 84.8912 55.4006C85.4636 55.4006 85.9181 55.2792 86.2546 55.0363C86.5945 54.79 86.7645 54.4952 86.7645 54.1517C86.7645 53.8742 86.6674 53.6418 86.4731 53.4544C86.2789 53.2636 85.9805 53.1214 85.5781 53.0277L84.246 52.7155C83.514 52.5421 82.9763 52.2732 82.6329 51.909C82.2929 51.5413 82.1229 51.0816 82.1229 50.53C82.1229 50.0791 82.2496 49.6801 82.5028 49.3332C82.7595 48.9863 83.1081 48.714 83.5487 48.5162C83.9927 48.3185 84.4958 48.2196 85.0577 48.2196C85.8487 48.2196 86.4697 48.3931 86.9206 48.74C87.3751 49.0869 87.6977 49.5448 87.8885 50.1137ZM94.1705 56.3164V45.6595H97.8963C98.6386 45.6595 99.2509 45.7878 99.7331 46.0445C100.215 46.2978 100.574 46.6395 100.81 47.0697C101.046 47.4963 101.164 47.9699 101.164 48.4902C101.164 48.9481 101.083 49.3263 100.92 49.6246C100.76 49.9229 100.548 50.1588 100.285 50.3323C100.025 50.5057 99.7418 50.6341 99.4365 50.7174V50.8214C99.7626 50.8422 100.09 50.9567 100.42 51.1649C100.75 51.373 101.025 51.6713 101.247 52.0599C101.469 52.4484 101.58 52.9237 101.58 53.4857C101.58 54.0199 101.459 54.5004 101.216 54.9271C100.973 55.3537 100.59 55.692 100.066 55.9417C99.5423 56.1915 98.8607 56.3164 98.0212 56.3164H94.1705ZM95.461 55.1716H98.0212C98.8641 55.1716 99.4625 55.0086 99.8164 54.6825C100.174 54.3529 100.352 53.954 100.352 53.4857C100.352 53.1249 100.26 52.7919 100.077 52.4866C99.8927 52.1778 99.6308 51.9315 99.2908 51.7477C98.9509 51.5603 98.5484 51.4667 98.0836 51.4667H95.461V55.1716ZM95.461 50.3427H97.8546C98.2432 50.3427 98.5935 50.2664 98.9058 50.1137C99.2214 49.9611 99.4712 49.746 99.6551 49.4685C99.8424 49.191 99.9361 48.8649 99.9361 48.4902C99.9361 48.0219 99.773 47.6247 99.4469 47.2986C99.1208 46.9691 98.604 46.8043 97.8963 46.8043H95.461V50.3427ZM105.886 56.5037C105.38 56.5037 104.92 56.4083 104.507 56.2175C104.095 56.0233 103.767 55.744 103.524 55.3798C103.281 55.012 103.16 54.568 103.16 54.0476C103.16 53.5897 103.25 53.2185 103.43 52.9341C103.611 52.6462 103.852 52.4207 104.154 52.2576C104.455 52.0946 104.788 51.9732 105.153 51.8934C105.52 51.8101 105.89 51.7442 106.261 51.6956C106.747 51.6332 107.14 51.5864 107.442 51.5551C107.748 51.5204 107.97 51.4632 108.108 51.3834C108.251 51.3036 108.322 51.1649 108.322 50.9671V50.9255C108.322 50.4121 108.181 50.0131 107.9 49.7287C107.623 49.4442 107.201 49.302 106.636 49.302C106.049 49.302 105.59 49.4303 105.257 49.6871C104.924 49.9438 104.69 50.2178 104.554 50.5092L103.389 50.0929C103.597 49.6073 103.874 49.2291 104.221 48.9586C104.572 48.6845 104.953 48.4937 105.366 48.3862C105.782 48.2751 106.192 48.2196 106.594 48.2196C106.851 48.2196 107.146 48.2509 107.479 48.3133C107.815 48.3723 108.14 48.4954 108.452 48.6828C108.767 48.8701 109.029 49.1528 109.237 49.5309C109.446 49.9091 109.55 50.4156 109.55 51.0504V56.3164H108.322V55.2341H108.259C108.176 55.4075 108.037 55.5931 107.843 55.7908C107.649 55.9886 107.39 56.1568 107.068 56.2956C106.745 56.4344 106.351 56.5037 105.886 56.5037ZM106.074 55.4006C106.559 55.4006 106.969 55.3052 107.302 55.1144C107.638 54.9236 107.891 54.6773 108.061 54.3755C108.235 54.0737 108.322 53.7562 108.322 53.4232V52.2992C108.27 52.3617 108.155 52.4189 107.978 52.471C107.805 52.5195 107.604 52.5629 107.375 52.6011C107.149 52.6357 106.929 52.667 106.714 52.6947C106.502 52.719 106.33 52.7398 106.199 52.7572C105.879 52.7988 105.581 52.8664 105.304 52.9601C105.03 53.0503 104.807 53.1873 104.637 53.3712C104.471 53.5516 104.388 53.7979 104.388 54.1101C104.388 54.5368 104.546 54.8594 104.861 55.078C105.18 55.293 105.585 55.4006 106.074 55.4006ZM113.019 45.6595V56.3164H111.791V45.6595H113.019ZM117.62 56.5037C117.114 56.5037 116.654 56.4083 116.241 56.2175C115.829 56.0233 115.501 55.744 115.258 55.3798C115.015 55.012 114.894 54.568 114.894 54.0476C114.894 53.5897 114.984 53.2185 115.164 52.9341C115.345 52.6462 115.586 52.4207 115.888 52.2576C116.189 52.0946 116.522 51.9732 116.887 51.8934C117.254 51.8101 117.624 51.7442 117.995 51.6956C118.481 51.6332 118.874 51.5864 119.176 51.5551C119.482 51.5204 119.704 51.4632 119.842 51.3834C119.985 51.3036 120.056 51.1649 120.056 50.9671V50.9255C120.056 50.4121 119.915 50.0131 119.634 49.7287C119.357 49.4442 118.935 49.302 118.37 49.302C117.783 49.302 117.324 49.4303 116.991 49.6871C116.658 49.9438 116.424 50.2178 116.288 50.5092L115.123 50.0929C115.331 49.6073 115.608 49.2291 115.955 48.9586C116.306 48.6845 116.687 48.4937 117.1 48.3862C117.516 48.2751 117.926 48.2196 118.328 48.2196C118.585 48.2196 118.88 48.2509 119.213 48.3133C119.549 48.3723 119.874 48.4954 120.186 48.6828C120.501 48.8701 120.763 49.1528 120.972 49.5309C121.18 49.9091 121.284 50.4156 121.284 51.0504V56.3164H120.056V55.2341H119.993C119.91 55.4075 119.771 55.5931 119.577 55.7908C119.383 55.9886 119.124 56.1568 118.802 56.2956C118.479 56.4344 118.085 56.5037 117.62 56.5037ZM117.808 55.4006C118.293 55.4006 118.703 55.3052 119.036 55.1144C119.372 54.9236 119.626 54.6773 119.796 54.3755C119.969 54.0737 120.056 53.7562 120.056 53.4232V52.2992C120.004 52.3617 119.889 52.4189 119.712 52.471C119.539 52.5195 119.338 52.5629 119.109 52.6011C118.883 52.6357 118.663 52.667 118.448 52.6947C118.236 52.719 118.064 52.7398 117.933 52.7572C117.613 52.7988 117.315 52.8664 117.038 52.9601C116.764 53.0503 116.542 53.1873 116.372 53.3712C116.205 53.5516 116.122 53.7979 116.122 54.1101C116.122 54.5368 116.28 54.8594 116.595 55.078C116.914 55.293 117.319 55.4006 117.808 55.4006ZM124.753 51.5083V56.3164H123.525V48.3237H124.712V49.5726H124.816C125.003 49.1667 125.287 48.8406 125.669 48.5943C126.051 48.3445 126.543 48.2196 127.147 48.2196C127.688 48.2196 128.162 48.3307 128.567 48.5527C128.973 48.7712 129.289 49.1043 129.514 49.5518C129.74 49.9958 129.853 50.5578 129.853 51.2377V56.3164H128.625V51.321C128.625 50.6931 128.462 50.2039 128.136 49.8536C127.809 49.4997 127.362 49.3228 126.793 49.3228C126.401 49.3228 126.051 49.4078 125.742 49.5778C125.437 49.7478 125.196 49.9958 125.019 50.3219C124.842 50.648 124.753 51.0435 124.753 51.5083ZM135.344 56.4829C134.594 56.4829 133.949 56.306 133.408 55.9522C132.867 55.5983 132.451 55.1109 132.159 54.49C131.868 53.869 131.722 53.1596 131.722 52.3617C131.722 51.5499 131.871 50.8336 132.17 50.2126C132.471 49.5882 132.891 49.1008 133.429 48.7504C133.97 48.3966 134.601 48.2196 135.323 48.2196C135.885 48.2196 136.391 48.3237 136.842 48.5319C137.293 48.74 137.663 49.0314 137.951 49.4061C138.239 49.7807 138.417 50.2178 138.487 50.7174H137.259C137.165 50.3531 136.957 50.0305 136.634 49.7495C136.315 49.465 135.885 49.3228 135.344 49.3228C134.865 49.3228 134.445 49.4477 134.085 49.6975C133.727 49.9438 133.448 50.2924 133.247 50.7434C133.049 51.1909 132.95 51.7164 132.95 52.3201C132.95 52.9376 133.047 53.4753 133.242 53.9332C133.439 54.3911 133.717 54.7467 134.074 54.9999C134.435 55.2531 134.858 55.3798 135.344 55.3798C135.663 55.3798 135.953 55.3243 136.213 55.2132C136.473 55.1022 136.693 54.9427 136.874 54.7345C137.054 54.5264 137.182 54.2766 137.259 53.9852H138.487C138.417 54.457 138.246 54.882 137.972 55.2601C137.701 55.6347 137.342 55.9331 136.894 56.1551C136.45 56.3736 135.934 56.4829 135.344 56.4829ZM143.633 56.4829C142.863 56.4829 142.199 56.3129 141.64 55.973C141.085 55.6295 140.657 55.1508 140.355 54.5368C140.056 53.9193 139.907 53.2012 139.907 52.3825C139.907 51.5638 140.056 50.8422 140.355 50.2178C140.657 49.5899 141.076 49.1008 141.614 48.7504C142.155 48.3966 142.787 48.2196 143.508 48.2196C143.924 48.2196 144.336 48.289 144.741 48.4278C145.147 48.5665 145.517 48.792 145.85 49.1043C146.183 49.413 146.448 49.8223 146.646 50.3323C146.844 50.8422 146.943 51.4701 146.943 52.216V52.7363H140.782V51.6748H145.694C145.694 51.2238 145.604 50.8214 145.423 50.4676C145.246 50.1137 144.993 49.8345 144.663 49.6298C144.337 49.4251 143.952 49.3228 143.508 49.3228C143.019 49.3228 142.596 49.4442 142.239 49.6871C141.885 49.9264 141.612 50.2386 141.422 50.6237C141.231 51.0088 141.135 51.4216 141.135 51.8621V52.5698C141.135 53.1734 141.239 53.6851 141.448 54.1049C141.659 54.5212 141.952 54.8386 142.327 55.0571C142.702 55.2722 143.137 55.3798 143.633 55.3798C143.956 55.3798 144.247 55.3347 144.507 55.2445C144.771 55.1508 144.998 55.012 145.189 54.8282C145.38 54.6409 145.527 54.4084 145.631 54.1309L146.818 54.4639C146.693 54.8663 146.483 55.2202 146.188 55.5255C145.893 55.8273 145.529 56.0632 145.095 56.2331C144.662 56.3997 144.174 56.4829 143.633 56.4829Z" fill="#667085"/>
<path d="M41.1984 98.3546C39.8959 98.2569 38.7969 97.9557 37.9015 97.451C37.006 96.9462 36.2733 96.3031 35.7035 95.5216L37.4619 93.8365C38.0154 94.504 38.6016 95.025 39.2203 95.3995C39.8389 95.7577 40.539 95.9775 41.3206 96.0589V90.4662L40.7588 90.3685C39.9448 90.222 39.2528 90.0022 38.683 89.7092C38.1131 89.4161 37.6491 89.0579 37.2909 88.6346C36.9327 88.2113 36.6722 87.7472 36.5094 87.2425C36.3466 86.7215 36.2652 86.1679 36.2652 85.5818C36.2652 84.1979 36.6966 83.0989 37.5596 82.2848C38.4225 81.4545 39.6354 80.9579 41.1984 80.7951V78.2796H43.2499V80.7951C44.3245 80.9091 45.2525 81.1777 46.034 81.601C46.8155 82.0243 47.4912 82.6023 48.0611 83.335L46.2782 84.9468C45.8875 84.4421 45.4316 84.0351 44.9106 83.7257C44.4059 83.4164 43.8116 83.221 43.1278 83.1396V88.3171L43.7872 88.4148C44.6013 88.5613 45.2932 88.7811 45.8631 89.0742C46.4329 89.3672 46.8969 89.7254 47.2551 90.1488C47.6296 90.5558 47.8982 91.0198 48.0611 91.5408C48.2239 92.0618 48.3053 92.6154 48.3053 93.2015C48.3053 94.6017 47.8657 95.7496 46.9865 96.645C46.1236 97.5405 44.878 98.0859 43.2499 98.2813V100.846H41.1984V98.3546ZM38.8539 85.5085C38.8539 86.1924 39.0412 86.7297 39.4156 87.1204C39.8064 87.4949 40.4414 87.7798 41.3206 87.9752V83.0908C39.6761 83.2861 38.8539 84.0921 38.8539 85.5085ZM45.7165 93.3236C45.7165 92.591 45.513 92.0374 45.106 91.6629C44.7152 91.2722 44.0558 90.9872 43.1278 90.8081V96.0345C43.9744 95.9042 44.6175 95.6112 45.0571 95.1553C45.4967 94.6994 45.7165 94.0889 45.7165 93.3236ZM58.1379 98.0859V94.7645H50.0297V92.42L57.161 81.0393H60.751V92.6154H63.1444V94.7645H60.751V98.0859H58.1379ZM52.3498 92.6154H58.1379V83.5548H57.9913L52.3498 92.6154ZM69.8998 94.3738H73.6852L70.6569 101.627H68.581L69.8998 94.3738ZM85.9111 98.379C84.8366 98.379 83.9004 98.1836 83.1026 97.7929C82.3211 97.3858 81.6698 96.8078 81.1488 96.0589C80.6441 95.31 80.2696 94.3901 80.0254 93.2992C79.7812 92.2083 79.6591 90.9628 79.6591 89.5626C79.6591 88.1787 79.7812 86.9413 80.0254 85.8505C80.2696 84.7433 80.6441 83.8153 81.1488 83.0663C81.6698 82.3174 82.3211 81.7475 83.1026 81.3568C83.9004 80.9498 84.8366 80.7462 85.9111 80.7462C86.9857 80.7462 87.9138 80.9498 88.6953 81.3568C89.493 81.7475 90.1443 82.3174 90.649 83.0663C91.17 83.8153 91.5526 84.7433 91.7969 85.8505C92.0411 86.9413 92.1632 88.1787 92.1632 89.5626C92.1632 90.9628 92.0411 92.2083 91.7969 93.2992C91.5526 94.3901 91.17 95.31 90.649 96.0589C90.1443 96.8078 89.493 97.3858 88.6953 97.7929C87.9138 98.1836 86.9857 98.379 85.9111 98.379ZM85.9111 96.1322C87.1485 96.1322 88.0277 95.6763 88.5487 94.7645C89.086 93.8365 89.3547 92.591 89.3547 91.0279V88.0973C89.3547 86.5343 89.086 85.2969 88.5487 84.3851C88.0277 83.4571 87.1485 82.9931 85.9111 82.9931C85.2924 82.9931 84.7633 83.1152 84.3237 83.3594C83.8841 83.5873 83.5259 83.9293 83.2491 84.3851C82.9723 84.8247 82.7688 85.362 82.6386 85.997C82.5246 86.6157 82.4676 87.3158 82.4676 88.0973V91.0279C82.4676 91.8095 82.5246 92.5177 82.6386 93.1527C82.7688 93.7714 82.9723 94.3087 83.2491 94.7645C83.5259 95.2041 83.8841 95.546 84.3237 95.7903C84.7633 96.0182 85.2924 96.1322 85.9111 96.1322ZM85.9111 91.0035C85.3413 91.0035 84.9424 90.8896 84.7145 90.6616C84.5028 90.4337 84.397 90.1569 84.397 89.8313V89.294C84.397 88.9683 84.5028 88.6916 84.7145 88.4636C84.9424 88.2357 85.3413 88.1217 85.9111 88.1217C86.481 88.1217 86.8717 88.2357 87.0834 88.4636C87.3113 88.6916 87.4253 88.9683 87.4253 89.294V89.8313C87.4253 90.1569 87.3113 90.4337 87.0834 90.6616C86.8717 90.8896 86.481 91.0035 85.9111 91.0035ZM100.555 98.379C99.4803 98.379 98.5441 98.1836 97.7463 97.7929C96.9648 97.3858 96.3136 96.8078 95.7926 96.0589C95.2878 95.31 94.9134 94.3901 94.6691 93.2992C94.4249 92.2083 94.3028 90.9628 94.3028 89.5626C94.3028 88.1787 94.4249 86.9413 94.6691 85.8505C94.9134 84.7433 95.2878 83.8153 95.7926 83.0663C96.3136 82.3174 96.9648 81.7475 97.7463 81.3568C98.5441 80.9498 99.4803 80.7462 100.555 80.7462C101.629 80.7462 102.557 80.9498 103.339 81.3568C104.137 81.7475 104.788 82.3174 105.293 83.0663C105.814 83.8153 106.196 84.7433 106.441 85.8505C106.685 86.9413 106.807 88.1787 106.807 89.5626C106.807 90.9628 106.685 92.2083 106.441 93.2992C106.196 94.3901 105.814 95.31 105.293 96.0589C104.788 96.8078 104.137 97.3858 103.339 97.7929C102.557 98.1836 101.629 98.379 100.555 98.379ZM100.555 96.1322C101.792 96.1322 102.671 95.6763 103.192 94.7645C103.73 93.8365 103.998 92.591 103.998 91.0279V88.0973C103.998 86.5343 103.73 85.2969 103.192 84.3851C102.671 83.4571 101.792 82.9931 100.555 82.9931C99.9362 82.9931 99.407 83.1152 98.9674 83.3594C98.5278 83.5873 98.1696 83.9293 97.8929 84.3851C97.6161 84.8247 97.4126 85.362 97.2823 85.997C97.1683 86.6157 97.1113 87.3158 97.1113 88.0973V91.0279C97.1113 91.8095 97.1683 92.5177 97.2823 93.1527C97.4126 93.7714 97.6161 94.3087 97.8929 94.7645C98.1696 95.2041 98.5278 95.546 98.9674 95.7903C99.407 96.0182 99.9362 96.1322 100.555 96.1322ZM100.555 91.0035C99.985 91.0035 99.5861 90.8896 99.3582 90.6616C99.1465 90.4337 99.0407 90.1569 99.0407 89.8313V89.294C99.0407 88.9683 99.1465 88.6916 99.3582 88.4636C99.5861 88.2357 99.985 88.1217 100.555 88.1217C101.125 88.1217 101.515 88.2357 101.727 88.4636C101.955 88.6916 102.069 88.9683 102.069 89.294V89.8313C102.069 90.1569 101.955 90.4337 101.727 90.6616C101.515 90.8896 101.125 91.0035 100.555 91.0035ZM115.199 98.379C114.124 98.379 113.188 98.1836 112.39 97.7929C111.609 97.3858 110.957 96.8078 110.436 96.0589C109.932 95.31 109.557 94.3901 109.313 93.2992C109.069 92.2083 108.947 90.9628 108.947 89.5626C108.947 88.1787 109.069 86.9413 109.313 85.8505C109.557 84.7433 109.932 83.8153 110.436 83.0663C110.957 82.3174 111.609 81.7475 112.39 81.3568C113.188 80.9498 114.124 80.7462 115.199 80.7462C116.273 80.7462 117.201 80.9498 117.983 81.3568C118.78 81.7475 119.432 82.3174 119.936 83.0663C120.457 83.8153 120.84 84.7433 121.084 85.8505C121.329 86.9413 121.451 88.1787 121.451 89.5626C121.451 90.9628 121.329 92.2083 121.084 93.2992C120.84 94.3901 120.457 95.31 119.936 96.0589C119.432 96.8078 118.78 97.3858 117.983 97.7929C117.201 98.1836 116.273 98.379 115.199 98.379ZM115.199 96.1322C116.436 96.1322 117.315 95.6763 117.836 94.7645C118.373 93.8365 118.642 92.591 118.642 91.0279V88.0973C118.642 86.5343 118.373 85.2969 117.836 84.3851C117.315 83.4571 116.436 82.9931 115.199 82.9931C114.58 82.9931 114.051 83.1152 113.611 83.3594C113.172 83.5873 112.813 83.9293 112.537 84.3851C112.26 84.8247 112.056 85.362 111.926 85.997C111.812 86.6157 111.755 87.3158 111.755 88.0973V91.0279C111.755 91.8095 111.812 92.5177 111.926 93.1527C112.056 93.7714 112.26 94.3087 112.537 94.7645C112.813 95.2041 113.172 95.546 113.611 95.7903C114.051 96.0182 114.58 96.1322 115.199 96.1322ZM115.199 91.0035C114.629 91.0035 114.23 90.8896 114.002 90.6616C113.79 90.4337 113.684 90.1569 113.684 89.8313V89.294C113.684 88.9683 113.79 88.6916 114.002 88.4636C114.23 88.2357 114.629 88.1217 115.199 88.1217C115.768 88.1217 116.159 88.2357 116.371 88.4636C116.599 88.6916 116.713 88.9683 116.713 89.294V89.8313C116.713 90.1569 116.599 90.4337 116.371 90.6616C116.159 90.8896 115.768 91.0035 115.199 91.0035Z" fill="#0B3420"/>
</g>
<g filter="url(#filter1_dddd_219_13562)">
<rect x="82" y="136" width="175.839" height="103.402" rx="9.76884" fill="white"/>
<path d="M106.519 164.99H105.229C105.152 164.619 105.019 164.292 104.828 164.012C104.641 163.731 104.412 163.495 104.141 163.304C103.874 163.11 103.578 162.964 103.251 162.867C102.925 162.77 102.585 162.721 102.232 162.721C101.586 162.721 101.002 162.884 100.478 163.21C99.9576 163.536 99.543 164.017 99.2343 164.652C98.929 165.286 98.7764 166.065 98.7764 166.988C98.7764 167.911 98.929 168.69 99.2343 169.324C99.543 169.959 99.9576 170.44 100.478 170.766C101.002 171.092 101.586 171.255 102.232 171.255C102.585 171.255 102.925 171.206 103.251 171.109C103.578 171.012 103.874 170.868 104.141 170.677C104.412 170.483 104.641 170.245 104.828 169.964C105.019 169.68 105.152 169.354 105.229 168.986H106.519C106.422 169.531 106.245 170.018 105.989 170.448C105.732 170.878 105.413 171.244 105.031 171.546C104.649 171.845 104.221 172.072 103.746 172.228C103.274 172.384 102.769 172.462 102.232 172.462C101.323 172.462 100.514 172.24 99.8067 171.796C99.099 171.352 98.5422 170.721 98.1363 169.902C97.7305 169.083 97.5275 168.112 97.5275 166.988C97.5275 165.864 97.7305 164.893 98.1363 164.074C98.5422 163.255 99.099 162.624 99.8067 162.18C100.514 161.736 101.323 161.514 102.232 161.514C102.769 161.514 103.274 161.592 103.746 161.748C104.221 161.904 104.649 162.133 105.031 162.435C105.413 162.733 105.732 163.097 105.989 163.528C106.245 163.954 106.422 164.442 106.519 164.99ZM108.438 172.316V164.324H109.625V165.531H109.708C109.853 165.135 110.117 164.815 110.499 164.568C110.88 164.322 111.31 164.199 111.789 164.199C111.879 164.199 111.992 164.201 112.127 164.204C112.263 164.208 112.365 164.213 112.434 164.22V165.469C112.393 165.458 112.297 165.442 112.148 165.422C112.003 165.397 111.848 165.385 111.685 165.385C111.297 165.385 110.95 165.467 110.644 165.63C110.343 165.789 110.103 166.011 109.926 166.296C109.753 166.577 109.666 166.898 109.666 167.259V172.316H108.438ZM116.998 172.483C116.228 172.483 115.564 172.313 115.005 171.973C114.45 171.63 114.022 171.151 113.72 170.537C113.421 169.919 113.272 169.201 113.272 168.383C113.272 167.564 113.421 166.842 113.72 166.218C114.022 165.59 114.441 165.101 114.979 164.75C115.52 164.397 116.152 164.22 116.873 164.22C117.289 164.22 117.7 164.289 118.106 164.428C118.512 164.567 118.882 164.792 119.215 165.104C119.548 165.413 119.813 165.822 120.011 166.332C120.209 166.842 120.307 167.47 120.307 168.216V168.736H114.146V167.675H119.059C119.059 167.224 118.968 166.821 118.788 166.468C118.611 166.114 118.358 165.834 118.028 165.63C117.702 165.425 117.317 165.323 116.873 165.323C116.384 165.323 115.961 165.444 115.603 165.687C115.25 165.926 114.977 166.239 114.786 166.624C114.596 167.009 114.5 167.422 114.5 167.862V168.57C114.5 169.173 114.604 169.685 114.812 170.105C115.024 170.521 115.317 170.839 115.692 171.057C116.067 171.272 116.502 171.38 116.998 171.38C117.321 171.38 117.612 171.335 117.872 171.244C118.136 171.151 118.363 171.012 118.554 170.828C118.745 170.641 118.892 170.408 118.996 170.131L120.183 170.464C120.058 170.866 119.848 171.22 119.553 171.525C119.258 171.827 118.894 172.063 118.46 172.233C118.027 172.4 117.539 172.483 116.998 172.483ZM125.194 172.483C124.528 172.483 123.94 172.315 123.43 171.978C122.92 171.638 122.521 171.159 122.233 170.542C121.945 169.921 121.801 169.187 121.801 168.341C121.801 167.501 121.945 166.773 122.233 166.155C122.521 165.538 122.921 165.061 123.435 164.724C123.948 164.388 124.541 164.22 125.214 164.22C125.735 164.22 126.146 164.306 126.448 164.48C126.753 164.65 126.985 164.844 127.145 165.063C127.308 165.278 127.435 165.455 127.525 165.593H127.629V161.659H128.857V172.316H127.671V171.088H127.525C127.435 171.234 127.306 171.418 127.14 171.64C126.973 171.858 126.736 172.054 126.427 172.228C126.118 172.398 125.707 172.483 125.194 172.483ZM125.36 171.38C125.853 171.38 126.269 171.251 126.609 170.995C126.949 170.735 127.207 170.375 127.384 169.918C127.561 169.456 127.65 168.924 127.65 168.32C127.65 167.723 127.563 167.201 127.39 166.754C127.216 166.303 126.959 165.952 126.619 165.703C126.279 165.449 125.86 165.323 125.36 165.323C124.84 165.323 124.406 165.456 124.059 165.723C123.716 165.987 123.457 166.346 123.284 166.801C123.114 167.252 123.029 167.758 123.029 168.32C123.029 168.889 123.116 169.406 123.289 169.871C123.466 170.332 123.726 170.7 124.07 170.974C124.417 171.244 124.847 171.38 125.36 171.38ZM131.277 172.316V164.324H132.505V172.316H131.277ZM131.901 162.992C131.662 162.992 131.455 162.91 131.282 162.747C131.112 162.584 131.027 162.388 131.027 162.159C131.027 161.93 131.112 161.734 131.282 161.571C131.455 161.408 131.662 161.326 131.901 161.326C132.14 161.326 132.345 161.408 132.515 161.571C132.689 161.734 132.775 161.93 132.775 162.159C132.775 162.388 132.689 162.584 132.515 162.747C132.345 162.91 132.14 162.992 131.901 162.992ZM138.23 164.324V165.364H134.088V164.324H138.23ZM135.295 162.409H136.523V170.027C136.523 170.374 136.573 170.634 136.674 170.807C136.778 170.977 136.91 171.092 137.069 171.151C137.233 171.206 137.404 171.234 137.585 171.234C137.72 171.234 137.831 171.227 137.918 171.213C138.004 171.196 138.074 171.182 138.126 171.172L138.376 172.275C138.292 172.306 138.176 172.337 138.027 172.368C137.878 172.403 137.689 172.42 137.46 172.42C137.113 172.42 136.773 172.346 136.44 172.197C136.11 172.048 135.836 171.82 135.618 171.515C135.403 171.21 135.295 170.825 135.295 170.36V162.409ZM144.365 172.316V161.659H145.655V171.172H150.609V172.316H144.365ZM152.441 172.316V164.324H153.669V172.316H152.441ZM153.065 162.992C152.826 162.992 152.619 162.91 152.446 162.747C152.276 162.584 152.191 162.388 152.191 162.159C152.191 161.93 152.276 161.734 152.446 161.571C152.619 161.408 152.826 161.326 153.065 161.326C153.305 161.326 153.509 161.408 153.679 161.571C153.853 161.734 153.939 161.93 153.939 162.159C153.939 162.388 153.853 162.584 153.679 162.747C153.509 162.91 153.305 162.992 153.065 162.992ZM155.918 172.316V164.324H157.105V165.573H157.209C157.375 165.146 157.644 164.815 158.015 164.579C158.386 164.339 158.832 164.22 159.352 164.22C159.88 164.22 160.319 164.339 160.669 164.579C161.023 164.815 161.299 165.146 161.496 165.573H161.58C161.784 165.16 162.091 164.832 162.501 164.589C162.91 164.343 163.401 164.22 163.973 164.22C164.688 164.22 165.272 164.443 165.727 164.891C166.181 165.335 166.409 166.027 166.409 166.967V172.316H165.18V166.967C165.18 166.377 165.019 165.956 164.697 165.703C164.374 165.449 163.994 165.323 163.557 165.323C162.995 165.323 162.56 165.493 162.251 165.833C161.942 166.169 161.788 166.596 161.788 167.113V172.316H160.539V166.842C160.539 166.388 160.391 166.022 160.097 165.744C159.802 165.463 159.422 165.323 158.957 165.323C158.638 165.323 158.34 165.408 158.062 165.578C157.788 165.748 157.566 165.984 157.396 166.285C157.229 166.584 157.146 166.929 157.146 167.321V172.316H155.918ZM168.654 172.316V164.324H169.882V172.316H168.654ZM169.278 162.992C169.039 162.992 168.833 162.91 168.659 162.747C168.489 162.584 168.404 162.388 168.404 162.159C168.404 161.93 168.489 161.734 168.659 161.571C168.833 161.408 169.039 161.326 169.278 161.326C169.518 161.326 169.722 161.408 169.892 161.571C170.066 161.734 170.153 161.93 170.153 162.159C170.153 162.388 170.066 162.584 169.892 162.747C169.722 162.91 169.518 162.992 169.278 162.992ZM175.607 164.324V165.364H171.465V164.324H175.607ZM172.672 162.409H173.9V170.027C173.9 170.374 173.951 170.634 174.051 170.807C174.155 170.977 174.287 171.092 174.447 171.151C174.61 171.206 174.782 171.234 174.962 171.234C175.097 171.234 175.208 171.227 175.295 171.213C175.382 171.196 175.451 171.182 175.503 171.172L175.753 172.275C175.67 172.306 175.553 172.337 175.404 172.368C175.255 172.403 175.066 172.42 174.837 172.42C174.49 172.42 174.15 172.346 173.817 172.197C173.488 172.048 173.214 171.82 172.995 171.515C172.78 171.21 172.672 170.825 172.672 170.36V162.409ZM182.179 172.316H180.826L184.739 161.659H186.072L189.985 172.316H188.632L185.447 163.345H185.364L182.179 172.316ZM182.679 168.154H188.132V169.298H182.679V168.154ZM191.478 172.316V164.324H192.664V165.573H192.769C192.935 165.146 193.204 164.815 193.575 164.579C193.946 164.339 194.392 164.22 194.912 164.22C195.44 164.22 195.879 164.339 196.229 164.579C196.583 164.815 196.859 165.146 197.056 165.573H197.14C197.344 165.16 197.651 164.832 198.061 164.589C198.47 164.343 198.961 164.22 199.533 164.22C200.248 164.22 200.832 164.443 201.287 164.891C201.741 165.335 201.968 166.027 201.968 166.967V172.316H200.74V166.967C200.74 166.377 200.579 165.956 200.256 165.703C199.934 165.449 199.554 165.323 199.117 165.323C198.555 165.323 198.12 165.493 197.811 165.833C197.502 166.169 197.348 166.596 197.348 167.113V172.316H196.099V166.842C196.099 166.388 195.951 166.022 195.657 165.744C195.362 165.463 194.982 165.323 194.517 165.323C194.198 165.323 193.899 165.408 193.622 165.578C193.348 165.748 193.126 165.984 192.956 166.285C192.789 166.584 192.706 166.929 192.706 167.321V172.316H191.478ZM207.461 172.483C206.739 172.483 206.106 172.311 205.562 171.968C205.02 171.624 204.597 171.144 204.292 170.526C203.99 169.909 203.839 169.187 203.839 168.362C203.839 167.529 203.99 166.802 204.292 166.181C204.597 165.56 205.02 165.078 205.562 164.735C206.106 164.391 206.739 164.22 207.461 164.22C208.182 164.22 208.814 164.391 209.355 164.735C209.9 165.078 210.323 165.56 210.625 166.181C210.93 166.802 211.083 167.529 211.083 168.362C211.083 169.187 210.93 169.909 210.625 170.526C210.323 171.144 209.9 171.624 209.355 171.968C208.814 172.311 208.182 172.483 207.461 172.483ZM207.461 171.38C208.009 171.38 208.46 171.239 208.814 170.958C209.168 170.677 209.43 170.308 209.6 169.85C209.769 169.392 209.854 168.896 209.854 168.362C209.854 167.827 209.769 167.33 209.6 166.868C209.43 166.407 209.168 166.034 208.814 165.749C208.46 165.465 208.009 165.323 207.461 165.323C206.913 165.323 206.462 165.465 206.108 165.749C205.754 166.034 205.492 166.407 205.322 166.868C205.152 167.33 205.067 167.827 205.067 168.362C205.067 168.896 205.152 169.392 205.322 169.85C205.492 170.308 205.754 170.677 206.108 170.958C206.462 171.239 206.913 171.38 207.461 171.38ZM217.994 169.049V164.324H219.222V172.316H217.994V170.963H217.911C217.724 171.369 217.432 171.715 217.037 171.999C216.641 172.28 216.142 172.42 215.538 172.42C215.039 172.42 214.595 172.311 214.206 172.093C213.817 171.871 213.512 171.538 213.29 171.094C213.068 170.646 212.957 170.082 212.957 169.402V164.324H214.185V169.319C214.185 169.902 214.348 170.367 214.674 170.714C215.004 171.061 215.424 171.234 215.934 171.234C216.239 171.234 216.549 171.156 216.865 171C217.184 170.844 217.451 170.604 217.666 170.282C217.885 169.959 217.994 169.548 217.994 169.049ZM222.7 167.508V172.316H221.471V164.324H222.658V165.573H222.762C222.949 165.167 223.234 164.841 223.615 164.594C223.997 164.345 224.49 164.22 225.093 164.22C225.634 164.22 226.108 164.331 226.514 164.553C226.92 164.771 227.235 165.104 227.461 165.552C227.686 165.996 227.799 166.558 227.799 167.238V172.316H226.571V167.321C226.571 166.693 226.408 166.204 226.082 165.854C225.756 165.5 225.308 165.323 224.739 165.323C224.347 165.323 223.997 165.408 223.688 165.578C223.383 165.748 223.142 165.996 222.965 166.322C222.788 166.648 222.7 167.043 222.7 167.508ZM233.519 164.324V165.364H229.377V164.324H233.519ZM230.584 162.409H231.812V170.027C231.812 170.374 231.863 170.634 231.963 170.807C232.067 170.977 232.199 171.092 232.359 171.151C232.522 171.206 232.693 171.234 232.874 171.234C233.009 171.234 233.12 171.227 233.207 171.213C233.294 171.196 233.363 171.182 233.415 171.172L233.665 172.275C233.581 172.306 233.465 172.337 233.316 172.368C233.167 172.403 232.978 172.42 232.749 172.42C232.402 172.42 232.062 172.346 231.729 172.197C231.399 172.048 231.125 171.82 230.907 171.515C230.692 171.21 230.584 170.825 230.584 170.36V162.409Z" fill="#667085"/>
<path d="M103.198 214.355C101.896 214.257 100.797 213.956 99.9015 213.451C99.006 212.946 98.2733 212.303 97.7035 211.522L99.4619 209.836C100.015 210.504 100.602 211.025 101.22 211.4C101.839 211.758 102.539 211.977 103.321 212.059V206.466L102.759 206.369C101.945 206.222 101.253 206.002 100.683 205.709C100.113 205.416 99.6491 205.058 99.2909 204.635C98.9327 204.211 98.6722 203.747 98.5094 203.243C98.3466 202.722 98.2652 202.168 98.2652 201.582C98.2652 200.198 98.6966 199.099 99.5596 198.285C100.422 197.454 101.635 196.958 103.198 196.795V194.28H105.25V196.795C106.324 196.909 107.253 197.178 108.034 197.601C108.816 198.024 109.491 198.602 110.061 199.335L108.278 200.947C107.887 200.442 107.432 200.035 106.911 199.726C106.406 199.416 105.812 199.221 105.128 199.14V204.317L105.787 204.415C106.601 204.561 107.293 204.781 107.863 205.074C108.433 205.367 108.897 205.725 109.255 206.149C109.63 206.556 109.898 207.02 110.061 207.541C110.224 208.062 110.305 208.615 110.305 209.202C110.305 210.602 109.866 211.75 108.986 212.645C108.124 213.541 106.878 214.086 105.25 214.281V216.846H103.198V214.355ZM100.854 201.509C100.854 202.192 101.041 202.73 101.416 203.12C101.806 203.495 102.441 203.78 103.321 203.975V199.091C101.676 199.286 100.854 200.092 100.854 201.509ZM107.717 209.324C107.717 208.591 107.513 208.037 107.106 207.663C106.715 207.272 106.056 206.987 105.128 206.808V212.034C105.974 211.904 106.618 211.611 107.057 211.155C107.497 210.699 107.717 210.089 107.717 209.324ZM118.673 214.379C117.712 214.379 116.857 214.224 116.108 213.915C115.359 213.606 114.724 213.166 114.203 212.596C113.682 212.01 113.283 211.31 113.007 210.496C112.73 209.682 112.591 208.762 112.591 207.736C112.591 206.499 112.779 205.335 113.153 204.244C113.528 203.153 114.016 202.152 114.618 201.24C115.221 200.328 115.888 199.522 116.621 198.822C117.354 198.106 118.078 197.511 118.795 197.039H122.458C121.481 197.739 120.602 198.415 119.82 199.066C119.039 199.718 118.355 200.385 117.769 201.069C117.199 201.753 116.719 202.477 116.328 203.243C115.937 203.991 115.636 204.83 115.424 205.758L115.595 205.807C115.774 205.465 115.986 205.147 116.23 204.854C116.475 204.545 116.759 204.276 117.085 204.048C117.411 203.821 117.785 203.641 118.209 203.511C118.632 203.381 119.112 203.316 119.649 203.316C120.382 203.316 121.058 203.438 121.676 203.682C122.295 203.926 122.832 204.285 123.288 204.757C123.744 205.213 124.094 205.766 124.338 206.417C124.599 207.069 124.729 207.801 124.729 208.615C124.729 209.462 124.583 210.244 124.29 210.96C124.013 211.66 123.606 212.262 123.069 212.767C122.548 213.272 121.913 213.671 121.164 213.964C120.415 214.241 119.584 214.379 118.673 214.379ZM118.648 212.181C119.69 212.181 120.496 211.904 121.066 211.351C121.636 210.781 121.921 209.983 121.921 208.957V208.713C121.921 207.687 121.636 206.898 121.066 206.344C120.496 205.774 119.69 205.489 118.648 205.489C117.622 205.489 116.825 205.774 116.255 206.344C115.685 206.898 115.4 207.687 115.4 208.713V208.957C115.4 209.983 115.685 210.781 116.255 211.351C116.825 211.904 117.622 212.181 118.648 212.181ZM131.9 210.374H135.685L132.657 217.627H130.581L131.9 210.374ZM147.911 214.379C146.837 214.379 145.9 214.184 145.103 213.793C144.321 213.386 143.67 212.808 143.149 212.059C142.644 211.31 142.27 210.39 142.025 209.299C141.781 208.208 141.659 206.963 141.659 205.563C141.659 204.179 141.781 202.941 142.025 201.85C142.27 200.743 142.644 199.815 143.149 199.066C143.67 198.317 144.321 197.748 145.103 197.357C145.9 196.95 146.837 196.746 147.911 196.746C148.986 196.746 149.914 196.95 150.695 197.357C151.493 197.748 152.144 198.317 152.649 199.066C153.17 199.815 153.553 200.743 153.797 201.85C154.041 202.941 154.163 204.179 154.163 205.563C154.163 206.963 154.041 208.208 153.797 209.299C153.553 210.39 153.17 211.31 152.649 212.059C152.144 212.808 151.493 213.386 150.695 213.793C149.914 214.184 148.986 214.379 147.911 214.379ZM147.911 212.132C149.149 212.132 150.028 211.676 150.549 210.765C151.086 209.836 151.355 208.591 151.355 207.028V204.097C151.355 202.534 151.086 201.297 150.549 200.385C150.028 199.457 149.149 198.993 147.911 198.993C147.292 198.993 146.763 199.115 146.324 199.359C145.884 199.587 145.526 199.929 145.249 200.385C144.972 200.825 144.769 201.362 144.639 201.997C144.525 202.616 144.468 203.316 144.468 204.097V207.028C144.468 207.809 144.525 208.518 144.639 209.153C144.769 209.771 144.972 210.309 145.249 210.765C145.526 211.204 145.884 211.546 146.324 211.79C146.763 212.018 147.292 212.132 147.911 212.132ZM147.911 207.004C147.341 207.004 146.942 206.89 146.714 206.662C146.503 206.434 146.397 206.157 146.397 205.831V205.294C146.397 204.968 146.503 204.692 146.714 204.464C146.942 204.236 147.341 204.122 147.911 204.122C148.481 204.122 148.872 204.236 149.083 204.464C149.311 204.692 149.425 204.968 149.425 205.294V205.831C149.425 206.157 149.311 206.434 149.083 206.662C148.872 206.89 148.481 207.004 147.911 207.004ZM162.555 214.379C161.48 214.379 160.544 214.184 159.746 213.793C158.965 213.386 158.314 212.808 157.793 212.059C157.288 211.31 156.913 210.39 156.669 209.299C156.425 208.208 156.303 206.963 156.303 205.563C156.303 204.179 156.425 202.941 156.669 201.85C156.913 200.743 157.288 199.815 157.793 199.066C158.314 198.317 158.965 197.748 159.746 197.357C160.544 196.95 161.48 196.746 162.555 196.746C163.629 196.746 164.557 196.95 165.339 197.357C166.137 197.748 166.788 198.317 167.293 199.066C167.814 199.815 168.196 200.743 168.441 201.85C168.685 202.941 168.807 204.179 168.807 205.563C168.807 206.963 168.685 208.208 168.441 209.299C168.196 210.39 167.814 211.31 167.293 212.059C166.788 212.808 166.137 213.386 165.339 213.793C164.557 214.184 163.629 214.379 162.555 214.379ZM162.555 212.132C163.792 212.132 164.671 211.676 165.192 210.765C165.73 209.836 165.998 208.591 165.998 207.028V204.097C165.998 202.534 165.73 201.297 165.192 200.385C164.671 199.457 163.792 198.993 162.555 198.993C161.936 198.993 161.407 199.115 160.967 199.359C160.528 199.587 160.17 199.929 159.893 200.385C159.616 200.825 159.413 201.362 159.282 201.997C159.168 202.616 159.111 203.316 159.111 204.097V207.028C159.111 207.809 159.168 208.518 159.282 209.153C159.413 209.771 159.616 210.309 159.893 210.765C160.17 211.204 160.528 211.546 160.967 211.79C161.407 212.018 161.936 212.132 162.555 212.132ZM162.555 207.004C161.985 207.004 161.586 206.89 161.358 206.662C161.147 206.434 161.041 206.157 161.041 205.831V205.294C161.041 204.968 161.147 204.692 161.358 204.464C161.586 204.236 161.985 204.122 162.555 204.122C163.125 204.122 163.515 204.236 163.727 204.464C163.955 204.692 164.069 204.968 164.069 205.294V205.831C164.069 206.157 163.955 206.434 163.727 206.662C163.515 206.89 163.125 207.004 162.555 207.004ZM177.199 214.379C176.124 214.379 175.188 214.184 174.39 213.793C173.609 213.386 172.957 212.808 172.436 212.059C171.932 211.31 171.557 210.39 171.313 209.299C171.069 208.208 170.947 206.963 170.947 205.563C170.947 204.179 171.069 202.941 171.313 201.85C171.557 200.743 171.932 199.815 172.436 199.066C172.957 198.317 173.609 197.748 174.39 197.357C175.188 196.95 176.124 196.746 177.199 196.746C178.273 196.746 179.201 196.95 179.983 197.357C180.78 197.748 181.432 198.317 181.936 199.066C182.457 199.815 182.84 200.743 183.084 201.85C183.329 202.941 183.451 204.179 183.451 205.563C183.451 206.963 183.329 208.208 183.084 209.299C182.84 210.39 182.457 211.31 181.936 212.059C181.432 212.808 180.78 213.386 179.983 213.793C179.201 214.184 178.273 214.379 177.199 214.379ZM177.199 212.132C178.436 212.132 179.315 211.676 179.836 210.765C180.373 209.836 180.642 208.591 180.642 207.028V204.097C180.642 202.534 180.373 201.297 179.836 200.385C179.315 199.457 178.436 198.993 177.199 198.993C176.58 198.993 176.051 199.115 175.611 199.359C175.172 199.587 174.813 199.929 174.537 200.385C174.26 200.825 174.056 201.362 173.926 201.997C173.812 202.616 173.755 203.316 173.755 204.097V207.028C173.755 207.809 173.812 208.518 173.926 209.153C174.056 209.771 174.26 210.309 174.537 210.765C174.813 211.204 175.172 211.546 175.611 211.79C176.051 212.018 176.58 212.132 177.199 212.132ZM177.199 207.004C176.629 207.004 176.23 206.89 176.002 206.662C175.79 206.434 175.684 206.157 175.684 205.831V205.294C175.684 204.968 175.79 204.692 176.002 204.464C176.23 204.236 176.629 204.122 177.199 204.122C177.768 204.122 178.159 204.236 178.371 204.464C178.599 204.692 178.713 204.968 178.713 205.294V205.831C178.713 206.157 178.599 206.434 178.371 206.662C178.159 206.89 177.768 207.004 177.199 207.004Z" fill="#0B3420"/>
</g>
</g>
<defs>
<filter id="filter0_dddd_219_13562" x="-77.6884" y="11.4523" width="371.216" height="298.779" filterUnits="userSpaceOnUse" color-interpolation-filters="sRGB">
<feFlood flood-opacity="0" result="BackgroundImageFix"/>
<feColorMatrix in="SourceAlpha" type="matrix" values="0 0 0 0 0 0 0 0 0 0 0 0 0 0 0 0 0 0 127 0" result="hardAlpha"/>
<feOffset dy="4.037"/>
<feGaussianBlur stdDeviation="2.21206"/>
<feColorMatrix type="matrix" values="0 0 0 0 0 0 0 0 0 0 0 0 0 0 0 0 0 0 0.0104523 0"/>
<feBlend mode="normal" in2="BackgroundImageFix" result="effect1_dropShadow_219_13562"/>
<feColorMatrix in="SourceAlpha" type="matrix" values="0 0 0 0 0 0 0 0 0 0 0 0 0 0 0 0 0 0 127 0" result="hardAlpha"/>
<feOffset dy="11.1618"/>
<feGaussianBlur stdDeviation="6.11605"/>
<feColorMatrix type="matrix" values="0 0 0 0 0 0 0 0 0 0 0 0 0 0 0 0 0 0 0.015 0"/>
<feBlend mode="normal" in2="effect1_dropShadow_219_13562" result="effect2_dropShadow_219_13562"/>
<feColorMatrix in="SourceAlpha" type="matrix" values="0 0 0 0 0 0 0 0 0 0 0 0 0 0 0 0 0 0 127 0" result="hardAlpha"/>
<feOffset dy="26.8733"/>
<feGaussianBlur stdDeviation="14.7251"/>
<feColorMatrix type="matrix" values="0 0 0 0 0 0 0 0 0 0 0 0 0 0 0 0 0 0 0.0195477 0"/>
<feBlend mode="normal" in2="effect2_dropShadow_219_13562" result="effect3_dropShadow_219_13562"/>
<feColorMatrix in="SourceAlpha" type="matrix" values="0 0 0 0 0 0 0 0 0 0 0 0 0 0 0 0 0 0 127 0" result="hardAlpha"/>
<feOffset dy="89.1407"/>
<feGaussianBlur stdDeviation="48.8442"/>
<feColorMatrix type="matrix" values="0 0 0 0 0 0 0 0 0 0 0 0 0 0 0 0 0 0 0.03 0"/>
<feBlend mode="normal" in2="effect3_dropShadow_219_13562" result="effect4_dropShadow_219_13562"/>
<feBlend mode="normal" in="SourceGraphic" in2="effect4_dropShadow_219_13562" result="shape"/>
</filter>
<filter id="filter1_dddd_219_13562" x="-15.6884" y="127.452" width="371.216" height="298.779" filterUnits="userSpaceOnUse" color-interpolation-filters="sRGB">
<feFlood flood-opacity="0" result="BackgroundImageFix"/>
<feColorMatrix in="SourceAlpha" type="matrix" values="0 0 0 0 0 0 0 0 0 0 0 0 0 0 0 0 0 0 127 0" result="hardAlpha"/>
<feOffset dy="4.037"/>
<feGaussianBlur stdDeviation="2.21206"/>
<feColorMatrix type="matrix" values="0 0 0 0 0 0 0 0 0 0 0 0 0 0 0 0 0 0 0.0104523 0"/>
<feBlend mode="normal" in2="BackgroundImageFix" result="effect1_dropShadow_219_13562"/>
<feColorMatrix in="SourceAlpha" type="matrix" values="0 0 0 0 0 0 0 0 0 0 0 0 0 0 0 0 0 0 127 0" result="hardAlpha"/>
<feOffset dy="11.1618"/>
<feGaussianBlur stdDeviation="6.11605"/>
<feColorMatrix type="matrix" values="0 0 0 0 0 0 0 0 0 0 0 0 0 0 0 0 0 0 0.015 0"/>
<feBlend mode="normal" in2="effect1_dropShadow_219_13562" result="effect2_dropShadow_219_13562"/>
<feColorMatrix in="SourceAlpha" type="matrix" values="0 0 0 0 0 0 0 0 0 0 0 0 0 0 0 0 0 0 127 0" result="hardAlpha"/>
<feOffset dy="26.8733"/>
<feGaussianBlur stdDeviation="14.7251"/>
<feColorMatrix type="matrix" values="0 0 0 0 0 0 0 0 0 0 0 0 0 0 0 0 0 0 0.0195477 0"/>
<feBlend mode="normal" in2="effect2_dropShadow_219_13562" result="effect3_dropShadow_219_13562"/>
<feColorMatrix in="SourceAlpha" type="matrix" values="0 0 0 0 0 0 0 0 0 0 0 0 0 0 0 0 0 0 127 0" result="hardAlpha"/>
<feOffset dy="89.1407"/>
<feGaussianBlur stdDeviation="48.8442"/>
<feColorMatrix type="matrix" values="0 0 0 0 0 0 0 0 0 0 0 0 0 0 0 0 0 0 0.03 0"/>
<feBlend mode="normal" in2="effect3_dropShadow_219_13562" result="effect4_dropShadow_219_13562"/>
<feBlend mode="normal" in="SourceGraphic" in2="effect4_dropShadow_219_13562" result="shape"/>
</filter>
<clipPath id="clip0_219_13562">
<rect width="375" height="543" fill="white"/>
</clipPath>
</defs>
</svg>
