<svg width="64" height="65" viewBox="0 0 64 65" fill="none" xmlns="http://www.w3.org/2000/svg">
<rect x="6" y="6.5" width="52" height="52" rx="26" fill="#4DDD96"/>
<path d="M25 29.499V37.499M29.5 29.499V37.499M34.5 29.499V37.499M39 29.499V37.499M23 39.099L23 39.899C23 40.4591 23 40.7391 23.109 40.953C23.2049 41.1412 23.3578 41.2942 23.546 41.39C23.7599 41.499 24.0399 41.499 24.6 41.499H39.4C39.9601 41.499 40.2401 41.499 40.454 41.3901C40.6422 41.2942 40.7951 41.1412 40.891 40.953C41 40.7391 41 40.4591 41 39.899V39.099C41 38.539 41 38.259 40.891 38.0451C40.7951 37.8569 40.6422 37.7039 40.454 37.608C40.2401 37.499 39.9601 37.499 39.4 37.499H24.6C24.0399 37.499 23.7599 37.499 23.546 37.608C23.3578 37.7039 23.2049 37.8569 23.109 38.0451C23 38.259 23 38.539 23 39.099ZM31.6529 23.5762L24.2529 25.2206C23.8059 25.32 23.5823 25.3696 23.4155 25.4898C23.2683 25.5959 23.1527 25.7399 23.0811 25.9066C23 26.0956 23 26.3246 23 26.7825L23 27.899C23 28.4591 23 28.7391 23.109 28.953C23.2049 29.1412 23.3578 29.2942 23.546 29.39C23.7599 29.499 24.0399 29.499 24.6 29.499H39.4C39.9601 29.499 40.2401 29.499 40.454 29.39C40.6422 29.2942 40.7951 29.1412 40.891 28.953C41 28.7391 41 28.4591 41 27.899V26.7825C41 26.3246 41 26.0956 40.9188 25.9066C40.8473 25.7399 40.7317 25.5959 40.5845 25.4898C40.4177 25.3696 40.1942 25.32 39.7471 25.2206L32.3471 23.5762C32.2176 23.5474 32.1528 23.533 32.0874 23.5273C32.0292 23.5222 31.9708 23.5222 31.9126 23.5273C31.8472 23.533 31.7824 23.5474 31.6529 23.5762Z" stroke="white" stroke-width="2" stroke-linecap="round" stroke-linejoin="round"/>
<rect x="6" y="6.5" width="52" height="52" rx="26" stroke="#EAF7F4" stroke-width="12"/>
</svg>
