<svg width="170" height="32" viewBox="0 0 170 32" fill="none" xmlns="http://www.w3.org/2000/svg">
<path d="M18.2837 26.9898L23.7769 21.4965C24.5865 20.6869 24.9914 20.2821 25.132 19.8042C25.2556 19.3839 25.2401 18.9261 25.0876 18.4964C24.9142 18.0079 24.481 17.5747 23.6145 16.7082L13.0943 6.18802C12.2279 5.32157 11.7946 4.88831 11.3061 4.71496C10.8765 4.56243 10.4186 4.54691 9.99833 4.67061C9.52048 4.81119 9.11564 5.21603 8.30604 6.02563L2.81277 11.5189C2.00317 12.3285 1.59836 12.7333 1.45776 13.2112C1.33405 13.6315 1.3496 14.0893 1.50209 14.519C1.67545 15.0075 2.10871 15.4407 2.97516 16.3072L13.4954 26.8274C14.3618 27.6938 14.795 28.1271 15.2835 28.3004C15.7132 28.453 16.1711 28.4685 16.5914 28.3448C17.0692 28.2042 17.474 27.7994 18.2837 26.9898Z" stroke="white" stroke-linecap="round" stroke-linejoin="round"/>
<path d="M8.25631 21.4633L13.7496 26.9566C14.5592 27.7662 14.964 28.1711 15.4415 28.312C15.8615 28.436 16.3188 28.421 16.7479 28.2691C17.2357 28.0964 17.668 27.6641 18.5325 26.7995L29.0301 16.302C29.8947 15.4374 30.327 15.0051 30.4997 14.5173C30.6516 14.0883 30.6666 13.6309 30.5426 13.2109C30.4016 12.7335 29.9968 12.3286 29.1872 11.519L23.6939 6.02575C22.8843 5.21615 22.4795 4.81134 22.002 4.67038C21.582 4.54635 21.1247 4.56139 20.6956 4.71326C20.2078 4.8859 19.7755 5.31823 18.9109 6.18282L8.41337 16.6804C7.54879 17.545 7.11649 17.9773 6.94383 18.465C6.79195 18.8941 6.77692 19.3514 6.90093 19.7714C7.0419 20.2489 7.4467 20.6537 8.25631 21.4633Z" fill="white" stroke="white" stroke-linecap="round" stroke-linejoin="round"/>
<path d="M47.752 25.288C45.704 25.288 44.176 24.544 43.168 23.056C42.176 21.568 41.68 19.424 41.68 16.624C41.68 13.824 42.176 11.68 43.168 10.192C44.176 8.704 45.704 7.96 47.752 7.96C48.52 7.96 49.184 8.064 49.744 8.272C50.304 8.48 50.784 8.76 51.184 9.112C51.584 9.464 51.92 9.864 52.192 10.312C52.464 10.744 52.704 11.184 52.912 11.632L51.184 12.424C51.04 12.056 50.872 11.712 50.68 11.392C50.488 11.056 50.256 10.768 49.984 10.528C49.728 10.272 49.416 10.072 49.048 9.928C48.696 9.784 48.264 9.712 47.752 9.712C46.424 9.712 45.432 10.216 44.776 11.224C44.136 12.232 43.816 13.576 43.816 15.256V17.992C43.816 19.672 44.136 21.016 44.776 22.024C45.432 23.032 46.424 23.536 47.752 23.536C48.264 23.536 48.696 23.464 49.048 23.32C49.416 23.176 49.728 22.984 49.984 22.744C50.256 22.488 50.488 22.2 50.68 21.88C50.872 21.544 51.04 21.192 51.184 20.824L52.912 21.616C52.704 22.08 52.464 22.528 52.192 22.96C51.92 23.392 51.584 23.784 51.184 24.136C50.784 24.488 50.304 24.768 49.744 24.976C49.184 25.184 48.52 25.288 47.752 25.288ZM56.3106 23.368H60.6306V8.872H56.3106V7.24H62.5506V23.368H66.8706V25H56.3106V23.368ZM76.1973 25.288C75.3013 25.288 74.4933 25.136 73.7733 24.832C73.0693 24.528 72.4613 24.096 71.9492 23.536C71.4533 22.96 71.0693 22.28 70.7973 21.496C70.5253 20.696 70.3893 19.808 70.3893 18.832C70.3893 17.84 70.5253 16.944 70.7973 16.144C71.0853 15.344 71.4773 14.664 71.9733 14.104C72.4693 13.528 73.0613 13.088 73.7493 12.784C74.4533 12.48 75.2293 12.328 76.0773 12.328C76.9093 12.328 77.6613 12.48 78.3333 12.784C79.0213 13.088 79.6053 13.512 80.0853 14.056C80.5653 14.584 80.9333 15.216 81.1893 15.952C81.4453 16.688 81.5733 17.496 81.5733 18.376V19.288H72.4053V19.864C72.4053 20.408 72.4933 20.912 72.6693 21.376C72.8453 21.84 73.0933 22.24 73.4133 22.576C73.7493 22.912 74.1493 23.176 74.6133 23.368C75.0933 23.544 75.6213 23.632 76.1973 23.632C77.0293 23.632 77.7493 23.44 78.3573 23.056C78.9653 22.672 79.4293 22.144 79.7493 21.472L81.1653 22.432C80.7973 23.264 80.1813 23.952 79.3173 24.496C78.4693 25.024 77.4293 25.288 76.1973 25.288ZM76.0773 13.912C75.5493 13.912 75.0613 14.008 74.6133 14.2C74.1653 14.392 73.7733 14.656 73.4373 14.992C73.1173 15.328 72.8613 15.728 72.6693 16.192C72.4933 16.64 72.4053 17.136 72.4053 17.68V17.848H79.5093V17.584C79.5093 17.04 79.4213 16.544 79.2453 16.096C79.0853 15.648 78.8533 15.264 78.5493 14.944C78.2613 14.608 77.9013 14.352 77.4693 14.176C77.0533 14 76.5893 13.912 76.0773 13.912ZM89.1479 25L84.7079 12.616H86.6519L88.4279 17.8L90.3479 23.392H90.4439L92.3639 17.8L94.1399 12.616H96.0359L91.5959 25H89.1479ZM99.4105 23.368H103.035V14.248H99.4105V12.616H104.955V15.736H105.075C105.331 14.76 105.811 14 106.515 13.456C107.235 12.896 108.147 12.616 109.251 12.616H110.979V14.536H108.651C107.547 14.536 106.651 14.856 105.963 15.496C105.291 16.136 104.955 16.976 104.955 18.016V23.368H109.755V25H99.4105V23.368ZM119.705 25.288C117.657 25.288 116.129 24.544 115.121 23.056C114.129 21.568 113.633 19.424 113.633 16.624C113.633 13.824 114.129 11.68 115.121 10.192C116.129 8.704 117.657 7.96 119.705 7.96C120.473 7.96 121.137 8.064 121.697 8.272C122.257 8.48 122.737 8.76 123.137 9.112C123.537 9.464 123.873 9.864 124.145 10.312C124.417 10.744 124.657 11.184 124.865 11.632L123.137 12.424C122.993 12.056 122.825 11.712 122.633 11.392C122.441 11.056 122.209 10.768 121.937 10.528C121.681 10.272 121.369 10.072 121.001 9.928C120.649 9.784 120.217 9.712 119.705 9.712C118.377 9.712 117.385 10.216 116.729 11.224C116.089 12.232 115.769 13.576 115.769 15.256V17.992C115.769 19.672 116.089 21.016 116.729 22.024C117.385 23.032 118.377 23.536 119.705 23.536C120.217 23.536 120.649 23.464 121.001 23.32C121.369 23.176 121.681 22.984 121.937 22.744C122.209 22.488 122.441 22.2 122.633 21.88C122.825 21.544 122.993 21.192 123.137 20.824L124.865 21.616C124.657 22.08 124.417 22.528 124.145 22.96C123.873 23.392 123.537 23.784 123.137 24.136C122.737 24.488 122.257 24.768 121.697 24.976C121.137 25.184 120.473 25.288 119.705 25.288ZM138.224 25C137.472 25 136.936 24.808 136.616 24.424C136.296 24.04 136.096 23.56 136.016 22.984H135.896C135.624 23.704 135.184 24.272 134.576 24.688C133.984 25.088 133.184 25.288 132.176 25.288C130.88 25.288 129.848 24.952 129.08 24.28C128.312 23.608 127.928 22.688 127.928 21.52C127.928 20.368 128.344 19.48 129.176 18.856C130.024 18.232 131.384 17.92 133.256 17.92H135.896V16.696C135.896 15.784 135.64 15.104 135.128 14.656C134.616 14.192 133.888 13.96 132.944 13.96C132.112 13.96 131.432 14.128 130.904 14.464C130.376 14.784 129.952 15.224 129.632 15.784L128.336 14.824C128.496 14.504 128.712 14.192 128.984 13.888C129.256 13.584 129.592 13.32 129.992 13.096C130.392 12.856 130.848 12.672 131.36 12.544C131.872 12.4 132.44 12.328 133.064 12.328C134.52 12.328 135.672 12.696 136.52 13.432C137.384 14.168 137.816 15.192 137.816 16.504V23.32H139.544V25H138.224ZM132.512 23.68C133.008 23.68 133.456 23.624 133.856 23.512C134.272 23.384 134.632 23.224 134.936 23.032C135.24 22.824 135.472 22.584 135.632 22.312C135.808 22.024 135.896 21.72 135.896 21.4V19.36H133.256C132.104 19.36 131.264 19.52 130.736 19.84C130.208 20.16 129.944 20.624 129.944 21.232V21.736C129.944 22.376 130.168 22.864 130.616 23.2C131.08 23.52 131.712 23.68 132.512 23.68ZM142.582 23.368H146.206V14.248H142.582V12.616H148.126V15.736H148.246C148.502 14.76 148.982 14 149.686 13.456C150.406 12.896 151.318 12.616 152.422 12.616H154.15V14.536H151.822C150.718 14.536 149.822 14.856 149.134 15.496C148.462 16.136 148.126 16.976 148.126 18.016V23.368H152.926V25H142.582V23.368ZM165.325 22.984H165.229C164.429 24.52 163.157 25.288 161.413 25.288C159.893 25.288 158.701 24.72 157.837 23.584C156.989 22.448 156.565 20.856 156.565 18.808C156.565 16.76 156.989 15.168 157.837 14.032C158.701 12.896 159.893 12.328 161.413 12.328C163.157 12.328 164.429 13.096 165.229 14.632H165.325V7.24H167.245V25H165.325V22.984ZM162.157 23.584C162.589 23.584 162.997 23.528 163.381 23.416C163.765 23.304 164.101 23.144 164.389 22.936C164.677 22.712 164.901 22.448 165.061 22.144C165.237 21.824 165.325 21.456 165.325 21.04V16.576C165.325 16.16 165.237 15.8 165.061 15.496C164.901 15.176 164.677 14.912 164.389 14.704C164.101 14.48 163.765 14.312 163.381 14.2C162.997 14.088 162.589 14.032 162.157 14.032C161.037 14.032 160.165 14.376 159.541 15.064C158.933 15.736 158.629 16.632 158.629 17.752V19.864C158.629 20.984 158.933 21.888 159.541 22.576C160.165 23.248 161.037 23.584 162.157 23.584Z" fill="white"/>
</svg>
