<svg width="60" height="60" viewBox="0 0 60 60" fill="none" xmlns="http://www.w3.org/2000/svg">
<rect x="10" y="10" width="40" height="40" rx="20" fill="#31974E" fill-opacity="0.14"/>
<path d="M31 27.5V24.1C31 23.5399 31 23.2599 30.891 23.046C30.7951 22.8578 30.6422 22.7049 30.454 22.609C30.2401 22.5 29.9601 22.5 29.4 22.5H21M35 32.5V29.1C35 28.5399 35 28.2599 34.891 28.046C34.7951 27.8578 34.6422 27.7049 34.454 27.609C34.2401 27.5 33.9601 27.5 33.4 27.5H21M21 20L21 40M21 37.5H37.4C37.9601 37.5 38.2401 37.5 38.454 37.391C38.6422 37.2951 38.7951 37.1422 38.891 36.954C39 36.7401 39 36.4601 39 35.9V34.1C39 33.5399 39 33.2599 38.891 33.046C38.7951 32.8578 38.6422 32.7049 38.454 32.609C38.2401 32.5 37.9601 32.5 37.4 32.5L21 32.5L21 37.5Z" stroke="#288041" stroke-width="2" stroke-linecap="round" stroke-linejoin="round"/>
<rect x="5" y="5" width="50" height="50" rx="25" stroke="#31974E" stroke-opacity="0.1" stroke-width="10"/>
</svg>
