<svg width="375" height="600" viewBox="0 0 375 600" fill="none" xmlns="http://www.w3.org/2000/svg">
<g clip-path="url(#clip0_219_15126)">
<rect width="375" height="600" fill="#F3FAF8"/>
<circle opacity="0.4" cx="-228.156" cy="175.116" r="292.399" transform="rotate(-28.0461 -228.156 175.116)" stroke="#85E6B5" stroke-width="0.793991"/>
<circle opacity="0.4" cx="-151.205" cy="96.134" r="292.399" transform="rotate(-28.0461 -151.205 96.134)" stroke="#85E6B5" stroke-width="0.793991"/>
<circle opacity="0.4" cx="-32.848" cy="33.0813" r="292.399" transform="rotate(-28.0461 -32.848 33.0813)" stroke="#85E6B5" stroke-width="0.793991"/>
<line opacity="0.5" x1="222" y1="203" x2="304" y2="203" stroke="#38C67D" stroke-width="4" stroke-linecap="round" stroke-dasharray="8 8"/>
<path d="M-187.982 565.665C90.1828 557.557 312 403.213 312 213.999C312 213.999 312 -29.0005 456 -80.0006C587.399 -126.538 478.997 600.034 459.019 727.551C457.275 738.68 447.732 746.499 436.467 746.499H-188C-200.703 746.499 -211 736.202 -211 723.499V588.999C-211 576.297 -200.679 566.035 -187.982 565.665Z" fill="url(#paint0_linear_219_15126)" fill-opacity="0.5"/>
<path d="M312 214C312 408.404 77.8449 566 -211 566" stroke="#38C67D" stroke-width="8" stroke-linecap="round"/>
<g filter="url(#filter0_d_219_15126)">
<rect x="290" y="181" width="44" height="44" rx="22" fill="#38C67D"/>
<rect x="295.5" y="186.5" width="33" height="33" rx="16.5" stroke="white" stroke-width="11"/>
</g>
<rect x="50" y="152" width="170" height="102" rx="16" fill="white"/>
<path d="M75.4261 176H74.1932C74.1203 175.645 73.9927 175.334 73.8104 175.065C73.6314 174.797 73.4126 174.571 73.1541 174.389C72.8989 174.204 72.6155 174.064 72.304 173.972C71.9924 173.879 71.6676 173.832 71.3295 173.832C70.7131 173.832 70.1546 173.988 69.6541 174.3C69.157 174.611 68.7609 175.07 68.4659 175.677C68.1742 176.283 68.0284 177.027 68.0284 177.909C68.0284 178.791 68.1742 179.535 68.4659 180.141C68.7609 180.748 69.157 181.207 69.6541 181.518C70.1546 181.83 70.7131 181.986 71.3295 181.986C71.6676 181.986 71.9924 181.939 72.304 181.847C72.6155 181.754 72.8989 181.616 73.1541 181.434C73.4126 181.248 73.6314 181.021 73.8104 180.753C73.9927 180.481 74.1203 180.17 74.1932 179.818H75.4261C75.3333 180.339 75.1643 180.804 74.919 181.215C74.6738 181.626 74.3688 181.976 74.0043 182.264C73.6397 182.549 73.2304 182.766 72.7763 182.915C72.3255 183.065 71.8433 183.139 71.3295 183.139C70.4612 183.139 69.6889 182.927 69.0128 182.503C68.3366 182.079 67.8047 181.475 67.4169 180.693C67.0291 179.911 66.8352 178.983 66.8352 177.909C66.8352 176.835 67.0291 175.907 67.4169 175.125C67.8047 174.343 68.3366 173.74 69.0128 173.315C69.6889 172.891 70.4612 172.679 71.3295 172.679C71.8433 172.679 72.3255 172.754 72.7763 172.903C73.2304 173.052 73.6397 173.271 74.0043 173.559C74.3688 173.844 74.6738 174.192 74.919 174.603C75.1643 175.011 75.3333 175.476 75.4261 176ZM77.2594 183V175.364H78.3929V176.517H78.4725C78.6117 176.139 78.8636 175.833 79.2282 175.597C79.5927 175.362 80.0037 175.244 80.4611 175.244C80.5473 175.244 80.655 175.246 80.7843 175.249C80.9135 175.253 81.0113 175.258 81.0776 175.264V176.457C81.0378 176.447 80.9467 176.433 80.8042 176.413C80.665 176.389 80.5175 176.378 80.3617 176.378C79.9905 176.378 79.659 176.456 79.3674 176.612C79.079 176.764 78.8503 176.976 78.6813 177.248C78.5156 177.516 78.4327 177.823 78.4327 178.168V183H77.2594ZM85.4377 183.159C84.7019 183.159 84.0672 182.997 83.5336 182.672C83.0033 182.344 82.5939 181.886 82.3056 181.3C82.0205 180.71 81.878 180.024 81.878 179.241C81.878 178.459 82.0205 177.77 82.3056 177.173C82.5939 176.573 82.995 176.106 83.5087 175.771C84.0257 175.433 84.629 175.264 85.3184 175.264C85.7161 175.264 86.1088 175.33 86.4966 175.463C86.8844 175.596 87.2374 175.811 87.5556 176.109C87.8738 176.404 88.1273 176.795 88.3162 177.283C88.5051 177.77 88.5996 178.37 88.5996 179.082V179.58H82.7132V178.565H87.4064C87.4064 178.134 87.3203 177.75 87.1479 177.412C86.9789 177.074 86.7369 176.807 86.4221 176.612C86.1105 176.416 85.7426 176.318 85.3184 176.318C84.851 176.318 84.4467 176.434 84.1053 176.666C83.7672 176.895 83.507 177.193 83.3248 177.561C83.1425 177.929 83.0513 178.323 83.0513 178.744V179.42C83.0513 179.997 83.1507 180.486 83.3496 180.887C83.5518 181.285 83.8319 181.588 84.1898 181.797C84.5478 182.002 84.9637 182.105 85.4377 182.105C85.7459 182.105 86.0243 182.062 86.2729 181.976C86.5248 181.886 86.7419 181.754 86.9242 181.578C87.1065 181.399 87.2473 181.177 87.3468 180.912L88.4803 181.23C88.361 181.615 88.1605 181.953 87.8787 182.244C87.597 182.533 87.249 182.758 86.8347 182.92C86.4204 183.08 85.9547 183.159 85.4377 183.159ZM93.2679 183.159C92.6316 183.159 92.0698 182.998 91.5826 182.677C91.0953 182.352 90.7142 181.895 90.4391 181.305C90.164 180.711 90.0265 180.01 90.0265 179.202C90.0265 178.4 90.164 177.704 90.4391 177.114C90.7142 176.524 91.097 176.068 91.5875 175.746C92.0781 175.425 92.6448 175.264 93.2878 175.264C93.785 175.264 94.1777 175.347 94.4661 175.513C94.7578 175.675 94.9798 175.861 95.1323 176.07C95.2881 176.275 95.409 176.444 95.4952 176.577H95.5946V172.818H96.7679V183H95.6344V181.827H95.4952C95.409 181.966 95.2864 182.142 95.1273 182.354C94.9682 182.562 94.7412 182.75 94.4462 182.915C94.1512 183.078 93.7585 183.159 93.2679 183.159ZM93.427 182.105C93.8977 182.105 94.2954 181.982 94.6202 181.737C94.945 181.489 95.1919 181.146 95.361 180.708C95.53 180.267 95.6145 179.759 95.6145 179.182C95.6145 178.612 95.5317 178.113 95.3659 177.685C95.2002 177.254 94.955 176.92 94.6301 176.681C94.3053 176.439 93.9043 176.318 93.427 176.318C92.9299 176.318 92.5156 176.446 92.1841 176.701C91.856 176.953 91.6091 177.296 91.4434 177.73C91.281 178.161 91.1998 178.645 91.1998 179.182C91.1998 179.725 91.2826 180.219 91.4483 180.663C91.6174 181.104 91.8659 181.455 92.1941 181.717C92.5255 181.976 92.9365 182.105 93.427 182.105ZM99.0797 183V175.364H100.253V183H99.0797ZM99.6763 174.091C99.4476 174.091 99.2504 174.013 99.0847 173.857C98.9223 173.701 98.8411 173.514 98.8411 173.295C98.8411 173.077 98.9223 172.889 99.0847 172.734C99.2504 172.578 99.4476 172.5 99.6763 172.5C99.905 172.5 100.101 172.578 100.263 172.734C100.429 172.889 100.512 173.077 100.512 173.295C100.512 173.514 100.429 173.701 100.263 173.857C100.101 174.013 99.905 174.091 99.6763 174.091ZM105.723 175.364V176.358H101.766V175.364H105.723ZM102.919 173.534H104.092V180.812C104.092 181.144 104.14 181.393 104.237 181.558C104.336 181.721 104.462 181.83 104.614 181.886C104.77 181.939 104.934 181.966 105.107 181.966C105.236 181.966 105.342 181.959 105.425 181.946C105.508 181.929 105.574 181.916 105.624 181.906L105.862 182.96C105.783 182.99 105.672 183.02 105.529 183.05C105.387 183.083 105.206 183.099 104.987 183.099C104.656 183.099 104.331 183.028 104.013 182.886C103.698 182.743 103.436 182.526 103.227 182.234C103.022 181.943 102.919 181.575 102.919 181.131V173.534ZM112.599 172.818V183H111.425V172.818H112.599ZM114.748 183V175.364H115.921V183H114.748ZM115.344 174.091C115.116 174.091 114.918 174.013 114.753 173.857C114.59 173.701 114.509 173.514 114.509 173.295C114.509 173.077 114.59 172.889 114.753 172.734C114.918 172.578 115.116 172.5 115.344 172.5C115.573 172.5 115.769 172.578 115.931 172.734C116.097 172.889 116.18 173.077 116.18 173.295C116.18 173.514 116.097 173.701 115.931 173.857C115.769 174.013 115.573 174.091 115.344 174.091ZM118.07 183V175.364H119.203V176.557H119.303C119.462 176.149 119.719 175.833 120.074 175.607C120.428 175.379 120.854 175.264 121.351 175.264C121.855 175.264 122.274 175.379 122.609 175.607C122.947 175.833 123.211 176.149 123.4 176.557H123.479C123.675 176.162 123.968 175.849 124.359 175.617C124.75 175.382 125.219 175.264 125.766 175.264C126.449 175.264 127.007 175.478 127.441 175.906C127.876 176.33 128.093 176.991 128.093 177.889V183H126.919V177.889C126.919 177.326 126.765 176.923 126.457 176.681C126.149 176.439 125.786 176.318 125.368 176.318C124.831 176.318 124.415 176.481 124.12 176.805C123.825 177.127 123.678 177.535 123.678 178.028V183H122.485V177.77C122.485 177.336 122.344 176.986 122.062 176.721C121.78 176.452 121.417 176.318 120.973 176.318C120.668 176.318 120.383 176.399 120.118 176.562C119.856 176.724 119.644 176.95 119.482 177.238C119.323 177.523 119.243 177.853 119.243 178.227V183H118.07ZM130.238 183V175.364H131.411V183H130.238ZM130.835 174.091C130.606 174.091 130.409 174.013 130.243 173.857C130.08 173.701 129.999 173.514 129.999 173.295C129.999 173.077 130.08 172.889 130.243 172.734C130.409 172.578 130.606 172.5 130.835 172.5C131.063 172.5 131.259 172.578 131.421 172.734C131.587 172.889 131.67 173.077 131.67 173.295C131.67 173.514 131.587 173.701 131.421 173.857C131.259 174.013 131.063 174.091 130.835 174.091ZM136.881 175.364V176.358H132.924V175.364H136.881ZM134.077 173.534H135.251V180.812C135.251 181.144 135.299 181.393 135.395 181.558C135.494 181.721 135.62 181.83 135.773 181.886C135.928 181.939 136.092 181.966 136.265 181.966C136.394 181.966 136.5 181.959 136.583 181.946C136.666 181.929 136.732 181.916 136.782 181.906L137.02 182.96C136.941 182.99 136.83 183.02 136.687 183.05C136.545 183.083 136.364 183.099 136.145 183.099C135.814 183.099 135.489 183.028 135.171 182.886C134.856 182.743 134.594 182.526 134.385 182.234C134.18 181.943 134.077 181.575 134.077 181.131V173.534Z" fill="#667085"/>
<path d="M74.576 229.352C72.8693 229.224 71.4293 228.829 70.256 228.168C69.0827 227.507 68.1227 226.664 67.376 225.64L69.68 223.432C70.4053 224.307 71.1733 224.989 71.984 225.48C72.7947 225.949 73.712 226.237 74.736 226.344V219.016L74 218.888C72.9333 218.696 72.0267 218.408 71.28 218.024C70.5333 217.64 69.9253 217.171 69.456 216.616C68.9867 216.061 68.6453 215.453 68.432 214.792C68.2187 214.109 68.112 213.384 68.112 212.616C68.112 210.803 68.6773 209.363 69.808 208.296C70.9387 207.208 72.528 206.557 74.576 206.344V203.048H77.264V206.344C78.672 206.493 79.888 206.845 80.912 207.4C81.936 207.955 82.8213 208.712 83.568 209.672L81.232 211.784C80.72 211.123 80.1227 210.589 79.44 210.184C78.7787 209.779 78 209.523 77.104 209.416V216.2L77.968 216.328C79.0347 216.52 79.9413 216.808 80.688 217.192C81.4347 217.576 82.0427 218.045 82.512 218.6C83.0027 219.133 83.3547 219.741 83.568 220.424C83.7813 221.107 83.888 221.832 83.888 222.6C83.888 224.435 83.312 225.939 82.16 227.112C81.0293 228.285 79.3973 229 77.264 229.256V232.616H74.576V229.352ZM71.504 212.52C71.504 213.416 71.7493 214.12 72.24 214.632C72.752 215.123 73.584 215.496 74.736 215.752V209.352C72.5813 209.608 71.504 210.664 71.504 212.52ZM80.496 222.76C80.496 221.8 80.2293 221.075 79.696 220.584C79.184 220.072 78.32 219.699 77.104 219.464V226.312C78.2133 226.141 79.056 225.757 79.632 225.16C80.208 224.563 80.496 223.763 80.496 222.76ZM88.0035 229V226.024H94.2755V209.288H94.0195L88.8355 214.824L86.6275 212.84L92.3235 206.664H97.8595V226.024H103.267V229H88.0035ZM121.815 229H106.391V225.576L113.687 219.208C114.839 218.184 115.724 217.213 116.343 216.296C116.983 215.379 117.303 214.408 117.303 213.384V213.032C117.303 211.859 116.983 210.963 116.343 210.344C115.703 209.704 114.775 209.384 113.559 209.384C112.322 209.384 111.362 209.715 110.679 210.376C110.018 211.037 109.538 211.88 109.239 212.904L106.103 211.72C106.316 211.016 106.626 210.344 107.031 209.704C107.436 209.043 107.948 208.456 108.567 207.944C109.207 207.432 109.954 207.027 110.807 206.728C111.682 206.429 112.684 206.28 113.815 206.28C114.967 206.28 115.991 206.451 116.887 206.792C117.804 207.112 118.572 207.56 119.191 208.136C119.81 208.712 120.279 209.405 120.599 210.216C120.919 211.005 121.079 211.88 121.079 212.84C121.079 213.736 120.94 214.568 120.663 215.336C120.407 216.083 120.034 216.808 119.543 217.512C119.074 218.195 118.508 218.856 117.847 219.496C117.186 220.136 116.46 220.776 115.671 221.416L110.263 225.96H121.815V229ZM131.371 224.136H136.331L132.363 233.64H129.643L131.371 224.136ZM152.35 229.384C150.942 229.384 149.715 229.128 148.67 228.616C147.646 228.083 146.793 227.325 146.11 226.344C145.449 225.363 144.958 224.157 144.638 222.728C144.318 221.299 144.158 219.667 144.158 217.832C144.158 216.019 144.318 214.397 144.638 212.968C144.958 211.517 145.449 210.301 146.11 209.32C146.793 208.339 147.646 207.592 148.67 207.08C149.715 206.547 150.942 206.28 152.35 206.28C153.758 206.28 154.974 206.547 155.998 207.08C157.043 207.592 157.897 208.339 158.558 209.32C159.241 210.301 159.742 211.517 160.062 212.968C160.382 214.397 160.542 216.019 160.542 217.832C160.542 219.667 160.382 221.299 160.062 222.728C159.742 224.157 159.241 225.363 158.558 226.344C157.897 227.325 157.043 228.083 155.998 228.616C154.974 229.128 153.758 229.384 152.35 229.384ZM152.35 226.44C153.971 226.44 155.123 225.843 155.806 224.648C156.51 223.432 156.862 221.8 156.862 219.752V215.912C156.862 213.864 156.51 212.243 155.806 211.048C155.123 209.832 153.971 209.224 152.35 209.224C151.539 209.224 150.846 209.384 150.27 209.704C149.694 210.003 149.225 210.451 148.862 211.048C148.499 211.624 148.233 212.328 148.062 213.16C147.913 213.971 147.838 214.888 147.838 215.912V219.752C147.838 220.776 147.913 221.704 148.062 222.536C148.233 223.347 148.499 224.051 148.862 224.648C149.225 225.224 149.694 225.672 150.27 225.992C150.846 226.291 151.539 226.44 152.35 226.44ZM152.35 219.72C151.603 219.72 151.081 219.571 150.782 219.272C150.505 218.973 150.366 218.611 150.366 218.184V217.48C150.366 217.053 150.505 216.691 150.782 216.392C151.081 216.093 151.603 215.944 152.35 215.944C153.097 215.944 153.609 216.093 153.886 216.392C154.185 216.691 154.334 217.053 154.334 217.48V218.184C154.334 218.611 154.185 218.973 153.886 219.272C153.609 219.571 153.097 219.72 152.35 219.72ZM171.538 229.384C170.13 229.384 168.903 229.128 167.858 228.616C166.834 228.083 165.98 227.325 165.298 226.344C164.636 225.363 164.146 224.157 163.826 222.728C163.506 221.299 163.346 219.667 163.346 217.832C163.346 216.019 163.506 214.397 163.826 212.968C164.146 211.517 164.636 210.301 165.298 209.32C165.98 208.339 166.834 207.592 167.858 207.08C168.903 206.547 170.13 206.28 171.538 206.28C172.946 206.28 174.162 206.547 175.186 207.08C176.231 207.592 177.084 208.339 177.746 209.32C178.428 210.301 178.93 211.517 179.25 212.968C179.57 214.397 179.73 216.019 179.73 217.832C179.73 219.667 179.57 221.299 179.25 222.728C178.93 224.157 178.428 225.363 177.746 226.344C177.084 227.325 176.231 228.083 175.186 228.616C174.162 229.128 172.946 229.384 171.538 229.384ZM171.538 226.44C173.159 226.44 174.311 225.843 174.994 224.648C175.698 223.432 176.05 221.8 176.05 219.752V215.912C176.05 213.864 175.698 212.243 174.994 211.048C174.311 209.832 173.159 209.224 171.538 209.224C170.727 209.224 170.034 209.384 169.458 209.704C168.882 210.003 168.412 210.451 168.05 211.048C167.687 211.624 167.42 212.328 167.25 213.16C167.1 213.971 167.026 214.888 167.026 215.912V219.752C167.026 220.776 167.1 221.704 167.25 222.536C167.42 223.347 167.687 224.051 168.05 224.648C168.412 225.224 168.882 225.672 169.458 225.992C170.034 226.291 170.727 226.44 171.538 226.44ZM171.538 219.72C170.791 219.72 170.268 219.571 169.97 219.272C169.692 218.973 169.554 218.611 169.554 218.184V217.48C169.554 217.053 169.692 216.691 169.97 216.392C170.268 216.093 170.791 215.944 171.538 215.944C172.284 215.944 172.796 216.093 173.074 216.392C173.372 216.691 173.522 217.053 173.522 217.48V218.184C173.522 218.611 173.372 218.973 173.074 219.272C172.796 219.571 172.284 219.72 171.538 219.72ZM190.725 229.384C189.317 229.384 188.09 229.128 187.045 228.616C186.021 228.083 185.168 227.325 184.485 226.344C183.824 225.363 183.333 224.157 183.013 222.728C182.693 221.299 182.533 219.667 182.533 217.832C182.533 216.019 182.693 214.397 183.013 212.968C183.333 211.517 183.824 210.301 184.485 209.32C185.168 208.339 186.021 207.592 187.045 207.08C188.09 206.547 189.317 206.28 190.725 206.28C192.133 206.28 193.349 206.547 194.373 207.08C195.418 207.592 196.272 208.339 196.933 209.32C197.616 210.301 198.117 211.517 198.437 212.968C198.757 214.397 198.917 216.019 198.917 217.832C198.917 219.667 198.757 221.299 198.437 222.728C198.117 224.157 197.616 225.363 196.933 226.344C196.272 227.325 195.418 228.083 194.373 228.616C193.349 229.128 192.133 229.384 190.725 229.384ZM190.725 226.44C192.346 226.44 193.498 225.843 194.181 224.648C194.885 223.432 195.237 221.8 195.237 219.752V215.912C195.237 213.864 194.885 212.243 194.181 211.048C193.498 209.832 192.346 209.224 190.725 209.224C189.914 209.224 189.221 209.384 188.645 209.704C188.069 210.003 187.6 210.451 187.237 211.048C186.874 211.624 186.608 212.328 186.437 213.16C186.288 213.971 186.213 214.888 186.213 215.912V219.752C186.213 220.776 186.288 221.704 186.437 222.536C186.608 223.347 186.874 224.051 187.237 224.648C187.6 225.224 188.069 225.672 188.645 225.992C189.221 226.291 189.914 226.44 190.725 226.44ZM190.725 219.72C189.978 219.72 189.456 219.571 189.157 219.272C188.88 218.973 188.741 218.611 188.741 218.184V217.48C188.741 217.053 188.88 216.691 189.157 216.392C189.456 216.093 189.978 215.944 190.725 215.944C191.472 215.944 191.984 216.093 192.261 216.392C192.56 216.691 192.709 217.053 192.709 217.48V218.184C192.709 218.611 192.56 218.973 192.261 219.272C191.984 219.571 191.472 219.72 190.725 219.72Z" fill="#0B3420"/>
</g>
<defs>
<filter id="filter0_d_219_15126" x="288" y="181" width="66" height="67" filterUnits="userSpaceOnUse" color-interpolation-filters="sRGB">
<feFlood flood-opacity="0" result="BackgroundImageFix"/>
<feColorMatrix in="SourceAlpha" type="matrix" values="0 0 0 0 0 0 0 0 0 0 0 0 0 0 0 0 0 0 127 0" result="hardAlpha"/>
<feMorphology radius="12" operator="erode" in="SourceAlpha" result="effect1_dropShadow_219_15126"/>
<feOffset dx="9" dy="12"/>
<feGaussianBlur stdDeviation="11.5"/>
<feColorMatrix type="matrix" values="0 0 0 0 0.113722 0 0 0 0 0.0555208 0 0 0 0 0.1625 0 0 0 0.41 0"/>
<feBlend mode="normal" in2="BackgroundImageFix" result="effect1_dropShadow_219_15126"/>
<feBlend mode="normal" in="SourceGraphic" in2="effect1_dropShadow_219_15126" result="shape"/>
</filter>
<linearGradient id="paint0_linear_219_15126" x1="112.5" y1="-80.0005" x2="112.5" y2="746.499" gradientUnits="userSpaceOnUse">
<stop stop-color="#38C67D"/>
<stop offset="1" stop-color="#38C67D" stop-opacity="0"/>
</linearGradient>
<clipPath id="clip0_219_15126">
<rect width="375" height="600" fill="white"/>
</clipPath>
</defs>
</svg>
