<svg width="604" height="600" viewBox="0 0 604 600" fill="none" xmlns="http://www.w3.org/2000/svg">
<g clip-path="url(#clip0_219_2006)">
<rect width="604" height="600" rx="16" fill="#F3FAF8"/>
<circle opacity="0.4" cx="-70.1556" cy="175.116" r="292.399" transform="rotate(-28.0461 -70.1556 175.116)" stroke="#85E6B5" stroke-width="0.793991"/>
<circle opacity="0.4" cx="6.79435" cy="96.134" r="292.399" transform="rotate(-28.0461 6.79435 96.134)" stroke="#85E6B5" stroke-width="0.793991"/>
<circle opacity="0.4" cx="125.152" cy="33.0813" r="292.399" transform="rotate(-28.0461 125.152 33.0813)" stroke="#85E6B5" stroke-width="0.793991"/>
<line opacity="0.5" x1="380" y1="203" x2="462" y2="203" stroke="#38C67D" stroke-width="4" stroke-linecap="round" stroke-dasharray="8 8"/>
<path d="M-29.9821 565.665C248.183 557.557 470 403.213 470 213.999C470 213.999 470 -29.0005 614 -80.0006C745.399 -126.538 636.997 600.034 617.019 727.551C615.275 738.68 605.732 746.499 594.467 746.499H-30C-42.7025 746.499 -53 736.202 -53 723.499V588.999C-53 576.297 -42.6793 566.035 -29.9821 565.665Z" fill="url(#paint0_linear_219_2006)" fill-opacity="0.5"/>
<path d="M470 214C470 408.404 235.845 566 -53 566" stroke="#38C67D" stroke-width="8" stroke-linecap="round"/>
<g filter="url(#filter0_d_219_2006)">
<rect x="448" y="181" width="44" height="44" rx="22" fill="#38C67D"/>
<rect x="453.5" y="186.5" width="33" height="33" rx="16.5" stroke="white" stroke-width="11"/>
</g>
<rect x="142" y="152" width="236" height="102" rx="16" fill="white"/>
<path d="M167.426 176H166.193C166.12 175.645 165.993 175.334 165.81 175.065C165.631 174.797 165.413 174.571 165.154 174.389C164.899 174.204 164.616 174.064 164.304 173.972C163.992 173.879 163.668 173.832 163.33 173.832C162.713 173.832 162.155 173.988 161.654 174.3C161.157 174.611 160.761 175.07 160.466 175.677C160.174 176.283 160.028 177.027 160.028 177.909C160.028 178.791 160.174 179.535 160.466 180.141C160.761 180.748 161.157 181.207 161.654 181.518C162.155 181.83 162.713 181.986 163.33 181.986C163.668 181.986 163.992 181.939 164.304 181.847C164.616 181.754 164.899 181.616 165.154 181.434C165.413 181.248 165.631 181.021 165.81 180.753C165.993 180.481 166.12 180.17 166.193 179.818H167.426C167.333 180.339 167.164 180.804 166.919 181.215C166.674 181.626 166.369 181.976 166.004 182.264C165.64 182.549 165.23 182.766 164.776 182.915C164.326 183.065 163.843 183.139 163.33 183.139C162.461 183.139 161.689 182.927 161.013 182.503C160.337 182.079 159.805 181.475 159.417 180.693C159.029 179.911 158.835 178.983 158.835 177.909C158.835 176.835 159.029 175.907 159.417 175.125C159.805 174.343 160.337 173.74 161.013 173.315C161.689 172.891 162.461 172.679 163.33 172.679C163.843 172.679 164.326 172.754 164.776 172.903C165.23 173.052 165.64 173.271 166.004 173.559C166.369 173.844 166.674 174.192 166.919 174.603C167.164 175.011 167.333 175.476 167.426 176ZM169.259 183V175.364H170.393V176.517H170.472C170.612 176.139 170.864 175.833 171.228 175.597C171.593 175.362 172.004 175.244 172.461 175.244C172.547 175.244 172.655 175.246 172.784 175.249C172.914 175.253 173.011 175.258 173.078 175.264V176.457C173.038 176.447 172.947 176.433 172.804 176.413C172.665 176.389 172.517 176.378 172.362 176.378C171.99 176.378 171.659 176.456 171.367 176.612C171.079 176.764 170.85 176.976 170.681 177.248C170.516 177.516 170.433 177.823 170.433 178.168V183H169.259ZM177.438 183.159C176.702 183.159 176.067 182.997 175.534 182.672C175.003 182.344 174.594 181.886 174.306 181.3C174.021 180.71 173.878 180.024 173.878 179.241C173.878 178.459 174.021 177.77 174.306 177.173C174.594 176.573 174.995 176.106 175.509 175.771C176.026 175.433 176.629 175.264 177.318 175.264C177.716 175.264 178.109 175.33 178.497 175.463C178.884 175.596 179.237 175.811 179.556 176.109C179.874 176.404 180.127 176.795 180.316 177.283C180.505 177.77 180.6 178.37 180.6 179.082V179.58H174.713V178.565H179.406C179.406 178.134 179.32 177.75 179.148 177.412C178.979 177.074 178.737 176.807 178.422 176.612C178.11 176.416 177.743 176.318 177.318 176.318C176.851 176.318 176.447 176.434 176.105 176.666C175.767 176.895 175.507 177.193 175.325 177.561C175.142 177.929 175.051 178.323 175.051 178.744V179.42C175.051 179.997 175.151 180.486 175.35 180.887C175.552 181.285 175.832 181.588 176.19 181.797C176.548 182.002 176.964 182.105 177.438 182.105C177.746 182.105 178.024 182.062 178.273 181.976C178.525 181.886 178.742 181.754 178.924 181.578C179.106 181.399 179.247 181.177 179.347 180.912L180.48 181.23C180.361 181.615 180.16 181.953 179.879 182.244C179.597 182.533 179.249 182.758 178.835 182.92C178.42 183.08 177.955 183.159 177.438 183.159ZM185.268 183.159C184.632 183.159 184.07 182.998 183.583 182.677C183.095 182.352 182.714 181.895 182.439 181.305C182.164 180.711 182.026 180.01 182.026 179.202C182.026 178.4 182.164 177.704 182.439 177.114C182.714 176.524 183.097 176.068 183.588 175.746C184.078 175.425 184.645 175.264 185.288 175.264C185.785 175.264 186.178 175.347 186.466 175.513C186.758 175.675 186.98 175.861 187.132 176.07C187.288 176.275 187.409 176.444 187.495 176.577H187.595V172.818H188.768V183H187.634V181.827H187.495C187.409 181.966 187.286 182.142 187.127 182.354C186.968 182.562 186.741 182.75 186.446 182.915C186.151 183.078 185.758 183.159 185.268 183.159ZM185.427 182.105C185.898 182.105 186.295 181.982 186.62 181.737C186.945 181.489 187.192 181.146 187.361 180.708C187.53 180.267 187.615 179.759 187.615 179.182C187.615 178.612 187.532 178.113 187.366 177.685C187.2 177.254 186.955 176.92 186.63 176.681C186.305 176.439 185.904 176.318 185.427 176.318C184.93 176.318 184.516 176.446 184.184 176.701C183.856 176.953 183.609 177.296 183.443 177.73C183.281 178.161 183.2 178.645 183.2 179.182C183.2 179.725 183.283 180.219 183.448 180.663C183.617 181.104 183.866 181.455 184.194 181.717C184.526 181.976 184.936 182.105 185.427 182.105ZM191.08 183V175.364H192.253V183H191.08ZM191.676 174.091C191.448 174.091 191.25 174.013 191.085 173.857C190.922 173.701 190.841 173.514 190.841 173.295C190.841 173.077 190.922 172.889 191.085 172.734C191.25 172.578 191.448 172.5 191.676 172.5C191.905 172.5 192.101 172.578 192.263 172.734C192.429 172.889 192.512 173.077 192.512 173.295C192.512 173.514 192.429 173.701 192.263 173.857C192.101 174.013 191.905 174.091 191.676 174.091ZM197.723 175.364V176.358H193.766V175.364H197.723ZM194.919 173.534H196.092V180.812C196.092 181.144 196.14 181.393 196.237 181.558C196.336 181.721 196.462 181.83 196.614 181.886C196.77 181.939 196.934 181.966 197.107 181.966C197.236 181.966 197.342 181.959 197.425 181.946C197.508 181.929 197.574 181.916 197.624 181.906L197.862 182.96C197.783 182.99 197.672 183.02 197.529 183.05C197.387 183.083 197.206 183.099 196.987 183.099C196.656 183.099 196.331 183.028 196.013 182.886C195.698 182.743 195.436 182.526 195.227 182.234C195.022 181.943 194.919 181.575 194.919 181.131V173.534ZM204.599 172.818V183H203.425V172.818H204.599ZM206.748 183V175.364H207.921V183H206.748ZM207.344 174.091C207.116 174.091 206.918 174.013 206.753 173.857C206.59 173.701 206.509 173.514 206.509 173.295C206.509 173.077 206.59 172.889 206.753 172.734C206.918 172.578 207.116 172.5 207.344 172.5C207.573 172.5 207.769 172.578 207.931 172.734C208.097 172.889 208.18 173.077 208.18 173.295C208.18 173.514 208.097 173.701 207.931 173.857C207.769 174.013 207.573 174.091 207.344 174.091ZM210.07 183V175.364H211.203V176.557H211.303C211.462 176.149 211.719 175.833 212.074 175.607C212.428 175.379 212.854 175.264 213.351 175.264C213.855 175.264 214.274 175.379 214.609 175.607C214.947 175.833 215.211 176.149 215.4 176.557H215.479C215.675 176.162 215.968 175.849 216.359 175.617C216.75 175.382 217.219 175.264 217.766 175.264C218.449 175.264 219.007 175.478 219.441 175.906C219.876 176.33 220.093 176.991 220.093 177.889V183H218.919V177.889C218.919 177.326 218.765 176.923 218.457 176.681C218.149 176.439 217.786 176.318 217.368 176.318C216.831 176.318 216.415 176.481 216.12 176.805C215.825 177.127 215.678 177.535 215.678 178.028V183H214.485V177.77C214.485 177.336 214.344 176.986 214.062 176.721C213.78 176.452 213.417 176.318 212.973 176.318C212.668 176.318 212.383 176.399 212.118 176.562C211.856 176.724 211.644 176.95 211.482 177.238C211.323 177.523 211.243 177.853 211.243 178.227V183H210.07ZM222.238 183V175.364H223.411V183H222.238ZM222.835 174.091C222.606 174.091 222.409 174.013 222.243 173.857C222.08 173.701 221.999 173.514 221.999 173.295C221.999 173.077 222.08 172.889 222.243 172.734C222.409 172.578 222.606 172.5 222.835 172.5C223.063 172.5 223.259 172.578 223.421 172.734C223.587 172.889 223.67 173.077 223.67 173.295C223.67 173.514 223.587 173.701 223.421 173.857C223.259 174.013 223.063 174.091 222.835 174.091ZM228.881 175.364V176.358H224.924V175.364H228.881ZM226.077 173.534H227.251V180.812C227.251 181.144 227.299 181.393 227.395 181.558C227.494 181.721 227.62 181.83 227.773 181.886C227.928 181.939 228.092 181.966 228.265 181.966C228.394 181.966 228.5 181.959 228.583 181.946C228.666 181.929 228.732 181.916 228.782 181.906L229.02 182.96C228.941 182.99 228.83 183.02 228.687 183.05C228.545 183.083 228.364 183.099 228.145 183.099C227.814 183.099 227.489 183.028 227.171 182.886C226.856 182.743 226.594 182.526 226.385 182.234C226.18 181.943 226.077 181.575 226.077 181.131V173.534Z" fill="#667085"/>
<path d="M166.576 229.352C164.869 229.224 163.429 228.829 162.256 228.168C161.083 227.507 160.123 226.664 159.376 225.64L161.68 223.432C162.405 224.307 163.173 224.989 163.984 225.48C164.795 225.949 165.712 226.237 166.736 226.344V219.016L166 218.888C164.933 218.696 164.027 218.408 163.28 218.024C162.533 217.64 161.925 217.171 161.456 216.616C160.987 216.061 160.645 215.453 160.432 214.792C160.219 214.109 160.112 213.384 160.112 212.616C160.112 210.803 160.677 209.363 161.808 208.296C162.939 207.208 164.528 206.557 166.576 206.344V203.048H169.264V206.344C170.672 206.493 171.888 206.845 172.912 207.4C173.936 207.955 174.821 208.712 175.568 209.672L173.232 211.784C172.72 211.123 172.123 210.589 171.44 210.184C170.779 209.779 170 209.523 169.104 209.416V216.2L169.968 216.328C171.035 216.52 171.941 216.808 172.688 217.192C173.435 217.576 174.043 218.045 174.512 218.6C175.003 219.133 175.355 219.741 175.568 220.424C175.781 221.107 175.888 221.832 175.888 222.6C175.888 224.435 175.312 225.939 174.16 227.112C173.029 228.285 171.397 229 169.264 229.256V232.616H166.576V229.352ZM163.504 212.52C163.504 213.416 163.749 214.12 164.24 214.632C164.752 215.123 165.584 215.496 166.736 215.752V209.352C164.581 209.608 163.504 210.664 163.504 212.52ZM172.496 222.76C172.496 221.8 172.229 221.075 171.696 220.584C171.184 220.072 170.32 219.699 169.104 219.464V226.312C170.213 226.141 171.056 225.757 171.632 225.16C172.208 224.563 172.496 223.763 172.496 222.76ZM180.004 229V226.024H186.276V209.288H186.02L180.836 214.824L178.628 212.84L184.324 206.664H189.86V226.024H195.267V229H180.004ZM213.815 229H198.391V225.576L205.687 219.208C206.839 218.184 207.724 217.213 208.343 216.296C208.983 215.379 209.303 214.408 209.303 213.384V213.032C209.303 211.859 208.983 210.963 208.343 210.344C207.703 209.704 206.775 209.384 205.559 209.384C204.322 209.384 203.362 209.715 202.679 210.376C202.018 211.037 201.538 211.88 201.239 212.904L198.103 211.72C198.316 211.016 198.626 210.344 199.031 209.704C199.436 209.043 199.948 208.456 200.567 207.944C201.207 207.432 201.954 207.027 202.807 206.728C203.682 206.429 204.684 206.28 205.815 206.28C206.967 206.28 207.991 206.451 208.887 206.792C209.804 207.112 210.572 207.56 211.191 208.136C211.81 208.712 212.279 209.405 212.599 210.216C212.919 211.005 213.079 211.88 213.079 212.84C213.079 213.736 212.94 214.568 212.663 215.336C212.407 216.083 212.034 216.808 211.543 217.512C211.074 218.195 210.508 218.856 209.847 219.496C209.186 220.136 208.46 220.776 207.671 221.416L202.263 225.96H213.815V229ZM223.371 224.136H228.331L224.363 233.64H221.643L223.371 224.136ZM244.35 229.384C242.942 229.384 241.715 229.128 240.67 228.616C239.646 228.083 238.793 227.325 238.11 226.344C237.449 225.363 236.958 224.157 236.638 222.728C236.318 221.299 236.158 219.667 236.158 217.832C236.158 216.019 236.318 214.397 236.638 212.968C236.958 211.517 237.449 210.301 238.11 209.32C238.793 208.339 239.646 207.592 240.67 207.08C241.715 206.547 242.942 206.28 244.35 206.28C245.758 206.28 246.974 206.547 247.998 207.08C249.043 207.592 249.897 208.339 250.558 209.32C251.241 210.301 251.742 211.517 252.062 212.968C252.382 214.397 252.542 216.019 252.542 217.832C252.542 219.667 252.382 221.299 252.062 222.728C251.742 224.157 251.241 225.363 250.558 226.344C249.897 227.325 249.043 228.083 247.998 228.616C246.974 229.128 245.758 229.384 244.35 229.384ZM244.35 226.44C245.971 226.44 247.123 225.843 247.806 224.648C248.51 223.432 248.862 221.8 248.862 219.752V215.912C248.862 213.864 248.51 212.243 247.806 211.048C247.123 209.832 245.971 209.224 244.35 209.224C243.539 209.224 242.846 209.384 242.27 209.704C241.694 210.003 241.225 210.451 240.862 211.048C240.499 211.624 240.233 212.328 240.062 213.16C239.913 213.971 239.838 214.888 239.838 215.912V219.752C239.838 220.776 239.913 221.704 240.062 222.536C240.233 223.347 240.499 224.051 240.862 224.648C241.225 225.224 241.694 225.672 242.27 225.992C242.846 226.291 243.539 226.44 244.35 226.44ZM244.35 219.72C243.603 219.72 243.081 219.571 242.782 219.272C242.505 218.973 242.366 218.611 242.366 218.184V217.48C242.366 217.053 242.505 216.691 242.782 216.392C243.081 216.093 243.603 215.944 244.35 215.944C245.097 215.944 245.609 216.093 245.886 216.392C246.185 216.691 246.334 217.053 246.334 217.48V218.184C246.334 218.611 246.185 218.973 245.886 219.272C245.609 219.571 245.097 219.72 244.35 219.72ZM263.538 229.384C262.13 229.384 260.903 229.128 259.858 228.616C258.834 228.083 257.98 227.325 257.298 226.344C256.636 225.363 256.146 224.157 255.826 222.728C255.506 221.299 255.346 219.667 255.346 217.832C255.346 216.019 255.506 214.397 255.826 212.968C256.146 211.517 256.636 210.301 257.298 209.32C257.98 208.339 258.834 207.592 259.858 207.08C260.903 206.547 262.13 206.28 263.538 206.28C264.946 206.28 266.162 206.547 267.186 207.08C268.231 207.592 269.084 208.339 269.746 209.32C270.428 210.301 270.93 211.517 271.25 212.968C271.57 214.397 271.73 216.019 271.73 217.832C271.73 219.667 271.57 221.299 271.25 222.728C270.93 224.157 270.428 225.363 269.746 226.344C269.084 227.325 268.231 228.083 267.186 228.616C266.162 229.128 264.946 229.384 263.538 229.384ZM263.538 226.44C265.159 226.44 266.311 225.843 266.994 224.648C267.698 223.432 268.05 221.8 268.05 219.752V215.912C268.05 213.864 267.698 212.243 266.994 211.048C266.311 209.832 265.159 209.224 263.538 209.224C262.727 209.224 262.034 209.384 261.458 209.704C260.882 210.003 260.412 210.451 260.05 211.048C259.687 211.624 259.42 212.328 259.25 213.16C259.1 213.971 259.026 214.888 259.026 215.912V219.752C259.026 220.776 259.1 221.704 259.25 222.536C259.42 223.347 259.687 224.051 260.05 224.648C260.412 225.224 260.882 225.672 261.458 225.992C262.034 226.291 262.727 226.44 263.538 226.44ZM263.538 219.72C262.791 219.72 262.268 219.571 261.97 219.272C261.692 218.973 261.554 218.611 261.554 218.184V217.48C261.554 217.053 261.692 216.691 261.97 216.392C262.268 216.093 262.791 215.944 263.538 215.944C264.284 215.944 264.796 216.093 265.074 216.392C265.372 216.691 265.522 217.053 265.522 217.48V218.184C265.522 218.611 265.372 218.973 265.074 219.272C264.796 219.571 264.284 219.72 263.538 219.72ZM282.725 229.384C281.317 229.384 280.09 229.128 279.045 228.616C278.021 228.083 277.168 227.325 276.485 226.344C275.824 225.363 275.333 224.157 275.013 222.728C274.693 221.299 274.533 219.667 274.533 217.832C274.533 216.019 274.693 214.397 275.013 212.968C275.333 211.517 275.824 210.301 276.485 209.32C277.168 208.339 278.021 207.592 279.045 207.08C280.09 206.547 281.317 206.28 282.725 206.28C284.133 206.28 285.349 206.547 286.373 207.08C287.418 207.592 288.272 208.339 288.933 209.32C289.616 210.301 290.117 211.517 290.437 212.968C290.757 214.397 290.917 216.019 290.917 217.832C290.917 219.667 290.757 221.299 290.437 222.728C290.117 224.157 289.616 225.363 288.933 226.344C288.272 227.325 287.418 228.083 286.373 228.616C285.349 229.128 284.133 229.384 282.725 229.384ZM282.725 226.44C284.346 226.44 285.498 225.843 286.181 224.648C286.885 223.432 287.237 221.8 287.237 219.752V215.912C287.237 213.864 286.885 212.243 286.181 211.048C285.498 209.832 284.346 209.224 282.725 209.224C281.914 209.224 281.221 209.384 280.645 209.704C280.069 210.003 279.6 210.451 279.237 211.048C278.874 211.624 278.608 212.328 278.437 213.16C278.288 213.971 278.213 214.888 278.213 215.912V219.752C278.213 220.776 278.288 221.704 278.437 222.536C278.608 223.347 278.874 224.051 279.237 224.648C279.6 225.224 280.069 225.672 280.645 225.992C281.221 226.291 281.914 226.44 282.725 226.44ZM282.725 219.72C281.978 219.72 281.456 219.571 281.157 219.272C280.88 218.973 280.741 218.611 280.741 218.184V217.48C280.741 217.053 280.88 216.691 281.157 216.392C281.456 216.093 281.978 215.944 282.725 215.944C283.472 215.944 283.984 216.093 284.261 216.392C284.56 216.691 284.709 217.053 284.709 217.48V218.184C284.709 218.611 284.56 218.973 284.261 219.272C283.984 219.571 283.472 219.72 282.725 219.72Z" fill="#0B3420"/>
</g>
<defs>
<filter id="filter0_d_219_2006" x="446" y="181" width="66" height="67" filterUnits="userSpaceOnUse" color-interpolation-filters="sRGB">
<feFlood flood-opacity="0" result="BackgroundImageFix"/>
<feColorMatrix in="SourceAlpha" type="matrix" values="0 0 0 0 0 0 0 0 0 0 0 0 0 0 0 0 0 0 127 0" result="hardAlpha"/>
<feMorphology radius="12" operator="erode" in="SourceAlpha" result="effect1_dropShadow_219_2006"/>
<feOffset dx="9" dy="12"/>
<feGaussianBlur stdDeviation="11.5"/>
<feColorMatrix type="matrix" values="0 0 0 0 0.113722 0 0 0 0 0.0555208 0 0 0 0 0.1625 0 0 0 0.41 0"/>
<feBlend mode="normal" in2="BackgroundImageFix" result="effect1_dropShadow_219_2006"/>
<feBlend mode="normal" in="SourceGraphic" in2="effect1_dropShadow_219_2006" result="shape"/>
</filter>
<linearGradient id="paint0_linear_219_2006" x1="270.5" y1="-80.0005" x2="270.5" y2="746.499" gradientUnits="userSpaceOnUse">
<stop stop-color="#38C67D"/>
<stop offset="1" stop-color="#38C67D" stop-opacity="0"/>
</linearGradient>
<clipPath id="clip0_219_2006">
<rect width="604" height="600" rx="16" fill="white"/>
</clipPath>
</defs>
</svg>
