<svg width="58" height="60" viewBox="0 0 58 60" fill="none" xmlns="http://www.w3.org/2000/svg">
<rect x="6" y="6" width="45.9619" height="47.7107" rx="22.9809" fill="#4DDD96"/>
<path d="M35.8664 34L34.9897 33.5189L35.8664 34ZM22.0884 34L21.2118 34.4811L22.0884 34ZM20.0026 26.2087L19.0039 26.2591L20.0026 26.2087ZM34.2324 36.2795L34.9885 36.9339H34.9885L34.2324 36.2795ZM23.7225 36.2795L24.4786 35.625L23.7225 36.2795ZM37.9603 25.6369L38.9596 25.6752L37.9603 25.6369ZM25.9774 29C25.4251 29 24.9774 29.4477 24.9774 30C24.9774 30.5523 25.4251 31 25.9774 31V29ZM31.9774 31C32.5297 31 32.9774 30.5523 32.9774 30C32.9774 29.4477 32.5297 29 31.9774 29V31ZM27.9774 33C27.9774 33.5523 28.4251 34 28.9774 34C29.5297 34 29.9774 33.5523 29.9774 33H27.9774ZM29.9774 27C29.9774 26.4477 29.5297 26 28.9774 26C28.4251 26 27.9774 26.4477 27.9774 27H29.9774ZM36.9611 25.5986C36.8826 27.6473 36.4828 30.7979 34.9897 33.5189L36.7431 34.4811C38.4536 31.3638 38.8762 27.8523 38.9596 25.6752L36.9611 25.5986ZM34.9897 33.5189C34.612 34.2073 34.0853 34.9215 33.4763 35.625L34.9885 36.9339C35.6544 36.1646 36.2756 35.3331 36.7431 34.4811L34.9897 33.5189ZM24.4786 35.625C23.8696 34.9215 23.3428 34.2073 22.9651 33.5189L21.2118 34.4811C21.6793 35.3331 22.3005 36.1646 22.9664 36.9339L24.4786 35.625ZM22.9651 33.5189C21.5118 30.8703 21.0958 28.0289 21.0014 26.1582L19.0039 26.2591C19.1065 28.2901 19.5575 31.4663 21.2118 34.4811L22.9651 33.5189ZM22.1481 25.0833H22.4569V23.0833H22.1481V25.0833ZM35.2063 24.5H35.7956V22.5H35.2063V24.5ZM32.4563 21.75C32.4563 23.2688 33.6875 24.5 35.2063 24.5V22.5C34.7921 22.5 34.4563 22.1642 34.4563 21.75H32.4563ZM22.4569 25.0833C24.1368 25.0833 25.4986 23.7215 25.4986 22.0417H23.4986C23.4986 22.617 23.0322 23.0833 22.4569 23.0833V25.0833ZM26.5403 19C24.8604 19 23.4986 20.3618 23.4986 22.0417H25.4986C25.4986 21.4664 25.965 21 26.5403 21V19ZM21.0014 26.1582C20.9733 25.6013 21.4306 25.0833 22.1481 25.0833V23.0833C20.4494 23.0833 18.9102 24.4029 19.0039 26.2591L21.0014 26.1582ZM33.4763 35.625C32.4595 36.7998 31.7975 37.556 31.1284 38.0462C30.5252 38.4881 29.915 38.7107 28.9774 38.7107V40.7107C30.325 40.7107 31.3523 40.3615 32.3103 39.6596C33.2025 39.006 34.0254 38.0466 34.9885 36.9339L33.4763 35.625ZM22.9664 36.9339C23.9294 38.0466 24.7524 39.006 25.6445 39.6596C26.6026 40.3615 27.6299 40.7107 28.9774 40.7107V38.7107C28.0399 38.7107 27.4297 38.4881 26.8265 38.0462C26.1574 37.556 25.4954 36.7998 24.4786 35.625L22.9664 36.9339ZM31.7063 21C32.1205 21 32.4563 21.3358 32.4563 21.75H34.4563C34.4563 20.2312 33.2251 19 31.7063 19V21ZM38.9596 25.6752C39.0303 23.8311 37.505 22.5 35.7956 22.5V24.5C36.5087 24.5 36.9832 25.022 36.9611 25.5986L38.9596 25.6752ZM25.9774 31H31.9774V29H25.9774V31ZM26.5403 21H31.7063V19H26.5403V21ZM29.9774 33V30H27.9774V33H29.9774ZM29.9774 30V27H27.9774V30H29.9774Z" fill="#FAFAFA"/>
<rect x="6" y="6" width="45.9619" height="47.7107" rx="22.9809" stroke="#EAF7F4" stroke-width="12"/>
</svg>
