<svg width="557" height="600" viewBox="0 0 557 600" fill="none" xmlns="http://www.w3.org/2000/svg">
<g clip-path="url(#clip0_219_1121)">
<path d="M394.5 300.5L404.254 294.877C471.459 256.14 521.046 192.877 542.61 118.364L565 41" stroke="#4DDD96" stroke-linecap="round"/>
<path d="M394.5 300V300C463.382 343.658 515.084 409.752 540.873 487.119L565 559.5" stroke="#4DDD96" stroke-linecap="round"/>
<path d="M394.5 300.5V300.5C473.325 287.362 547.793 255.32 611.53 207.116L633.5 190.5" stroke="#4DDD96" stroke-linecap="round"/>
<path d="M394.5 300.5V300.5C474.515 312.961 550.04 345.587 613.962 395.304L633.5 410.5" stroke="#4DDD96" stroke-linecap="round"/>
<path d="M163 300.5L153.246 294.877C86.0413 256.14 36.4539 192.877 14.8897 118.364L-7.5 41" stroke="#4DDD96" stroke-linecap="round"/>
<path d="M163 300V300C94.1181 343.658 42.416 409.752 16.6271 487.119L-7.5 559.5" stroke="#4DDD96" stroke-linecap="round"/>
<path d="M163 300.5V300.5C84.1748 287.362 9.70677 255.32 -54.0299 207.116L-76 190.5" stroke="#4DDD96" stroke-linecap="round"/>
<path d="M163 300.5V300.5C82.985 312.961 7.45952 345.587 -56.4618 395.304L-76 410.5" stroke="#4DDD96" stroke-linecap="round"/>
<g filter="url(#filter0_d_219_1121)">
<rect x="166.294" y="246.258" width="227.046" height="107.704" rx="24.568" fill="white"/>
<path d="M210.019 311.623L215.774 305.868C216.622 305.02 217.047 304.595 217.194 304.095C217.324 303.654 217.307 303.175 217.147 302.725C216.966 302.213 216.512 301.759 215.604 300.851L204.581 289.828C203.674 288.921 203.22 288.467 202.708 288.285C202.258 288.125 201.778 288.109 201.338 288.238C200.837 288.386 200.413 288.81 199.565 289.658L193.809 295.414C192.961 296.262 192.537 296.686 192.389 297.187C192.26 297.627 192.276 298.107 192.436 298.557C192.617 299.069 193.071 299.523 193.979 300.431L205.002 311.453C205.909 312.361 206.363 312.815 206.875 312.997C207.325 313.157 207.805 313.173 208.246 313.043C208.746 312.896 209.17 312.472 210.019 311.623Z" stroke="#4DDD96" stroke-width="1.04775" stroke-linecap="round" stroke-linejoin="round"/>
<path d="M199.512 305.834L205.268 311.589C206.116 312.437 206.54 312.862 207.041 313.009C207.481 313.139 207.96 313.123 208.409 312.964C208.92 312.783 209.373 312.33 210.279 311.425L221.278 300.426C222.184 299.52 222.637 299.067 222.818 298.556C222.977 298.106 222.993 297.627 222.863 297.187C222.715 296.687 222.291 296.263 221.443 295.414L215.687 289.659C214.839 288.81 214.415 288.386 213.914 288.239C213.474 288.109 212.995 288.124 212.546 288.284C212.035 288.464 211.582 288.917 210.676 289.823L199.677 300.822C198.771 301.728 198.318 302.181 198.137 302.692C197.978 303.142 197.962 303.621 198.092 304.061C198.24 304.561 198.664 304.985 199.512 305.834Z" fill="#4DDD96" stroke="#4DDD96" stroke-width="1.04775" stroke-linecap="round" stroke-linejoin="round"/>
<path d="M240.894 309.411C238.748 309.411 237.147 308.632 236.091 307.073C235.052 305.513 234.532 303.267 234.532 300.333C234.532 297.4 235.052 295.153 236.091 293.594C237.147 292.035 238.748 291.256 240.894 291.256C241.699 291.256 242.395 291.365 242.981 291.583C243.568 291.8 244.071 292.094 244.49 292.463C244.909 292.831 245.261 293.251 245.546 293.72C245.831 294.173 246.083 294.634 246.301 295.103L244.49 295.933C244.339 295.547 244.163 295.187 243.962 294.852C243.761 294.499 243.518 294.198 243.233 293.946C242.965 293.678 242.638 293.469 242.252 293.318C241.883 293.167 241.431 293.091 240.894 293.091C239.503 293.091 238.463 293.619 237.776 294.676C237.105 295.732 236.77 297.14 236.77 298.9V301.767C236.77 303.527 237.105 304.935 237.776 305.991C238.463 307.047 239.503 307.575 240.894 307.575C241.431 307.575 241.883 307.5 242.252 307.349C242.638 307.198 242.965 306.997 243.233 306.746C243.518 306.477 243.761 306.176 243.962 305.84C244.163 305.488 244.339 305.12 244.49 304.734L246.301 305.564C246.083 306.05 245.831 306.519 245.546 306.972C245.261 307.425 244.909 307.835 244.49 308.204C244.071 308.573 243.568 308.866 242.981 309.084C242.395 309.302 241.699 309.411 240.894 309.411ZM249.861 307.399H254.388V292.211H249.861V290.501H256.399V307.399H260.926V309.109H249.861V307.399ZM270.698 309.411C269.759 309.411 268.912 309.252 268.158 308.933C267.42 308.615 266.783 308.162 266.247 307.575C265.727 306.972 265.325 306.259 265.04 305.438C264.755 304.6 264.612 303.669 264.612 302.647C264.612 301.607 264.755 300.669 265.04 299.83C265.342 298.992 265.752 298.28 266.272 297.693C266.792 297.09 267.412 296.629 268.133 296.31C268.871 295.991 269.684 295.832 270.572 295.832C271.444 295.832 272.232 295.991 272.936 296.31C273.657 296.629 274.269 297.073 274.771 297.643C275.274 298.196 275.66 298.858 275.928 299.629C276.196 300.4 276.331 301.247 276.331 302.169V303.125H266.725V303.728C266.725 304.298 266.817 304.826 267.001 305.312C267.186 305.798 267.446 306.218 267.781 306.57C268.133 306.922 268.552 307.198 269.038 307.399C269.541 307.584 270.094 307.676 270.698 307.676C271.57 307.676 272.324 307.475 272.961 307.073C273.598 306.67 274.084 306.117 274.419 305.413L275.903 306.419C275.517 307.29 274.872 308.011 273.967 308.581C273.078 309.135 271.989 309.411 270.698 309.411ZM270.572 297.492C270.019 297.492 269.508 297.592 269.038 297.794C268.569 297.995 268.158 298.271 267.806 298.623C267.471 298.975 267.202 299.395 267.001 299.881C266.817 300.35 266.725 300.87 266.725 301.44V301.616H274.168V301.339C274.168 300.769 274.076 300.25 273.891 299.78C273.724 299.311 273.481 298.908 273.162 298.573C272.86 298.221 272.483 297.953 272.031 297.768C271.595 297.584 271.109 297.492 270.572 297.492ZM284.267 309.109L279.615 296.134H281.652L283.512 301.566L285.524 307.425H285.625L287.636 301.566L289.497 296.134H291.484L286.832 309.109H284.267ZM295.02 307.399H298.817V297.844H295.02V296.134H300.828V299.403H300.954C301.222 298.38 301.725 297.584 302.463 297.014C303.217 296.427 304.173 296.134 305.329 296.134H307.14V298.146H304.701C303.544 298.146 302.605 298.481 301.884 299.152C301.18 299.822 300.828 300.702 300.828 301.792V307.399H305.858V309.109H295.02V307.399ZM316.283 309.411C314.138 309.411 312.537 308.632 311.48 307.073C310.441 305.513 309.921 303.267 309.921 300.333C309.921 297.4 310.441 295.153 311.48 293.594C312.537 292.035 314.138 291.256 316.283 291.256C317.088 291.256 317.784 291.365 318.37 291.583C318.957 291.8 319.46 292.094 319.879 292.463C320.298 292.831 320.65 293.251 320.935 293.72C321.22 294.173 321.472 294.634 321.69 295.103L319.879 295.933C319.728 295.547 319.552 295.187 319.351 294.852C319.15 294.499 318.907 294.198 318.622 293.946C318.354 293.678 318.027 293.469 317.641 293.318C317.272 293.167 316.82 293.091 316.283 293.091C314.892 293.091 313.853 293.619 313.165 294.676C312.495 295.732 312.159 297.14 312.159 298.9V301.767C312.159 303.527 312.495 304.935 313.165 305.991C313.853 307.047 314.892 307.575 316.283 307.575C316.82 307.575 317.272 307.5 317.641 307.349C318.027 307.198 318.354 306.997 318.622 306.746C318.907 306.477 319.15 306.176 319.351 305.84C319.552 305.488 319.728 305.12 319.879 304.734L321.69 305.564C321.472 306.05 321.22 306.519 320.935 306.972C320.65 307.425 320.298 307.835 319.879 308.204C319.46 308.573 318.957 308.866 318.37 309.084C317.784 309.302 317.088 309.411 316.283 309.411ZM335.686 309.109C334.898 309.109 334.337 308.908 334.002 308.506C333.666 308.104 333.457 307.601 333.373 306.997H333.247C332.962 307.751 332.501 308.347 331.864 308.782C331.244 309.202 330.406 309.411 329.349 309.411C327.992 309.411 326.91 309.059 326.106 308.355C325.301 307.651 324.899 306.687 324.899 305.463C324.899 304.256 325.334 303.326 326.206 302.672C327.095 302.018 328.52 301.691 330.481 301.691H333.247V300.409C333.247 299.453 332.979 298.741 332.442 298.271C331.906 297.785 331.143 297.542 330.154 297.542C329.282 297.542 328.57 297.718 328.017 298.07C327.464 298.406 327.019 298.867 326.684 299.453L325.326 298.447C325.494 298.112 325.72 297.785 326.005 297.467C326.29 297.148 326.642 296.872 327.061 296.637C327.48 296.385 327.958 296.193 328.495 296.059C329.031 295.908 329.626 295.832 330.28 295.832C331.805 295.832 333.012 296.218 333.901 296.989C334.806 297.76 335.259 298.833 335.259 300.208V307.349H337.069V309.109H335.686ZM329.702 307.726C330.221 307.726 330.691 307.668 331.11 307.55C331.546 307.416 331.923 307.249 332.241 307.047C332.56 306.829 332.803 306.578 332.971 306.293C333.155 305.991 333.247 305.673 333.247 305.337V303.2H330.481C329.274 303.2 328.394 303.368 327.841 303.703C327.288 304.038 327.011 304.524 327.011 305.161V305.69C327.011 306.36 327.246 306.871 327.715 307.223C328.201 307.559 328.863 307.726 329.702 307.726ZM340.253 307.399H344.05V297.844H340.253V296.134H346.062V299.403H346.188C346.456 298.38 346.959 297.584 347.696 297.014C348.451 296.427 349.406 296.134 350.563 296.134H352.373V298.146H349.934C348.778 298.146 347.839 298.481 347.118 299.152C346.414 299.822 346.062 300.702 346.062 301.792V307.399H351.091V309.109H340.253V307.399ZM364.082 306.997H363.981C363.143 308.606 361.81 309.411 359.983 309.411C358.39 309.411 357.141 308.816 356.236 307.626C355.348 306.436 354.903 304.767 354.903 302.622C354.903 300.476 355.348 298.808 356.236 297.618C357.141 296.427 358.39 295.832 359.983 295.832C361.81 295.832 363.143 296.637 363.981 298.246H364.082V290.501H366.093V309.109H364.082V306.997ZM360.762 307.626C361.215 307.626 361.643 307.567 362.045 307.45C362.447 307.332 362.799 307.165 363.101 306.947C363.403 306.712 363.638 306.436 363.805 306.117C363.99 305.782 364.082 305.396 364.082 304.96V300.283C364.082 299.847 363.99 299.47 363.805 299.152C363.638 298.816 363.403 298.54 363.101 298.322C362.799 298.087 362.447 297.911 362.045 297.794C361.643 297.676 361.215 297.618 360.762 297.618C359.589 297.618 358.675 297.978 358.022 298.699C357.385 299.403 357.066 300.342 357.066 301.515V303.728C357.066 304.902 357.385 305.849 358.022 306.57C358.675 307.274 359.589 307.626 360.762 307.626Z" fill="#137746"/>
<rect x="155.75" y="291.75" width="16.5" height="16.5" rx="8.25" fill="#4DDD96"/>
<rect x="155.75" y="291.75" width="16.5" height="16.5" rx="8.25" stroke="white" stroke-width="5.5"/>
</g>
<rect x="384.75" y="292.75" width="16.5" height="16.5" rx="8.25" fill="#4DDD96"/>
<rect x="384.75" y="292.75" width="16.5" height="16.5" rx="8.25" stroke="white" stroke-width="5.5"/>
<path d="M216.095 424L214.612 418.996H208.451L206.967 424H204.78L210.161 406.448H212.952L218.333 424H216.095ZM211.644 408.686H211.418L208.954 417.16H214.109L211.644 408.686ZM221.09 422.29H225.616V407.102H221.09V405.392H227.628V422.29H232.154V424H221.09V422.29ZM236.167 422.29H240.694V407.102H236.167V405.392H242.705V422.29H247.232V424H236.167V422.29ZM253.131 417.412V415.299H260.424V417.412H253.131ZM272.66 408.158C272.073 408.158 271.662 408.041 271.428 407.806C271.193 407.554 271.076 407.244 271.076 406.876V406.473C271.076 406.104 271.193 405.803 271.428 405.568C271.662 405.316 272.073 405.191 272.66 405.191C273.247 405.191 273.657 405.316 273.892 405.568C274.127 405.803 274.244 406.104 274.244 406.473V406.876C274.244 407.244 274.127 407.554 273.892 407.806C273.657 408.041 273.247 408.158 272.66 408.158ZM266.977 422.29H271.654V412.735H266.977V411.025H273.666V422.29H278.041V424H266.977V422.29ZM281.854 424V411.025H283.865V413.137H283.966C284.1 412.818 284.268 412.517 284.469 412.232C284.67 411.93 284.913 411.67 285.198 411.452C285.5 411.234 285.852 411.058 286.254 410.924C286.656 410.79 287.126 410.723 287.662 410.723C289.02 410.723 290.11 411.159 290.931 412.03C291.753 412.885 292.163 414.101 292.163 415.677V424H290.152V416.029C290.152 414.838 289.892 413.958 289.372 413.388C288.852 412.802 288.09 412.508 287.084 412.508C286.682 412.508 286.288 412.559 285.902 412.659C285.516 412.76 285.173 412.911 284.871 413.112C284.569 413.313 284.326 413.573 284.142 413.891C283.957 414.21 283.865 414.579 283.865 414.998V424H281.854ZM298.365 417.412V415.299H305.657V417.412H298.365ZM317.089 424.302C316.016 424.302 315.094 424.101 314.323 423.698C313.551 423.279 312.914 422.684 312.412 421.913C311.909 421.142 311.54 420.195 311.305 419.071C311.07 417.948 310.953 416.666 310.953 415.224C310.953 413.799 311.07 412.525 311.305 411.402C311.54 410.262 311.909 409.306 312.412 408.535C312.914 407.764 313.551 407.177 314.323 406.775C315.094 406.356 316.016 406.146 317.089 406.146C318.162 406.146 319.084 406.356 319.855 406.775C320.626 407.177 321.263 407.764 321.766 408.535C322.269 409.306 322.638 410.262 322.872 411.402C323.107 412.525 323.224 413.799 323.224 415.224C323.224 416.666 323.107 417.948 322.872 419.071C322.638 420.195 322.269 421.142 321.766 421.913C321.263 422.684 320.626 423.279 319.855 423.698C319.084 424.101 318.162 424.302 317.089 424.302ZM317.089 422.466C317.793 422.466 318.388 422.332 318.874 422.064C319.36 421.779 319.763 421.385 320.081 420.882C320.4 420.379 320.626 419.775 320.76 419.071C320.911 418.351 320.986 417.546 320.986 416.657V413.791C320.986 412.919 320.911 412.123 320.76 411.402C320.626 410.681 320.4 410.069 320.081 409.566C319.763 409.063 319.36 408.678 318.874 408.409C318.388 408.124 317.793 407.982 317.089 407.982C316.385 407.982 315.789 408.124 315.303 408.409C314.817 408.678 314.415 409.063 314.096 409.566C313.778 410.069 313.543 410.681 313.392 411.402C313.258 412.123 313.191 412.919 313.191 413.791V416.657C313.191 417.546 313.258 418.351 313.392 419.071C313.543 419.775 313.778 420.379 314.096 420.882C314.415 421.385 314.817 421.779 315.303 422.064C315.789 422.332 316.385 422.466 317.089 422.466ZM327.087 424V411.025H329.099V413.137H329.199C329.333 412.818 329.501 412.517 329.702 412.232C329.903 411.93 330.146 411.67 330.431 411.452C330.733 411.234 331.085 411.058 331.488 410.924C331.89 410.79 332.359 410.723 332.896 410.723C334.254 410.723 335.343 411.159 336.165 412.03C336.986 412.885 337.397 414.101 337.397 415.677V424H335.385V416.029C335.385 414.838 335.125 413.958 334.606 413.388C334.086 412.802 333.323 412.508 332.317 412.508C331.915 412.508 331.521 412.559 331.136 412.659C330.75 412.76 330.406 412.911 330.105 413.112C329.803 413.313 329.56 413.573 329.375 413.891C329.191 414.21 329.099 414.579 329.099 414.998V424H327.087ZM347.471 424.302C346.532 424.302 345.685 424.142 344.931 423.824C344.193 423.505 343.556 423.053 343.02 422.466C342.5 421.863 342.098 421.15 341.813 420.329C341.528 419.49 341.385 418.56 341.385 417.537C341.385 416.498 341.528 415.559 341.813 414.721C342.115 413.883 342.525 413.17 343.045 412.584C343.565 411.98 344.185 411.519 344.906 411.201C345.643 410.882 346.456 410.723 347.345 410.723C348.217 410.723 349.005 410.882 349.709 411.201C350.43 411.519 351.041 411.963 351.544 412.533C352.047 413.087 352.433 413.749 352.701 414.52C352.969 415.291 353.103 416.138 353.103 417.06V418.015H343.498V418.619C343.498 419.189 343.59 419.717 343.774 420.203C343.959 420.689 344.218 421.108 344.554 421.46C344.906 421.812 345.325 422.089 345.811 422.29C346.314 422.474 346.867 422.567 347.471 422.567C348.342 422.567 349.097 422.366 349.734 421.963C350.371 421.561 350.857 421.008 351.192 420.304L352.676 421.309C352.29 422.181 351.645 422.902 350.74 423.472C349.851 424.025 348.762 424.302 347.471 424.302ZM347.345 412.383C346.792 412.383 346.28 412.483 345.811 412.684C345.342 412.885 344.931 413.162 344.579 413.514C344.244 413.866 343.975 414.285 343.774 414.771C343.59 415.241 343.498 415.76 343.498 416.33V416.506H350.941V416.23C350.941 415.66 350.849 415.14 350.664 414.671C350.497 414.201 350.254 413.799 349.935 413.464C349.633 413.112 349.256 412.844 348.803 412.659C348.368 412.475 347.881 412.383 347.345 412.383Z" fill="#0B3420"/>
</g>
<defs>
<filter id="filter0_d_219_1121" x="149.929" y="246.258" width="274.121" height="143.02" filterUnits="userSpaceOnUse" color-interpolation-filters="sRGB">
<feFlood flood-opacity="0" result="BackgroundImageFix"/>
<feColorMatrix in="SourceAlpha" type="matrix" values="0 0 0 0 0 0 0 0 0 0 0 0 0 0 0 0 0 0 127 0" result="hardAlpha"/>
<feMorphology radius="18.426" operator="erode" in="SourceAlpha" result="effect1_dropShadow_219_1121"/>
<feOffset dx="13.8195" dy="18.426"/>
<feGaussianBlur stdDeviation="17.6583"/>
<feColorMatrix type="matrix" values="0 0 0 0 0.113722 0 0 0 0 0.0555208 0 0 0 0 0.1625 0 0 0 0.1 0"/>
<feBlend mode="normal" in2="BackgroundImageFix" result="effect1_dropShadow_219_1121"/>
<feBlend mode="normal" in="SourceGraphic" in2="effect1_dropShadow_219_1121" result="shape"/>
</filter>
<clipPath id="clip0_219_1121">
<rect width="557" height="600" fill="white"/>
</clipPath>
</defs>
</svg>
