<svg width="60" height="60" viewBox="0 0 60 60" fill="none" xmlns="http://www.w3.org/2000/svg">
<rect x="10" y="10" width="40" height="40" rx="20" fill="#31974E" fill-opacity="0.14"/>
<path d="M33.5455 27.9254C33.9195 27.261 34.2313 26.6615 34.4236 26.2052C35.3573 23.9895 34.434 21.4408 32.1769 20.4011C29.9199 19.3615 27.6534 20.4395 26.6587 22.5209C24.7566 21.2157 22.2192 21.4074 20.8199 23.4442C19.4206 25.4811 19.8598 28.142 21.7763 29.594C22.6461 30.253 24.3664 31.2242 25.986 32.0884M34.2972 29.7499C33.8751 27.482 31.9454 25.8233 29.5156 26.2742C27.0859 26.725 25.5149 28.9171 25.8433 31.299C26.1072 33.2127 27.5639 37.7027 28.1264 39.394C28.2032 39.6248 28.2415 39.7402 28.3175 39.8206C28.3837 39.8907 28.4717 39.9416 28.5655 39.9638C28.6732 39.9894 28.7923 39.9649 29.0306 39.916C30.7765 39.5575 35.3933 38.574 37.1826 37.8457C39.4096 36.9392 40.5589 34.4841 39.6981 32.153C38.8372 29.8219 36.4723 28.9815 34.2972 29.7499Z" stroke="#288041" stroke-width="2" stroke-linecap="round" stroke-linejoin="round"/>
<rect x="5" y="5" width="50" height="50" rx="25" stroke="#31974E" stroke-opacity="0.1" stroke-width="10"/>
</svg>
